%TF.GenerationSoftware,KiCad,Pcbnew,5.1.6*%
%TF.CreationDate,2020-09-21T03:48:32+02:00*%
%TF.ProjectId,Arduino_CPU_Board,41726475-696e-46f5-9f43-50555f426f61,rev?*%
%TF.SameCoordinates,Original*%
%TF.FileFunction,Copper,L2,Bot*%
%TF.FilePolarity,Positive*%
%FSLAX46Y46*%
G04 Gerber Fmt 4.6, Leading zero omitted, Abs format (unit mm)*
G04 Created by KiCad (PCBNEW 5.1.6) date 2020-09-21 03:48:32*
%MOMM*%
%LPD*%
G01*
G04 APERTURE LIST*
%TA.AperFunction,ComponentPad*%
%ADD10O,1.700000X1.700000*%
%TD*%
%TA.AperFunction,ComponentPad*%
%ADD11R,1.700000X1.700000*%
%TD*%
%TA.AperFunction,ViaPad*%
%ADD12C,0.800000*%
%TD*%
%TA.AperFunction,Conductor*%
%ADD13C,0.250000*%
%TD*%
%TA.AperFunction,Conductor*%
%ADD14C,0.500000*%
%TD*%
%TA.AperFunction,Conductor*%
%ADD15C,0.254000*%
%TD*%
G04 APERTURE END LIST*
D10*
%TO.P,J3,4*%
%TO.N,I2C_SDA*%
X124120000Y-78000000D03*
%TO.P,J3,3*%
%TO.N,I2C_SCL*%
X121580000Y-78000000D03*
%TO.P,J3,2*%
%TO.N,+3V3*%
X119040000Y-78000000D03*
D11*
%TO.P,J3,1*%
%TO.N,GND*%
X116500000Y-78000000D03*
%TD*%
D10*
%TO.P,Switch,4*%
%TO.N,Net-(Q1-Pad3)*%
X141460000Y-98540000D03*
%TO.P,Switch,3*%
%TO.N,GND*%
X141460000Y-96000000D03*
%TO.P,Switch,2*%
%TO.N,+3V3*%
X144000000Y-98540000D03*
D11*
%TO.P,Switch,1*%
%TO.N,INTERRUPT*%
X144000000Y-96000000D03*
%TD*%
D10*
%TO.P,J7,6*%
%TO.N,GND*%
X122080000Y-109460000D03*
%TO.P,J7,5*%
%TO.N,ICSP_RESET*%
X122080000Y-112000000D03*
%TO.P,J7,4*%
%TO.N,ICSP_MOSI*%
X119540000Y-109460000D03*
%TO.P,J7,3*%
%TO.N,ICSP_SCK*%
X119540000Y-112000000D03*
%TO.P,J7,2*%
%TO.N,+3V3*%
X117000000Y-109460000D03*
D11*
%TO.P,J7,1*%
%TO.N,ICSP_MISO*%
X117000000Y-112000000D03*
%TD*%
D10*
%TO.P,J6,4*%
%TO.N,I2C_SDA*%
X137620000Y-78000000D03*
%TO.P,J6,3*%
%TO.N,I2C_SCL*%
X135080000Y-78000000D03*
%TO.P,J6,2*%
%TO.N,+3V3*%
X132540000Y-78000000D03*
D11*
%TO.P,J6,1*%
%TO.N,GND*%
X130000000Y-78000000D03*
%TD*%
D10*
%TO.P,J5,2*%
%TO.N,LED_DRIVER_PWM*%
X110000000Y-101960000D03*
D11*
%TO.P,J5,1*%
%TO.N,GND*%
X110000000Y-104500000D03*
%TD*%
D10*
%TO.P,J2,6*%
%TO.N,DTR*%
X124200000Y-84000000D03*
%TO.P,J2,5*%
%TO.N,FTDI_RXI*%
X121660000Y-84000000D03*
%TO.P,J2,4*%
%TO.N,FTDI_TXO*%
X119120000Y-84000000D03*
%TO.P,J2,3*%
%TO.N,+3V3*%
X116580000Y-84000000D03*
%TO.P,J2,2*%
%TO.N,GND*%
X114040000Y-84000000D03*
D11*
%TO.P,J2,1*%
X111500000Y-84000000D03*
%TD*%
D10*
%TO.P,J1,2*%
%TO.N,BAT_VOLTAGE*%
X143500000Y-84960000D03*
D11*
%TO.P,J1,1*%
%TO.N,GND*%
X143500000Y-87500000D03*
%TD*%
D12*
%TO.N,BAT_VOLTAGE*%
X136500000Y-99500000D03*
X137000000Y-93500000D03*
X134650000Y-97500000D03*
%TO.N,GND*%
X134967342Y-92879679D03*
X133500000Y-96000000D03*
X116500000Y-87500000D03*
X128500000Y-81000000D03*
X109500000Y-91500000D03*
X116000000Y-95000000D03*
X123500000Y-105500000D03*
X119500000Y-98000000D03*
X140000000Y-105500000D03*
X127000000Y-96000000D03*
X129524990Y-99000000D03*
%TO.N,Net-(C2-Pad1)*%
X122000000Y-100806479D03*
X122000000Y-103000000D03*
%TO.N,+3V3*%
X116000000Y-107000000D03*
X120500000Y-105500000D03*
X126500000Y-81000000D03*
X122000000Y-81000000D03*
%TO.N,ICSP_RESET*%
X125000000Y-104500000D03*
X120000000Y-97000000D03*
%TO.N,DTR*%
X125000000Y-103000000D03*
X124299999Y-100000000D03*
X125000000Y-86500000D03*
%TO.N,FTDI_RXI*%
X119500000Y-89500000D03*
%TO.N,BAT_EN*%
X123252604Y-93752604D03*
X126500000Y-93000000D03*
%TO.N,INTERRUPT*%
X128000000Y-93000000D03*
X118500000Y-95000000D03*
X133758351Y-100893122D03*
X130500000Y-96000000D03*
%TO.N,Net-(R8-Pad2)*%
X127000000Y-99500000D03*
X123149999Y-96850001D03*
%TD*%
D13*
%TO.N,BAT_VOLTAGE*%
X134650000Y-97650000D02*
X134650000Y-97500000D01*
X136500000Y-99500000D02*
X134650000Y-97650000D01*
D14*
%TO.N,Net-(C2-Pad1)*%
X122000000Y-100806479D02*
X122000000Y-103000000D01*
%TO.N,+3V3*%
X116000000Y-107000000D02*
X117500000Y-105500000D01*
X117500000Y-105500000D02*
X120500000Y-105500000D01*
X126500000Y-81000000D02*
X122000000Y-81000000D01*
D13*
%TO.N,ICSP_RESET*%
X125000000Y-104500000D02*
X123500000Y-103000000D01*
X123500000Y-100500000D02*
X120000000Y-97000000D01*
X123500000Y-103000000D02*
X123500000Y-100500000D01*
D14*
%TO.N,DTR*%
X125000000Y-100700001D02*
X124299999Y-100000000D01*
X125000000Y-103000000D02*
X125000000Y-100700001D01*
D13*
X125000000Y-84800000D02*
X124200000Y-84000000D01*
X125000000Y-86500000D02*
X125000000Y-84800000D01*
D14*
%TO.N,FTDI_RXI*%
X119500000Y-86160000D02*
X121660000Y-84000000D01*
X119500000Y-89500000D02*
X119500000Y-86160000D01*
D13*
%TO.N,BAT_EN*%
X124005208Y-93000000D02*
X126500000Y-93000000D01*
X123252604Y-93752604D02*
X124005208Y-93000000D01*
%TO.N,INTERRUPT*%
X126000000Y-95000000D02*
X118500000Y-95000000D01*
X128000000Y-93000000D02*
X126000000Y-95000000D01*
X133758351Y-99258351D02*
X130500000Y-96000000D01*
X133758351Y-100893122D02*
X133758351Y-99258351D01*
%TO.N,Net-(R8-Pad2)*%
X127000000Y-99500000D02*
X124350001Y-96850001D01*
X124350001Y-96850001D02*
X123149999Y-96850001D01*
%TD*%
D15*
%TO.N,GND*%
G36*
X141871797Y-75733902D02*
G01*
X142720182Y-75947001D01*
X143522371Y-76295803D01*
X144256818Y-76770938D01*
X144903798Y-77359646D01*
X145445946Y-78046125D01*
X145868692Y-78811928D01*
X146160684Y-79636491D01*
X146316116Y-80509076D01*
X146340001Y-81015568D01*
X146340000Y-108972911D01*
X146266098Y-109871802D01*
X146052999Y-110720180D01*
X145704197Y-111522371D01*
X145229062Y-112256818D01*
X144640354Y-112903799D01*
X143953875Y-113445946D01*
X143188076Y-113868691D01*
X142363514Y-114160683D01*
X141490925Y-114316116D01*
X140984453Y-114340000D01*
X113027089Y-114340000D01*
X112128198Y-114266098D01*
X111279820Y-114052999D01*
X110477629Y-113704197D01*
X109743182Y-113229062D01*
X109096201Y-112640354D01*
X108554054Y-111953875D01*
X108131309Y-111188076D01*
X107839317Y-110363514D01*
X107833190Y-110329117D01*
X109765000Y-110329117D01*
X109765000Y-110670883D01*
X109831675Y-111006081D01*
X109962463Y-111321831D01*
X110152337Y-111605998D01*
X110394002Y-111847663D01*
X110678169Y-112037537D01*
X110993919Y-112168325D01*
X111329117Y-112235000D01*
X111670883Y-112235000D01*
X112006081Y-112168325D01*
X112321831Y-112037537D01*
X112605998Y-111847663D01*
X112847663Y-111605998D01*
X113037537Y-111321831D01*
X113108711Y-111150000D01*
X115511928Y-111150000D01*
X115511928Y-112850000D01*
X115524188Y-112974482D01*
X115560498Y-113094180D01*
X115619463Y-113204494D01*
X115698815Y-113301185D01*
X115795506Y-113380537D01*
X115905820Y-113439502D01*
X116025518Y-113475812D01*
X116150000Y-113488072D01*
X117850000Y-113488072D01*
X117974482Y-113475812D01*
X118094180Y-113439502D01*
X118204494Y-113380537D01*
X118301185Y-113301185D01*
X118380537Y-113204494D01*
X118439502Y-113094180D01*
X118461513Y-113021620D01*
X118593368Y-113153475D01*
X118836589Y-113315990D01*
X119106842Y-113427932D01*
X119393740Y-113485000D01*
X119686260Y-113485000D01*
X119973158Y-113427932D01*
X120243411Y-113315990D01*
X120486632Y-113153475D01*
X120693475Y-112946632D01*
X120810000Y-112772240D01*
X120926525Y-112946632D01*
X121133368Y-113153475D01*
X121376589Y-113315990D01*
X121646842Y-113427932D01*
X121933740Y-113485000D01*
X122226260Y-113485000D01*
X122513158Y-113427932D01*
X122783411Y-113315990D01*
X123026632Y-113153475D01*
X123233475Y-112946632D01*
X123395990Y-112703411D01*
X123507932Y-112433158D01*
X123565000Y-112146260D01*
X123565000Y-111853740D01*
X123507932Y-111566842D01*
X123395990Y-111296589D01*
X123233475Y-111053368D01*
X123026632Y-110846525D01*
X122850594Y-110728900D01*
X123080269Y-110557588D01*
X123275178Y-110341355D01*
X123282467Y-110329117D01*
X140765000Y-110329117D01*
X140765000Y-110670883D01*
X140831675Y-111006081D01*
X140962463Y-111321831D01*
X141152337Y-111605998D01*
X141394002Y-111847663D01*
X141678169Y-112037537D01*
X141993919Y-112168325D01*
X142329117Y-112235000D01*
X142670883Y-112235000D01*
X143006081Y-112168325D01*
X143321831Y-112037537D01*
X143605998Y-111847663D01*
X143847663Y-111605998D01*
X144037537Y-111321831D01*
X144168325Y-111006081D01*
X144235000Y-110670883D01*
X144235000Y-110329117D01*
X144168325Y-109993919D01*
X144037537Y-109678169D01*
X143847663Y-109394002D01*
X143605998Y-109152337D01*
X143321831Y-108962463D01*
X143006081Y-108831675D01*
X142670883Y-108765000D01*
X142329117Y-108765000D01*
X141993919Y-108831675D01*
X141678169Y-108962463D01*
X141394002Y-109152337D01*
X141152337Y-109394002D01*
X140962463Y-109678169D01*
X140831675Y-109993919D01*
X140765000Y-110329117D01*
X123282467Y-110329117D01*
X123424157Y-110091252D01*
X123521481Y-109816891D01*
X123400814Y-109587000D01*
X122207000Y-109587000D01*
X122207000Y-109607000D01*
X121953000Y-109607000D01*
X121953000Y-109587000D01*
X121933000Y-109587000D01*
X121933000Y-109333000D01*
X121953000Y-109333000D01*
X121953000Y-108139845D01*
X122207000Y-108139845D01*
X122207000Y-109333000D01*
X123400814Y-109333000D01*
X123521481Y-109103109D01*
X123424157Y-108828748D01*
X123275178Y-108578645D01*
X123080269Y-108362412D01*
X122846920Y-108188359D01*
X122584099Y-108063175D01*
X122436890Y-108018524D01*
X122207000Y-108139845D01*
X121953000Y-108139845D01*
X121723110Y-108018524D01*
X121575901Y-108063175D01*
X121313080Y-108188359D01*
X121079731Y-108362412D01*
X120884822Y-108578645D01*
X120815195Y-108695534D01*
X120693475Y-108513368D01*
X120486632Y-108306525D01*
X120243411Y-108144010D01*
X119973158Y-108032068D01*
X119686260Y-107975000D01*
X119393740Y-107975000D01*
X119106842Y-108032068D01*
X118836589Y-108144010D01*
X118593368Y-108306525D01*
X118386525Y-108513368D01*
X118270000Y-108687760D01*
X118153475Y-108513368D01*
X117946632Y-108306525D01*
X117703411Y-108144010D01*
X117433158Y-108032068D01*
X117146260Y-107975000D01*
X116853740Y-107975000D01*
X116566842Y-108032068D01*
X116296589Y-108144010D01*
X116053368Y-108306525D01*
X115846525Y-108513368D01*
X115684010Y-108756589D01*
X115572068Y-109026842D01*
X115515000Y-109313740D01*
X115515000Y-109606260D01*
X115572068Y-109893158D01*
X115684010Y-110163411D01*
X115846525Y-110406632D01*
X115978380Y-110538487D01*
X115905820Y-110560498D01*
X115795506Y-110619463D01*
X115698815Y-110698815D01*
X115619463Y-110795506D01*
X115560498Y-110905820D01*
X115524188Y-111025518D01*
X115511928Y-111150000D01*
X113108711Y-111150000D01*
X113168325Y-111006081D01*
X113235000Y-110670883D01*
X113235000Y-110329117D01*
X113168325Y-109993919D01*
X113037537Y-109678169D01*
X112847663Y-109394002D01*
X112605998Y-109152337D01*
X112321831Y-108962463D01*
X112006081Y-108831675D01*
X111670883Y-108765000D01*
X111329117Y-108765000D01*
X110993919Y-108831675D01*
X110678169Y-108962463D01*
X110394002Y-109152337D01*
X110152337Y-109394002D01*
X109962463Y-109678169D01*
X109831675Y-109993919D01*
X109765000Y-110329117D01*
X107833190Y-110329117D01*
X107683884Y-109490925D01*
X107660000Y-108984453D01*
X107660000Y-106898061D01*
X114965000Y-106898061D01*
X114965000Y-107101939D01*
X115004774Y-107301898D01*
X115082795Y-107490256D01*
X115196063Y-107659774D01*
X115340226Y-107803937D01*
X115509744Y-107917205D01*
X115698102Y-107995226D01*
X115898061Y-108035000D01*
X116101939Y-108035000D01*
X116301898Y-107995226D01*
X116490256Y-107917205D01*
X116659774Y-107803937D01*
X116803937Y-107659774D01*
X116917205Y-107490256D01*
X116995226Y-107301898D01*
X117006535Y-107245043D01*
X117866579Y-106385000D01*
X119961546Y-106385000D01*
X120009744Y-106417205D01*
X120198102Y-106495226D01*
X120398061Y-106535000D01*
X120601939Y-106535000D01*
X120801898Y-106495226D01*
X120990256Y-106417205D01*
X121159774Y-106303937D01*
X121303937Y-106159774D01*
X121417205Y-105990256D01*
X121495226Y-105801898D01*
X121535000Y-105601939D01*
X121535000Y-105398061D01*
X121495226Y-105198102D01*
X121417205Y-105009744D01*
X121303937Y-104840226D01*
X121159774Y-104696063D01*
X120990256Y-104582795D01*
X120801898Y-104504774D01*
X120601939Y-104465000D01*
X120398061Y-104465000D01*
X120198102Y-104504774D01*
X120009744Y-104582795D01*
X119961546Y-104615000D01*
X117543465Y-104615000D01*
X117499999Y-104610719D01*
X117456533Y-104615000D01*
X117456523Y-104615000D01*
X117326510Y-104627805D01*
X117159687Y-104678411D01*
X117005941Y-104760589D01*
X117005939Y-104760590D01*
X117005940Y-104760590D01*
X116904953Y-104843468D01*
X116904951Y-104843470D01*
X116871183Y-104871183D01*
X116843470Y-104904951D01*
X115754957Y-105993465D01*
X115698102Y-106004774D01*
X115509744Y-106082795D01*
X115340226Y-106196063D01*
X115196063Y-106340226D01*
X115082795Y-106509744D01*
X115004774Y-106698102D01*
X114965000Y-106898061D01*
X107660000Y-106898061D01*
X107660000Y-105350000D01*
X108511928Y-105350000D01*
X108524188Y-105474482D01*
X108560498Y-105594180D01*
X108619463Y-105704494D01*
X108698815Y-105801185D01*
X108795506Y-105880537D01*
X108905820Y-105939502D01*
X109025518Y-105975812D01*
X109150000Y-105988072D01*
X109714250Y-105985000D01*
X109873000Y-105826250D01*
X109873000Y-104627000D01*
X110127000Y-104627000D01*
X110127000Y-105826250D01*
X110285750Y-105985000D01*
X110850000Y-105988072D01*
X110974482Y-105975812D01*
X111094180Y-105939502D01*
X111204494Y-105880537D01*
X111301185Y-105801185D01*
X111380537Y-105704494D01*
X111439502Y-105594180D01*
X111475812Y-105474482D01*
X111488072Y-105350000D01*
X111485000Y-104785750D01*
X111326250Y-104627000D01*
X110127000Y-104627000D01*
X109873000Y-104627000D01*
X108673750Y-104627000D01*
X108515000Y-104785750D01*
X108511928Y-105350000D01*
X107660000Y-105350000D01*
X107660000Y-103650000D01*
X108511928Y-103650000D01*
X108515000Y-104214250D01*
X108673750Y-104373000D01*
X109873000Y-104373000D01*
X109873000Y-104353000D01*
X110127000Y-104353000D01*
X110127000Y-104373000D01*
X111326250Y-104373000D01*
X111485000Y-104214250D01*
X111488072Y-103650000D01*
X111475812Y-103525518D01*
X111439502Y-103405820D01*
X111380537Y-103295506D01*
X111301185Y-103198815D01*
X111204494Y-103119463D01*
X111094180Y-103060498D01*
X111021620Y-103038487D01*
X111153475Y-102906632D01*
X111315990Y-102663411D01*
X111427932Y-102393158D01*
X111485000Y-102106260D01*
X111485000Y-101813740D01*
X111427932Y-101526842D01*
X111315990Y-101256589D01*
X111153475Y-101013368D01*
X110946632Y-100806525D01*
X110703411Y-100644010D01*
X110433158Y-100532068D01*
X110146260Y-100475000D01*
X109853740Y-100475000D01*
X109566842Y-100532068D01*
X109296589Y-100644010D01*
X109053368Y-100806525D01*
X108846525Y-101013368D01*
X108684010Y-101256589D01*
X108572068Y-101526842D01*
X108515000Y-101813740D01*
X108515000Y-102106260D01*
X108572068Y-102393158D01*
X108684010Y-102663411D01*
X108846525Y-102906632D01*
X108978380Y-103038487D01*
X108905820Y-103060498D01*
X108795506Y-103119463D01*
X108698815Y-103198815D01*
X108619463Y-103295506D01*
X108560498Y-103405820D01*
X108524188Y-103525518D01*
X108511928Y-103650000D01*
X107660000Y-103650000D01*
X107660000Y-96898061D01*
X118965000Y-96898061D01*
X118965000Y-97101939D01*
X119004774Y-97301898D01*
X119082795Y-97490256D01*
X119196063Y-97659774D01*
X119340226Y-97803937D01*
X119509744Y-97917205D01*
X119698102Y-97995226D01*
X119898061Y-98035000D01*
X119960199Y-98035000D01*
X121730088Y-99804891D01*
X121698102Y-99811253D01*
X121509744Y-99889274D01*
X121340226Y-100002542D01*
X121196063Y-100146705D01*
X121082795Y-100316223D01*
X121004774Y-100504581D01*
X120965000Y-100704540D01*
X120965000Y-100908418D01*
X121004774Y-101108377D01*
X121082795Y-101296735D01*
X121115000Y-101344934D01*
X121115001Y-102461545D01*
X121082795Y-102509744D01*
X121004774Y-102698102D01*
X120965000Y-102898061D01*
X120965000Y-103101939D01*
X121004774Y-103301898D01*
X121082795Y-103490256D01*
X121196063Y-103659774D01*
X121340226Y-103803937D01*
X121509744Y-103917205D01*
X121698102Y-103995226D01*
X121898061Y-104035000D01*
X122101939Y-104035000D01*
X122301898Y-103995226D01*
X122490256Y-103917205D01*
X122659774Y-103803937D01*
X122803937Y-103659774D01*
X122917205Y-103490256D01*
X122917866Y-103488661D01*
X122959999Y-103540001D01*
X122989003Y-103563804D01*
X123965000Y-104539802D01*
X123965000Y-104601939D01*
X124004774Y-104801898D01*
X124082795Y-104990256D01*
X124196063Y-105159774D01*
X124340226Y-105303937D01*
X124509744Y-105417205D01*
X124698102Y-105495226D01*
X124898061Y-105535000D01*
X125101939Y-105535000D01*
X125301898Y-105495226D01*
X125490256Y-105417205D01*
X125659774Y-105303937D01*
X125803937Y-105159774D01*
X125917205Y-104990256D01*
X125995226Y-104801898D01*
X126035000Y-104601939D01*
X126035000Y-104398061D01*
X125995226Y-104198102D01*
X125917205Y-104009744D01*
X125803937Y-103840226D01*
X125713711Y-103750000D01*
X125803937Y-103659774D01*
X125917205Y-103490256D01*
X125995226Y-103301898D01*
X126035000Y-103101939D01*
X126035000Y-102898061D01*
X125995226Y-102698102D01*
X125917205Y-102509744D01*
X125885000Y-102461546D01*
X125885000Y-100743470D01*
X125889281Y-100700001D01*
X125885000Y-100656532D01*
X125885000Y-100656524D01*
X125872195Y-100526511D01*
X125821589Y-100359688D01*
X125739411Y-100205942D01*
X125628817Y-100071184D01*
X125595049Y-100043471D01*
X125306534Y-99754956D01*
X125295225Y-99698102D01*
X125217204Y-99509744D01*
X125103936Y-99340226D01*
X124959773Y-99196063D01*
X124790255Y-99082795D01*
X124601897Y-99004774D01*
X124401938Y-98965000D01*
X124198060Y-98965000D01*
X123998101Y-99004774D01*
X123809743Y-99082795D01*
X123640225Y-99196063D01*
X123496062Y-99340226D01*
X123463605Y-99388802D01*
X121035000Y-96960199D01*
X121035000Y-96898061D01*
X121005164Y-96748062D01*
X122114999Y-96748062D01*
X122114999Y-96951940D01*
X122154773Y-97151899D01*
X122232794Y-97340257D01*
X122346062Y-97509775D01*
X122490225Y-97653938D01*
X122659743Y-97767206D01*
X122848101Y-97845227D01*
X123048060Y-97885001D01*
X123251938Y-97885001D01*
X123451897Y-97845227D01*
X123640255Y-97767206D01*
X123809773Y-97653938D01*
X123853710Y-97610001D01*
X124035200Y-97610001D01*
X125965000Y-99539802D01*
X125965000Y-99601939D01*
X126004774Y-99801898D01*
X126082795Y-99990256D01*
X126196063Y-100159774D01*
X126340226Y-100303937D01*
X126509744Y-100417205D01*
X126698102Y-100495226D01*
X126898061Y-100535000D01*
X127101939Y-100535000D01*
X127301898Y-100495226D01*
X127490256Y-100417205D01*
X127659774Y-100303937D01*
X127803937Y-100159774D01*
X127917205Y-99990256D01*
X127995226Y-99801898D01*
X128035000Y-99601939D01*
X128035000Y-99398061D01*
X127995226Y-99198102D01*
X127917205Y-99009744D01*
X127803937Y-98840226D01*
X127659774Y-98696063D01*
X127490256Y-98582795D01*
X127301898Y-98504774D01*
X127101939Y-98465000D01*
X127039802Y-98465000D01*
X124913805Y-96339004D01*
X124890002Y-96310000D01*
X124774277Y-96215027D01*
X124642248Y-96144455D01*
X124498987Y-96100998D01*
X124387334Y-96090001D01*
X124387323Y-96090001D01*
X124350001Y-96086325D01*
X124312679Y-96090001D01*
X123853710Y-96090001D01*
X123809773Y-96046064D01*
X123640255Y-95932796D01*
X123556398Y-95898061D01*
X129465000Y-95898061D01*
X129465000Y-96101939D01*
X129504774Y-96301898D01*
X129582795Y-96490256D01*
X129696063Y-96659774D01*
X129840226Y-96803937D01*
X130009744Y-96917205D01*
X130198102Y-96995226D01*
X130398061Y-97035000D01*
X130460199Y-97035000D01*
X132998352Y-99573154D01*
X132998351Y-100189411D01*
X132954414Y-100233348D01*
X132841146Y-100402866D01*
X132763125Y-100591224D01*
X132723351Y-100791183D01*
X132723351Y-100995061D01*
X132763125Y-101195020D01*
X132841146Y-101383378D01*
X132954414Y-101552896D01*
X133098577Y-101697059D01*
X133268095Y-101810327D01*
X133456453Y-101888348D01*
X133656412Y-101928122D01*
X133860290Y-101928122D01*
X134060249Y-101888348D01*
X134248607Y-101810327D01*
X134418125Y-101697059D01*
X134562288Y-101552896D01*
X134675556Y-101383378D01*
X134753577Y-101195020D01*
X134793351Y-100995061D01*
X134793351Y-100791183D01*
X134753577Y-100591224D01*
X134675556Y-100402866D01*
X134562288Y-100233348D01*
X134518351Y-100189411D01*
X134518351Y-99295673D01*
X134522027Y-99258350D01*
X134518351Y-99221027D01*
X134518351Y-99221018D01*
X134507354Y-99109365D01*
X134463897Y-98966104D01*
X134393325Y-98834075D01*
X134298352Y-98718350D01*
X134269354Y-98694552D01*
X132972863Y-97398061D01*
X133615000Y-97398061D01*
X133615000Y-97601939D01*
X133654774Y-97801898D01*
X133732795Y-97990256D01*
X133846063Y-98159774D01*
X133990226Y-98303937D01*
X134159744Y-98417205D01*
X134348102Y-98495226D01*
X134438383Y-98513184D01*
X135465000Y-99539802D01*
X135465000Y-99601939D01*
X135504774Y-99801898D01*
X135582795Y-99990256D01*
X135696063Y-100159774D01*
X135840226Y-100303937D01*
X136009744Y-100417205D01*
X136198102Y-100495226D01*
X136398061Y-100535000D01*
X136601939Y-100535000D01*
X136801898Y-100495226D01*
X136990256Y-100417205D01*
X137159774Y-100303937D01*
X137303937Y-100159774D01*
X137417205Y-99990256D01*
X137495226Y-99801898D01*
X137535000Y-99601939D01*
X137535000Y-99398061D01*
X137495226Y-99198102D01*
X137417205Y-99009744D01*
X137303937Y-98840226D01*
X137159774Y-98696063D01*
X136990256Y-98582795D01*
X136801898Y-98504774D01*
X136601939Y-98465000D01*
X136539802Y-98465000D01*
X136468542Y-98393740D01*
X139975000Y-98393740D01*
X139975000Y-98686260D01*
X140032068Y-98973158D01*
X140144010Y-99243411D01*
X140306525Y-99486632D01*
X140513368Y-99693475D01*
X140756589Y-99855990D01*
X141026842Y-99967932D01*
X141313740Y-100025000D01*
X141606260Y-100025000D01*
X141893158Y-99967932D01*
X142163411Y-99855990D01*
X142406632Y-99693475D01*
X142613475Y-99486632D01*
X142730000Y-99312240D01*
X142846525Y-99486632D01*
X143053368Y-99693475D01*
X143296589Y-99855990D01*
X143566842Y-99967932D01*
X143853740Y-100025000D01*
X144146260Y-100025000D01*
X144433158Y-99967932D01*
X144703411Y-99855990D01*
X144946632Y-99693475D01*
X145153475Y-99486632D01*
X145315990Y-99243411D01*
X145427932Y-98973158D01*
X145485000Y-98686260D01*
X145485000Y-98393740D01*
X145427932Y-98106842D01*
X145315990Y-97836589D01*
X145153475Y-97593368D01*
X145021620Y-97461513D01*
X145094180Y-97439502D01*
X145204494Y-97380537D01*
X145301185Y-97301185D01*
X145380537Y-97204494D01*
X145439502Y-97094180D01*
X145475812Y-96974482D01*
X145488072Y-96850000D01*
X145488072Y-95150000D01*
X145475812Y-95025518D01*
X145439502Y-94905820D01*
X145380537Y-94795506D01*
X145301185Y-94698815D01*
X145204494Y-94619463D01*
X145094180Y-94560498D01*
X144974482Y-94524188D01*
X144850000Y-94511928D01*
X143150000Y-94511928D01*
X143025518Y-94524188D01*
X142905820Y-94560498D01*
X142795506Y-94619463D01*
X142698815Y-94698815D01*
X142619463Y-94795506D01*
X142560498Y-94905820D01*
X142536034Y-94986466D01*
X142460269Y-94902412D01*
X142226920Y-94728359D01*
X141964099Y-94603175D01*
X141816890Y-94558524D01*
X141587000Y-94679845D01*
X141587000Y-95873000D01*
X141607000Y-95873000D01*
X141607000Y-96127000D01*
X141587000Y-96127000D01*
X141587000Y-96147000D01*
X141333000Y-96147000D01*
X141333000Y-96127000D01*
X140139186Y-96127000D01*
X140018519Y-96356891D01*
X140115843Y-96631252D01*
X140264822Y-96881355D01*
X140459731Y-97097588D01*
X140689406Y-97268900D01*
X140513368Y-97386525D01*
X140306525Y-97593368D01*
X140144010Y-97836589D01*
X140032068Y-98106842D01*
X139975000Y-98393740D01*
X136468542Y-98393740D01*
X135683630Y-97608828D01*
X135685000Y-97601939D01*
X135685000Y-97398061D01*
X135645226Y-97198102D01*
X135567205Y-97009744D01*
X135453937Y-96840226D01*
X135309774Y-96696063D01*
X135140256Y-96582795D01*
X134951898Y-96504774D01*
X134751939Y-96465000D01*
X134548061Y-96465000D01*
X134348102Y-96504774D01*
X134159744Y-96582795D01*
X133990226Y-96696063D01*
X133846063Y-96840226D01*
X133732795Y-97009744D01*
X133654774Y-97198102D01*
X133615000Y-97398061D01*
X132972863Y-97398061D01*
X131535000Y-95960199D01*
X131535000Y-95898061D01*
X131495226Y-95698102D01*
X131472447Y-95643109D01*
X140018519Y-95643109D01*
X140139186Y-95873000D01*
X141333000Y-95873000D01*
X141333000Y-94679845D01*
X141103110Y-94558524D01*
X140955901Y-94603175D01*
X140693080Y-94728359D01*
X140459731Y-94902412D01*
X140264822Y-95118645D01*
X140115843Y-95368748D01*
X140018519Y-95643109D01*
X131472447Y-95643109D01*
X131417205Y-95509744D01*
X131303937Y-95340226D01*
X131159774Y-95196063D01*
X130990256Y-95082795D01*
X130801898Y-95004774D01*
X130601939Y-94965000D01*
X130398061Y-94965000D01*
X130198102Y-95004774D01*
X130009744Y-95082795D01*
X129840226Y-95196063D01*
X129696063Y-95340226D01*
X129582795Y-95509744D01*
X129504774Y-95698102D01*
X129465000Y-95898061D01*
X123556398Y-95898061D01*
X123451897Y-95854775D01*
X123251938Y-95815001D01*
X123048060Y-95815001D01*
X122848101Y-95854775D01*
X122659743Y-95932796D01*
X122490225Y-96046064D01*
X122346062Y-96190227D01*
X122232794Y-96359745D01*
X122154773Y-96548103D01*
X122114999Y-96748062D01*
X121005164Y-96748062D01*
X120995226Y-96698102D01*
X120917205Y-96509744D01*
X120803937Y-96340226D01*
X120659774Y-96196063D01*
X120490256Y-96082795D01*
X120301898Y-96004774D01*
X120101939Y-95965000D01*
X119898061Y-95965000D01*
X119698102Y-96004774D01*
X119509744Y-96082795D01*
X119340226Y-96196063D01*
X119196063Y-96340226D01*
X119082795Y-96509744D01*
X119004774Y-96698102D01*
X118965000Y-96898061D01*
X107660000Y-96898061D01*
X107660000Y-94898061D01*
X117465000Y-94898061D01*
X117465000Y-95101939D01*
X117504774Y-95301898D01*
X117582795Y-95490256D01*
X117696063Y-95659774D01*
X117840226Y-95803937D01*
X118009744Y-95917205D01*
X118198102Y-95995226D01*
X118398061Y-96035000D01*
X118601939Y-96035000D01*
X118801898Y-95995226D01*
X118990256Y-95917205D01*
X119159774Y-95803937D01*
X119203711Y-95760000D01*
X125962678Y-95760000D01*
X126000000Y-95763676D01*
X126037322Y-95760000D01*
X126037333Y-95760000D01*
X126148986Y-95749003D01*
X126292247Y-95705546D01*
X126424276Y-95634974D01*
X126540001Y-95540001D01*
X126563804Y-95510997D01*
X128039802Y-94035000D01*
X128101939Y-94035000D01*
X128301898Y-93995226D01*
X128490256Y-93917205D01*
X128659774Y-93803937D01*
X128803937Y-93659774D01*
X128917205Y-93490256D01*
X128955393Y-93398061D01*
X135965000Y-93398061D01*
X135965000Y-93601939D01*
X136004774Y-93801898D01*
X136082795Y-93990256D01*
X136196063Y-94159774D01*
X136340226Y-94303937D01*
X136509744Y-94417205D01*
X136698102Y-94495226D01*
X136898061Y-94535000D01*
X137101939Y-94535000D01*
X137301898Y-94495226D01*
X137490256Y-94417205D01*
X137659774Y-94303937D01*
X137803937Y-94159774D01*
X137917205Y-93990256D01*
X137995226Y-93801898D01*
X138035000Y-93601939D01*
X138035000Y-93398061D01*
X137995226Y-93198102D01*
X137917205Y-93009744D01*
X137803937Y-92840226D01*
X137659774Y-92696063D01*
X137490256Y-92582795D01*
X137301898Y-92504774D01*
X137101939Y-92465000D01*
X136898061Y-92465000D01*
X136698102Y-92504774D01*
X136509744Y-92582795D01*
X136340226Y-92696063D01*
X136196063Y-92840226D01*
X136082795Y-93009744D01*
X136004774Y-93198102D01*
X135965000Y-93398061D01*
X128955393Y-93398061D01*
X128995226Y-93301898D01*
X129035000Y-93101939D01*
X129035000Y-92898061D01*
X128995226Y-92698102D01*
X128917205Y-92509744D01*
X128803937Y-92340226D01*
X128659774Y-92196063D01*
X128490256Y-92082795D01*
X128301898Y-92004774D01*
X128101939Y-91965000D01*
X127898061Y-91965000D01*
X127698102Y-92004774D01*
X127509744Y-92082795D01*
X127340226Y-92196063D01*
X127250000Y-92286289D01*
X127159774Y-92196063D01*
X126990256Y-92082795D01*
X126801898Y-92004774D01*
X126601939Y-91965000D01*
X126398061Y-91965000D01*
X126198102Y-92004774D01*
X126009744Y-92082795D01*
X125840226Y-92196063D01*
X125796289Y-92240000D01*
X124042533Y-92240000D01*
X124005208Y-92236324D01*
X123967883Y-92240000D01*
X123967875Y-92240000D01*
X123856222Y-92250997D01*
X123712961Y-92294454D01*
X123580932Y-92365026D01*
X123465207Y-92459999D01*
X123441409Y-92488998D01*
X123212802Y-92717604D01*
X123150665Y-92717604D01*
X122950706Y-92757378D01*
X122762348Y-92835399D01*
X122592830Y-92948667D01*
X122448667Y-93092830D01*
X122335399Y-93262348D01*
X122257378Y-93450706D01*
X122217604Y-93650665D01*
X122217604Y-93854543D01*
X122257378Y-94054502D01*
X122334214Y-94240000D01*
X119203711Y-94240000D01*
X119159774Y-94196063D01*
X118990256Y-94082795D01*
X118801898Y-94004774D01*
X118601939Y-93965000D01*
X118398061Y-93965000D01*
X118198102Y-94004774D01*
X118009744Y-94082795D01*
X117840226Y-94196063D01*
X117696063Y-94340226D01*
X117582795Y-94509744D01*
X117504774Y-94698102D01*
X117465000Y-94898061D01*
X107660000Y-94898061D01*
X107660000Y-84850000D01*
X110011928Y-84850000D01*
X110024188Y-84974482D01*
X110060498Y-85094180D01*
X110119463Y-85204494D01*
X110198815Y-85301185D01*
X110295506Y-85380537D01*
X110405820Y-85439502D01*
X110525518Y-85475812D01*
X110650000Y-85488072D01*
X111214250Y-85485000D01*
X111373000Y-85326250D01*
X111373000Y-84127000D01*
X111627000Y-84127000D01*
X111627000Y-85326250D01*
X111785750Y-85485000D01*
X112350000Y-85488072D01*
X112474482Y-85475812D01*
X112594180Y-85439502D01*
X112704494Y-85380537D01*
X112801185Y-85301185D01*
X112880537Y-85204494D01*
X112939502Y-85094180D01*
X112963966Y-85013534D01*
X113039731Y-85097588D01*
X113273080Y-85271641D01*
X113535901Y-85396825D01*
X113683110Y-85441476D01*
X113913000Y-85320155D01*
X113913000Y-84127000D01*
X111627000Y-84127000D01*
X111373000Y-84127000D01*
X110173750Y-84127000D01*
X110015000Y-84285750D01*
X110011928Y-84850000D01*
X107660000Y-84850000D01*
X107660000Y-83150000D01*
X110011928Y-83150000D01*
X110015000Y-83714250D01*
X110173750Y-83873000D01*
X111373000Y-83873000D01*
X111373000Y-82673750D01*
X111627000Y-82673750D01*
X111627000Y-83873000D01*
X113913000Y-83873000D01*
X113913000Y-82679845D01*
X114167000Y-82679845D01*
X114167000Y-83873000D01*
X114187000Y-83873000D01*
X114187000Y-84127000D01*
X114167000Y-84127000D01*
X114167000Y-85320155D01*
X114396890Y-85441476D01*
X114544099Y-85396825D01*
X114806920Y-85271641D01*
X115040269Y-85097588D01*
X115235178Y-84881355D01*
X115304805Y-84764466D01*
X115426525Y-84946632D01*
X115633368Y-85153475D01*
X115876589Y-85315990D01*
X116146842Y-85427932D01*
X116433740Y-85485000D01*
X116726260Y-85485000D01*
X117013158Y-85427932D01*
X117283411Y-85315990D01*
X117526632Y-85153475D01*
X117733475Y-84946632D01*
X117850000Y-84772240D01*
X117966525Y-84946632D01*
X118173368Y-85153475D01*
X118416589Y-85315990D01*
X118686842Y-85427932D01*
X118931770Y-85476652D01*
X118904951Y-85503471D01*
X118871184Y-85531183D01*
X118843471Y-85564951D01*
X118843468Y-85564954D01*
X118760590Y-85665941D01*
X118678412Y-85819687D01*
X118627805Y-85986510D01*
X118610719Y-86160000D01*
X118615001Y-86203479D01*
X118615000Y-88961545D01*
X118582795Y-89009744D01*
X118504774Y-89198102D01*
X118465000Y-89398061D01*
X118465000Y-89601939D01*
X118504774Y-89801898D01*
X118582795Y-89990256D01*
X118696063Y-90159774D01*
X118840226Y-90303937D01*
X119009744Y-90417205D01*
X119198102Y-90495226D01*
X119398061Y-90535000D01*
X119601939Y-90535000D01*
X119801898Y-90495226D01*
X119990256Y-90417205D01*
X120159774Y-90303937D01*
X120303937Y-90159774D01*
X120417205Y-89990256D01*
X120495226Y-89801898D01*
X120535000Y-89601939D01*
X120535000Y-89398061D01*
X120495226Y-89198102D01*
X120417205Y-89009744D01*
X120385000Y-88961546D01*
X120385000Y-88350000D01*
X142011928Y-88350000D01*
X142024188Y-88474482D01*
X142060498Y-88594180D01*
X142119463Y-88704494D01*
X142198815Y-88801185D01*
X142295506Y-88880537D01*
X142405820Y-88939502D01*
X142525518Y-88975812D01*
X142650000Y-88988072D01*
X143214250Y-88985000D01*
X143373000Y-88826250D01*
X143373000Y-87627000D01*
X143627000Y-87627000D01*
X143627000Y-88826250D01*
X143785750Y-88985000D01*
X144350000Y-88988072D01*
X144474482Y-88975812D01*
X144594180Y-88939502D01*
X144704494Y-88880537D01*
X144801185Y-88801185D01*
X144880537Y-88704494D01*
X144939502Y-88594180D01*
X144975812Y-88474482D01*
X144988072Y-88350000D01*
X144985000Y-87785750D01*
X144826250Y-87627000D01*
X143627000Y-87627000D01*
X143373000Y-87627000D01*
X142173750Y-87627000D01*
X142015000Y-87785750D01*
X142011928Y-88350000D01*
X120385000Y-88350000D01*
X120385000Y-86526578D01*
X121441040Y-85470539D01*
X121513740Y-85485000D01*
X121806260Y-85485000D01*
X122093158Y-85427932D01*
X122363411Y-85315990D01*
X122606632Y-85153475D01*
X122813475Y-84946632D01*
X122930000Y-84772240D01*
X123046525Y-84946632D01*
X123253368Y-85153475D01*
X123496589Y-85315990D01*
X123766842Y-85427932D01*
X124053740Y-85485000D01*
X124240001Y-85485000D01*
X124240000Y-85796289D01*
X124196063Y-85840226D01*
X124082795Y-86009744D01*
X124004774Y-86198102D01*
X123965000Y-86398061D01*
X123965000Y-86601939D01*
X124004774Y-86801898D01*
X124082795Y-86990256D01*
X124196063Y-87159774D01*
X124340226Y-87303937D01*
X124509744Y-87417205D01*
X124698102Y-87495226D01*
X124898061Y-87535000D01*
X125101939Y-87535000D01*
X125301898Y-87495226D01*
X125490256Y-87417205D01*
X125659774Y-87303937D01*
X125803937Y-87159774D01*
X125917205Y-86990256D01*
X125995226Y-86801898D01*
X126025440Y-86650000D01*
X142011928Y-86650000D01*
X142015000Y-87214250D01*
X142173750Y-87373000D01*
X143373000Y-87373000D01*
X143373000Y-87353000D01*
X143627000Y-87353000D01*
X143627000Y-87373000D01*
X144826250Y-87373000D01*
X144985000Y-87214250D01*
X144988072Y-86650000D01*
X144975812Y-86525518D01*
X144939502Y-86405820D01*
X144880537Y-86295506D01*
X144801185Y-86198815D01*
X144704494Y-86119463D01*
X144594180Y-86060498D01*
X144521620Y-86038487D01*
X144653475Y-85906632D01*
X144815990Y-85663411D01*
X144927932Y-85393158D01*
X144985000Y-85106260D01*
X144985000Y-84813740D01*
X144927932Y-84526842D01*
X144815990Y-84256589D01*
X144653475Y-84013368D01*
X144446632Y-83806525D01*
X144203411Y-83644010D01*
X143933158Y-83532068D01*
X143646260Y-83475000D01*
X143353740Y-83475000D01*
X143066842Y-83532068D01*
X142796589Y-83644010D01*
X142553368Y-83806525D01*
X142346525Y-84013368D01*
X142184010Y-84256589D01*
X142072068Y-84526842D01*
X142015000Y-84813740D01*
X142015000Y-85106260D01*
X142072068Y-85393158D01*
X142184010Y-85663411D01*
X142346525Y-85906632D01*
X142478380Y-86038487D01*
X142405820Y-86060498D01*
X142295506Y-86119463D01*
X142198815Y-86198815D01*
X142119463Y-86295506D01*
X142060498Y-86405820D01*
X142024188Y-86525518D01*
X142011928Y-86650000D01*
X126025440Y-86650000D01*
X126035000Y-86601939D01*
X126035000Y-86398061D01*
X125995226Y-86198102D01*
X125917205Y-86009744D01*
X125803937Y-85840226D01*
X125760000Y-85796289D01*
X125760000Y-84837323D01*
X125763676Y-84800000D01*
X125760000Y-84762677D01*
X125760000Y-84762667D01*
X125749003Y-84651014D01*
X125705546Y-84507753D01*
X125638168Y-84381699D01*
X125685000Y-84146260D01*
X125685000Y-83853740D01*
X125627932Y-83566842D01*
X125515990Y-83296589D01*
X125353475Y-83053368D01*
X125146632Y-82846525D01*
X124903411Y-82684010D01*
X124633158Y-82572068D01*
X124346260Y-82515000D01*
X124053740Y-82515000D01*
X123766842Y-82572068D01*
X123496589Y-82684010D01*
X123253368Y-82846525D01*
X123046525Y-83053368D01*
X122930000Y-83227760D01*
X122813475Y-83053368D01*
X122606632Y-82846525D01*
X122363411Y-82684010D01*
X122093158Y-82572068D01*
X121806260Y-82515000D01*
X121513740Y-82515000D01*
X121226842Y-82572068D01*
X120956589Y-82684010D01*
X120713368Y-82846525D01*
X120506525Y-83053368D01*
X120390000Y-83227760D01*
X120273475Y-83053368D01*
X120066632Y-82846525D01*
X119823411Y-82684010D01*
X119553158Y-82572068D01*
X119266260Y-82515000D01*
X118973740Y-82515000D01*
X118686842Y-82572068D01*
X118416589Y-82684010D01*
X118173368Y-82846525D01*
X117966525Y-83053368D01*
X117850000Y-83227760D01*
X117733475Y-83053368D01*
X117526632Y-82846525D01*
X117283411Y-82684010D01*
X117013158Y-82572068D01*
X116726260Y-82515000D01*
X116433740Y-82515000D01*
X116146842Y-82572068D01*
X115876589Y-82684010D01*
X115633368Y-82846525D01*
X115426525Y-83053368D01*
X115304805Y-83235534D01*
X115235178Y-83118645D01*
X115040269Y-82902412D01*
X114806920Y-82728359D01*
X114544099Y-82603175D01*
X114396890Y-82558524D01*
X114167000Y-82679845D01*
X113913000Y-82679845D01*
X113683110Y-82558524D01*
X113535901Y-82603175D01*
X113273080Y-82728359D01*
X113039731Y-82902412D01*
X112963966Y-82986466D01*
X112939502Y-82905820D01*
X112880537Y-82795506D01*
X112801185Y-82698815D01*
X112704494Y-82619463D01*
X112594180Y-82560498D01*
X112474482Y-82524188D01*
X112350000Y-82511928D01*
X111785750Y-82515000D01*
X111627000Y-82673750D01*
X111373000Y-82673750D01*
X111214250Y-82515000D01*
X110650000Y-82511928D01*
X110525518Y-82524188D01*
X110405820Y-82560498D01*
X110295506Y-82619463D01*
X110198815Y-82698815D01*
X110119463Y-82795506D01*
X110060498Y-82905820D01*
X110024188Y-83025518D01*
X110011928Y-83150000D01*
X107660000Y-83150000D01*
X107660000Y-81027089D01*
X107733902Y-80128203D01*
X107934617Y-79329117D01*
X109765000Y-79329117D01*
X109765000Y-79670883D01*
X109831675Y-80006081D01*
X109962463Y-80321831D01*
X110152337Y-80605998D01*
X110394002Y-80847663D01*
X110678169Y-81037537D01*
X110993919Y-81168325D01*
X111329117Y-81235000D01*
X111670883Y-81235000D01*
X112006081Y-81168325D01*
X112321831Y-81037537D01*
X112530571Y-80898061D01*
X120965000Y-80898061D01*
X120965000Y-81101939D01*
X121004774Y-81301898D01*
X121082795Y-81490256D01*
X121196063Y-81659774D01*
X121340226Y-81803937D01*
X121509744Y-81917205D01*
X121698102Y-81995226D01*
X121898061Y-82035000D01*
X122101939Y-82035000D01*
X122301898Y-81995226D01*
X122490256Y-81917205D01*
X122538454Y-81885000D01*
X125961546Y-81885000D01*
X126009744Y-81917205D01*
X126198102Y-81995226D01*
X126398061Y-82035000D01*
X126601939Y-82035000D01*
X126801898Y-81995226D01*
X126990256Y-81917205D01*
X127159774Y-81803937D01*
X127303937Y-81659774D01*
X127417205Y-81490256D01*
X127495226Y-81301898D01*
X127535000Y-81101939D01*
X127535000Y-80898061D01*
X127495226Y-80698102D01*
X127417205Y-80509744D01*
X127303937Y-80340226D01*
X127159774Y-80196063D01*
X126990256Y-80082795D01*
X126801898Y-80004774D01*
X126601939Y-79965000D01*
X126398061Y-79965000D01*
X126198102Y-80004774D01*
X126009744Y-80082795D01*
X125961546Y-80115000D01*
X122538454Y-80115000D01*
X122490256Y-80082795D01*
X122301898Y-80004774D01*
X122101939Y-79965000D01*
X121898061Y-79965000D01*
X121698102Y-80004774D01*
X121509744Y-80082795D01*
X121340226Y-80196063D01*
X121196063Y-80340226D01*
X121082795Y-80509744D01*
X121004774Y-80698102D01*
X120965000Y-80898061D01*
X112530571Y-80898061D01*
X112605998Y-80847663D01*
X112847663Y-80605998D01*
X113037537Y-80321831D01*
X113168325Y-80006081D01*
X113235000Y-79670883D01*
X113235000Y-79329117D01*
X113168325Y-78993919D01*
X113108712Y-78850000D01*
X115011928Y-78850000D01*
X115024188Y-78974482D01*
X115060498Y-79094180D01*
X115119463Y-79204494D01*
X115198815Y-79301185D01*
X115295506Y-79380537D01*
X115405820Y-79439502D01*
X115525518Y-79475812D01*
X115650000Y-79488072D01*
X116214250Y-79485000D01*
X116373000Y-79326250D01*
X116373000Y-78127000D01*
X115173750Y-78127000D01*
X115015000Y-78285750D01*
X115011928Y-78850000D01*
X113108712Y-78850000D01*
X113037537Y-78678169D01*
X112847663Y-78394002D01*
X112605998Y-78152337D01*
X112321831Y-77962463D01*
X112006081Y-77831675D01*
X111670883Y-77765000D01*
X111329117Y-77765000D01*
X110993919Y-77831675D01*
X110678169Y-77962463D01*
X110394002Y-78152337D01*
X110152337Y-78394002D01*
X109962463Y-78678169D01*
X109831675Y-78993919D01*
X109765000Y-79329117D01*
X107934617Y-79329117D01*
X107947001Y-79279818D01*
X108295803Y-78477629D01*
X108770938Y-77743182D01*
X109310693Y-77150000D01*
X115011928Y-77150000D01*
X115015000Y-77714250D01*
X115173750Y-77873000D01*
X116373000Y-77873000D01*
X116373000Y-76673750D01*
X116627000Y-76673750D01*
X116627000Y-77873000D01*
X116647000Y-77873000D01*
X116647000Y-78127000D01*
X116627000Y-78127000D01*
X116627000Y-79326250D01*
X116785750Y-79485000D01*
X117350000Y-79488072D01*
X117474482Y-79475812D01*
X117594180Y-79439502D01*
X117704494Y-79380537D01*
X117801185Y-79301185D01*
X117880537Y-79204494D01*
X117939502Y-79094180D01*
X117961513Y-79021620D01*
X118093368Y-79153475D01*
X118336589Y-79315990D01*
X118606842Y-79427932D01*
X118893740Y-79485000D01*
X119186260Y-79485000D01*
X119473158Y-79427932D01*
X119743411Y-79315990D01*
X119986632Y-79153475D01*
X120193475Y-78946632D01*
X120310000Y-78772240D01*
X120426525Y-78946632D01*
X120633368Y-79153475D01*
X120876589Y-79315990D01*
X121146842Y-79427932D01*
X121433740Y-79485000D01*
X121726260Y-79485000D01*
X122013158Y-79427932D01*
X122283411Y-79315990D01*
X122526632Y-79153475D01*
X122733475Y-78946632D01*
X122850000Y-78772240D01*
X122966525Y-78946632D01*
X123173368Y-79153475D01*
X123416589Y-79315990D01*
X123686842Y-79427932D01*
X123973740Y-79485000D01*
X124266260Y-79485000D01*
X124553158Y-79427932D01*
X124823411Y-79315990D01*
X125066632Y-79153475D01*
X125273475Y-78946632D01*
X125338042Y-78850000D01*
X128511928Y-78850000D01*
X128524188Y-78974482D01*
X128560498Y-79094180D01*
X128619463Y-79204494D01*
X128698815Y-79301185D01*
X128795506Y-79380537D01*
X128905820Y-79439502D01*
X129025518Y-79475812D01*
X129150000Y-79488072D01*
X129714250Y-79485000D01*
X129873000Y-79326250D01*
X129873000Y-78127000D01*
X128673750Y-78127000D01*
X128515000Y-78285750D01*
X128511928Y-78850000D01*
X125338042Y-78850000D01*
X125435990Y-78703411D01*
X125547932Y-78433158D01*
X125605000Y-78146260D01*
X125605000Y-77853740D01*
X125547932Y-77566842D01*
X125435990Y-77296589D01*
X125338043Y-77150000D01*
X128511928Y-77150000D01*
X128515000Y-77714250D01*
X128673750Y-77873000D01*
X129873000Y-77873000D01*
X129873000Y-76673750D01*
X130127000Y-76673750D01*
X130127000Y-77873000D01*
X130147000Y-77873000D01*
X130147000Y-78127000D01*
X130127000Y-78127000D01*
X130127000Y-79326250D01*
X130285750Y-79485000D01*
X130850000Y-79488072D01*
X130974482Y-79475812D01*
X131094180Y-79439502D01*
X131204494Y-79380537D01*
X131301185Y-79301185D01*
X131380537Y-79204494D01*
X131439502Y-79094180D01*
X131461513Y-79021620D01*
X131593368Y-79153475D01*
X131836589Y-79315990D01*
X132106842Y-79427932D01*
X132393740Y-79485000D01*
X132686260Y-79485000D01*
X132973158Y-79427932D01*
X133243411Y-79315990D01*
X133486632Y-79153475D01*
X133693475Y-78946632D01*
X133810000Y-78772240D01*
X133926525Y-78946632D01*
X134133368Y-79153475D01*
X134376589Y-79315990D01*
X134646842Y-79427932D01*
X134933740Y-79485000D01*
X135226260Y-79485000D01*
X135513158Y-79427932D01*
X135783411Y-79315990D01*
X136026632Y-79153475D01*
X136233475Y-78946632D01*
X136350000Y-78772240D01*
X136466525Y-78946632D01*
X136673368Y-79153475D01*
X136916589Y-79315990D01*
X137186842Y-79427932D01*
X137473740Y-79485000D01*
X137766260Y-79485000D01*
X138053158Y-79427932D01*
X138291719Y-79329117D01*
X140765000Y-79329117D01*
X140765000Y-79670883D01*
X140831675Y-80006081D01*
X140962463Y-80321831D01*
X141152337Y-80605998D01*
X141394002Y-80847663D01*
X141678169Y-81037537D01*
X141993919Y-81168325D01*
X142329117Y-81235000D01*
X142670883Y-81235000D01*
X143006081Y-81168325D01*
X143321831Y-81037537D01*
X143605998Y-80847663D01*
X143847663Y-80605998D01*
X144037537Y-80321831D01*
X144168325Y-80006081D01*
X144235000Y-79670883D01*
X144235000Y-79329117D01*
X144168325Y-78993919D01*
X144037537Y-78678169D01*
X143847663Y-78394002D01*
X143605998Y-78152337D01*
X143321831Y-77962463D01*
X143006081Y-77831675D01*
X142670883Y-77765000D01*
X142329117Y-77765000D01*
X141993919Y-77831675D01*
X141678169Y-77962463D01*
X141394002Y-78152337D01*
X141152337Y-78394002D01*
X140962463Y-78678169D01*
X140831675Y-78993919D01*
X140765000Y-79329117D01*
X138291719Y-79329117D01*
X138323411Y-79315990D01*
X138566632Y-79153475D01*
X138773475Y-78946632D01*
X138935990Y-78703411D01*
X139047932Y-78433158D01*
X139105000Y-78146260D01*
X139105000Y-77853740D01*
X139047932Y-77566842D01*
X138935990Y-77296589D01*
X138773475Y-77053368D01*
X138566632Y-76846525D01*
X138323411Y-76684010D01*
X138053158Y-76572068D01*
X137766260Y-76515000D01*
X137473740Y-76515000D01*
X137186842Y-76572068D01*
X136916589Y-76684010D01*
X136673368Y-76846525D01*
X136466525Y-77053368D01*
X136350000Y-77227760D01*
X136233475Y-77053368D01*
X136026632Y-76846525D01*
X135783411Y-76684010D01*
X135513158Y-76572068D01*
X135226260Y-76515000D01*
X134933740Y-76515000D01*
X134646842Y-76572068D01*
X134376589Y-76684010D01*
X134133368Y-76846525D01*
X133926525Y-77053368D01*
X133810000Y-77227760D01*
X133693475Y-77053368D01*
X133486632Y-76846525D01*
X133243411Y-76684010D01*
X132973158Y-76572068D01*
X132686260Y-76515000D01*
X132393740Y-76515000D01*
X132106842Y-76572068D01*
X131836589Y-76684010D01*
X131593368Y-76846525D01*
X131461513Y-76978380D01*
X131439502Y-76905820D01*
X131380537Y-76795506D01*
X131301185Y-76698815D01*
X131204494Y-76619463D01*
X131094180Y-76560498D01*
X130974482Y-76524188D01*
X130850000Y-76511928D01*
X130285750Y-76515000D01*
X130127000Y-76673750D01*
X129873000Y-76673750D01*
X129714250Y-76515000D01*
X129150000Y-76511928D01*
X129025518Y-76524188D01*
X128905820Y-76560498D01*
X128795506Y-76619463D01*
X128698815Y-76698815D01*
X128619463Y-76795506D01*
X128560498Y-76905820D01*
X128524188Y-77025518D01*
X128511928Y-77150000D01*
X125338043Y-77150000D01*
X125273475Y-77053368D01*
X125066632Y-76846525D01*
X124823411Y-76684010D01*
X124553158Y-76572068D01*
X124266260Y-76515000D01*
X123973740Y-76515000D01*
X123686842Y-76572068D01*
X123416589Y-76684010D01*
X123173368Y-76846525D01*
X122966525Y-77053368D01*
X122850000Y-77227760D01*
X122733475Y-77053368D01*
X122526632Y-76846525D01*
X122283411Y-76684010D01*
X122013158Y-76572068D01*
X121726260Y-76515000D01*
X121433740Y-76515000D01*
X121146842Y-76572068D01*
X120876589Y-76684010D01*
X120633368Y-76846525D01*
X120426525Y-77053368D01*
X120310000Y-77227760D01*
X120193475Y-77053368D01*
X119986632Y-76846525D01*
X119743411Y-76684010D01*
X119473158Y-76572068D01*
X119186260Y-76515000D01*
X118893740Y-76515000D01*
X118606842Y-76572068D01*
X118336589Y-76684010D01*
X118093368Y-76846525D01*
X117961513Y-76978380D01*
X117939502Y-76905820D01*
X117880537Y-76795506D01*
X117801185Y-76698815D01*
X117704494Y-76619463D01*
X117594180Y-76560498D01*
X117474482Y-76524188D01*
X117350000Y-76511928D01*
X116785750Y-76515000D01*
X116627000Y-76673750D01*
X116373000Y-76673750D01*
X116214250Y-76515000D01*
X115650000Y-76511928D01*
X115525518Y-76524188D01*
X115405820Y-76560498D01*
X115295506Y-76619463D01*
X115198815Y-76698815D01*
X115119463Y-76795506D01*
X115060498Y-76905820D01*
X115024188Y-77025518D01*
X115011928Y-77150000D01*
X109310693Y-77150000D01*
X109359646Y-77096202D01*
X110046125Y-76554054D01*
X110811928Y-76131308D01*
X111636491Y-75839316D01*
X112509076Y-75683884D01*
X113015547Y-75660000D01*
X140972911Y-75660000D01*
X141871797Y-75733902D01*
G37*
X141871797Y-75733902D02*
X142720182Y-75947001D01*
X143522371Y-76295803D01*
X144256818Y-76770938D01*
X144903798Y-77359646D01*
X145445946Y-78046125D01*
X145868692Y-78811928D01*
X146160684Y-79636491D01*
X146316116Y-80509076D01*
X146340001Y-81015568D01*
X146340000Y-108972911D01*
X146266098Y-109871802D01*
X146052999Y-110720180D01*
X145704197Y-111522371D01*
X145229062Y-112256818D01*
X144640354Y-112903799D01*
X143953875Y-113445946D01*
X143188076Y-113868691D01*
X142363514Y-114160683D01*
X141490925Y-114316116D01*
X140984453Y-114340000D01*
X113027089Y-114340000D01*
X112128198Y-114266098D01*
X111279820Y-114052999D01*
X110477629Y-113704197D01*
X109743182Y-113229062D01*
X109096201Y-112640354D01*
X108554054Y-111953875D01*
X108131309Y-111188076D01*
X107839317Y-110363514D01*
X107833190Y-110329117D01*
X109765000Y-110329117D01*
X109765000Y-110670883D01*
X109831675Y-111006081D01*
X109962463Y-111321831D01*
X110152337Y-111605998D01*
X110394002Y-111847663D01*
X110678169Y-112037537D01*
X110993919Y-112168325D01*
X111329117Y-112235000D01*
X111670883Y-112235000D01*
X112006081Y-112168325D01*
X112321831Y-112037537D01*
X112605998Y-111847663D01*
X112847663Y-111605998D01*
X113037537Y-111321831D01*
X113108711Y-111150000D01*
X115511928Y-111150000D01*
X115511928Y-112850000D01*
X115524188Y-112974482D01*
X115560498Y-113094180D01*
X115619463Y-113204494D01*
X115698815Y-113301185D01*
X115795506Y-113380537D01*
X115905820Y-113439502D01*
X116025518Y-113475812D01*
X116150000Y-113488072D01*
X117850000Y-113488072D01*
X117974482Y-113475812D01*
X118094180Y-113439502D01*
X118204494Y-113380537D01*
X118301185Y-113301185D01*
X118380537Y-113204494D01*
X118439502Y-113094180D01*
X118461513Y-113021620D01*
X118593368Y-113153475D01*
X118836589Y-113315990D01*
X119106842Y-113427932D01*
X119393740Y-113485000D01*
X119686260Y-113485000D01*
X119973158Y-113427932D01*
X120243411Y-113315990D01*
X120486632Y-113153475D01*
X120693475Y-112946632D01*
X120810000Y-112772240D01*
X120926525Y-112946632D01*
X121133368Y-113153475D01*
X121376589Y-113315990D01*
X121646842Y-113427932D01*
X121933740Y-113485000D01*
X122226260Y-113485000D01*
X122513158Y-113427932D01*
X122783411Y-113315990D01*
X123026632Y-113153475D01*
X123233475Y-112946632D01*
X123395990Y-112703411D01*
X123507932Y-112433158D01*
X123565000Y-112146260D01*
X123565000Y-111853740D01*
X123507932Y-111566842D01*
X123395990Y-111296589D01*
X123233475Y-111053368D01*
X123026632Y-110846525D01*
X122850594Y-110728900D01*
X123080269Y-110557588D01*
X123275178Y-110341355D01*
X123282467Y-110329117D01*
X140765000Y-110329117D01*
X140765000Y-110670883D01*
X140831675Y-111006081D01*
X140962463Y-111321831D01*
X141152337Y-111605998D01*
X141394002Y-111847663D01*
X141678169Y-112037537D01*
X141993919Y-112168325D01*
X142329117Y-112235000D01*
X142670883Y-112235000D01*
X143006081Y-112168325D01*
X143321831Y-112037537D01*
X143605998Y-111847663D01*
X143847663Y-111605998D01*
X144037537Y-111321831D01*
X144168325Y-111006081D01*
X144235000Y-110670883D01*
X144235000Y-110329117D01*
X144168325Y-109993919D01*
X144037537Y-109678169D01*
X143847663Y-109394002D01*
X143605998Y-109152337D01*
X143321831Y-108962463D01*
X143006081Y-108831675D01*
X142670883Y-108765000D01*
X142329117Y-108765000D01*
X141993919Y-108831675D01*
X141678169Y-108962463D01*
X141394002Y-109152337D01*
X141152337Y-109394002D01*
X140962463Y-109678169D01*
X140831675Y-109993919D01*
X140765000Y-110329117D01*
X123282467Y-110329117D01*
X123424157Y-110091252D01*
X123521481Y-109816891D01*
X123400814Y-109587000D01*
X122207000Y-109587000D01*
X122207000Y-109607000D01*
X121953000Y-109607000D01*
X121953000Y-109587000D01*
X121933000Y-109587000D01*
X121933000Y-109333000D01*
X121953000Y-109333000D01*
X121953000Y-108139845D01*
X122207000Y-108139845D01*
X122207000Y-109333000D01*
X123400814Y-109333000D01*
X123521481Y-109103109D01*
X123424157Y-108828748D01*
X123275178Y-108578645D01*
X123080269Y-108362412D01*
X122846920Y-108188359D01*
X122584099Y-108063175D01*
X122436890Y-108018524D01*
X122207000Y-108139845D01*
X121953000Y-108139845D01*
X121723110Y-108018524D01*
X121575901Y-108063175D01*
X121313080Y-108188359D01*
X121079731Y-108362412D01*
X120884822Y-108578645D01*
X120815195Y-108695534D01*
X120693475Y-108513368D01*
X120486632Y-108306525D01*
X120243411Y-108144010D01*
X119973158Y-108032068D01*
X119686260Y-107975000D01*
X119393740Y-107975000D01*
X119106842Y-108032068D01*
X118836589Y-108144010D01*
X118593368Y-108306525D01*
X118386525Y-108513368D01*
X118270000Y-108687760D01*
X118153475Y-108513368D01*
X117946632Y-108306525D01*
X117703411Y-108144010D01*
X117433158Y-108032068D01*
X117146260Y-107975000D01*
X116853740Y-107975000D01*
X116566842Y-108032068D01*
X116296589Y-108144010D01*
X116053368Y-108306525D01*
X115846525Y-108513368D01*
X115684010Y-108756589D01*
X115572068Y-109026842D01*
X115515000Y-109313740D01*
X115515000Y-109606260D01*
X115572068Y-109893158D01*
X115684010Y-110163411D01*
X115846525Y-110406632D01*
X115978380Y-110538487D01*
X115905820Y-110560498D01*
X115795506Y-110619463D01*
X115698815Y-110698815D01*
X115619463Y-110795506D01*
X115560498Y-110905820D01*
X115524188Y-111025518D01*
X115511928Y-111150000D01*
X113108711Y-111150000D01*
X113168325Y-111006081D01*
X113235000Y-110670883D01*
X113235000Y-110329117D01*
X113168325Y-109993919D01*
X113037537Y-109678169D01*
X112847663Y-109394002D01*
X112605998Y-109152337D01*
X112321831Y-108962463D01*
X112006081Y-108831675D01*
X111670883Y-108765000D01*
X111329117Y-108765000D01*
X110993919Y-108831675D01*
X110678169Y-108962463D01*
X110394002Y-109152337D01*
X110152337Y-109394002D01*
X109962463Y-109678169D01*
X109831675Y-109993919D01*
X109765000Y-110329117D01*
X107833190Y-110329117D01*
X107683884Y-109490925D01*
X107660000Y-108984453D01*
X107660000Y-106898061D01*
X114965000Y-106898061D01*
X114965000Y-107101939D01*
X115004774Y-107301898D01*
X115082795Y-107490256D01*
X115196063Y-107659774D01*
X115340226Y-107803937D01*
X115509744Y-107917205D01*
X115698102Y-107995226D01*
X115898061Y-108035000D01*
X116101939Y-108035000D01*
X116301898Y-107995226D01*
X116490256Y-107917205D01*
X116659774Y-107803937D01*
X116803937Y-107659774D01*
X116917205Y-107490256D01*
X116995226Y-107301898D01*
X117006535Y-107245043D01*
X117866579Y-106385000D01*
X119961546Y-106385000D01*
X120009744Y-106417205D01*
X120198102Y-106495226D01*
X120398061Y-106535000D01*
X120601939Y-106535000D01*
X120801898Y-106495226D01*
X120990256Y-106417205D01*
X121159774Y-106303937D01*
X121303937Y-106159774D01*
X121417205Y-105990256D01*
X121495226Y-105801898D01*
X121535000Y-105601939D01*
X121535000Y-105398061D01*
X121495226Y-105198102D01*
X121417205Y-105009744D01*
X121303937Y-104840226D01*
X121159774Y-104696063D01*
X120990256Y-104582795D01*
X120801898Y-104504774D01*
X120601939Y-104465000D01*
X120398061Y-104465000D01*
X120198102Y-104504774D01*
X120009744Y-104582795D01*
X119961546Y-104615000D01*
X117543465Y-104615000D01*
X117499999Y-104610719D01*
X117456533Y-104615000D01*
X117456523Y-104615000D01*
X117326510Y-104627805D01*
X117159687Y-104678411D01*
X117005941Y-104760589D01*
X117005939Y-104760590D01*
X117005940Y-104760590D01*
X116904953Y-104843468D01*
X116904951Y-104843470D01*
X116871183Y-104871183D01*
X116843470Y-104904951D01*
X115754957Y-105993465D01*
X115698102Y-106004774D01*
X115509744Y-106082795D01*
X115340226Y-106196063D01*
X115196063Y-106340226D01*
X115082795Y-106509744D01*
X115004774Y-106698102D01*
X114965000Y-106898061D01*
X107660000Y-106898061D01*
X107660000Y-105350000D01*
X108511928Y-105350000D01*
X108524188Y-105474482D01*
X108560498Y-105594180D01*
X108619463Y-105704494D01*
X108698815Y-105801185D01*
X108795506Y-105880537D01*
X108905820Y-105939502D01*
X109025518Y-105975812D01*
X109150000Y-105988072D01*
X109714250Y-105985000D01*
X109873000Y-105826250D01*
X109873000Y-104627000D01*
X110127000Y-104627000D01*
X110127000Y-105826250D01*
X110285750Y-105985000D01*
X110850000Y-105988072D01*
X110974482Y-105975812D01*
X111094180Y-105939502D01*
X111204494Y-105880537D01*
X111301185Y-105801185D01*
X111380537Y-105704494D01*
X111439502Y-105594180D01*
X111475812Y-105474482D01*
X111488072Y-105350000D01*
X111485000Y-104785750D01*
X111326250Y-104627000D01*
X110127000Y-104627000D01*
X109873000Y-104627000D01*
X108673750Y-104627000D01*
X108515000Y-104785750D01*
X108511928Y-105350000D01*
X107660000Y-105350000D01*
X107660000Y-103650000D01*
X108511928Y-103650000D01*
X108515000Y-104214250D01*
X108673750Y-104373000D01*
X109873000Y-104373000D01*
X109873000Y-104353000D01*
X110127000Y-104353000D01*
X110127000Y-104373000D01*
X111326250Y-104373000D01*
X111485000Y-104214250D01*
X111488072Y-103650000D01*
X111475812Y-103525518D01*
X111439502Y-103405820D01*
X111380537Y-103295506D01*
X111301185Y-103198815D01*
X111204494Y-103119463D01*
X111094180Y-103060498D01*
X111021620Y-103038487D01*
X111153475Y-102906632D01*
X111315990Y-102663411D01*
X111427932Y-102393158D01*
X111485000Y-102106260D01*
X111485000Y-101813740D01*
X111427932Y-101526842D01*
X111315990Y-101256589D01*
X111153475Y-101013368D01*
X110946632Y-100806525D01*
X110703411Y-100644010D01*
X110433158Y-100532068D01*
X110146260Y-100475000D01*
X109853740Y-100475000D01*
X109566842Y-100532068D01*
X109296589Y-100644010D01*
X109053368Y-100806525D01*
X108846525Y-101013368D01*
X108684010Y-101256589D01*
X108572068Y-101526842D01*
X108515000Y-101813740D01*
X108515000Y-102106260D01*
X108572068Y-102393158D01*
X108684010Y-102663411D01*
X108846525Y-102906632D01*
X108978380Y-103038487D01*
X108905820Y-103060498D01*
X108795506Y-103119463D01*
X108698815Y-103198815D01*
X108619463Y-103295506D01*
X108560498Y-103405820D01*
X108524188Y-103525518D01*
X108511928Y-103650000D01*
X107660000Y-103650000D01*
X107660000Y-96898061D01*
X118965000Y-96898061D01*
X118965000Y-97101939D01*
X119004774Y-97301898D01*
X119082795Y-97490256D01*
X119196063Y-97659774D01*
X119340226Y-97803937D01*
X119509744Y-97917205D01*
X119698102Y-97995226D01*
X119898061Y-98035000D01*
X119960199Y-98035000D01*
X121730088Y-99804891D01*
X121698102Y-99811253D01*
X121509744Y-99889274D01*
X121340226Y-100002542D01*
X121196063Y-100146705D01*
X121082795Y-100316223D01*
X121004774Y-100504581D01*
X120965000Y-100704540D01*
X120965000Y-100908418D01*
X121004774Y-101108377D01*
X121082795Y-101296735D01*
X121115000Y-101344934D01*
X121115001Y-102461545D01*
X121082795Y-102509744D01*
X121004774Y-102698102D01*
X120965000Y-102898061D01*
X120965000Y-103101939D01*
X121004774Y-103301898D01*
X121082795Y-103490256D01*
X121196063Y-103659774D01*
X121340226Y-103803937D01*
X121509744Y-103917205D01*
X121698102Y-103995226D01*
X121898061Y-104035000D01*
X122101939Y-104035000D01*
X122301898Y-103995226D01*
X122490256Y-103917205D01*
X122659774Y-103803937D01*
X122803937Y-103659774D01*
X122917205Y-103490256D01*
X122917866Y-103488661D01*
X122959999Y-103540001D01*
X122989003Y-103563804D01*
X123965000Y-104539802D01*
X123965000Y-104601939D01*
X124004774Y-104801898D01*
X124082795Y-104990256D01*
X124196063Y-105159774D01*
X124340226Y-105303937D01*
X124509744Y-105417205D01*
X124698102Y-105495226D01*
X124898061Y-105535000D01*
X125101939Y-105535000D01*
X125301898Y-105495226D01*
X125490256Y-105417205D01*
X125659774Y-105303937D01*
X125803937Y-105159774D01*
X125917205Y-104990256D01*
X125995226Y-104801898D01*
X126035000Y-104601939D01*
X126035000Y-104398061D01*
X125995226Y-104198102D01*
X125917205Y-104009744D01*
X125803937Y-103840226D01*
X125713711Y-103750000D01*
X125803937Y-103659774D01*
X125917205Y-103490256D01*
X125995226Y-103301898D01*
X126035000Y-103101939D01*
X126035000Y-102898061D01*
X125995226Y-102698102D01*
X125917205Y-102509744D01*
X125885000Y-102461546D01*
X125885000Y-100743470D01*
X125889281Y-100700001D01*
X125885000Y-100656532D01*
X125885000Y-100656524D01*
X125872195Y-100526511D01*
X125821589Y-100359688D01*
X125739411Y-100205942D01*
X125628817Y-100071184D01*
X125595049Y-100043471D01*
X125306534Y-99754956D01*
X125295225Y-99698102D01*
X125217204Y-99509744D01*
X125103936Y-99340226D01*
X124959773Y-99196063D01*
X124790255Y-99082795D01*
X124601897Y-99004774D01*
X124401938Y-98965000D01*
X124198060Y-98965000D01*
X123998101Y-99004774D01*
X123809743Y-99082795D01*
X123640225Y-99196063D01*
X123496062Y-99340226D01*
X123463605Y-99388802D01*
X121035000Y-96960199D01*
X121035000Y-96898061D01*
X121005164Y-96748062D01*
X122114999Y-96748062D01*
X122114999Y-96951940D01*
X122154773Y-97151899D01*
X122232794Y-97340257D01*
X122346062Y-97509775D01*
X122490225Y-97653938D01*
X122659743Y-97767206D01*
X122848101Y-97845227D01*
X123048060Y-97885001D01*
X123251938Y-97885001D01*
X123451897Y-97845227D01*
X123640255Y-97767206D01*
X123809773Y-97653938D01*
X123853710Y-97610001D01*
X124035200Y-97610001D01*
X125965000Y-99539802D01*
X125965000Y-99601939D01*
X126004774Y-99801898D01*
X126082795Y-99990256D01*
X126196063Y-100159774D01*
X126340226Y-100303937D01*
X126509744Y-100417205D01*
X126698102Y-100495226D01*
X126898061Y-100535000D01*
X127101939Y-100535000D01*
X127301898Y-100495226D01*
X127490256Y-100417205D01*
X127659774Y-100303937D01*
X127803937Y-100159774D01*
X127917205Y-99990256D01*
X127995226Y-99801898D01*
X128035000Y-99601939D01*
X128035000Y-99398061D01*
X127995226Y-99198102D01*
X127917205Y-99009744D01*
X127803937Y-98840226D01*
X127659774Y-98696063D01*
X127490256Y-98582795D01*
X127301898Y-98504774D01*
X127101939Y-98465000D01*
X127039802Y-98465000D01*
X124913805Y-96339004D01*
X124890002Y-96310000D01*
X124774277Y-96215027D01*
X124642248Y-96144455D01*
X124498987Y-96100998D01*
X124387334Y-96090001D01*
X124387323Y-96090001D01*
X124350001Y-96086325D01*
X124312679Y-96090001D01*
X123853710Y-96090001D01*
X123809773Y-96046064D01*
X123640255Y-95932796D01*
X123556398Y-95898061D01*
X129465000Y-95898061D01*
X129465000Y-96101939D01*
X129504774Y-96301898D01*
X129582795Y-96490256D01*
X129696063Y-96659774D01*
X129840226Y-96803937D01*
X130009744Y-96917205D01*
X130198102Y-96995226D01*
X130398061Y-97035000D01*
X130460199Y-97035000D01*
X132998352Y-99573154D01*
X132998351Y-100189411D01*
X132954414Y-100233348D01*
X132841146Y-100402866D01*
X132763125Y-100591224D01*
X132723351Y-100791183D01*
X132723351Y-100995061D01*
X132763125Y-101195020D01*
X132841146Y-101383378D01*
X132954414Y-101552896D01*
X133098577Y-101697059D01*
X133268095Y-101810327D01*
X133456453Y-101888348D01*
X133656412Y-101928122D01*
X133860290Y-101928122D01*
X134060249Y-101888348D01*
X134248607Y-101810327D01*
X134418125Y-101697059D01*
X134562288Y-101552896D01*
X134675556Y-101383378D01*
X134753577Y-101195020D01*
X134793351Y-100995061D01*
X134793351Y-100791183D01*
X134753577Y-100591224D01*
X134675556Y-100402866D01*
X134562288Y-100233348D01*
X134518351Y-100189411D01*
X134518351Y-99295673D01*
X134522027Y-99258350D01*
X134518351Y-99221027D01*
X134518351Y-99221018D01*
X134507354Y-99109365D01*
X134463897Y-98966104D01*
X134393325Y-98834075D01*
X134298352Y-98718350D01*
X134269354Y-98694552D01*
X132972863Y-97398061D01*
X133615000Y-97398061D01*
X133615000Y-97601939D01*
X133654774Y-97801898D01*
X133732795Y-97990256D01*
X133846063Y-98159774D01*
X133990226Y-98303937D01*
X134159744Y-98417205D01*
X134348102Y-98495226D01*
X134438383Y-98513184D01*
X135465000Y-99539802D01*
X135465000Y-99601939D01*
X135504774Y-99801898D01*
X135582795Y-99990256D01*
X135696063Y-100159774D01*
X135840226Y-100303937D01*
X136009744Y-100417205D01*
X136198102Y-100495226D01*
X136398061Y-100535000D01*
X136601939Y-100535000D01*
X136801898Y-100495226D01*
X136990256Y-100417205D01*
X137159774Y-100303937D01*
X137303937Y-100159774D01*
X137417205Y-99990256D01*
X137495226Y-99801898D01*
X137535000Y-99601939D01*
X137535000Y-99398061D01*
X137495226Y-99198102D01*
X137417205Y-99009744D01*
X137303937Y-98840226D01*
X137159774Y-98696063D01*
X136990256Y-98582795D01*
X136801898Y-98504774D01*
X136601939Y-98465000D01*
X136539802Y-98465000D01*
X136468542Y-98393740D01*
X139975000Y-98393740D01*
X139975000Y-98686260D01*
X140032068Y-98973158D01*
X140144010Y-99243411D01*
X140306525Y-99486632D01*
X140513368Y-99693475D01*
X140756589Y-99855990D01*
X141026842Y-99967932D01*
X141313740Y-100025000D01*
X141606260Y-100025000D01*
X141893158Y-99967932D01*
X142163411Y-99855990D01*
X142406632Y-99693475D01*
X142613475Y-99486632D01*
X142730000Y-99312240D01*
X142846525Y-99486632D01*
X143053368Y-99693475D01*
X143296589Y-99855990D01*
X143566842Y-99967932D01*
X143853740Y-100025000D01*
X144146260Y-100025000D01*
X144433158Y-99967932D01*
X144703411Y-99855990D01*
X144946632Y-99693475D01*
X145153475Y-99486632D01*
X145315990Y-99243411D01*
X145427932Y-98973158D01*
X145485000Y-98686260D01*
X145485000Y-98393740D01*
X145427932Y-98106842D01*
X145315990Y-97836589D01*
X145153475Y-97593368D01*
X145021620Y-97461513D01*
X145094180Y-97439502D01*
X145204494Y-97380537D01*
X145301185Y-97301185D01*
X145380537Y-97204494D01*
X145439502Y-97094180D01*
X145475812Y-96974482D01*
X145488072Y-96850000D01*
X145488072Y-95150000D01*
X145475812Y-95025518D01*
X145439502Y-94905820D01*
X145380537Y-94795506D01*
X145301185Y-94698815D01*
X145204494Y-94619463D01*
X145094180Y-94560498D01*
X144974482Y-94524188D01*
X144850000Y-94511928D01*
X143150000Y-94511928D01*
X143025518Y-94524188D01*
X142905820Y-94560498D01*
X142795506Y-94619463D01*
X142698815Y-94698815D01*
X142619463Y-94795506D01*
X142560498Y-94905820D01*
X142536034Y-94986466D01*
X142460269Y-94902412D01*
X142226920Y-94728359D01*
X141964099Y-94603175D01*
X141816890Y-94558524D01*
X141587000Y-94679845D01*
X141587000Y-95873000D01*
X141607000Y-95873000D01*
X141607000Y-96127000D01*
X141587000Y-96127000D01*
X141587000Y-96147000D01*
X141333000Y-96147000D01*
X141333000Y-96127000D01*
X140139186Y-96127000D01*
X140018519Y-96356891D01*
X140115843Y-96631252D01*
X140264822Y-96881355D01*
X140459731Y-97097588D01*
X140689406Y-97268900D01*
X140513368Y-97386525D01*
X140306525Y-97593368D01*
X140144010Y-97836589D01*
X140032068Y-98106842D01*
X139975000Y-98393740D01*
X136468542Y-98393740D01*
X135683630Y-97608828D01*
X135685000Y-97601939D01*
X135685000Y-97398061D01*
X135645226Y-97198102D01*
X135567205Y-97009744D01*
X135453937Y-96840226D01*
X135309774Y-96696063D01*
X135140256Y-96582795D01*
X134951898Y-96504774D01*
X134751939Y-96465000D01*
X134548061Y-96465000D01*
X134348102Y-96504774D01*
X134159744Y-96582795D01*
X133990226Y-96696063D01*
X133846063Y-96840226D01*
X133732795Y-97009744D01*
X133654774Y-97198102D01*
X133615000Y-97398061D01*
X132972863Y-97398061D01*
X131535000Y-95960199D01*
X131535000Y-95898061D01*
X131495226Y-95698102D01*
X131472447Y-95643109D01*
X140018519Y-95643109D01*
X140139186Y-95873000D01*
X141333000Y-95873000D01*
X141333000Y-94679845D01*
X141103110Y-94558524D01*
X140955901Y-94603175D01*
X140693080Y-94728359D01*
X140459731Y-94902412D01*
X140264822Y-95118645D01*
X140115843Y-95368748D01*
X140018519Y-95643109D01*
X131472447Y-95643109D01*
X131417205Y-95509744D01*
X131303937Y-95340226D01*
X131159774Y-95196063D01*
X130990256Y-95082795D01*
X130801898Y-95004774D01*
X130601939Y-94965000D01*
X130398061Y-94965000D01*
X130198102Y-95004774D01*
X130009744Y-95082795D01*
X129840226Y-95196063D01*
X129696063Y-95340226D01*
X129582795Y-95509744D01*
X129504774Y-95698102D01*
X129465000Y-95898061D01*
X123556398Y-95898061D01*
X123451897Y-95854775D01*
X123251938Y-95815001D01*
X123048060Y-95815001D01*
X122848101Y-95854775D01*
X122659743Y-95932796D01*
X122490225Y-96046064D01*
X122346062Y-96190227D01*
X122232794Y-96359745D01*
X122154773Y-96548103D01*
X122114999Y-96748062D01*
X121005164Y-96748062D01*
X120995226Y-96698102D01*
X120917205Y-96509744D01*
X120803937Y-96340226D01*
X120659774Y-96196063D01*
X120490256Y-96082795D01*
X120301898Y-96004774D01*
X120101939Y-95965000D01*
X119898061Y-95965000D01*
X119698102Y-96004774D01*
X119509744Y-96082795D01*
X119340226Y-96196063D01*
X119196063Y-96340226D01*
X119082795Y-96509744D01*
X119004774Y-96698102D01*
X118965000Y-96898061D01*
X107660000Y-96898061D01*
X107660000Y-94898061D01*
X117465000Y-94898061D01*
X117465000Y-95101939D01*
X117504774Y-95301898D01*
X117582795Y-95490256D01*
X117696063Y-95659774D01*
X117840226Y-95803937D01*
X118009744Y-95917205D01*
X118198102Y-95995226D01*
X118398061Y-96035000D01*
X118601939Y-96035000D01*
X118801898Y-95995226D01*
X118990256Y-95917205D01*
X119159774Y-95803937D01*
X119203711Y-95760000D01*
X125962678Y-95760000D01*
X126000000Y-95763676D01*
X126037322Y-95760000D01*
X126037333Y-95760000D01*
X126148986Y-95749003D01*
X126292247Y-95705546D01*
X126424276Y-95634974D01*
X126540001Y-95540001D01*
X126563804Y-95510997D01*
X128039802Y-94035000D01*
X128101939Y-94035000D01*
X128301898Y-93995226D01*
X128490256Y-93917205D01*
X128659774Y-93803937D01*
X128803937Y-93659774D01*
X128917205Y-93490256D01*
X128955393Y-93398061D01*
X135965000Y-93398061D01*
X135965000Y-93601939D01*
X136004774Y-93801898D01*
X136082795Y-93990256D01*
X136196063Y-94159774D01*
X136340226Y-94303937D01*
X136509744Y-94417205D01*
X136698102Y-94495226D01*
X136898061Y-94535000D01*
X137101939Y-94535000D01*
X137301898Y-94495226D01*
X137490256Y-94417205D01*
X137659774Y-94303937D01*
X137803937Y-94159774D01*
X137917205Y-93990256D01*
X137995226Y-93801898D01*
X138035000Y-93601939D01*
X138035000Y-93398061D01*
X137995226Y-93198102D01*
X137917205Y-93009744D01*
X137803937Y-92840226D01*
X137659774Y-92696063D01*
X137490256Y-92582795D01*
X137301898Y-92504774D01*
X137101939Y-92465000D01*
X136898061Y-92465000D01*
X136698102Y-92504774D01*
X136509744Y-92582795D01*
X136340226Y-92696063D01*
X136196063Y-92840226D01*
X136082795Y-93009744D01*
X136004774Y-93198102D01*
X135965000Y-93398061D01*
X128955393Y-93398061D01*
X128995226Y-93301898D01*
X129035000Y-93101939D01*
X129035000Y-92898061D01*
X128995226Y-92698102D01*
X128917205Y-92509744D01*
X128803937Y-92340226D01*
X128659774Y-92196063D01*
X128490256Y-92082795D01*
X128301898Y-92004774D01*
X128101939Y-91965000D01*
X127898061Y-91965000D01*
X127698102Y-92004774D01*
X127509744Y-92082795D01*
X127340226Y-92196063D01*
X127250000Y-92286289D01*
X127159774Y-92196063D01*
X126990256Y-92082795D01*
X126801898Y-92004774D01*
X126601939Y-91965000D01*
X126398061Y-91965000D01*
X126198102Y-92004774D01*
X126009744Y-92082795D01*
X125840226Y-92196063D01*
X125796289Y-92240000D01*
X124042533Y-92240000D01*
X124005208Y-92236324D01*
X123967883Y-92240000D01*
X123967875Y-92240000D01*
X123856222Y-92250997D01*
X123712961Y-92294454D01*
X123580932Y-92365026D01*
X123465207Y-92459999D01*
X123441409Y-92488998D01*
X123212802Y-92717604D01*
X123150665Y-92717604D01*
X122950706Y-92757378D01*
X122762348Y-92835399D01*
X122592830Y-92948667D01*
X122448667Y-93092830D01*
X122335399Y-93262348D01*
X122257378Y-93450706D01*
X122217604Y-93650665D01*
X122217604Y-93854543D01*
X122257378Y-94054502D01*
X122334214Y-94240000D01*
X119203711Y-94240000D01*
X119159774Y-94196063D01*
X118990256Y-94082795D01*
X118801898Y-94004774D01*
X118601939Y-93965000D01*
X118398061Y-93965000D01*
X118198102Y-94004774D01*
X118009744Y-94082795D01*
X117840226Y-94196063D01*
X117696063Y-94340226D01*
X117582795Y-94509744D01*
X117504774Y-94698102D01*
X117465000Y-94898061D01*
X107660000Y-94898061D01*
X107660000Y-84850000D01*
X110011928Y-84850000D01*
X110024188Y-84974482D01*
X110060498Y-85094180D01*
X110119463Y-85204494D01*
X110198815Y-85301185D01*
X110295506Y-85380537D01*
X110405820Y-85439502D01*
X110525518Y-85475812D01*
X110650000Y-85488072D01*
X111214250Y-85485000D01*
X111373000Y-85326250D01*
X111373000Y-84127000D01*
X111627000Y-84127000D01*
X111627000Y-85326250D01*
X111785750Y-85485000D01*
X112350000Y-85488072D01*
X112474482Y-85475812D01*
X112594180Y-85439502D01*
X112704494Y-85380537D01*
X112801185Y-85301185D01*
X112880537Y-85204494D01*
X112939502Y-85094180D01*
X112963966Y-85013534D01*
X113039731Y-85097588D01*
X113273080Y-85271641D01*
X113535901Y-85396825D01*
X113683110Y-85441476D01*
X113913000Y-85320155D01*
X113913000Y-84127000D01*
X111627000Y-84127000D01*
X111373000Y-84127000D01*
X110173750Y-84127000D01*
X110015000Y-84285750D01*
X110011928Y-84850000D01*
X107660000Y-84850000D01*
X107660000Y-83150000D01*
X110011928Y-83150000D01*
X110015000Y-83714250D01*
X110173750Y-83873000D01*
X111373000Y-83873000D01*
X111373000Y-82673750D01*
X111627000Y-82673750D01*
X111627000Y-83873000D01*
X113913000Y-83873000D01*
X113913000Y-82679845D01*
X114167000Y-82679845D01*
X114167000Y-83873000D01*
X114187000Y-83873000D01*
X114187000Y-84127000D01*
X114167000Y-84127000D01*
X114167000Y-85320155D01*
X114396890Y-85441476D01*
X114544099Y-85396825D01*
X114806920Y-85271641D01*
X115040269Y-85097588D01*
X115235178Y-84881355D01*
X115304805Y-84764466D01*
X115426525Y-84946632D01*
X115633368Y-85153475D01*
X115876589Y-85315990D01*
X116146842Y-85427932D01*
X116433740Y-85485000D01*
X116726260Y-85485000D01*
X117013158Y-85427932D01*
X117283411Y-85315990D01*
X117526632Y-85153475D01*
X117733475Y-84946632D01*
X117850000Y-84772240D01*
X117966525Y-84946632D01*
X118173368Y-85153475D01*
X118416589Y-85315990D01*
X118686842Y-85427932D01*
X118931770Y-85476652D01*
X118904951Y-85503471D01*
X118871184Y-85531183D01*
X118843471Y-85564951D01*
X118843468Y-85564954D01*
X118760590Y-85665941D01*
X118678412Y-85819687D01*
X118627805Y-85986510D01*
X118610719Y-86160000D01*
X118615001Y-86203479D01*
X118615000Y-88961545D01*
X118582795Y-89009744D01*
X118504774Y-89198102D01*
X118465000Y-89398061D01*
X118465000Y-89601939D01*
X118504774Y-89801898D01*
X118582795Y-89990256D01*
X118696063Y-90159774D01*
X118840226Y-90303937D01*
X119009744Y-90417205D01*
X119198102Y-90495226D01*
X119398061Y-90535000D01*
X119601939Y-90535000D01*
X119801898Y-90495226D01*
X119990256Y-90417205D01*
X120159774Y-90303937D01*
X120303937Y-90159774D01*
X120417205Y-89990256D01*
X120495226Y-89801898D01*
X120535000Y-89601939D01*
X120535000Y-89398061D01*
X120495226Y-89198102D01*
X120417205Y-89009744D01*
X120385000Y-88961546D01*
X120385000Y-88350000D01*
X142011928Y-88350000D01*
X142024188Y-88474482D01*
X142060498Y-88594180D01*
X142119463Y-88704494D01*
X142198815Y-88801185D01*
X142295506Y-88880537D01*
X142405820Y-88939502D01*
X142525518Y-88975812D01*
X142650000Y-88988072D01*
X143214250Y-88985000D01*
X143373000Y-88826250D01*
X143373000Y-87627000D01*
X143627000Y-87627000D01*
X143627000Y-88826250D01*
X143785750Y-88985000D01*
X144350000Y-88988072D01*
X144474482Y-88975812D01*
X144594180Y-88939502D01*
X144704494Y-88880537D01*
X144801185Y-88801185D01*
X144880537Y-88704494D01*
X144939502Y-88594180D01*
X144975812Y-88474482D01*
X144988072Y-88350000D01*
X144985000Y-87785750D01*
X144826250Y-87627000D01*
X143627000Y-87627000D01*
X143373000Y-87627000D01*
X142173750Y-87627000D01*
X142015000Y-87785750D01*
X142011928Y-88350000D01*
X120385000Y-88350000D01*
X120385000Y-86526578D01*
X121441040Y-85470539D01*
X121513740Y-85485000D01*
X121806260Y-85485000D01*
X122093158Y-85427932D01*
X122363411Y-85315990D01*
X122606632Y-85153475D01*
X122813475Y-84946632D01*
X122930000Y-84772240D01*
X123046525Y-84946632D01*
X123253368Y-85153475D01*
X123496589Y-85315990D01*
X123766842Y-85427932D01*
X124053740Y-85485000D01*
X124240001Y-85485000D01*
X124240000Y-85796289D01*
X124196063Y-85840226D01*
X124082795Y-86009744D01*
X124004774Y-86198102D01*
X123965000Y-86398061D01*
X123965000Y-86601939D01*
X124004774Y-86801898D01*
X124082795Y-86990256D01*
X124196063Y-87159774D01*
X124340226Y-87303937D01*
X124509744Y-87417205D01*
X124698102Y-87495226D01*
X124898061Y-87535000D01*
X125101939Y-87535000D01*
X125301898Y-87495226D01*
X125490256Y-87417205D01*
X125659774Y-87303937D01*
X125803937Y-87159774D01*
X125917205Y-86990256D01*
X125995226Y-86801898D01*
X126025440Y-86650000D01*
X142011928Y-86650000D01*
X142015000Y-87214250D01*
X142173750Y-87373000D01*
X143373000Y-87373000D01*
X143373000Y-87353000D01*
X143627000Y-87353000D01*
X143627000Y-87373000D01*
X144826250Y-87373000D01*
X144985000Y-87214250D01*
X144988072Y-86650000D01*
X144975812Y-86525518D01*
X144939502Y-86405820D01*
X144880537Y-86295506D01*
X144801185Y-86198815D01*
X144704494Y-86119463D01*
X144594180Y-86060498D01*
X144521620Y-86038487D01*
X144653475Y-85906632D01*
X144815990Y-85663411D01*
X144927932Y-85393158D01*
X144985000Y-85106260D01*
X144985000Y-84813740D01*
X144927932Y-84526842D01*
X144815990Y-84256589D01*
X144653475Y-84013368D01*
X144446632Y-83806525D01*
X144203411Y-83644010D01*
X143933158Y-83532068D01*
X143646260Y-83475000D01*
X143353740Y-83475000D01*
X143066842Y-83532068D01*
X142796589Y-83644010D01*
X142553368Y-83806525D01*
X142346525Y-84013368D01*
X142184010Y-84256589D01*
X142072068Y-84526842D01*
X142015000Y-84813740D01*
X142015000Y-85106260D01*
X142072068Y-85393158D01*
X142184010Y-85663411D01*
X142346525Y-85906632D01*
X142478380Y-86038487D01*
X142405820Y-86060498D01*
X142295506Y-86119463D01*
X142198815Y-86198815D01*
X142119463Y-86295506D01*
X142060498Y-86405820D01*
X142024188Y-86525518D01*
X142011928Y-86650000D01*
X126025440Y-86650000D01*
X126035000Y-86601939D01*
X126035000Y-86398061D01*
X125995226Y-86198102D01*
X125917205Y-86009744D01*
X125803937Y-85840226D01*
X125760000Y-85796289D01*
X125760000Y-84837323D01*
X125763676Y-84800000D01*
X125760000Y-84762677D01*
X125760000Y-84762667D01*
X125749003Y-84651014D01*
X125705546Y-84507753D01*
X125638168Y-84381699D01*
X125685000Y-84146260D01*
X125685000Y-83853740D01*
X125627932Y-83566842D01*
X125515990Y-83296589D01*
X125353475Y-83053368D01*
X125146632Y-82846525D01*
X124903411Y-82684010D01*
X124633158Y-82572068D01*
X124346260Y-82515000D01*
X124053740Y-82515000D01*
X123766842Y-82572068D01*
X123496589Y-82684010D01*
X123253368Y-82846525D01*
X123046525Y-83053368D01*
X122930000Y-83227760D01*
X122813475Y-83053368D01*
X122606632Y-82846525D01*
X122363411Y-82684010D01*
X122093158Y-82572068D01*
X121806260Y-82515000D01*
X121513740Y-82515000D01*
X121226842Y-82572068D01*
X120956589Y-82684010D01*
X120713368Y-82846525D01*
X120506525Y-83053368D01*
X120390000Y-83227760D01*
X120273475Y-83053368D01*
X120066632Y-82846525D01*
X119823411Y-82684010D01*
X119553158Y-82572068D01*
X119266260Y-82515000D01*
X118973740Y-82515000D01*
X118686842Y-82572068D01*
X118416589Y-82684010D01*
X118173368Y-82846525D01*
X117966525Y-83053368D01*
X117850000Y-83227760D01*
X117733475Y-83053368D01*
X117526632Y-82846525D01*
X117283411Y-82684010D01*
X117013158Y-82572068D01*
X116726260Y-82515000D01*
X116433740Y-82515000D01*
X116146842Y-82572068D01*
X115876589Y-82684010D01*
X115633368Y-82846525D01*
X115426525Y-83053368D01*
X115304805Y-83235534D01*
X115235178Y-83118645D01*
X115040269Y-82902412D01*
X114806920Y-82728359D01*
X114544099Y-82603175D01*
X114396890Y-82558524D01*
X114167000Y-82679845D01*
X113913000Y-82679845D01*
X113683110Y-82558524D01*
X113535901Y-82603175D01*
X113273080Y-82728359D01*
X113039731Y-82902412D01*
X112963966Y-82986466D01*
X112939502Y-82905820D01*
X112880537Y-82795506D01*
X112801185Y-82698815D01*
X112704494Y-82619463D01*
X112594180Y-82560498D01*
X112474482Y-82524188D01*
X112350000Y-82511928D01*
X111785750Y-82515000D01*
X111627000Y-82673750D01*
X111373000Y-82673750D01*
X111214250Y-82515000D01*
X110650000Y-82511928D01*
X110525518Y-82524188D01*
X110405820Y-82560498D01*
X110295506Y-82619463D01*
X110198815Y-82698815D01*
X110119463Y-82795506D01*
X110060498Y-82905820D01*
X110024188Y-83025518D01*
X110011928Y-83150000D01*
X107660000Y-83150000D01*
X107660000Y-81027089D01*
X107733902Y-80128203D01*
X107934617Y-79329117D01*
X109765000Y-79329117D01*
X109765000Y-79670883D01*
X109831675Y-80006081D01*
X109962463Y-80321831D01*
X110152337Y-80605998D01*
X110394002Y-80847663D01*
X110678169Y-81037537D01*
X110993919Y-81168325D01*
X111329117Y-81235000D01*
X111670883Y-81235000D01*
X112006081Y-81168325D01*
X112321831Y-81037537D01*
X112530571Y-80898061D01*
X120965000Y-80898061D01*
X120965000Y-81101939D01*
X121004774Y-81301898D01*
X121082795Y-81490256D01*
X121196063Y-81659774D01*
X121340226Y-81803937D01*
X121509744Y-81917205D01*
X121698102Y-81995226D01*
X121898061Y-82035000D01*
X122101939Y-82035000D01*
X122301898Y-81995226D01*
X122490256Y-81917205D01*
X122538454Y-81885000D01*
X125961546Y-81885000D01*
X126009744Y-81917205D01*
X126198102Y-81995226D01*
X126398061Y-82035000D01*
X126601939Y-82035000D01*
X126801898Y-81995226D01*
X126990256Y-81917205D01*
X127159774Y-81803937D01*
X127303937Y-81659774D01*
X127417205Y-81490256D01*
X127495226Y-81301898D01*
X127535000Y-81101939D01*
X127535000Y-80898061D01*
X127495226Y-80698102D01*
X127417205Y-80509744D01*
X127303937Y-80340226D01*
X127159774Y-80196063D01*
X126990256Y-80082795D01*
X126801898Y-80004774D01*
X126601939Y-79965000D01*
X126398061Y-79965000D01*
X126198102Y-80004774D01*
X126009744Y-80082795D01*
X125961546Y-80115000D01*
X122538454Y-80115000D01*
X122490256Y-80082795D01*
X122301898Y-80004774D01*
X122101939Y-79965000D01*
X121898061Y-79965000D01*
X121698102Y-80004774D01*
X121509744Y-80082795D01*
X121340226Y-80196063D01*
X121196063Y-80340226D01*
X121082795Y-80509744D01*
X121004774Y-80698102D01*
X120965000Y-80898061D01*
X112530571Y-80898061D01*
X112605998Y-80847663D01*
X112847663Y-80605998D01*
X113037537Y-80321831D01*
X113168325Y-80006081D01*
X113235000Y-79670883D01*
X113235000Y-79329117D01*
X113168325Y-78993919D01*
X113108712Y-78850000D01*
X115011928Y-78850000D01*
X115024188Y-78974482D01*
X115060498Y-79094180D01*
X115119463Y-79204494D01*
X115198815Y-79301185D01*
X115295506Y-79380537D01*
X115405820Y-79439502D01*
X115525518Y-79475812D01*
X115650000Y-79488072D01*
X116214250Y-79485000D01*
X116373000Y-79326250D01*
X116373000Y-78127000D01*
X115173750Y-78127000D01*
X115015000Y-78285750D01*
X115011928Y-78850000D01*
X113108712Y-78850000D01*
X113037537Y-78678169D01*
X112847663Y-78394002D01*
X112605998Y-78152337D01*
X112321831Y-77962463D01*
X112006081Y-77831675D01*
X111670883Y-77765000D01*
X111329117Y-77765000D01*
X110993919Y-77831675D01*
X110678169Y-77962463D01*
X110394002Y-78152337D01*
X110152337Y-78394002D01*
X109962463Y-78678169D01*
X109831675Y-78993919D01*
X109765000Y-79329117D01*
X107934617Y-79329117D01*
X107947001Y-79279818D01*
X108295803Y-78477629D01*
X108770938Y-77743182D01*
X109310693Y-77150000D01*
X115011928Y-77150000D01*
X115015000Y-77714250D01*
X115173750Y-77873000D01*
X116373000Y-77873000D01*
X116373000Y-76673750D01*
X116627000Y-76673750D01*
X116627000Y-77873000D01*
X116647000Y-77873000D01*
X116647000Y-78127000D01*
X116627000Y-78127000D01*
X116627000Y-79326250D01*
X116785750Y-79485000D01*
X117350000Y-79488072D01*
X117474482Y-79475812D01*
X117594180Y-79439502D01*
X117704494Y-79380537D01*
X117801185Y-79301185D01*
X117880537Y-79204494D01*
X117939502Y-79094180D01*
X117961513Y-79021620D01*
X118093368Y-79153475D01*
X118336589Y-79315990D01*
X118606842Y-79427932D01*
X118893740Y-79485000D01*
X119186260Y-79485000D01*
X119473158Y-79427932D01*
X119743411Y-79315990D01*
X119986632Y-79153475D01*
X120193475Y-78946632D01*
X120310000Y-78772240D01*
X120426525Y-78946632D01*
X120633368Y-79153475D01*
X120876589Y-79315990D01*
X121146842Y-79427932D01*
X121433740Y-79485000D01*
X121726260Y-79485000D01*
X122013158Y-79427932D01*
X122283411Y-79315990D01*
X122526632Y-79153475D01*
X122733475Y-78946632D01*
X122850000Y-78772240D01*
X122966525Y-78946632D01*
X123173368Y-79153475D01*
X123416589Y-79315990D01*
X123686842Y-79427932D01*
X123973740Y-79485000D01*
X124266260Y-79485000D01*
X124553158Y-79427932D01*
X124823411Y-79315990D01*
X125066632Y-79153475D01*
X125273475Y-78946632D01*
X125338042Y-78850000D01*
X128511928Y-78850000D01*
X128524188Y-78974482D01*
X128560498Y-79094180D01*
X128619463Y-79204494D01*
X128698815Y-79301185D01*
X128795506Y-79380537D01*
X128905820Y-79439502D01*
X129025518Y-79475812D01*
X129150000Y-79488072D01*
X129714250Y-79485000D01*
X129873000Y-79326250D01*
X129873000Y-78127000D01*
X128673750Y-78127000D01*
X128515000Y-78285750D01*
X128511928Y-78850000D01*
X125338042Y-78850000D01*
X125435990Y-78703411D01*
X125547932Y-78433158D01*
X125605000Y-78146260D01*
X125605000Y-77853740D01*
X125547932Y-77566842D01*
X125435990Y-77296589D01*
X125338043Y-77150000D01*
X128511928Y-77150000D01*
X128515000Y-77714250D01*
X128673750Y-77873000D01*
X129873000Y-77873000D01*
X129873000Y-76673750D01*
X130127000Y-76673750D01*
X130127000Y-77873000D01*
X130147000Y-77873000D01*
X130147000Y-78127000D01*
X130127000Y-78127000D01*
X130127000Y-79326250D01*
X130285750Y-79485000D01*
X130850000Y-79488072D01*
X130974482Y-79475812D01*
X131094180Y-79439502D01*
X131204494Y-79380537D01*
X131301185Y-79301185D01*
X131380537Y-79204494D01*
X131439502Y-79094180D01*
X131461513Y-79021620D01*
X131593368Y-79153475D01*
X131836589Y-79315990D01*
X132106842Y-79427932D01*
X132393740Y-79485000D01*
X132686260Y-79485000D01*
X132973158Y-79427932D01*
X133243411Y-79315990D01*
X133486632Y-79153475D01*
X133693475Y-78946632D01*
X133810000Y-78772240D01*
X133926525Y-78946632D01*
X134133368Y-79153475D01*
X134376589Y-79315990D01*
X134646842Y-79427932D01*
X134933740Y-79485000D01*
X135226260Y-79485000D01*
X135513158Y-79427932D01*
X135783411Y-79315990D01*
X136026632Y-79153475D01*
X136233475Y-78946632D01*
X136350000Y-78772240D01*
X136466525Y-78946632D01*
X136673368Y-79153475D01*
X136916589Y-79315990D01*
X137186842Y-79427932D01*
X137473740Y-79485000D01*
X137766260Y-79485000D01*
X138053158Y-79427932D01*
X138291719Y-79329117D01*
X140765000Y-79329117D01*
X140765000Y-79670883D01*
X140831675Y-80006081D01*
X140962463Y-80321831D01*
X141152337Y-80605998D01*
X141394002Y-80847663D01*
X141678169Y-81037537D01*
X141993919Y-81168325D01*
X142329117Y-81235000D01*
X142670883Y-81235000D01*
X143006081Y-81168325D01*
X143321831Y-81037537D01*
X143605998Y-80847663D01*
X143847663Y-80605998D01*
X144037537Y-80321831D01*
X144168325Y-80006081D01*
X144235000Y-79670883D01*
X144235000Y-79329117D01*
X144168325Y-78993919D01*
X144037537Y-78678169D01*
X143847663Y-78394002D01*
X143605998Y-78152337D01*
X143321831Y-77962463D01*
X143006081Y-77831675D01*
X142670883Y-77765000D01*
X142329117Y-77765000D01*
X141993919Y-77831675D01*
X141678169Y-77962463D01*
X141394002Y-78152337D01*
X141152337Y-78394002D01*
X140962463Y-78678169D01*
X140831675Y-78993919D01*
X140765000Y-79329117D01*
X138291719Y-79329117D01*
X138323411Y-79315990D01*
X138566632Y-79153475D01*
X138773475Y-78946632D01*
X138935990Y-78703411D01*
X139047932Y-78433158D01*
X139105000Y-78146260D01*
X139105000Y-77853740D01*
X139047932Y-77566842D01*
X138935990Y-77296589D01*
X138773475Y-77053368D01*
X138566632Y-76846525D01*
X138323411Y-76684010D01*
X138053158Y-76572068D01*
X137766260Y-76515000D01*
X137473740Y-76515000D01*
X137186842Y-76572068D01*
X136916589Y-76684010D01*
X136673368Y-76846525D01*
X136466525Y-77053368D01*
X136350000Y-77227760D01*
X136233475Y-77053368D01*
X136026632Y-76846525D01*
X135783411Y-76684010D01*
X135513158Y-76572068D01*
X135226260Y-76515000D01*
X134933740Y-76515000D01*
X134646842Y-76572068D01*
X134376589Y-76684010D01*
X134133368Y-76846525D01*
X133926525Y-77053368D01*
X133810000Y-77227760D01*
X133693475Y-77053368D01*
X133486632Y-76846525D01*
X133243411Y-76684010D01*
X132973158Y-76572068D01*
X132686260Y-76515000D01*
X132393740Y-76515000D01*
X132106842Y-76572068D01*
X131836589Y-76684010D01*
X131593368Y-76846525D01*
X131461513Y-76978380D01*
X131439502Y-76905820D01*
X131380537Y-76795506D01*
X131301185Y-76698815D01*
X131204494Y-76619463D01*
X131094180Y-76560498D01*
X130974482Y-76524188D01*
X130850000Y-76511928D01*
X130285750Y-76515000D01*
X130127000Y-76673750D01*
X129873000Y-76673750D01*
X129714250Y-76515000D01*
X129150000Y-76511928D01*
X129025518Y-76524188D01*
X128905820Y-76560498D01*
X128795506Y-76619463D01*
X128698815Y-76698815D01*
X128619463Y-76795506D01*
X128560498Y-76905820D01*
X128524188Y-77025518D01*
X128511928Y-77150000D01*
X125338043Y-77150000D01*
X125273475Y-77053368D01*
X125066632Y-76846525D01*
X124823411Y-76684010D01*
X124553158Y-76572068D01*
X124266260Y-76515000D01*
X123973740Y-76515000D01*
X123686842Y-76572068D01*
X123416589Y-76684010D01*
X123173368Y-76846525D01*
X122966525Y-77053368D01*
X122850000Y-77227760D01*
X122733475Y-77053368D01*
X122526632Y-76846525D01*
X122283411Y-76684010D01*
X122013158Y-76572068D01*
X121726260Y-76515000D01*
X121433740Y-76515000D01*
X121146842Y-76572068D01*
X120876589Y-76684010D01*
X120633368Y-76846525D01*
X120426525Y-77053368D01*
X120310000Y-77227760D01*
X120193475Y-77053368D01*
X119986632Y-76846525D01*
X119743411Y-76684010D01*
X119473158Y-76572068D01*
X119186260Y-76515000D01*
X118893740Y-76515000D01*
X118606842Y-76572068D01*
X118336589Y-76684010D01*
X118093368Y-76846525D01*
X117961513Y-76978380D01*
X117939502Y-76905820D01*
X117880537Y-76795506D01*
X117801185Y-76698815D01*
X117704494Y-76619463D01*
X117594180Y-76560498D01*
X117474482Y-76524188D01*
X117350000Y-76511928D01*
X116785750Y-76515000D01*
X116627000Y-76673750D01*
X116373000Y-76673750D01*
X116214250Y-76515000D01*
X115650000Y-76511928D01*
X115525518Y-76524188D01*
X115405820Y-76560498D01*
X115295506Y-76619463D01*
X115198815Y-76698815D01*
X115119463Y-76795506D01*
X115060498Y-76905820D01*
X115024188Y-77025518D01*
X115011928Y-77150000D01*
X109310693Y-77150000D01*
X109359646Y-77096202D01*
X110046125Y-76554054D01*
X110811928Y-76131308D01*
X111636491Y-75839316D01*
X112509076Y-75683884D01*
X113015547Y-75660000D01*
X140972911Y-75660000D01*
X141871797Y-75733902D01*
%TD*%
M02*
