M48
INCH,TZ
T1C0.0157
T2C0.0394
%
G90
G05
T1
X43110Y-36024
X45669Y-37402
X45669Y-42126
X45866Y-34449
X46654Y-37402
X47047Y-35236
X47047Y-38583
X47244Y-38189
X47441Y-41535
X48031Y-31890
X48031Y-39688
X48031Y-40551
X48484Y-38130
X48525Y-36910
X48622Y-41535
X48937Y-39370
X49213Y-34055
X49213Y-40551
X49213Y-41142
X49803Y-31890
X49803Y-36614
X50000Y-37795
X50000Y-39173
X50394Y-36614
X50591Y-31890
X50994Y-38976
X51378Y-37795
X52559Y-37795
X52661Y-39722
X53012Y-38386
X53137Y-36567
X53740Y-39173
X53937Y-36811
X55118Y-41535
T2
X55693Y-37795
X55693Y-38795
X56693Y-37795
X56693Y-38795
X51181Y-30709
X52181Y-30709
X53181Y-30709
X54181Y-30709
X43307Y-40142
X43307Y-41142
X45866Y-30709
X46866Y-30709
X47866Y-30709
X48866Y-30709
X56496Y-33449
X56496Y-34449
X46063Y-43094
X46063Y-44094
X47063Y-43094
X47063Y-44094
X48063Y-43094
X48063Y-44094
X43898Y-33071
X44898Y-33071
X45898Y-33071
X46898Y-33071
X47898Y-33071
X48898Y-33071
T0
M30
