%TF.GenerationSoftware,KiCad,Pcbnew,5.1.6*%
%TF.CreationDate,2020-09-21T03:48:32+02:00*%
%TF.ProjectId,Arduino_CPU_Board,41726475-696e-46f5-9f43-50555f426f61,rev?*%
%TF.SameCoordinates,Original*%
%TF.FileFunction,Soldermask,Top*%
%TF.FilePolarity,Negative*%
%FSLAX46Y46*%
G04 Gerber Fmt 4.6, Leading zero omitted, Abs format (unit mm)*
G04 Created by KiCad (PCBNEW 5.1.6) date 2020-09-21 03:48:32*
%MOMM*%
%LPD*%
G01*
G04 APERTURE LIST*
%ADD10O,1.800000X1.800000*%
%ADD11R,1.800000X1.800000*%
%ADD12C,2.300000*%
%ADD13C,0.100000*%
%ADD14R,0.750000X1.160000*%
%ADD15R,1.000000X0.900000*%
%ADD16R,0.900000X1.000000*%
%ADD17R,1.600000X4.800000*%
G04 APERTURE END LIST*
D10*
%TO.C,J3*%
X124120000Y-78000000D03*
X121580000Y-78000000D03*
X119040000Y-78000000D03*
D11*
X116500000Y-78000000D03*
%TD*%
D12*
%TO.C,REF\u002A\u002A*%
X142500000Y-79500000D03*
%TD*%
%TO.C,REF\u002A\u002A*%
X111500000Y-79500000D03*
%TD*%
%TO.C,REF\u002A\u002A*%
X111500000Y-110500000D03*
%TD*%
%TO.C,REF\u002A\u002A*%
X142500000Y-110500000D03*
%TD*%
D13*
%TO.C,Y1*%
G36*
X111878858Y-93535355D02*
G01*
X110464645Y-92121142D01*
X110818198Y-91767589D01*
X112232411Y-93181802D01*
X111878858Y-93535355D01*
G37*
G36*
X111030330Y-94383883D02*
G01*
X109616117Y-92969670D01*
X109969670Y-92616117D01*
X111383883Y-94030330D01*
X111030330Y-94383883D01*
G37*
G36*
X110181802Y-95232411D02*
G01*
X108767589Y-93818198D01*
X109121142Y-93464645D01*
X110535355Y-94878858D01*
X110181802Y-95232411D01*
G37*
%TD*%
D14*
%TO.C,U2*%
X136500000Y-88900000D03*
X135550000Y-88900000D03*
X137450000Y-88900000D03*
X137450000Y-91100000D03*
X136500000Y-91100000D03*
X135550000Y-91100000D03*
%TD*%
D13*
%TO.C,U1*%
G36*
X118154074Y-92345747D02*
G01*
X117694455Y-91886128D01*
X118896536Y-90684047D01*
X119356155Y-91143666D01*
X118154074Y-92345747D01*
G37*
G36*
X118719759Y-92911433D02*
G01*
X118260140Y-92451814D01*
X119462221Y-91249733D01*
X119921840Y-91709352D01*
X118719759Y-92911433D01*
G37*
G36*
X119285445Y-93477118D02*
G01*
X118825826Y-93017499D01*
X120027907Y-91815418D01*
X120487526Y-92275037D01*
X119285445Y-93477118D01*
G37*
G36*
X119851130Y-94042803D02*
G01*
X119391511Y-93583184D01*
X120593592Y-92381103D01*
X121053211Y-92840722D01*
X119851130Y-94042803D01*
G37*
G36*
X120416816Y-94608489D02*
G01*
X119957197Y-94148870D01*
X121159278Y-92946789D01*
X121618897Y-93406408D01*
X120416816Y-94608489D01*
G37*
G36*
X120982501Y-95174174D02*
G01*
X120522882Y-94714555D01*
X121724963Y-93512474D01*
X122184582Y-93972093D01*
X120982501Y-95174174D01*
G37*
G36*
X121548186Y-95739860D02*
G01*
X121088567Y-95280241D01*
X122290648Y-94078160D01*
X122750267Y-94537779D01*
X121548186Y-95739860D01*
G37*
G36*
X122113872Y-96305545D02*
G01*
X121654253Y-95845926D01*
X122856334Y-94643845D01*
X123315953Y-95103464D01*
X122113872Y-96305545D01*
G37*
G36*
X121654253Y-97154074D02*
G01*
X122113872Y-96694455D01*
X123315953Y-97896536D01*
X122856334Y-98356155D01*
X121654253Y-97154074D01*
G37*
G36*
X121088567Y-97719759D02*
G01*
X121548186Y-97260140D01*
X122750267Y-98462221D01*
X122290648Y-98921840D01*
X121088567Y-97719759D01*
G37*
G36*
X120522882Y-98285445D02*
G01*
X120982501Y-97825826D01*
X122184582Y-99027907D01*
X121724963Y-99487526D01*
X120522882Y-98285445D01*
G37*
G36*
X119957197Y-98851130D02*
G01*
X120416816Y-98391511D01*
X121618897Y-99593592D01*
X121159278Y-100053211D01*
X119957197Y-98851130D01*
G37*
G36*
X119391511Y-99416816D02*
G01*
X119851130Y-98957197D01*
X121053211Y-100159278D01*
X120593592Y-100618897D01*
X119391511Y-99416816D01*
G37*
G36*
X118825826Y-99982501D02*
G01*
X119285445Y-99522882D01*
X120487526Y-100724963D01*
X120027907Y-101184582D01*
X118825826Y-99982501D01*
G37*
G36*
X118260140Y-100548186D02*
G01*
X118719759Y-100088567D01*
X119921840Y-101290648D01*
X119462221Y-101750267D01*
X118260140Y-100548186D01*
G37*
G36*
X117694455Y-101113872D02*
G01*
X118154074Y-100654253D01*
X119356155Y-101856334D01*
X118896536Y-102315953D01*
X117694455Y-101113872D01*
G37*
G36*
X116103464Y-102315953D02*
G01*
X115643845Y-101856334D01*
X116845926Y-100654253D01*
X117305545Y-101113872D01*
X116103464Y-102315953D01*
G37*
G36*
X115537779Y-101750267D02*
G01*
X115078160Y-101290648D01*
X116280241Y-100088567D01*
X116739860Y-100548186D01*
X115537779Y-101750267D01*
G37*
G36*
X114972093Y-101184582D02*
G01*
X114512474Y-100724963D01*
X115714555Y-99522882D01*
X116174174Y-99982501D01*
X114972093Y-101184582D01*
G37*
G36*
X114406408Y-100618897D02*
G01*
X113946789Y-100159278D01*
X115148870Y-98957197D01*
X115608489Y-99416816D01*
X114406408Y-100618897D01*
G37*
G36*
X113840722Y-100053211D02*
G01*
X113381103Y-99593592D01*
X114583184Y-98391511D01*
X115042803Y-98851130D01*
X113840722Y-100053211D01*
G37*
G36*
X113275037Y-99487526D02*
G01*
X112815418Y-99027907D01*
X114017499Y-97825826D01*
X114477118Y-98285445D01*
X113275037Y-99487526D01*
G37*
G36*
X112709352Y-98921840D02*
G01*
X112249733Y-98462221D01*
X113451814Y-97260140D01*
X113911433Y-97719759D01*
X112709352Y-98921840D01*
G37*
G36*
X112143666Y-98356155D02*
G01*
X111684047Y-97896536D01*
X112886128Y-96694455D01*
X113345747Y-97154074D01*
X112143666Y-98356155D01*
G37*
G36*
X111684047Y-95103464D02*
G01*
X112143666Y-94643845D01*
X113345747Y-95845926D01*
X112886128Y-96305545D01*
X111684047Y-95103464D01*
G37*
G36*
X112249733Y-94537779D02*
G01*
X112709352Y-94078160D01*
X113911433Y-95280241D01*
X113451814Y-95739860D01*
X112249733Y-94537779D01*
G37*
G36*
X112815418Y-93972093D02*
G01*
X113275037Y-93512474D01*
X114477118Y-94714555D01*
X114017499Y-95174174D01*
X112815418Y-93972093D01*
G37*
G36*
X113381103Y-93406408D02*
G01*
X113840722Y-92946789D01*
X115042803Y-94148870D01*
X114583184Y-94608489D01*
X113381103Y-93406408D01*
G37*
G36*
X113946789Y-92840722D02*
G01*
X114406408Y-92381103D01*
X115608489Y-93583184D01*
X115148870Y-94042803D01*
X113946789Y-92840722D01*
G37*
G36*
X114512474Y-92275037D02*
G01*
X114972093Y-91815418D01*
X116174174Y-93017499D01*
X115714555Y-93477118D01*
X114512474Y-92275037D01*
G37*
G36*
X115078160Y-91709352D02*
G01*
X115537779Y-91249733D01*
X116739860Y-92451814D01*
X116280241Y-92911433D01*
X115078160Y-91709352D01*
G37*
G36*
X115643845Y-91143666D02*
G01*
X116103464Y-90684047D01*
X117305545Y-91886128D01*
X116845926Y-92345747D01*
X115643845Y-91143666D01*
G37*
%TD*%
D10*
%TO.C,Switch*%
X141460000Y-98540000D03*
X141460000Y-96000000D03*
X144000000Y-98540000D03*
D11*
X144000000Y-96000000D03*
%TD*%
%TO.C,R9*%
G36*
G01*
X137225000Y-106155000D02*
X137225000Y-104845000D01*
G75*
G02*
X137495000Y-104575000I270000J0D01*
G01*
X138305000Y-104575000D01*
G75*
G02*
X138575000Y-104845000I0J-270000D01*
G01*
X138575000Y-106155000D01*
G75*
G02*
X138305000Y-106425000I-270000J0D01*
G01*
X137495000Y-106425000D01*
G75*
G02*
X137225000Y-106155000I0J270000D01*
G01*
G37*
G36*
G01*
X134425000Y-106155000D02*
X134425000Y-104845000D01*
G75*
G02*
X134695000Y-104575000I270000J0D01*
G01*
X135505000Y-104575000D01*
G75*
G02*
X135775000Y-104845000I0J-270000D01*
G01*
X135775000Y-106155000D01*
G75*
G02*
X135505000Y-106425000I-270000J0D01*
G01*
X134695000Y-106425000D01*
G75*
G02*
X134425000Y-106155000I0J270000D01*
G01*
G37*
%TD*%
%TO.C,R8*%
G36*
G01*
X135775000Y-101845000D02*
X135775000Y-103155000D01*
G75*
G02*
X135505000Y-103425000I-270000J0D01*
G01*
X134695000Y-103425000D01*
G75*
G02*
X134425000Y-103155000I0J270000D01*
G01*
X134425000Y-101845000D01*
G75*
G02*
X134695000Y-101575000I270000J0D01*
G01*
X135505000Y-101575000D01*
G75*
G02*
X135775000Y-101845000I0J-270000D01*
G01*
G37*
G36*
G01*
X138575000Y-101845000D02*
X138575000Y-103155000D01*
G75*
G02*
X138305000Y-103425000I-270000J0D01*
G01*
X137495000Y-103425000D01*
G75*
G02*
X137225000Y-103155000I0J270000D01*
G01*
X137225000Y-101845000D01*
G75*
G02*
X137495000Y-101575000I270000J0D01*
G01*
X138305000Y-101575000D01*
G75*
G02*
X138575000Y-101845000I0J-270000D01*
G01*
G37*
%TD*%
%TO.C,R7*%
G36*
G01*
X128275000Y-107345000D02*
X128275000Y-108655000D01*
G75*
G02*
X128005000Y-108925000I-270000J0D01*
G01*
X127195000Y-108925000D01*
G75*
G02*
X126925000Y-108655000I0J270000D01*
G01*
X126925000Y-107345000D01*
G75*
G02*
X127195000Y-107075000I270000J0D01*
G01*
X128005000Y-107075000D01*
G75*
G02*
X128275000Y-107345000I0J-270000D01*
G01*
G37*
G36*
G01*
X131075000Y-107345000D02*
X131075000Y-108655000D01*
G75*
G02*
X130805000Y-108925000I-270000J0D01*
G01*
X129995000Y-108925000D01*
G75*
G02*
X129725000Y-108655000I0J270000D01*
G01*
X129725000Y-107345000D01*
G75*
G02*
X129995000Y-107075000I270000J0D01*
G01*
X130805000Y-107075000D01*
G75*
G02*
X131075000Y-107345000I0J-270000D01*
G01*
G37*
%TD*%
%TO.C,R6*%
G36*
G01*
X132345000Y-96725000D02*
X133655000Y-96725000D01*
G75*
G02*
X133925000Y-96995000I0J-270000D01*
G01*
X133925000Y-97805000D01*
G75*
G02*
X133655000Y-98075000I-270000J0D01*
G01*
X132345000Y-98075000D01*
G75*
G02*
X132075000Y-97805000I0J270000D01*
G01*
X132075000Y-96995000D01*
G75*
G02*
X132345000Y-96725000I270000J0D01*
G01*
G37*
G36*
G01*
X132345000Y-93925000D02*
X133655000Y-93925000D01*
G75*
G02*
X133925000Y-94195000I0J-270000D01*
G01*
X133925000Y-95005000D01*
G75*
G02*
X133655000Y-95275000I-270000J0D01*
G01*
X132345000Y-95275000D01*
G75*
G02*
X132075000Y-95005000I0J270000D01*
G01*
X132075000Y-94195000D01*
G75*
G02*
X132345000Y-93925000I270000J0D01*
G01*
G37*
%TD*%
%TO.C,R5*%
G36*
G01*
X129345000Y-91125000D02*
X130655000Y-91125000D01*
G75*
G02*
X130925000Y-91395000I0J-270000D01*
G01*
X130925000Y-92205000D01*
G75*
G02*
X130655000Y-92475000I-270000J0D01*
G01*
X129345000Y-92475000D01*
G75*
G02*
X129075000Y-92205000I0J270000D01*
G01*
X129075000Y-91395000D01*
G75*
G02*
X129345000Y-91125000I270000J0D01*
G01*
G37*
G36*
G01*
X129345000Y-88325000D02*
X130655000Y-88325000D01*
G75*
G02*
X130925000Y-88595000I0J-270000D01*
G01*
X130925000Y-89405000D01*
G75*
G02*
X130655000Y-89675000I-270000J0D01*
G01*
X129345000Y-89675000D01*
G75*
G02*
X129075000Y-89405000I0J270000D01*
G01*
X129075000Y-88595000D01*
G75*
G02*
X129345000Y-88325000I270000J0D01*
G01*
G37*
%TD*%
%TO.C,R4*%
G36*
G01*
X142725000Y-91655000D02*
X142725000Y-90345000D01*
G75*
G02*
X142995000Y-90075000I270000J0D01*
G01*
X143805000Y-90075000D01*
G75*
G02*
X144075000Y-90345000I0J-270000D01*
G01*
X144075000Y-91655000D01*
G75*
G02*
X143805000Y-91925000I-270000J0D01*
G01*
X142995000Y-91925000D01*
G75*
G02*
X142725000Y-91655000I0J270000D01*
G01*
G37*
G36*
G01*
X139925000Y-91655000D02*
X139925000Y-90345000D01*
G75*
G02*
X140195000Y-90075000I270000J0D01*
G01*
X141005000Y-90075000D01*
G75*
G02*
X141275000Y-90345000I0J-270000D01*
G01*
X141275000Y-91655000D01*
G75*
G02*
X141005000Y-91925000I-270000J0D01*
G01*
X140195000Y-91925000D01*
G75*
G02*
X139925000Y-91655000I0J270000D01*
G01*
G37*
%TD*%
%TO.C,R3*%
G36*
G01*
X129345000Y-96725000D02*
X130655000Y-96725000D01*
G75*
G02*
X130925000Y-96995000I0J-270000D01*
G01*
X130925000Y-97805000D01*
G75*
G02*
X130655000Y-98075000I-270000J0D01*
G01*
X129345000Y-98075000D01*
G75*
G02*
X129075000Y-97805000I0J270000D01*
G01*
X129075000Y-96995000D01*
G75*
G02*
X129345000Y-96725000I270000J0D01*
G01*
G37*
G36*
G01*
X129345000Y-93925000D02*
X130655000Y-93925000D01*
G75*
G02*
X130925000Y-94195000I0J-270000D01*
G01*
X130925000Y-95005000D01*
G75*
G02*
X130655000Y-95275000I-270000J0D01*
G01*
X129345000Y-95275000D01*
G75*
G02*
X129075000Y-95005000I0J270000D01*
G01*
X129075000Y-94195000D01*
G75*
G02*
X129345000Y-93925000I270000J0D01*
G01*
G37*
%TD*%
%TO.C,R2*%
G36*
G01*
X135775000Y-98845000D02*
X135775000Y-100155000D01*
G75*
G02*
X135505000Y-100425000I-270000J0D01*
G01*
X134695000Y-100425000D01*
G75*
G02*
X134425000Y-100155000I0J270000D01*
G01*
X134425000Y-98845000D01*
G75*
G02*
X134695000Y-98575000I270000J0D01*
G01*
X135505000Y-98575000D01*
G75*
G02*
X135775000Y-98845000I0J-270000D01*
G01*
G37*
G36*
G01*
X138575000Y-98845000D02*
X138575000Y-100155000D01*
G75*
G02*
X138305000Y-100425000I-270000J0D01*
G01*
X137495000Y-100425000D01*
G75*
G02*
X137225000Y-100155000I0J270000D01*
G01*
X137225000Y-98845000D01*
G75*
G02*
X137495000Y-98575000I270000J0D01*
G01*
X138305000Y-98575000D01*
G75*
G02*
X138575000Y-98845000I0J-270000D01*
G01*
G37*
%TD*%
%TO.C,R1*%
G36*
G01*
X126345000Y-96725000D02*
X127655000Y-96725000D01*
G75*
G02*
X127925000Y-96995000I0J-270000D01*
G01*
X127925000Y-97805000D01*
G75*
G02*
X127655000Y-98075000I-270000J0D01*
G01*
X126345000Y-98075000D01*
G75*
G02*
X126075000Y-97805000I0J270000D01*
G01*
X126075000Y-96995000D01*
G75*
G02*
X126345000Y-96725000I270000J0D01*
G01*
G37*
G36*
G01*
X126345000Y-93925000D02*
X127655000Y-93925000D01*
G75*
G02*
X127925000Y-94195000I0J-270000D01*
G01*
X127925000Y-95005000D01*
G75*
G02*
X127655000Y-95275000I-270000J0D01*
G01*
X126345000Y-95275000D01*
G75*
G02*
X126075000Y-95005000I0J270000D01*
G01*
X126075000Y-94195000D01*
G75*
G02*
X126345000Y-93925000I270000J0D01*
G01*
G37*
%TD*%
D15*
%TO.C,Q2*%
X138500000Y-96000000D03*
X136500000Y-96950000D03*
X136500000Y-95050000D03*
%TD*%
D16*
%TO.C,Q1*%
X131500000Y-99500000D03*
X132450000Y-101500000D03*
X130550000Y-101500000D03*
%TD*%
D17*
%TO.C,L1*%
X131675000Y-84500000D03*
X135325000Y-84500000D03*
%TD*%
D10*
%TO.C,J7*%
X122080000Y-109460000D03*
X122080000Y-112000000D03*
X119540000Y-109460000D03*
X119540000Y-112000000D03*
X117000000Y-109460000D03*
D11*
X117000000Y-112000000D03*
%TD*%
D10*
%TO.C,J6*%
X137620000Y-78000000D03*
X135080000Y-78000000D03*
X132540000Y-78000000D03*
D11*
X130000000Y-78000000D03*
%TD*%
D10*
%TO.C,J5*%
X110000000Y-101960000D03*
D11*
X110000000Y-104500000D03*
%TD*%
D10*
%TO.C,J2*%
X124200000Y-84000000D03*
X121660000Y-84000000D03*
X119120000Y-84000000D03*
X116580000Y-84000000D03*
X114040000Y-84000000D03*
D11*
X111500000Y-84000000D03*
%TD*%
D10*
%TO.C,J1*%
X143500000Y-84960000D03*
D11*
X143500000Y-87500000D03*
%TD*%
%TO.C,C6*%
G36*
G01*
X127845000Y-84725000D02*
X129155000Y-84725000D01*
G75*
G02*
X129425000Y-84995000I0J-270000D01*
G01*
X129425000Y-85805000D01*
G75*
G02*
X129155000Y-86075000I-270000J0D01*
G01*
X127845000Y-86075000D01*
G75*
G02*
X127575000Y-85805000I0J270000D01*
G01*
X127575000Y-84995000D01*
G75*
G02*
X127845000Y-84725000I270000J0D01*
G01*
G37*
G36*
G01*
X127845000Y-81925000D02*
X129155000Y-81925000D01*
G75*
G02*
X129425000Y-82195000I0J-270000D01*
G01*
X129425000Y-83005000D01*
G75*
G02*
X129155000Y-83275000I-270000J0D01*
G01*
X127845000Y-83275000D01*
G75*
G02*
X127575000Y-83005000I0J270000D01*
G01*
X127575000Y-82195000D01*
G75*
G02*
X127845000Y-81925000I270000J0D01*
G01*
G37*
%TD*%
%TO.C,C5*%
G36*
G01*
X128275000Y-110845000D02*
X128275000Y-112155000D01*
G75*
G02*
X128005000Y-112425000I-270000J0D01*
G01*
X127195000Y-112425000D01*
G75*
G02*
X126925000Y-112155000I0J270000D01*
G01*
X126925000Y-110845000D01*
G75*
G02*
X127195000Y-110575000I270000J0D01*
G01*
X128005000Y-110575000D01*
G75*
G02*
X128275000Y-110845000I0J-270000D01*
G01*
G37*
G36*
G01*
X131075000Y-110845000D02*
X131075000Y-112155000D01*
G75*
G02*
X130805000Y-112425000I-270000J0D01*
G01*
X129995000Y-112425000D01*
G75*
G02*
X129725000Y-112155000I0J270000D01*
G01*
X129725000Y-110845000D01*
G75*
G02*
X129995000Y-110575000I270000J0D01*
G01*
X130805000Y-110575000D01*
G75*
G02*
X131075000Y-110845000I0J-270000D01*
G01*
G37*
%TD*%
%TO.C,C4*%
G36*
G01*
X133655000Y-89775000D02*
X132345000Y-89775000D01*
G75*
G02*
X132075000Y-89505000I0J270000D01*
G01*
X132075000Y-88695000D01*
G75*
G02*
X132345000Y-88425000I270000J0D01*
G01*
X133655000Y-88425000D01*
G75*
G02*
X133925000Y-88695000I0J-270000D01*
G01*
X133925000Y-89505000D01*
G75*
G02*
X133655000Y-89775000I-270000J0D01*
G01*
G37*
G36*
G01*
X133655000Y-92575000D02*
X132345000Y-92575000D01*
G75*
G02*
X132075000Y-92305000I0J270000D01*
G01*
X132075000Y-91495000D01*
G75*
G02*
X132345000Y-91225000I270000J0D01*
G01*
X133655000Y-91225000D01*
G75*
G02*
X133925000Y-91495000I0J-270000D01*
G01*
X133925000Y-92305000D01*
G75*
G02*
X133655000Y-92575000I-270000J0D01*
G01*
G37*
%TD*%
%TO.C,C3*%
G36*
G01*
X115475807Y-89450503D02*
X114549497Y-88524193D01*
G75*
G02*
X114549497Y-88142355I190919J190919D01*
G01*
X115122253Y-87569599D01*
G75*
G02*
X115504091Y-87569599I190919J-190919D01*
G01*
X116430401Y-88495909D01*
G75*
G02*
X116430401Y-88877747I-190919J-190919D01*
G01*
X115857645Y-89450503D01*
G75*
G02*
X115475807Y-89450503I-190919J190919D01*
G01*
G37*
G36*
G01*
X113495909Y-91430401D02*
X112569599Y-90504091D01*
G75*
G02*
X112569599Y-90122253I190919J190919D01*
G01*
X113142355Y-89549497D01*
G75*
G02*
X113524193Y-89549497I190919J-190919D01*
G01*
X114450503Y-90475807D01*
G75*
G02*
X114450503Y-90857645I-190919J-190919D01*
G01*
X113877747Y-91430401D01*
G75*
G02*
X113495909Y-91430401I-190919J190919D01*
G01*
G37*
%TD*%
%TO.C,C2*%
G36*
G01*
X122725000Y-104155000D02*
X122725000Y-102845000D01*
G75*
G02*
X122995000Y-102575000I270000J0D01*
G01*
X123805000Y-102575000D01*
G75*
G02*
X124075000Y-102845000I0J-270000D01*
G01*
X124075000Y-104155000D01*
G75*
G02*
X123805000Y-104425000I-270000J0D01*
G01*
X122995000Y-104425000D01*
G75*
G02*
X122725000Y-104155000I0J270000D01*
G01*
G37*
G36*
G01*
X119925000Y-104155000D02*
X119925000Y-102845000D01*
G75*
G02*
X120195000Y-102575000I270000J0D01*
G01*
X121005000Y-102575000D01*
G75*
G02*
X121275000Y-102845000I0J-270000D01*
G01*
X121275000Y-104155000D01*
G75*
G02*
X121005000Y-104425000I-270000J0D01*
G01*
X120195000Y-104425000D01*
G75*
G02*
X119925000Y-104155000I0J270000D01*
G01*
G37*
%TD*%
%TO.C,C1*%
G36*
G01*
X139655000Y-83775000D02*
X138345000Y-83775000D01*
G75*
G02*
X138075000Y-83505000I0J270000D01*
G01*
X138075000Y-82695000D01*
G75*
G02*
X138345000Y-82425000I270000J0D01*
G01*
X139655000Y-82425000D01*
G75*
G02*
X139925000Y-82695000I0J-270000D01*
G01*
X139925000Y-83505000D01*
G75*
G02*
X139655000Y-83775000I-270000J0D01*
G01*
G37*
G36*
G01*
X139655000Y-86575000D02*
X138345000Y-86575000D01*
G75*
G02*
X138075000Y-86305000I0J270000D01*
G01*
X138075000Y-85495000D01*
G75*
G02*
X138345000Y-85225000I270000J0D01*
G01*
X139655000Y-85225000D01*
G75*
G02*
X139925000Y-85495000I0J-270000D01*
G01*
X139925000Y-86305000D01*
G75*
G02*
X139655000Y-86575000I-270000J0D01*
G01*
G37*
%TD*%
M02*
