%TF.GenerationSoftware,KiCad,Pcbnew,5.1.6*%
%TF.CreationDate,2020-09-21T04:05:30+02:00*%
%TF.ProjectId,AL8853_Led_driver,414c3838-3533-45f4-9c65-645f64726976,rev?*%
%TF.SameCoordinates,Original*%
%TF.FileFunction,Copper,L1,Top*%
%TF.FilePolarity,Positive*%
%FSLAX46Y46*%
G04 Gerber Fmt 4.6, Leading zero omitted, Abs format (unit mm)*
G04 Created by KiCad (PCBNEW 5.1.6) date 2020-09-21 04:05:30*
%MOMM*%
%LPD*%
G01*
G04 APERTURE LIST*
%TA.AperFunction,ComponentPad*%
%ADD10O,1.700000X1.700000*%
%TD*%
%TA.AperFunction,ComponentPad*%
%ADD11R,1.700000X1.700000*%
%TD*%
%TA.AperFunction,SMDPad,CuDef*%
%ADD12R,6.400000X5.800000*%
%TD*%
%TA.AperFunction,SMDPad,CuDef*%
%ADD13R,2.200000X1.200000*%
%TD*%
%TA.AperFunction,SMDPad,CuDef*%
%ADD14R,3.100000X5.000000*%
%TD*%
%TA.AperFunction,ComponentPad*%
%ADD15C,4.400000*%
%TD*%
%TA.AperFunction,SMDPad,CuDef*%
%ADD16R,4.960000X3.800000*%
%TD*%
%TA.AperFunction,SMDPad,CuDef*%
%ADD17R,1.440000X1.600000*%
%TD*%
%TA.AperFunction,ViaPad*%
%ADD18C,0.800000*%
%TD*%
%TA.AperFunction,Conductor*%
%ADD19C,3.000000*%
%TD*%
%TA.AperFunction,Conductor*%
%ADD20C,0.750000*%
%TD*%
%TA.AperFunction,Conductor*%
%ADD21C,1.000000*%
%TD*%
%TA.AperFunction,Conductor*%
%ADD22C,2.000000*%
%TD*%
%TA.AperFunction,Conductor*%
%ADD23C,0.500000*%
%TD*%
%TA.AperFunction,Conductor*%
%ADD24C,0.254000*%
%TD*%
G04 APERTURE END LIST*
%TO.P,U1,8*%
%TO.N,Net-(R1-Pad1)*%
%TA.AperFunction,SMDPad,CuDef*%
G36*
G01*
X99490000Y-126515000D02*
X99490000Y-126215000D01*
G75*
G02*
X99640000Y-126065000I150000J0D01*
G01*
X101090000Y-126065000D01*
G75*
G02*
X101240000Y-126215000I0J-150000D01*
G01*
X101240000Y-126515000D01*
G75*
G02*
X101090000Y-126665000I-150000J0D01*
G01*
X99640000Y-126665000D01*
G75*
G02*
X99490000Y-126515000I0J150000D01*
G01*
G37*
%TD.AperFunction*%
%TO.P,U1,7*%
%TO.N,Net-(R4-Pad1)*%
%TA.AperFunction,SMDPad,CuDef*%
G36*
G01*
X99490000Y-127785000D02*
X99490000Y-127485000D01*
G75*
G02*
X99640000Y-127335000I150000J0D01*
G01*
X101090000Y-127335000D01*
G75*
G02*
X101240000Y-127485000I0J-150000D01*
G01*
X101240000Y-127785000D01*
G75*
G02*
X101090000Y-127935000I-150000J0D01*
G01*
X99640000Y-127935000D01*
G75*
G02*
X99490000Y-127785000I0J150000D01*
G01*
G37*
%TD.AperFunction*%
%TO.P,U1,6*%
%TO.N,Net-(C2-Pad1)*%
%TA.AperFunction,SMDPad,CuDef*%
G36*
G01*
X99490000Y-129055000D02*
X99490000Y-128755000D01*
G75*
G02*
X99640000Y-128605000I150000J0D01*
G01*
X101090000Y-128605000D01*
G75*
G02*
X101240000Y-128755000I0J-150000D01*
G01*
X101240000Y-129055000D01*
G75*
G02*
X101090000Y-129205000I-150000J0D01*
G01*
X99640000Y-129205000D01*
G75*
G02*
X99490000Y-129055000I0J150000D01*
G01*
G37*
%TD.AperFunction*%
%TO.P,U1,5*%
%TO.N,Net-(J3-Pad1)*%
%TA.AperFunction,SMDPad,CuDef*%
G36*
G01*
X99490000Y-130325000D02*
X99490000Y-130025000D01*
G75*
G02*
X99640000Y-129875000I150000J0D01*
G01*
X101090000Y-129875000D01*
G75*
G02*
X101240000Y-130025000I0J-150000D01*
G01*
X101240000Y-130325000D01*
G75*
G02*
X101090000Y-130475000I-150000J0D01*
G01*
X99640000Y-130475000D01*
G75*
G02*
X99490000Y-130325000I0J150000D01*
G01*
G37*
%TD.AperFunction*%
%TO.P,U1,4*%
%TO.N,Net-(Q1-Pad3)*%
%TA.AperFunction,SMDPad,CuDef*%
G36*
G01*
X94340000Y-130325000D02*
X94340000Y-130025000D01*
G75*
G02*
X94490000Y-129875000I150000J0D01*
G01*
X95940000Y-129875000D01*
G75*
G02*
X96090000Y-130025000I0J-150000D01*
G01*
X96090000Y-130325000D01*
G75*
G02*
X95940000Y-130475000I-150000J0D01*
G01*
X94490000Y-130475000D01*
G75*
G02*
X94340000Y-130325000I0J150000D01*
G01*
G37*
%TD.AperFunction*%
%TO.P,U1,3*%
%TO.N,GND*%
%TA.AperFunction,SMDPad,CuDef*%
G36*
G01*
X94340000Y-129055000D02*
X94340000Y-128755000D01*
G75*
G02*
X94490000Y-128605000I150000J0D01*
G01*
X95940000Y-128605000D01*
G75*
G02*
X96090000Y-128755000I0J-150000D01*
G01*
X96090000Y-129055000D01*
G75*
G02*
X95940000Y-129205000I-150000J0D01*
G01*
X94490000Y-129205000D01*
G75*
G02*
X94340000Y-129055000I0J150000D01*
G01*
G37*
%TD.AperFunction*%
%TO.P,U1,2*%
%TO.N,Net-(Q1-Pad1)*%
%TA.AperFunction,SMDPad,CuDef*%
G36*
G01*
X94340000Y-127785000D02*
X94340000Y-127485000D01*
G75*
G02*
X94490000Y-127335000I150000J0D01*
G01*
X95940000Y-127335000D01*
G75*
G02*
X96090000Y-127485000I0J-150000D01*
G01*
X96090000Y-127785000D01*
G75*
G02*
X95940000Y-127935000I-150000J0D01*
G01*
X94490000Y-127935000D01*
G75*
G02*
X94340000Y-127785000I0J150000D01*
G01*
G37*
%TD.AperFunction*%
%TO.P,U1,1*%
%TO.N,Net-(C1-Pad1)*%
%TA.AperFunction,SMDPad,CuDef*%
G36*
G01*
X94340000Y-126515000D02*
X94340000Y-126215000D01*
G75*
G02*
X94490000Y-126065000I150000J0D01*
G01*
X95940000Y-126065000D01*
G75*
G02*
X96090000Y-126215000I0J-150000D01*
G01*
X96090000Y-126515000D01*
G75*
G02*
X95940000Y-126665000I-150000J0D01*
G01*
X94490000Y-126665000D01*
G75*
G02*
X94340000Y-126515000I0J150000D01*
G01*
G37*
%TD.AperFunction*%
%TD*%
D10*
%TO.P,J2,2*%
%TO.N,Net-(J2-Pad2)*%
X109000000Y-125960000D03*
D11*
%TO.P,J2,1*%
%TO.N,GND*%
X109000000Y-128500000D03*
%TD*%
%TO.P,R1,2*%
%TO.N,Net-(J2-Pad2)*%
%TA.AperFunction,SMDPad,CuDef*%
G36*
G01*
X104875000Y-128125000D02*
X104875000Y-126875000D01*
G75*
G02*
X105125000Y-126625000I250000J0D01*
G01*
X105875000Y-126625000D01*
G75*
G02*
X106125000Y-126875000I0J-250000D01*
G01*
X106125000Y-128125000D01*
G75*
G02*
X105875000Y-128375000I-250000J0D01*
G01*
X105125000Y-128375000D01*
G75*
G02*
X104875000Y-128125000I0J250000D01*
G01*
G37*
%TD.AperFunction*%
%TO.P,R1,1*%
%TO.N,Net-(R1-Pad1)*%
%TA.AperFunction,SMDPad,CuDef*%
G36*
G01*
X102075000Y-128125000D02*
X102075000Y-126875000D01*
G75*
G02*
X102325000Y-126625000I250000J0D01*
G01*
X103075000Y-126625000D01*
G75*
G02*
X103325000Y-126875000I0J-250000D01*
G01*
X103325000Y-128125000D01*
G75*
G02*
X103075000Y-128375000I-250000J0D01*
G01*
X102325000Y-128375000D01*
G75*
G02*
X102075000Y-128125000I0J250000D01*
G01*
G37*
%TD.AperFunction*%
%TD*%
%TO.P,R6,2*%
%TO.N,Net-(J3-Pad1)*%
%TA.AperFunction,SMDPad,CuDef*%
G36*
G01*
X75555000Y-124470000D02*
X75555000Y-125720000D01*
G75*
G02*
X75305000Y-125970000I-250000J0D01*
G01*
X74555000Y-125970000D01*
G75*
G02*
X74305000Y-125720000I0J250000D01*
G01*
X74305000Y-124470000D01*
G75*
G02*
X74555000Y-124220000I250000J0D01*
G01*
X75305000Y-124220000D01*
G75*
G02*
X75555000Y-124470000I0J-250000D01*
G01*
G37*
%TD.AperFunction*%
%TO.P,R6,1*%
%TO.N,GND*%
%TA.AperFunction,SMDPad,CuDef*%
G36*
G01*
X78355000Y-124470000D02*
X78355000Y-125720000D01*
G75*
G02*
X78105000Y-125970000I-250000J0D01*
G01*
X77355000Y-125970000D01*
G75*
G02*
X77105000Y-125720000I0J250000D01*
G01*
X77105000Y-124470000D01*
G75*
G02*
X77355000Y-124220000I250000J0D01*
G01*
X78105000Y-124220000D01*
G75*
G02*
X78355000Y-124470000I0J-250000D01*
G01*
G37*
%TD.AperFunction*%
%TD*%
%TO.P,R5,2*%
%TO.N,Net-(R4-Pad1)*%
%TA.AperFunction,SMDPad,CuDef*%
G36*
G01*
X90795000Y-120380000D02*
X89545000Y-120380000D01*
G75*
G02*
X89295000Y-120130000I0J250000D01*
G01*
X89295000Y-119380000D01*
G75*
G02*
X89545000Y-119130000I250000J0D01*
G01*
X90795000Y-119130000D01*
G75*
G02*
X91045000Y-119380000I0J-250000D01*
G01*
X91045000Y-120130000D01*
G75*
G02*
X90795000Y-120380000I-250000J0D01*
G01*
G37*
%TD.AperFunction*%
%TO.P,R5,1*%
%TO.N,GND*%
%TA.AperFunction,SMDPad,CuDef*%
G36*
G01*
X90795000Y-123180000D02*
X89545000Y-123180000D01*
G75*
G02*
X89295000Y-122930000I0J250000D01*
G01*
X89295000Y-122180000D01*
G75*
G02*
X89545000Y-121930000I250000J0D01*
G01*
X90795000Y-121930000D01*
G75*
G02*
X91045000Y-122180000I0J-250000D01*
G01*
X91045000Y-122930000D01*
G75*
G02*
X90795000Y-123180000I-250000J0D01*
G01*
G37*
%TD.AperFunction*%
%TD*%
%TO.P,R4,2*%
%TO.N,Net-(C3-Pad1)*%
%TA.AperFunction,SMDPad,CuDef*%
G36*
G01*
X90795000Y-115560000D02*
X89545000Y-115560000D01*
G75*
G02*
X89295000Y-115310000I0J250000D01*
G01*
X89295000Y-114560000D01*
G75*
G02*
X89545000Y-114310000I250000J0D01*
G01*
X90795000Y-114310000D01*
G75*
G02*
X91045000Y-114560000I0J-250000D01*
G01*
X91045000Y-115310000D01*
G75*
G02*
X90795000Y-115560000I-250000J0D01*
G01*
G37*
%TD.AperFunction*%
%TO.P,R4,1*%
%TO.N,Net-(R4-Pad1)*%
%TA.AperFunction,SMDPad,CuDef*%
G36*
G01*
X90795000Y-118360000D02*
X89545000Y-118360000D01*
G75*
G02*
X89295000Y-118110000I0J250000D01*
G01*
X89295000Y-117360000D01*
G75*
G02*
X89545000Y-117110000I250000J0D01*
G01*
X90795000Y-117110000D01*
G75*
G02*
X91045000Y-117360000I0J-250000D01*
G01*
X91045000Y-118110000D01*
G75*
G02*
X90795000Y-118360000I-250000J0D01*
G01*
G37*
%TD.AperFunction*%
%TD*%
%TO.P,R3,2*%
%TO.N,Net-(Q1-Pad3)*%
%TA.AperFunction,SMDPad,CuDef*%
G36*
G01*
X105604999Y-121245000D02*
X107755001Y-121245000D01*
G75*
G02*
X108005000Y-121494999I0J-249999D01*
G01*
X108005000Y-122345001D01*
G75*
G02*
X107755001Y-122595000I-249999J0D01*
G01*
X105604999Y-122595000D01*
G75*
G02*
X105355000Y-122345001I0J249999D01*
G01*
X105355000Y-121494999D01*
G75*
G02*
X105604999Y-121245000I249999J0D01*
G01*
G37*
%TD.AperFunction*%
%TO.P,R3,1*%
%TO.N,GND*%
%TA.AperFunction,SMDPad,CuDef*%
G36*
G01*
X105604999Y-116745000D02*
X107755001Y-116745000D01*
G75*
G02*
X108005000Y-116994999I0J-249999D01*
G01*
X108005000Y-117845001D01*
G75*
G02*
X107755001Y-118095000I-249999J0D01*
G01*
X105604999Y-118095000D01*
G75*
G02*
X105355000Y-117845001I0J249999D01*
G01*
X105355000Y-116994999D01*
G75*
G02*
X105604999Y-116745000I249999J0D01*
G01*
G37*
%TD.AperFunction*%
%TD*%
D12*
%TO.P,Q1,2*%
%TO.N,Net-(D2-Pad1)*%
X96325000Y-120015000D03*
D13*
%TO.P,Q1,3*%
%TO.N,Net-(Q1-Pad3)*%
X102625000Y-117735000D03*
%TO.P,Q1,1*%
%TO.N,Net-(Q1-Pad1)*%
X102625000Y-122295000D03*
%TD*%
D14*
%TO.P,L1,1*%
%TO.N,Net-(C1-Pad1)*%
X104140000Y-108585000D03*
%TO.P,L1,2*%
%TO.N,Net-(D2-Pad1)*%
X93040000Y-108585000D03*
%TD*%
D15*
%TO.P,J3,2*%
%TO.N,Net-(C3-Pad1)*%
X75000000Y-109200000D03*
%TO.P,J3,1*%
%TO.N,Net-(J3-Pad1)*%
%TA.AperFunction,ComponentPad*%
G36*
G01*
X76950001Y-120200000D02*
X73049999Y-120200000D01*
G75*
G02*
X72800000Y-119950001I0J249999D01*
G01*
X72800000Y-116049999D01*
G75*
G02*
X73049999Y-115800000I249999J0D01*
G01*
X76950001Y-115800000D01*
G75*
G02*
X77200000Y-116049999I0J-249999D01*
G01*
X77200000Y-119950001D01*
G75*
G02*
X76950001Y-120200000I-249999J0D01*
G01*
G37*
%TD.AperFunction*%
%TD*%
%TO.P,J1,2*%
%TO.N,Net-(C1-Pad1)*%
X111760000Y-109000000D03*
%TO.P,J1,1*%
%TO.N,GND*%
%TA.AperFunction,ComponentPad*%
G36*
G01*
X113710001Y-120000000D02*
X109809999Y-120000000D01*
G75*
G02*
X109560000Y-119750001I0J249999D01*
G01*
X109560000Y-115849999D01*
G75*
G02*
X109809999Y-115600000I249999J0D01*
G01*
X113710001Y-115600000D01*
G75*
G02*
X113960000Y-115849999I0J-249999D01*
G01*
X113960000Y-119750001D01*
G75*
G02*
X113710001Y-120000000I-249999J0D01*
G01*
G37*
%TD.AperFunction*%
%TD*%
D16*
%TO.P,D2,3*%
%TO.N,Net-(C3-Pad1)*%
X81530000Y-109220000D03*
D17*
%TO.P,D2,1*%
%TO.N,Net-(D2-Pad1)*%
X85330000Y-110285000D03*
%TO.P,D2,2*%
X85330000Y-108155000D03*
%TD*%
%TO.P,C4,2*%
%TO.N,GND*%
%TA.AperFunction,SMDPad,CuDef*%
G36*
G01*
X90325000Y-125875000D02*
X90325000Y-127125000D01*
G75*
G02*
X90075000Y-127375000I-250000J0D01*
G01*
X89325000Y-127375000D01*
G75*
G02*
X89075000Y-127125000I0J250000D01*
G01*
X89075000Y-125875000D01*
G75*
G02*
X89325000Y-125625000I250000J0D01*
G01*
X90075000Y-125625000D01*
G75*
G02*
X90325000Y-125875000I0J-250000D01*
G01*
G37*
%TD.AperFunction*%
%TO.P,C4,1*%
%TO.N,Net-(C1-Pad1)*%
%TA.AperFunction,SMDPad,CuDef*%
G36*
G01*
X93125000Y-125875000D02*
X93125000Y-127125000D01*
G75*
G02*
X92875000Y-127375000I-250000J0D01*
G01*
X92125000Y-127375000D01*
G75*
G02*
X91875000Y-127125000I0J250000D01*
G01*
X91875000Y-125875000D01*
G75*
G02*
X92125000Y-125625000I250000J0D01*
G01*
X92875000Y-125625000D01*
G75*
G02*
X93125000Y-125875000I0J-250000D01*
G01*
G37*
%TD.AperFunction*%
%TD*%
%TO.P,C3,2*%
%TO.N,GND*%
%TA.AperFunction,SMDPad,CuDef*%
G36*
G01*
X81550000Y-120880000D02*
X83550000Y-120880000D01*
G75*
G02*
X83800000Y-121130000I0J-250000D01*
G01*
X83800000Y-124130000D01*
G75*
G02*
X83550000Y-124380000I-250000J0D01*
G01*
X81550000Y-124380000D01*
G75*
G02*
X81300000Y-124130000I0J250000D01*
G01*
X81300000Y-121130000D01*
G75*
G02*
X81550000Y-120880000I250000J0D01*
G01*
G37*
%TD.AperFunction*%
%TO.P,C3,1*%
%TO.N,Net-(C3-Pad1)*%
%TA.AperFunction,SMDPad,CuDef*%
G36*
G01*
X81550000Y-114380000D02*
X83550000Y-114380000D01*
G75*
G02*
X83800000Y-114630000I0J-250000D01*
G01*
X83800000Y-117630000D01*
G75*
G02*
X83550000Y-117880000I-250000J0D01*
G01*
X81550000Y-117880000D01*
G75*
G02*
X81300000Y-117630000I0J250000D01*
G01*
X81300000Y-114630000D01*
G75*
G02*
X81550000Y-114380000I250000J0D01*
G01*
G37*
%TD.AperFunction*%
%TD*%
%TO.P,C2,2*%
%TO.N,GND*%
%TA.AperFunction,SMDPad,CuDef*%
G36*
G01*
X104875000Y-130625000D02*
X104875000Y-129375000D01*
G75*
G02*
X105125000Y-129125000I250000J0D01*
G01*
X105875000Y-129125000D01*
G75*
G02*
X106125000Y-129375000I0J-250000D01*
G01*
X106125000Y-130625000D01*
G75*
G02*
X105875000Y-130875000I-250000J0D01*
G01*
X105125000Y-130875000D01*
G75*
G02*
X104875000Y-130625000I0J250000D01*
G01*
G37*
%TD.AperFunction*%
%TO.P,C2,1*%
%TO.N,Net-(C2-Pad1)*%
%TA.AperFunction,SMDPad,CuDef*%
G36*
G01*
X102075000Y-130625000D02*
X102075000Y-129375000D01*
G75*
G02*
X102325000Y-129125000I250000J0D01*
G01*
X103075000Y-129125000D01*
G75*
G02*
X103325000Y-129375000I0J-250000D01*
G01*
X103325000Y-130625000D01*
G75*
G02*
X103075000Y-130875000I-250000J0D01*
G01*
X102325000Y-130875000D01*
G75*
G02*
X102075000Y-130625000I0J250000D01*
G01*
G37*
%TD.AperFunction*%
%TD*%
%TO.P,C1,2*%
%TO.N,GND*%
%TA.AperFunction,SMDPad,CuDef*%
G36*
G01*
X89325000Y-128915000D02*
X89325000Y-130165000D01*
G75*
G02*
X89075000Y-130415000I-250000J0D01*
G01*
X88325000Y-130415000D01*
G75*
G02*
X88075000Y-130165000I0J250000D01*
G01*
X88075000Y-128915000D01*
G75*
G02*
X88325000Y-128665000I250000J0D01*
G01*
X89075000Y-128665000D01*
G75*
G02*
X89325000Y-128915000I0J-250000D01*
G01*
G37*
%TD.AperFunction*%
%TO.P,C1,1*%
%TO.N,Net-(C1-Pad1)*%
%TA.AperFunction,SMDPad,CuDef*%
G36*
G01*
X92125000Y-128915000D02*
X92125000Y-130165000D01*
G75*
G02*
X91875000Y-130415000I-250000J0D01*
G01*
X91125000Y-130415000D01*
G75*
G02*
X90875000Y-130165000I0J250000D01*
G01*
X90875000Y-128915000D01*
G75*
G02*
X91125000Y-128665000I250000J0D01*
G01*
X91875000Y-128665000D01*
G75*
G02*
X92125000Y-128915000I0J-250000D01*
G01*
G37*
%TD.AperFunction*%
%TD*%
D18*
%TO.N,GND*%
X80400000Y-126800000D03*
X81800000Y-126800000D03*
X83200000Y-126800000D03*
X80400000Y-128000000D03*
X81800000Y-128000000D03*
X83200000Y-128000000D03*
X80400000Y-129200000D03*
X81800000Y-129200000D03*
X83200000Y-129200000D03*
X80400000Y-125600000D03*
X81800000Y-125600000D03*
X83200000Y-125600000D03*
X84600000Y-125600000D03*
X84600000Y-126800000D03*
X84600000Y-128000000D03*
X84600000Y-129200000D03*
X78000000Y-102800000D03*
X81800000Y-102800000D03*
X85800000Y-102800000D03*
X89800000Y-102800000D03*
X93800000Y-102800000D03*
X97800000Y-102800000D03*
X101800000Y-102800000D03*
X105800000Y-102800000D03*
X109800000Y-102800000D03*
X73600000Y-113200000D03*
X77600000Y-113200000D03*
X73600000Y-128400000D03*
X97800000Y-106800000D03*
X88800000Y-112200000D03*
X100000000Y-113600000D03*
X100000000Y-110000000D03*
X100200000Y-105200000D03*
X113000000Y-113400000D03*
X113000000Y-122400000D03*
X114000000Y-125000000D03*
X86000000Y-129200000D03*
X86000000Y-128000000D03*
X86000000Y-126800000D03*
X86000000Y-125600000D03*
X93200000Y-129000000D03*
X87200000Y-119000000D03*
X114000000Y-129000000D03*
X108800000Y-132400000D03*
X104500000Y-133000000D03*
X77000000Y-132400000D03*
X82000000Y-133200000D03*
X87400000Y-133200000D03*
X92600000Y-133200000D03*
X99200000Y-133200000D03*
%TO.N,Net-(R4-Pad1)*%
X98500000Y-128000000D03*
X92000000Y-120000000D03*
%TD*%
D19*
%TO.N,GND*%
X106715000Y-117385000D02*
X106692748Y-117407252D01*
X111760000Y-117385000D02*
X106715000Y-117385000D01*
%TO.N,Net-(C1-Pad1)*%
X111760000Y-108585000D02*
X104140000Y-108585000D01*
D20*
X95215000Y-126365000D02*
X93635000Y-126365000D01*
X91210000Y-128790000D02*
X91210000Y-129540000D01*
X93635000Y-126365000D02*
X91210000Y-128790000D01*
X100549990Y-122925012D02*
X100549990Y-116875503D01*
X95215000Y-126365000D02*
X98089999Y-123490001D01*
X100549990Y-116875503D02*
X102115503Y-115309990D01*
X99985001Y-123490001D02*
X100549990Y-122925012D01*
X98089999Y-123490001D02*
X99985001Y-123490001D01*
X102115503Y-115309990D02*
X105190010Y-115309990D01*
X111760000Y-108740000D02*
X111760000Y-108585000D01*
X105190010Y-115309990D02*
X111760000Y-108740000D01*
X92635000Y-126365000D02*
X92500000Y-126500000D01*
X95215000Y-126365000D02*
X92635000Y-126365000D01*
%TO.N,Net-(C2-Pad1)*%
X101605000Y-128905000D02*
X102700000Y-130000000D01*
X100365000Y-128905000D02*
X101605000Y-128905000D01*
D19*
%TO.N,Net-(C3-Pad1)*%
X81530000Y-109220000D02*
X74930000Y-109220000D01*
X81530000Y-115110000D02*
X82550000Y-116130000D01*
X81530000Y-109220000D02*
X81530000Y-115110000D01*
D21*
X82550000Y-116130000D02*
X84370000Y-116130000D01*
X85565000Y-114935000D02*
X90170000Y-114935000D01*
X84370000Y-116130000D02*
X85565000Y-114935000D01*
D22*
%TO.N,Net-(D2-Pad1)*%
X86140001Y-108585000D02*
X85710001Y-108155000D01*
D19*
X93040000Y-108585000D02*
X86140001Y-108585000D01*
D22*
X87410001Y-108585000D02*
X85710001Y-110285000D01*
D19*
X93040000Y-108585000D02*
X87410001Y-108585000D01*
X93040000Y-108585000D02*
X93085000Y-108585000D01*
X96325000Y-111825000D02*
X96325000Y-120015000D01*
X93085000Y-108585000D02*
X96325000Y-111825000D01*
%TO.N,Net-(Q1-Pad3)*%
X102625000Y-117865000D02*
X106680000Y-121920000D01*
X102625000Y-117735000D02*
X102625000Y-117865000D01*
D20*
X104550000Y-124050000D02*
X106680000Y-121920000D01*
X104100000Y-124500000D02*
X104550000Y-124050000D01*
X97000000Y-127823840D02*
X99323840Y-125500000D01*
X97000000Y-129265000D02*
X97000000Y-127823840D01*
X95215000Y-130175000D02*
X96090000Y-130175000D01*
X99323840Y-125500000D02*
X99329678Y-125500000D01*
X99329678Y-125500000D02*
X99339688Y-125489990D01*
X99339688Y-125489990D02*
X101390312Y-125489990D01*
X101400322Y-125500000D02*
X101533256Y-125500000D01*
X101533256Y-125500000D02*
X102533256Y-124500000D01*
X102533256Y-124500000D02*
X104100000Y-124500000D01*
X96090000Y-130175000D02*
X97000000Y-129265000D01*
X101390312Y-125489990D02*
X101400322Y-125500000D01*
%TO.N,Net-(Q1-Pad1)*%
X102625000Y-122875000D02*
X102625000Y-122295000D01*
X95215000Y-127635000D02*
X95845322Y-127635000D01*
X101000000Y-124500000D02*
X102625000Y-122875000D01*
X98980322Y-124500000D02*
X101000000Y-124500000D01*
X95845322Y-127635000D02*
X98980322Y-124500000D01*
%TO.N,Net-(R1-Pad1)*%
X100440000Y-126440000D02*
X100365000Y-126440000D01*
X100450010Y-126450010D02*
X100440000Y-126440000D01*
X102700000Y-127500000D02*
X101650010Y-126450010D01*
X101650010Y-126450010D02*
X100450010Y-126450010D01*
D21*
%TO.N,Net-(R4-Pad1)*%
X90170000Y-117735000D02*
X90170000Y-119755000D01*
D20*
X100365000Y-127635000D02*
X98865000Y-127635000D01*
X98865000Y-127635000D02*
X98500000Y-128000000D01*
X90415000Y-120000000D02*
X90170000Y-119755000D01*
X92000000Y-120000000D02*
X90415000Y-120000000D01*
D19*
%TO.N,Net-(J3-Pad1)*%
X74930000Y-118020000D02*
X74930000Y-125095000D01*
D20*
X98940000Y-131600000D02*
X100365000Y-130175000D01*
X80100000Y-131600000D02*
X98940000Y-131600000D01*
X74930000Y-125095000D02*
X74930000Y-126430000D01*
X74930000Y-126430000D02*
X80100000Y-131600000D01*
D23*
%TO.N,Net-(J2-Pad2)*%
X107040000Y-125960000D02*
X109000000Y-125960000D01*
X105500000Y-127500000D02*
X107040000Y-125960000D01*
%TD*%
D24*
%TO.N,GND*%
G36*
X112953893Y-101207670D02*
G01*
X113390498Y-101339489D01*
X113793185Y-101553600D01*
X114146612Y-101841848D01*
X114437327Y-102193261D01*
X114654242Y-102594439D01*
X114789106Y-103030113D01*
X114840000Y-103514344D01*
X114840001Y-131467711D01*
X114792330Y-131953894D01*
X114660512Y-132390497D01*
X114446399Y-132793186D01*
X114158150Y-133146613D01*
X113806739Y-133437327D01*
X113405564Y-133654240D01*
X112969886Y-133789106D01*
X112485664Y-133840000D01*
X74032279Y-133840000D01*
X73546106Y-133792330D01*
X73109503Y-133660512D01*
X72706814Y-133446399D01*
X72353387Y-133158150D01*
X72062673Y-132806739D01*
X71845760Y-132405564D01*
X71710894Y-131969886D01*
X71660000Y-131485664D01*
X71660000Y-131329117D01*
X72265000Y-131329117D01*
X72265000Y-131670883D01*
X72331675Y-132006081D01*
X72462463Y-132321831D01*
X72652337Y-132605998D01*
X72894002Y-132847663D01*
X73178169Y-133037537D01*
X73493919Y-133168325D01*
X73829117Y-133235000D01*
X74170883Y-133235000D01*
X74506081Y-133168325D01*
X74821831Y-133037537D01*
X75105998Y-132847663D01*
X75347663Y-132605998D01*
X75537537Y-132321831D01*
X75668325Y-132006081D01*
X75735000Y-131670883D01*
X75735000Y-131329117D01*
X75668325Y-130993919D01*
X75537537Y-130678169D01*
X75347663Y-130394002D01*
X75105998Y-130152337D01*
X74821831Y-129962463D01*
X74506081Y-129831675D01*
X74170883Y-129765000D01*
X73829117Y-129765000D01*
X73493919Y-129831675D01*
X73178169Y-129962463D01*
X72894002Y-130152337D01*
X72652337Y-130394002D01*
X72462463Y-130678169D01*
X72331675Y-130993919D01*
X72265000Y-131329117D01*
X71660000Y-131329117D01*
X71660000Y-116049999D01*
X72161928Y-116049999D01*
X72161928Y-119950001D01*
X72178992Y-120123255D01*
X72229528Y-120289851D01*
X72311595Y-120443387D01*
X72422038Y-120577962D01*
X72556613Y-120688405D01*
X72710149Y-120770472D01*
X72795000Y-120796211D01*
X72795001Y-125199882D01*
X72825893Y-125513533D01*
X72947975Y-125915982D01*
X73146224Y-126286881D01*
X73413024Y-126611977D01*
X73738120Y-126878777D01*
X74109019Y-127077026D01*
X74169473Y-127095364D01*
X74212368Y-127147633D01*
X74250901Y-127179256D01*
X79350739Y-132279094D01*
X79382367Y-132317633D01*
X79536160Y-132443847D01*
X79711620Y-132537632D01*
X79902006Y-132595385D01*
X80050392Y-132610000D01*
X80050394Y-132610000D01*
X80099999Y-132614886D01*
X80149604Y-132610000D01*
X98890392Y-132610000D01*
X98940000Y-132614886D01*
X99137994Y-132595385D01*
X99192644Y-132578807D01*
X99328380Y-132537632D01*
X99503840Y-132443847D01*
X99657633Y-132317633D01*
X99689261Y-132279094D01*
X100855283Y-131113072D01*
X101090000Y-131113072D01*
X101243745Y-131097929D01*
X101391582Y-131053084D01*
X101516112Y-130986521D01*
X101586595Y-131118386D01*
X101697038Y-131252962D01*
X101831614Y-131363405D01*
X101985150Y-131445472D01*
X102151746Y-131496008D01*
X102325000Y-131513072D01*
X103075000Y-131513072D01*
X103248254Y-131496008D01*
X103414850Y-131445472D01*
X103568386Y-131363405D01*
X103702962Y-131252962D01*
X103813405Y-131118386D01*
X103895472Y-130964850D01*
X103922727Y-130875000D01*
X104236928Y-130875000D01*
X104249188Y-130999482D01*
X104285498Y-131119180D01*
X104344463Y-131229494D01*
X104423815Y-131326185D01*
X104520506Y-131405537D01*
X104630820Y-131464502D01*
X104750518Y-131500812D01*
X104875000Y-131513072D01*
X105214250Y-131510000D01*
X105373000Y-131351250D01*
X105373000Y-130127000D01*
X105627000Y-130127000D01*
X105627000Y-131351250D01*
X105785750Y-131510000D01*
X106125000Y-131513072D01*
X106249482Y-131500812D01*
X106369180Y-131464502D01*
X106479494Y-131405537D01*
X106572612Y-131329117D01*
X110765000Y-131329117D01*
X110765000Y-131670883D01*
X110831675Y-132006081D01*
X110962463Y-132321831D01*
X111152337Y-132605998D01*
X111394002Y-132847663D01*
X111678169Y-133037537D01*
X111993919Y-133168325D01*
X112329117Y-133235000D01*
X112670883Y-133235000D01*
X113006081Y-133168325D01*
X113321831Y-133037537D01*
X113605998Y-132847663D01*
X113847663Y-132605998D01*
X114037537Y-132321831D01*
X114168325Y-132006081D01*
X114235000Y-131670883D01*
X114235000Y-131329117D01*
X114168325Y-130993919D01*
X114037537Y-130678169D01*
X113847663Y-130394002D01*
X113605998Y-130152337D01*
X113321831Y-129962463D01*
X113006081Y-129831675D01*
X112670883Y-129765000D01*
X112329117Y-129765000D01*
X111993919Y-129831675D01*
X111678169Y-129962463D01*
X111394002Y-130152337D01*
X111152337Y-130394002D01*
X110962463Y-130678169D01*
X110831675Y-130993919D01*
X110765000Y-131329117D01*
X106572612Y-131329117D01*
X106576185Y-131326185D01*
X106655537Y-131229494D01*
X106714502Y-131119180D01*
X106750812Y-130999482D01*
X106763072Y-130875000D01*
X106760000Y-130285750D01*
X106601250Y-130127000D01*
X105627000Y-130127000D01*
X105373000Y-130127000D01*
X104398750Y-130127000D01*
X104240000Y-130285750D01*
X104236928Y-130875000D01*
X103922727Y-130875000D01*
X103946008Y-130798254D01*
X103963072Y-130625000D01*
X103963072Y-129375000D01*
X103946008Y-129201746D01*
X103895472Y-129035150D01*
X103813405Y-128881614D01*
X103705393Y-128750000D01*
X103813405Y-128618386D01*
X103895472Y-128464850D01*
X103946008Y-128298254D01*
X103963072Y-128125000D01*
X103963072Y-126875000D01*
X104236928Y-126875000D01*
X104236928Y-128125000D01*
X104253992Y-128298254D01*
X104304528Y-128464850D01*
X104386595Y-128618386D01*
X104428756Y-128669760D01*
X104423815Y-128673815D01*
X104344463Y-128770506D01*
X104285498Y-128880820D01*
X104249188Y-129000518D01*
X104236928Y-129125000D01*
X104240000Y-129714250D01*
X104398750Y-129873000D01*
X105373000Y-129873000D01*
X105373000Y-129853000D01*
X105627000Y-129853000D01*
X105627000Y-129873000D01*
X106601250Y-129873000D01*
X106760000Y-129714250D01*
X106761898Y-129350000D01*
X107511928Y-129350000D01*
X107524188Y-129474482D01*
X107560498Y-129594180D01*
X107619463Y-129704494D01*
X107698815Y-129801185D01*
X107795506Y-129880537D01*
X107905820Y-129939502D01*
X108025518Y-129975812D01*
X108150000Y-129988072D01*
X108714250Y-129985000D01*
X108873000Y-129826250D01*
X108873000Y-128627000D01*
X109127000Y-128627000D01*
X109127000Y-129826250D01*
X109285750Y-129985000D01*
X109850000Y-129988072D01*
X109974482Y-129975812D01*
X110094180Y-129939502D01*
X110204494Y-129880537D01*
X110301185Y-129801185D01*
X110380537Y-129704494D01*
X110439502Y-129594180D01*
X110475812Y-129474482D01*
X110488072Y-129350000D01*
X110485000Y-128785750D01*
X110326250Y-128627000D01*
X109127000Y-128627000D01*
X108873000Y-128627000D01*
X107673750Y-128627000D01*
X107515000Y-128785750D01*
X107511928Y-129350000D01*
X106761898Y-129350000D01*
X106763072Y-129125000D01*
X106750812Y-129000518D01*
X106714502Y-128880820D01*
X106655537Y-128770506D01*
X106576185Y-128673815D01*
X106571244Y-128669760D01*
X106613405Y-128618386D01*
X106695472Y-128464850D01*
X106746008Y-128298254D01*
X106763072Y-128125000D01*
X106763072Y-127488506D01*
X107406579Y-126845000D01*
X107805344Y-126845000D01*
X107846525Y-126906632D01*
X107978380Y-127038487D01*
X107905820Y-127060498D01*
X107795506Y-127119463D01*
X107698815Y-127198815D01*
X107619463Y-127295506D01*
X107560498Y-127405820D01*
X107524188Y-127525518D01*
X107511928Y-127650000D01*
X107515000Y-128214250D01*
X107673750Y-128373000D01*
X108873000Y-128373000D01*
X108873000Y-128353000D01*
X109127000Y-128353000D01*
X109127000Y-128373000D01*
X110326250Y-128373000D01*
X110485000Y-128214250D01*
X110488072Y-127650000D01*
X110475812Y-127525518D01*
X110439502Y-127405820D01*
X110380537Y-127295506D01*
X110301185Y-127198815D01*
X110204494Y-127119463D01*
X110094180Y-127060498D01*
X110021620Y-127038487D01*
X110153475Y-126906632D01*
X110315990Y-126663411D01*
X110427932Y-126393158D01*
X110485000Y-126106260D01*
X110485000Y-125813740D01*
X110427932Y-125526842D01*
X110315990Y-125256589D01*
X110153475Y-125013368D01*
X109946632Y-124806525D01*
X109703411Y-124644010D01*
X109433158Y-124532068D01*
X109146260Y-124475000D01*
X108853740Y-124475000D01*
X108566842Y-124532068D01*
X108296589Y-124644010D01*
X108053368Y-124806525D01*
X107846525Y-125013368D01*
X107805344Y-125075000D01*
X107083469Y-125075000D01*
X107040000Y-125070719D01*
X106996531Y-125075000D01*
X106996523Y-125075000D01*
X106866510Y-125087805D01*
X106699687Y-125138411D01*
X106584682Y-125199882D01*
X106545941Y-125220589D01*
X106444953Y-125303468D01*
X106444951Y-125303470D01*
X106411183Y-125331183D01*
X106383470Y-125364951D01*
X105761493Y-125986928D01*
X105125000Y-125986928D01*
X104951746Y-126003992D01*
X104785150Y-126054528D01*
X104631614Y-126136595D01*
X104497038Y-126247038D01*
X104386595Y-126381614D01*
X104304528Y-126535150D01*
X104253992Y-126701746D01*
X104236928Y-126875000D01*
X103963072Y-126875000D01*
X103946008Y-126701746D01*
X103895472Y-126535150D01*
X103813405Y-126381614D01*
X103702962Y-126247038D01*
X103568386Y-126136595D01*
X103414850Y-126054528D01*
X103248254Y-126003992D01*
X103075000Y-125986928D01*
X102615283Y-125986928D01*
X102544983Y-125916628D01*
X102951612Y-125510000D01*
X104050392Y-125510000D01*
X104100000Y-125514886D01*
X104227096Y-125502368D01*
X104297994Y-125495385D01*
X104488380Y-125437632D01*
X104663840Y-125343847D01*
X104817633Y-125217633D01*
X104849261Y-125179093D01*
X105229094Y-124799260D01*
X105229099Y-124799256D01*
X106064115Y-123964241D01*
X106261466Y-124024107D01*
X106680000Y-124065329D01*
X107098533Y-124024107D01*
X107500982Y-123902025D01*
X107871881Y-123703776D01*
X108196977Y-123436977D01*
X108463776Y-123111881D01*
X108662025Y-122740982D01*
X108784107Y-122338533D01*
X108825329Y-121920000D01*
X108784107Y-121501466D01*
X108662025Y-121099017D01*
X108463776Y-120728118D01*
X108263835Y-120484489D01*
X107779346Y-120000000D01*
X108921928Y-120000000D01*
X108934188Y-120124482D01*
X108970498Y-120244180D01*
X109029463Y-120354494D01*
X109108815Y-120451185D01*
X109205506Y-120530537D01*
X109315820Y-120589502D01*
X109435518Y-120625812D01*
X109560000Y-120638072D01*
X111474250Y-120635000D01*
X111633000Y-120476250D01*
X111633000Y-117927000D01*
X111887000Y-117927000D01*
X111887000Y-120476250D01*
X112045750Y-120635000D01*
X113960000Y-120638072D01*
X114084482Y-120625812D01*
X114204180Y-120589502D01*
X114314494Y-120530537D01*
X114411185Y-120451185D01*
X114490537Y-120354494D01*
X114549502Y-120244180D01*
X114585812Y-120124482D01*
X114598072Y-120000000D01*
X114595000Y-118085750D01*
X114436250Y-117927000D01*
X111887000Y-117927000D01*
X111633000Y-117927000D01*
X109083750Y-117927000D01*
X108925000Y-118085750D01*
X108921928Y-120000000D01*
X107779346Y-120000000D01*
X106451798Y-118672452D01*
X106553000Y-118571250D01*
X106553000Y-117547000D01*
X106807000Y-117547000D01*
X106807000Y-118571250D01*
X106965750Y-118730000D01*
X108005000Y-118733072D01*
X108129482Y-118720812D01*
X108249180Y-118684502D01*
X108359494Y-118625537D01*
X108456185Y-118546185D01*
X108535537Y-118449494D01*
X108594502Y-118339180D01*
X108630812Y-118219482D01*
X108643072Y-118095000D01*
X108640000Y-117705750D01*
X108481250Y-117547000D01*
X106807000Y-117547000D01*
X106553000Y-117547000D01*
X106533000Y-117547000D01*
X106533000Y-117293000D01*
X106553000Y-117293000D01*
X106553000Y-116268750D01*
X106807000Y-116268750D01*
X106807000Y-117293000D01*
X108481250Y-117293000D01*
X108640000Y-117134250D01*
X108643072Y-116745000D01*
X108630812Y-116620518D01*
X108594502Y-116500820D01*
X108535537Y-116390506D01*
X108456185Y-116293815D01*
X108359494Y-116214463D01*
X108249180Y-116155498D01*
X108129482Y-116119188D01*
X108005000Y-116106928D01*
X106965750Y-116110000D01*
X106807000Y-116268750D01*
X106553000Y-116268750D01*
X106394250Y-116110000D01*
X105809372Y-116108271D01*
X105907643Y-116027623D01*
X105939271Y-115989084D01*
X106328355Y-115600000D01*
X108921928Y-115600000D01*
X108925000Y-117514250D01*
X109083750Y-117673000D01*
X111633000Y-117673000D01*
X111633000Y-115123750D01*
X111887000Y-115123750D01*
X111887000Y-117673000D01*
X114436250Y-117673000D01*
X114595000Y-117514250D01*
X114598072Y-115600000D01*
X114585812Y-115475518D01*
X114549502Y-115355820D01*
X114490537Y-115245506D01*
X114411185Y-115148815D01*
X114314494Y-115069463D01*
X114204180Y-115010498D01*
X114084482Y-114974188D01*
X113960000Y-114961928D01*
X112045750Y-114965000D01*
X111887000Y-115123750D01*
X111633000Y-115123750D01*
X111474250Y-114965000D01*
X109560000Y-114961928D01*
X109435518Y-114974188D01*
X109315820Y-115010498D01*
X109205506Y-115069463D01*
X109108815Y-115148815D01*
X109029463Y-115245506D01*
X108970498Y-115355820D01*
X108934188Y-115475518D01*
X108921928Y-115600000D01*
X106328355Y-115600000D01*
X110416457Y-111511898D01*
X110417124Y-111512344D01*
X110933061Y-111726052D01*
X111480777Y-111835000D01*
X112039223Y-111835000D01*
X112586939Y-111726052D01*
X113102876Y-111512344D01*
X113567207Y-111202088D01*
X113962088Y-110807207D01*
X114272344Y-110342876D01*
X114486052Y-109826939D01*
X114595000Y-109279223D01*
X114595000Y-108720777D01*
X114486052Y-108173061D01*
X114272344Y-107657124D01*
X113962088Y-107192793D01*
X113567207Y-106797912D01*
X113102876Y-106487656D01*
X112586939Y-106273948D01*
X112039223Y-106165000D01*
X111480777Y-106165000D01*
X110933061Y-106273948D01*
X110508034Y-106450000D01*
X106328072Y-106450000D01*
X106328072Y-106085000D01*
X106315812Y-105960518D01*
X106279502Y-105840820D01*
X106220537Y-105730506D01*
X106141185Y-105633815D01*
X106044494Y-105554463D01*
X105934180Y-105495498D01*
X105814482Y-105459188D01*
X105690000Y-105446928D01*
X102590000Y-105446928D01*
X102465518Y-105459188D01*
X102345820Y-105495498D01*
X102235506Y-105554463D01*
X102138815Y-105633815D01*
X102059463Y-105730506D01*
X102000498Y-105840820D01*
X101964188Y-105960518D01*
X101951928Y-106085000D01*
X101951928Y-111085000D01*
X101964188Y-111209482D01*
X102000498Y-111329180D01*
X102059463Y-111439494D01*
X102138815Y-111536185D01*
X102235506Y-111615537D01*
X102345820Y-111674502D01*
X102465518Y-111710812D01*
X102590000Y-111723072D01*
X105690000Y-111723072D01*
X105814482Y-111710812D01*
X105934180Y-111674502D01*
X106044494Y-111615537D01*
X106141185Y-111536185D01*
X106220537Y-111439494D01*
X106279502Y-111329180D01*
X106315812Y-111209482D01*
X106328072Y-111085000D01*
X106328072Y-110720000D01*
X108351644Y-110720000D01*
X104771655Y-114299990D01*
X102165111Y-114299990D01*
X102115503Y-114295104D01*
X101917508Y-114314605D01*
X101727123Y-114372358D01*
X101551663Y-114466143D01*
X101397870Y-114592357D01*
X101366247Y-114630891D01*
X99870891Y-116126247D01*
X99832358Y-116157870D01*
X99800735Y-116196403D01*
X99800734Y-116196404D01*
X99706144Y-116311663D01*
X99613167Y-116485611D01*
X99525000Y-116476928D01*
X98460000Y-116476928D01*
X98460000Y-111929872D01*
X98470329Y-111825000D01*
X98460000Y-111720128D01*
X98460000Y-111720118D01*
X98429108Y-111406467D01*
X98331592Y-111085000D01*
X98307026Y-111004017D01*
X98164290Y-110736977D01*
X98108777Y-110633119D01*
X98034716Y-110542876D01*
X97908835Y-110389489D01*
X97908833Y-110389487D01*
X97841977Y-110308023D01*
X97760513Y-110241167D01*
X95228072Y-107708727D01*
X95228072Y-106085000D01*
X95215812Y-105960518D01*
X95179502Y-105840820D01*
X95120537Y-105730506D01*
X95041185Y-105633815D01*
X94944494Y-105554463D01*
X94834180Y-105495498D01*
X94714482Y-105459188D01*
X94590000Y-105446928D01*
X91490000Y-105446928D01*
X91365518Y-105459188D01*
X91245820Y-105495498D01*
X91135506Y-105554463D01*
X91038815Y-105633815D01*
X90959463Y-105730506D01*
X90900498Y-105840820D01*
X90864188Y-105960518D01*
X90851928Y-106085000D01*
X90851928Y-106450000D01*
X86035119Y-106450000D01*
X85721468Y-106480892D01*
X85574692Y-106525416D01*
X85389485Y-106543658D01*
X85081287Y-106637148D01*
X84932030Y-106716928D01*
X84610000Y-106716928D01*
X84485518Y-106729188D01*
X84365820Y-106765498D01*
X84342740Y-106777835D01*
X84254180Y-106730498D01*
X84134482Y-106694188D01*
X84010000Y-106681928D01*
X79050000Y-106681928D01*
X78925518Y-106694188D01*
X78805820Y-106730498D01*
X78695506Y-106789463D01*
X78598815Y-106868815D01*
X78519463Y-106965506D01*
X78460498Y-107075820D01*
X78457713Y-107085000D01*
X76894295Y-107085000D01*
X76807207Y-106997912D01*
X76342876Y-106687656D01*
X75826939Y-106473948D01*
X75279223Y-106365000D01*
X74720777Y-106365000D01*
X74173061Y-106473948D01*
X73657124Y-106687656D01*
X73192793Y-106997912D01*
X72797912Y-107392793D01*
X72487656Y-107857124D01*
X72273948Y-108373061D01*
X72165000Y-108920777D01*
X72165000Y-109479223D01*
X72273948Y-110026939D01*
X72487656Y-110542876D01*
X72797912Y-111007207D01*
X73192793Y-111402088D01*
X73657124Y-111712344D01*
X74173061Y-111926052D01*
X74720777Y-112035000D01*
X75279223Y-112035000D01*
X75826939Y-111926052D01*
X76342876Y-111712344D01*
X76807207Y-111402088D01*
X76854295Y-111355000D01*
X78457713Y-111355000D01*
X78460498Y-111364180D01*
X78519463Y-111474494D01*
X78598815Y-111571185D01*
X78695506Y-111650537D01*
X78805820Y-111709502D01*
X78925518Y-111745812D01*
X79050000Y-111758072D01*
X79395000Y-111758072D01*
X79395001Y-115005118D01*
X79384671Y-115110000D01*
X79425893Y-115528533D01*
X79547975Y-115930982D01*
X79746224Y-116301881D01*
X79946165Y-116545510D01*
X79946168Y-116545513D01*
X80013024Y-116626977D01*
X80094488Y-116693833D01*
X80661928Y-117261273D01*
X80661928Y-117630000D01*
X80678992Y-117803254D01*
X80729528Y-117969850D01*
X80811595Y-118123386D01*
X80922038Y-118257962D01*
X81056614Y-118368405D01*
X81210150Y-118450472D01*
X81376746Y-118501008D01*
X81550000Y-118518072D01*
X83550000Y-118518072D01*
X83723254Y-118501008D01*
X83889850Y-118450472D01*
X84043386Y-118368405D01*
X84177962Y-118257962D01*
X84288405Y-118123386D01*
X84370472Y-117969850D01*
X84421008Y-117803254D01*
X84438072Y-117630000D01*
X84438072Y-117263787D01*
X84592499Y-117248577D01*
X84806447Y-117183676D01*
X85003623Y-117078284D01*
X85176449Y-116936449D01*
X85211996Y-116893135D01*
X86035132Y-116070000D01*
X89092015Y-116070000D01*
X89205150Y-116130472D01*
X89371746Y-116181008D01*
X89545000Y-116198072D01*
X90795000Y-116198072D01*
X90968254Y-116181008D01*
X91134850Y-116130472D01*
X91288386Y-116048405D01*
X91422962Y-115937962D01*
X91533405Y-115803386D01*
X91615472Y-115649850D01*
X91666008Y-115483254D01*
X91683072Y-115310000D01*
X91683072Y-114560000D01*
X91666008Y-114386746D01*
X91615472Y-114220150D01*
X91533405Y-114066614D01*
X91422962Y-113932038D01*
X91288386Y-113821595D01*
X91134850Y-113739528D01*
X90968254Y-113688992D01*
X90795000Y-113671928D01*
X89545000Y-113671928D01*
X89371746Y-113688992D01*
X89205150Y-113739528D01*
X89092015Y-113800000D01*
X85620743Y-113800000D01*
X85564999Y-113794510D01*
X85509255Y-113800000D01*
X85509248Y-113800000D01*
X85363493Y-113814356D01*
X85342500Y-113816423D01*
X85325451Y-113821595D01*
X85128553Y-113881324D01*
X84931377Y-113986716D01*
X84758551Y-114128551D01*
X84723008Y-114171860D01*
X84422542Y-114472326D01*
X84421008Y-114456746D01*
X84370472Y-114290150D01*
X84288405Y-114136614D01*
X84177962Y-114002038D01*
X84043386Y-113891595D01*
X83889850Y-113809528D01*
X83723254Y-113758992D01*
X83665000Y-113753254D01*
X83665000Y-111758072D01*
X84010000Y-111758072D01*
X84134482Y-111745812D01*
X84254180Y-111709502D01*
X84342740Y-111662165D01*
X84365820Y-111674502D01*
X84485518Y-111710812D01*
X84610000Y-111723072D01*
X84932030Y-111723072D01*
X85081287Y-111802852D01*
X85389485Y-111896342D01*
X85710001Y-111927911D01*
X86030517Y-111896342D01*
X86338715Y-111802852D01*
X86622753Y-111651030D01*
X86809324Y-111497915D01*
X87587239Y-110720000D01*
X90851928Y-110720000D01*
X90851928Y-111085000D01*
X90864188Y-111209482D01*
X90900498Y-111329180D01*
X90959463Y-111439494D01*
X91038815Y-111536185D01*
X91135506Y-111615537D01*
X91245820Y-111674502D01*
X91365518Y-111710812D01*
X91490000Y-111723072D01*
X93203726Y-111723072D01*
X94190000Y-112709346D01*
X94190001Y-116476928D01*
X93125000Y-116476928D01*
X93000518Y-116489188D01*
X92880820Y-116525498D01*
X92770506Y-116584463D01*
X92673815Y-116663815D01*
X92594463Y-116760506D01*
X92535498Y-116870820D01*
X92499188Y-116990518D01*
X92486928Y-117115000D01*
X92486928Y-119081416D01*
X92301898Y-119004774D01*
X92101939Y-118965000D01*
X91898061Y-118965000D01*
X91772377Y-118990000D01*
X91588666Y-118990000D01*
X91533405Y-118886614D01*
X91422962Y-118752038D01*
X91414386Y-118745000D01*
X91422962Y-118737962D01*
X91533405Y-118603386D01*
X91615472Y-118449850D01*
X91666008Y-118283254D01*
X91683072Y-118110000D01*
X91683072Y-117360000D01*
X91666008Y-117186746D01*
X91615472Y-117020150D01*
X91533405Y-116866614D01*
X91422962Y-116732038D01*
X91288386Y-116621595D01*
X91134850Y-116539528D01*
X90968254Y-116488992D01*
X90795000Y-116471928D01*
X89545000Y-116471928D01*
X89371746Y-116488992D01*
X89205150Y-116539528D01*
X89051614Y-116621595D01*
X88917038Y-116732038D01*
X88806595Y-116866614D01*
X88724528Y-117020150D01*
X88673992Y-117186746D01*
X88656928Y-117360000D01*
X88656928Y-118110000D01*
X88673992Y-118283254D01*
X88724528Y-118449850D01*
X88806595Y-118603386D01*
X88917038Y-118737962D01*
X88925614Y-118745000D01*
X88917038Y-118752038D01*
X88806595Y-118886614D01*
X88724528Y-119040150D01*
X88673992Y-119206746D01*
X88656928Y-119380000D01*
X88656928Y-120130000D01*
X88673992Y-120303254D01*
X88724528Y-120469850D01*
X88806595Y-120623386D01*
X88917038Y-120757962D01*
X89051614Y-120868405D01*
X89205150Y-120950472D01*
X89371746Y-121001008D01*
X89545000Y-121018072D01*
X90795000Y-121018072D01*
X90876957Y-121010000D01*
X91772377Y-121010000D01*
X91898061Y-121035000D01*
X92101939Y-121035000D01*
X92301898Y-120995226D01*
X92486928Y-120918584D01*
X92486928Y-122915000D01*
X92499188Y-123039482D01*
X92535498Y-123159180D01*
X92594463Y-123269494D01*
X92673815Y-123366185D01*
X92770506Y-123445537D01*
X92880820Y-123504502D01*
X93000518Y-123540812D01*
X93125000Y-123553072D01*
X96598572Y-123553072D01*
X94796645Y-125355000D01*
X93684608Y-125355000D01*
X93635000Y-125350114D01*
X93591102Y-125354438D01*
X93502962Y-125247038D01*
X93368386Y-125136595D01*
X93214850Y-125054528D01*
X93048254Y-125003992D01*
X92875000Y-124986928D01*
X92125000Y-124986928D01*
X91951746Y-125003992D01*
X91785150Y-125054528D01*
X91631614Y-125136595D01*
X91497038Y-125247038D01*
X91386595Y-125381614D01*
X91304528Y-125535150D01*
X91253992Y-125701746D01*
X91236928Y-125875000D01*
X91236928Y-127125000D01*
X91253992Y-127298254D01*
X91258507Y-127313138D01*
X90870909Y-127700736D01*
X90914502Y-127619180D01*
X90950812Y-127499482D01*
X90963072Y-127375000D01*
X90960000Y-126785750D01*
X90801250Y-126627000D01*
X89827000Y-126627000D01*
X89827000Y-127851250D01*
X89985750Y-128010000D01*
X90325000Y-128013072D01*
X90449482Y-128000812D01*
X90569180Y-127964502D01*
X90650736Y-127920908D01*
X90530906Y-128040739D01*
X90492367Y-128072367D01*
X90366153Y-128226160D01*
X90287666Y-128373000D01*
X90272368Y-128401621D01*
X90214615Y-128592006D01*
X90195114Y-128790000D01*
X90200000Y-128839608D01*
X90200000Y-129589608D01*
X90214615Y-129737994D01*
X90236928Y-129811549D01*
X90236928Y-130165000D01*
X90253992Y-130338254D01*
X90304528Y-130504850D01*
X90350042Y-130590000D01*
X89935488Y-130590000D01*
X89950812Y-130539482D01*
X89963072Y-130415000D01*
X89960000Y-129825750D01*
X89801250Y-129667000D01*
X88827000Y-129667000D01*
X88827000Y-129687000D01*
X88573000Y-129687000D01*
X88573000Y-129667000D01*
X87598750Y-129667000D01*
X87440000Y-129825750D01*
X87436928Y-130415000D01*
X87449188Y-130539482D01*
X87464512Y-130590000D01*
X80518355Y-130590000D01*
X78593355Y-128665000D01*
X87436928Y-128665000D01*
X87440000Y-129254250D01*
X87598750Y-129413000D01*
X88573000Y-129413000D01*
X88573000Y-128188750D01*
X88827000Y-128188750D01*
X88827000Y-129413000D01*
X89801250Y-129413000D01*
X89960000Y-129254250D01*
X89963072Y-128665000D01*
X89950812Y-128540518D01*
X89914502Y-128420820D01*
X89855537Y-128310506D01*
X89776185Y-128213815D01*
X89679494Y-128134463D01*
X89569180Y-128075498D01*
X89449482Y-128039188D01*
X89325000Y-128026928D01*
X88985750Y-128030000D01*
X88827000Y-128188750D01*
X88573000Y-128188750D01*
X88414250Y-128030000D01*
X88075000Y-128026928D01*
X87950518Y-128039188D01*
X87830820Y-128075498D01*
X87720506Y-128134463D01*
X87623815Y-128213815D01*
X87544463Y-128310506D01*
X87485498Y-128420820D01*
X87449188Y-128540518D01*
X87436928Y-128665000D01*
X78593355Y-128665000D01*
X77303355Y-127375000D01*
X88436928Y-127375000D01*
X88449188Y-127499482D01*
X88485498Y-127619180D01*
X88544463Y-127729494D01*
X88623815Y-127826185D01*
X88720506Y-127905537D01*
X88830820Y-127964502D01*
X88950518Y-128000812D01*
X89075000Y-128013072D01*
X89414250Y-128010000D01*
X89573000Y-127851250D01*
X89573000Y-126627000D01*
X88598750Y-126627000D01*
X88440000Y-126785750D01*
X88436928Y-127375000D01*
X77303355Y-127375000D01*
X76489057Y-126560702D01*
X76628686Y-126390565D01*
X76653815Y-126421185D01*
X76750506Y-126500537D01*
X76860820Y-126559502D01*
X76980518Y-126595812D01*
X77105000Y-126608072D01*
X77444250Y-126605000D01*
X77603000Y-126446250D01*
X77603000Y-125222000D01*
X77857000Y-125222000D01*
X77857000Y-126446250D01*
X78015750Y-126605000D01*
X78355000Y-126608072D01*
X78479482Y-126595812D01*
X78599180Y-126559502D01*
X78709494Y-126500537D01*
X78806185Y-126421185D01*
X78885537Y-126324494D01*
X78944502Y-126214180D01*
X78980812Y-126094482D01*
X78993072Y-125970000D01*
X78991274Y-125625000D01*
X88436928Y-125625000D01*
X88440000Y-126214250D01*
X88598750Y-126373000D01*
X89573000Y-126373000D01*
X89573000Y-125148750D01*
X89827000Y-125148750D01*
X89827000Y-126373000D01*
X90801250Y-126373000D01*
X90960000Y-126214250D01*
X90963072Y-125625000D01*
X90950812Y-125500518D01*
X90914502Y-125380820D01*
X90855537Y-125270506D01*
X90776185Y-125173815D01*
X90679494Y-125094463D01*
X90569180Y-125035498D01*
X90449482Y-124999188D01*
X90325000Y-124986928D01*
X89985750Y-124990000D01*
X89827000Y-125148750D01*
X89573000Y-125148750D01*
X89414250Y-124990000D01*
X89075000Y-124986928D01*
X88950518Y-124999188D01*
X88830820Y-125035498D01*
X88720506Y-125094463D01*
X88623815Y-125173815D01*
X88544463Y-125270506D01*
X88485498Y-125380820D01*
X88449188Y-125500518D01*
X88436928Y-125625000D01*
X78991274Y-125625000D01*
X78990000Y-125380750D01*
X78831250Y-125222000D01*
X77857000Y-125222000D01*
X77603000Y-125222000D01*
X77583000Y-125222000D01*
X77583000Y-124968000D01*
X77603000Y-124968000D01*
X77603000Y-123743750D01*
X77857000Y-123743750D01*
X77857000Y-124968000D01*
X78831250Y-124968000D01*
X78990000Y-124809250D01*
X78992237Y-124380000D01*
X80661928Y-124380000D01*
X80674188Y-124504482D01*
X80710498Y-124624180D01*
X80769463Y-124734494D01*
X80848815Y-124831185D01*
X80945506Y-124910537D01*
X81055820Y-124969502D01*
X81175518Y-125005812D01*
X81300000Y-125018072D01*
X82264250Y-125015000D01*
X82423000Y-124856250D01*
X82423000Y-122757000D01*
X82677000Y-122757000D01*
X82677000Y-124856250D01*
X82835750Y-125015000D01*
X83800000Y-125018072D01*
X83924482Y-125005812D01*
X84044180Y-124969502D01*
X84154494Y-124910537D01*
X84251185Y-124831185D01*
X84330537Y-124734494D01*
X84389502Y-124624180D01*
X84425812Y-124504482D01*
X84438072Y-124380000D01*
X84435555Y-123180000D01*
X88656928Y-123180000D01*
X88669188Y-123304482D01*
X88705498Y-123424180D01*
X88764463Y-123534494D01*
X88843815Y-123631185D01*
X88940506Y-123710537D01*
X89050820Y-123769502D01*
X89170518Y-123805812D01*
X89295000Y-123818072D01*
X89884250Y-123815000D01*
X90043000Y-123656250D01*
X90043000Y-122682000D01*
X90297000Y-122682000D01*
X90297000Y-123656250D01*
X90455750Y-123815000D01*
X91045000Y-123818072D01*
X91169482Y-123805812D01*
X91289180Y-123769502D01*
X91399494Y-123710537D01*
X91496185Y-123631185D01*
X91575537Y-123534494D01*
X91634502Y-123424180D01*
X91670812Y-123304482D01*
X91683072Y-123180000D01*
X91680000Y-122840750D01*
X91521250Y-122682000D01*
X90297000Y-122682000D01*
X90043000Y-122682000D01*
X88818750Y-122682000D01*
X88660000Y-122840750D01*
X88656928Y-123180000D01*
X84435555Y-123180000D01*
X84435000Y-122915750D01*
X84276250Y-122757000D01*
X82677000Y-122757000D01*
X82423000Y-122757000D01*
X80823750Y-122757000D01*
X80665000Y-122915750D01*
X80661928Y-124380000D01*
X78992237Y-124380000D01*
X78993072Y-124220000D01*
X78980812Y-124095518D01*
X78944502Y-123975820D01*
X78885537Y-123865506D01*
X78806185Y-123768815D01*
X78709494Y-123689463D01*
X78599180Y-123630498D01*
X78479482Y-123594188D01*
X78355000Y-123581928D01*
X78015750Y-123585000D01*
X77857000Y-123743750D01*
X77603000Y-123743750D01*
X77444250Y-123585000D01*
X77105000Y-123581928D01*
X77065000Y-123585868D01*
X77065000Y-120880000D01*
X80661928Y-120880000D01*
X80665000Y-122344250D01*
X80823750Y-122503000D01*
X82423000Y-122503000D01*
X82423000Y-120403750D01*
X82677000Y-120403750D01*
X82677000Y-122503000D01*
X84276250Y-122503000D01*
X84435000Y-122344250D01*
X84435869Y-121930000D01*
X88656928Y-121930000D01*
X88660000Y-122269250D01*
X88818750Y-122428000D01*
X90043000Y-122428000D01*
X90043000Y-121453750D01*
X90297000Y-121453750D01*
X90297000Y-122428000D01*
X91521250Y-122428000D01*
X91680000Y-122269250D01*
X91683072Y-121930000D01*
X91670812Y-121805518D01*
X91634502Y-121685820D01*
X91575537Y-121575506D01*
X91496185Y-121478815D01*
X91399494Y-121399463D01*
X91289180Y-121340498D01*
X91169482Y-121304188D01*
X91045000Y-121291928D01*
X90455750Y-121295000D01*
X90297000Y-121453750D01*
X90043000Y-121453750D01*
X89884250Y-121295000D01*
X89295000Y-121291928D01*
X89170518Y-121304188D01*
X89050820Y-121340498D01*
X88940506Y-121399463D01*
X88843815Y-121478815D01*
X88764463Y-121575506D01*
X88705498Y-121685820D01*
X88669188Y-121805518D01*
X88656928Y-121930000D01*
X84435869Y-121930000D01*
X84438072Y-120880000D01*
X84425812Y-120755518D01*
X84389502Y-120635820D01*
X84330537Y-120525506D01*
X84251185Y-120428815D01*
X84154494Y-120349463D01*
X84044180Y-120290498D01*
X83924482Y-120254188D01*
X83800000Y-120241928D01*
X82835750Y-120245000D01*
X82677000Y-120403750D01*
X82423000Y-120403750D01*
X82264250Y-120245000D01*
X81300000Y-120241928D01*
X81175518Y-120254188D01*
X81055820Y-120290498D01*
X80945506Y-120349463D01*
X80848815Y-120428815D01*
X80769463Y-120525506D01*
X80710498Y-120635820D01*
X80674188Y-120755518D01*
X80661928Y-120880000D01*
X77065000Y-120880000D01*
X77065000Y-120826746D01*
X77123255Y-120821008D01*
X77289851Y-120770472D01*
X77443387Y-120688405D01*
X77577962Y-120577962D01*
X77688405Y-120443387D01*
X77770472Y-120289851D01*
X77821008Y-120123255D01*
X77838072Y-119950001D01*
X77838072Y-116049999D01*
X77821008Y-115876745D01*
X77770472Y-115710149D01*
X77688405Y-115556613D01*
X77577962Y-115422038D01*
X77443387Y-115311595D01*
X77289851Y-115229528D01*
X77123255Y-115178992D01*
X76950001Y-115161928D01*
X73049999Y-115161928D01*
X72876745Y-115178992D01*
X72710149Y-115229528D01*
X72556613Y-115311595D01*
X72422038Y-115422038D01*
X72311595Y-115556613D01*
X72229528Y-115710149D01*
X72178992Y-115876745D01*
X72161928Y-116049999D01*
X71660000Y-116049999D01*
X71660000Y-103532279D01*
X71679920Y-103329117D01*
X72265000Y-103329117D01*
X72265000Y-103670883D01*
X72331675Y-104006081D01*
X72462463Y-104321831D01*
X72652337Y-104605998D01*
X72894002Y-104847663D01*
X73178169Y-105037537D01*
X73493919Y-105168325D01*
X73829117Y-105235000D01*
X74170883Y-105235000D01*
X74506081Y-105168325D01*
X74821831Y-105037537D01*
X75105998Y-104847663D01*
X75347663Y-104605998D01*
X75537537Y-104321831D01*
X75668325Y-104006081D01*
X75735000Y-103670883D01*
X75735000Y-103329117D01*
X110765000Y-103329117D01*
X110765000Y-103670883D01*
X110831675Y-104006081D01*
X110962463Y-104321831D01*
X111152337Y-104605998D01*
X111394002Y-104847663D01*
X111678169Y-105037537D01*
X111993919Y-105168325D01*
X112329117Y-105235000D01*
X112670883Y-105235000D01*
X113006081Y-105168325D01*
X113321831Y-105037537D01*
X113605998Y-104847663D01*
X113847663Y-104605998D01*
X114037537Y-104321831D01*
X114168325Y-104006081D01*
X114235000Y-103670883D01*
X114235000Y-103329117D01*
X114168325Y-102993919D01*
X114037537Y-102678169D01*
X113847663Y-102394002D01*
X113605998Y-102152337D01*
X113321831Y-101962463D01*
X113006081Y-101831675D01*
X112670883Y-101765000D01*
X112329117Y-101765000D01*
X111993919Y-101831675D01*
X111678169Y-101962463D01*
X111394002Y-102152337D01*
X111152337Y-102394002D01*
X110962463Y-102678169D01*
X110831675Y-102993919D01*
X110765000Y-103329117D01*
X75735000Y-103329117D01*
X75668325Y-102993919D01*
X75537537Y-102678169D01*
X75347663Y-102394002D01*
X75105998Y-102152337D01*
X74821831Y-101962463D01*
X74506081Y-101831675D01*
X74170883Y-101765000D01*
X73829117Y-101765000D01*
X73493919Y-101831675D01*
X73178169Y-101962463D01*
X72894002Y-102152337D01*
X72652337Y-102394002D01*
X72462463Y-102678169D01*
X72331675Y-102993919D01*
X72265000Y-103329117D01*
X71679920Y-103329117D01*
X71707670Y-103046107D01*
X71839489Y-102609502D01*
X72053600Y-102206815D01*
X72341848Y-101853388D01*
X72693261Y-101562673D01*
X73094439Y-101345758D01*
X73530113Y-101210894D01*
X74014344Y-101160000D01*
X112467721Y-101160000D01*
X112953893Y-101207670D01*
G37*
X112953893Y-101207670D02*
X113390498Y-101339489D01*
X113793185Y-101553600D01*
X114146612Y-101841848D01*
X114437327Y-102193261D01*
X114654242Y-102594439D01*
X114789106Y-103030113D01*
X114840000Y-103514344D01*
X114840001Y-131467711D01*
X114792330Y-131953894D01*
X114660512Y-132390497D01*
X114446399Y-132793186D01*
X114158150Y-133146613D01*
X113806739Y-133437327D01*
X113405564Y-133654240D01*
X112969886Y-133789106D01*
X112485664Y-133840000D01*
X74032279Y-133840000D01*
X73546106Y-133792330D01*
X73109503Y-133660512D01*
X72706814Y-133446399D01*
X72353387Y-133158150D01*
X72062673Y-132806739D01*
X71845760Y-132405564D01*
X71710894Y-131969886D01*
X71660000Y-131485664D01*
X71660000Y-131329117D01*
X72265000Y-131329117D01*
X72265000Y-131670883D01*
X72331675Y-132006081D01*
X72462463Y-132321831D01*
X72652337Y-132605998D01*
X72894002Y-132847663D01*
X73178169Y-133037537D01*
X73493919Y-133168325D01*
X73829117Y-133235000D01*
X74170883Y-133235000D01*
X74506081Y-133168325D01*
X74821831Y-133037537D01*
X75105998Y-132847663D01*
X75347663Y-132605998D01*
X75537537Y-132321831D01*
X75668325Y-132006081D01*
X75735000Y-131670883D01*
X75735000Y-131329117D01*
X75668325Y-130993919D01*
X75537537Y-130678169D01*
X75347663Y-130394002D01*
X75105998Y-130152337D01*
X74821831Y-129962463D01*
X74506081Y-129831675D01*
X74170883Y-129765000D01*
X73829117Y-129765000D01*
X73493919Y-129831675D01*
X73178169Y-129962463D01*
X72894002Y-130152337D01*
X72652337Y-130394002D01*
X72462463Y-130678169D01*
X72331675Y-130993919D01*
X72265000Y-131329117D01*
X71660000Y-131329117D01*
X71660000Y-116049999D01*
X72161928Y-116049999D01*
X72161928Y-119950001D01*
X72178992Y-120123255D01*
X72229528Y-120289851D01*
X72311595Y-120443387D01*
X72422038Y-120577962D01*
X72556613Y-120688405D01*
X72710149Y-120770472D01*
X72795000Y-120796211D01*
X72795001Y-125199882D01*
X72825893Y-125513533D01*
X72947975Y-125915982D01*
X73146224Y-126286881D01*
X73413024Y-126611977D01*
X73738120Y-126878777D01*
X74109019Y-127077026D01*
X74169473Y-127095364D01*
X74212368Y-127147633D01*
X74250901Y-127179256D01*
X79350739Y-132279094D01*
X79382367Y-132317633D01*
X79536160Y-132443847D01*
X79711620Y-132537632D01*
X79902006Y-132595385D01*
X80050392Y-132610000D01*
X80050394Y-132610000D01*
X80099999Y-132614886D01*
X80149604Y-132610000D01*
X98890392Y-132610000D01*
X98940000Y-132614886D01*
X99137994Y-132595385D01*
X99192644Y-132578807D01*
X99328380Y-132537632D01*
X99503840Y-132443847D01*
X99657633Y-132317633D01*
X99689261Y-132279094D01*
X100855283Y-131113072D01*
X101090000Y-131113072D01*
X101243745Y-131097929D01*
X101391582Y-131053084D01*
X101516112Y-130986521D01*
X101586595Y-131118386D01*
X101697038Y-131252962D01*
X101831614Y-131363405D01*
X101985150Y-131445472D01*
X102151746Y-131496008D01*
X102325000Y-131513072D01*
X103075000Y-131513072D01*
X103248254Y-131496008D01*
X103414850Y-131445472D01*
X103568386Y-131363405D01*
X103702962Y-131252962D01*
X103813405Y-131118386D01*
X103895472Y-130964850D01*
X103922727Y-130875000D01*
X104236928Y-130875000D01*
X104249188Y-130999482D01*
X104285498Y-131119180D01*
X104344463Y-131229494D01*
X104423815Y-131326185D01*
X104520506Y-131405537D01*
X104630820Y-131464502D01*
X104750518Y-131500812D01*
X104875000Y-131513072D01*
X105214250Y-131510000D01*
X105373000Y-131351250D01*
X105373000Y-130127000D01*
X105627000Y-130127000D01*
X105627000Y-131351250D01*
X105785750Y-131510000D01*
X106125000Y-131513072D01*
X106249482Y-131500812D01*
X106369180Y-131464502D01*
X106479494Y-131405537D01*
X106572612Y-131329117D01*
X110765000Y-131329117D01*
X110765000Y-131670883D01*
X110831675Y-132006081D01*
X110962463Y-132321831D01*
X111152337Y-132605998D01*
X111394002Y-132847663D01*
X111678169Y-133037537D01*
X111993919Y-133168325D01*
X112329117Y-133235000D01*
X112670883Y-133235000D01*
X113006081Y-133168325D01*
X113321831Y-133037537D01*
X113605998Y-132847663D01*
X113847663Y-132605998D01*
X114037537Y-132321831D01*
X114168325Y-132006081D01*
X114235000Y-131670883D01*
X114235000Y-131329117D01*
X114168325Y-130993919D01*
X114037537Y-130678169D01*
X113847663Y-130394002D01*
X113605998Y-130152337D01*
X113321831Y-129962463D01*
X113006081Y-129831675D01*
X112670883Y-129765000D01*
X112329117Y-129765000D01*
X111993919Y-129831675D01*
X111678169Y-129962463D01*
X111394002Y-130152337D01*
X111152337Y-130394002D01*
X110962463Y-130678169D01*
X110831675Y-130993919D01*
X110765000Y-131329117D01*
X106572612Y-131329117D01*
X106576185Y-131326185D01*
X106655537Y-131229494D01*
X106714502Y-131119180D01*
X106750812Y-130999482D01*
X106763072Y-130875000D01*
X106760000Y-130285750D01*
X106601250Y-130127000D01*
X105627000Y-130127000D01*
X105373000Y-130127000D01*
X104398750Y-130127000D01*
X104240000Y-130285750D01*
X104236928Y-130875000D01*
X103922727Y-130875000D01*
X103946008Y-130798254D01*
X103963072Y-130625000D01*
X103963072Y-129375000D01*
X103946008Y-129201746D01*
X103895472Y-129035150D01*
X103813405Y-128881614D01*
X103705393Y-128750000D01*
X103813405Y-128618386D01*
X103895472Y-128464850D01*
X103946008Y-128298254D01*
X103963072Y-128125000D01*
X103963072Y-126875000D01*
X104236928Y-126875000D01*
X104236928Y-128125000D01*
X104253992Y-128298254D01*
X104304528Y-128464850D01*
X104386595Y-128618386D01*
X104428756Y-128669760D01*
X104423815Y-128673815D01*
X104344463Y-128770506D01*
X104285498Y-128880820D01*
X104249188Y-129000518D01*
X104236928Y-129125000D01*
X104240000Y-129714250D01*
X104398750Y-129873000D01*
X105373000Y-129873000D01*
X105373000Y-129853000D01*
X105627000Y-129853000D01*
X105627000Y-129873000D01*
X106601250Y-129873000D01*
X106760000Y-129714250D01*
X106761898Y-129350000D01*
X107511928Y-129350000D01*
X107524188Y-129474482D01*
X107560498Y-129594180D01*
X107619463Y-129704494D01*
X107698815Y-129801185D01*
X107795506Y-129880537D01*
X107905820Y-129939502D01*
X108025518Y-129975812D01*
X108150000Y-129988072D01*
X108714250Y-129985000D01*
X108873000Y-129826250D01*
X108873000Y-128627000D01*
X109127000Y-128627000D01*
X109127000Y-129826250D01*
X109285750Y-129985000D01*
X109850000Y-129988072D01*
X109974482Y-129975812D01*
X110094180Y-129939502D01*
X110204494Y-129880537D01*
X110301185Y-129801185D01*
X110380537Y-129704494D01*
X110439502Y-129594180D01*
X110475812Y-129474482D01*
X110488072Y-129350000D01*
X110485000Y-128785750D01*
X110326250Y-128627000D01*
X109127000Y-128627000D01*
X108873000Y-128627000D01*
X107673750Y-128627000D01*
X107515000Y-128785750D01*
X107511928Y-129350000D01*
X106761898Y-129350000D01*
X106763072Y-129125000D01*
X106750812Y-129000518D01*
X106714502Y-128880820D01*
X106655537Y-128770506D01*
X106576185Y-128673815D01*
X106571244Y-128669760D01*
X106613405Y-128618386D01*
X106695472Y-128464850D01*
X106746008Y-128298254D01*
X106763072Y-128125000D01*
X106763072Y-127488506D01*
X107406579Y-126845000D01*
X107805344Y-126845000D01*
X107846525Y-126906632D01*
X107978380Y-127038487D01*
X107905820Y-127060498D01*
X107795506Y-127119463D01*
X107698815Y-127198815D01*
X107619463Y-127295506D01*
X107560498Y-127405820D01*
X107524188Y-127525518D01*
X107511928Y-127650000D01*
X107515000Y-128214250D01*
X107673750Y-128373000D01*
X108873000Y-128373000D01*
X108873000Y-128353000D01*
X109127000Y-128353000D01*
X109127000Y-128373000D01*
X110326250Y-128373000D01*
X110485000Y-128214250D01*
X110488072Y-127650000D01*
X110475812Y-127525518D01*
X110439502Y-127405820D01*
X110380537Y-127295506D01*
X110301185Y-127198815D01*
X110204494Y-127119463D01*
X110094180Y-127060498D01*
X110021620Y-127038487D01*
X110153475Y-126906632D01*
X110315990Y-126663411D01*
X110427932Y-126393158D01*
X110485000Y-126106260D01*
X110485000Y-125813740D01*
X110427932Y-125526842D01*
X110315990Y-125256589D01*
X110153475Y-125013368D01*
X109946632Y-124806525D01*
X109703411Y-124644010D01*
X109433158Y-124532068D01*
X109146260Y-124475000D01*
X108853740Y-124475000D01*
X108566842Y-124532068D01*
X108296589Y-124644010D01*
X108053368Y-124806525D01*
X107846525Y-125013368D01*
X107805344Y-125075000D01*
X107083469Y-125075000D01*
X107040000Y-125070719D01*
X106996531Y-125075000D01*
X106996523Y-125075000D01*
X106866510Y-125087805D01*
X106699687Y-125138411D01*
X106584682Y-125199882D01*
X106545941Y-125220589D01*
X106444953Y-125303468D01*
X106444951Y-125303470D01*
X106411183Y-125331183D01*
X106383470Y-125364951D01*
X105761493Y-125986928D01*
X105125000Y-125986928D01*
X104951746Y-126003992D01*
X104785150Y-126054528D01*
X104631614Y-126136595D01*
X104497038Y-126247038D01*
X104386595Y-126381614D01*
X104304528Y-126535150D01*
X104253992Y-126701746D01*
X104236928Y-126875000D01*
X103963072Y-126875000D01*
X103946008Y-126701746D01*
X103895472Y-126535150D01*
X103813405Y-126381614D01*
X103702962Y-126247038D01*
X103568386Y-126136595D01*
X103414850Y-126054528D01*
X103248254Y-126003992D01*
X103075000Y-125986928D01*
X102615283Y-125986928D01*
X102544983Y-125916628D01*
X102951612Y-125510000D01*
X104050392Y-125510000D01*
X104100000Y-125514886D01*
X104227096Y-125502368D01*
X104297994Y-125495385D01*
X104488380Y-125437632D01*
X104663840Y-125343847D01*
X104817633Y-125217633D01*
X104849261Y-125179093D01*
X105229094Y-124799260D01*
X105229099Y-124799256D01*
X106064115Y-123964241D01*
X106261466Y-124024107D01*
X106680000Y-124065329D01*
X107098533Y-124024107D01*
X107500982Y-123902025D01*
X107871881Y-123703776D01*
X108196977Y-123436977D01*
X108463776Y-123111881D01*
X108662025Y-122740982D01*
X108784107Y-122338533D01*
X108825329Y-121920000D01*
X108784107Y-121501466D01*
X108662025Y-121099017D01*
X108463776Y-120728118D01*
X108263835Y-120484489D01*
X107779346Y-120000000D01*
X108921928Y-120000000D01*
X108934188Y-120124482D01*
X108970498Y-120244180D01*
X109029463Y-120354494D01*
X109108815Y-120451185D01*
X109205506Y-120530537D01*
X109315820Y-120589502D01*
X109435518Y-120625812D01*
X109560000Y-120638072D01*
X111474250Y-120635000D01*
X111633000Y-120476250D01*
X111633000Y-117927000D01*
X111887000Y-117927000D01*
X111887000Y-120476250D01*
X112045750Y-120635000D01*
X113960000Y-120638072D01*
X114084482Y-120625812D01*
X114204180Y-120589502D01*
X114314494Y-120530537D01*
X114411185Y-120451185D01*
X114490537Y-120354494D01*
X114549502Y-120244180D01*
X114585812Y-120124482D01*
X114598072Y-120000000D01*
X114595000Y-118085750D01*
X114436250Y-117927000D01*
X111887000Y-117927000D01*
X111633000Y-117927000D01*
X109083750Y-117927000D01*
X108925000Y-118085750D01*
X108921928Y-120000000D01*
X107779346Y-120000000D01*
X106451798Y-118672452D01*
X106553000Y-118571250D01*
X106553000Y-117547000D01*
X106807000Y-117547000D01*
X106807000Y-118571250D01*
X106965750Y-118730000D01*
X108005000Y-118733072D01*
X108129482Y-118720812D01*
X108249180Y-118684502D01*
X108359494Y-118625537D01*
X108456185Y-118546185D01*
X108535537Y-118449494D01*
X108594502Y-118339180D01*
X108630812Y-118219482D01*
X108643072Y-118095000D01*
X108640000Y-117705750D01*
X108481250Y-117547000D01*
X106807000Y-117547000D01*
X106553000Y-117547000D01*
X106533000Y-117547000D01*
X106533000Y-117293000D01*
X106553000Y-117293000D01*
X106553000Y-116268750D01*
X106807000Y-116268750D01*
X106807000Y-117293000D01*
X108481250Y-117293000D01*
X108640000Y-117134250D01*
X108643072Y-116745000D01*
X108630812Y-116620518D01*
X108594502Y-116500820D01*
X108535537Y-116390506D01*
X108456185Y-116293815D01*
X108359494Y-116214463D01*
X108249180Y-116155498D01*
X108129482Y-116119188D01*
X108005000Y-116106928D01*
X106965750Y-116110000D01*
X106807000Y-116268750D01*
X106553000Y-116268750D01*
X106394250Y-116110000D01*
X105809372Y-116108271D01*
X105907643Y-116027623D01*
X105939271Y-115989084D01*
X106328355Y-115600000D01*
X108921928Y-115600000D01*
X108925000Y-117514250D01*
X109083750Y-117673000D01*
X111633000Y-117673000D01*
X111633000Y-115123750D01*
X111887000Y-115123750D01*
X111887000Y-117673000D01*
X114436250Y-117673000D01*
X114595000Y-117514250D01*
X114598072Y-115600000D01*
X114585812Y-115475518D01*
X114549502Y-115355820D01*
X114490537Y-115245506D01*
X114411185Y-115148815D01*
X114314494Y-115069463D01*
X114204180Y-115010498D01*
X114084482Y-114974188D01*
X113960000Y-114961928D01*
X112045750Y-114965000D01*
X111887000Y-115123750D01*
X111633000Y-115123750D01*
X111474250Y-114965000D01*
X109560000Y-114961928D01*
X109435518Y-114974188D01*
X109315820Y-115010498D01*
X109205506Y-115069463D01*
X109108815Y-115148815D01*
X109029463Y-115245506D01*
X108970498Y-115355820D01*
X108934188Y-115475518D01*
X108921928Y-115600000D01*
X106328355Y-115600000D01*
X110416457Y-111511898D01*
X110417124Y-111512344D01*
X110933061Y-111726052D01*
X111480777Y-111835000D01*
X112039223Y-111835000D01*
X112586939Y-111726052D01*
X113102876Y-111512344D01*
X113567207Y-111202088D01*
X113962088Y-110807207D01*
X114272344Y-110342876D01*
X114486052Y-109826939D01*
X114595000Y-109279223D01*
X114595000Y-108720777D01*
X114486052Y-108173061D01*
X114272344Y-107657124D01*
X113962088Y-107192793D01*
X113567207Y-106797912D01*
X113102876Y-106487656D01*
X112586939Y-106273948D01*
X112039223Y-106165000D01*
X111480777Y-106165000D01*
X110933061Y-106273948D01*
X110508034Y-106450000D01*
X106328072Y-106450000D01*
X106328072Y-106085000D01*
X106315812Y-105960518D01*
X106279502Y-105840820D01*
X106220537Y-105730506D01*
X106141185Y-105633815D01*
X106044494Y-105554463D01*
X105934180Y-105495498D01*
X105814482Y-105459188D01*
X105690000Y-105446928D01*
X102590000Y-105446928D01*
X102465518Y-105459188D01*
X102345820Y-105495498D01*
X102235506Y-105554463D01*
X102138815Y-105633815D01*
X102059463Y-105730506D01*
X102000498Y-105840820D01*
X101964188Y-105960518D01*
X101951928Y-106085000D01*
X101951928Y-111085000D01*
X101964188Y-111209482D01*
X102000498Y-111329180D01*
X102059463Y-111439494D01*
X102138815Y-111536185D01*
X102235506Y-111615537D01*
X102345820Y-111674502D01*
X102465518Y-111710812D01*
X102590000Y-111723072D01*
X105690000Y-111723072D01*
X105814482Y-111710812D01*
X105934180Y-111674502D01*
X106044494Y-111615537D01*
X106141185Y-111536185D01*
X106220537Y-111439494D01*
X106279502Y-111329180D01*
X106315812Y-111209482D01*
X106328072Y-111085000D01*
X106328072Y-110720000D01*
X108351644Y-110720000D01*
X104771655Y-114299990D01*
X102165111Y-114299990D01*
X102115503Y-114295104D01*
X101917508Y-114314605D01*
X101727123Y-114372358D01*
X101551663Y-114466143D01*
X101397870Y-114592357D01*
X101366247Y-114630891D01*
X99870891Y-116126247D01*
X99832358Y-116157870D01*
X99800735Y-116196403D01*
X99800734Y-116196404D01*
X99706144Y-116311663D01*
X99613167Y-116485611D01*
X99525000Y-116476928D01*
X98460000Y-116476928D01*
X98460000Y-111929872D01*
X98470329Y-111825000D01*
X98460000Y-111720128D01*
X98460000Y-111720118D01*
X98429108Y-111406467D01*
X98331592Y-111085000D01*
X98307026Y-111004017D01*
X98164290Y-110736977D01*
X98108777Y-110633119D01*
X98034716Y-110542876D01*
X97908835Y-110389489D01*
X97908833Y-110389487D01*
X97841977Y-110308023D01*
X97760513Y-110241167D01*
X95228072Y-107708727D01*
X95228072Y-106085000D01*
X95215812Y-105960518D01*
X95179502Y-105840820D01*
X95120537Y-105730506D01*
X95041185Y-105633815D01*
X94944494Y-105554463D01*
X94834180Y-105495498D01*
X94714482Y-105459188D01*
X94590000Y-105446928D01*
X91490000Y-105446928D01*
X91365518Y-105459188D01*
X91245820Y-105495498D01*
X91135506Y-105554463D01*
X91038815Y-105633815D01*
X90959463Y-105730506D01*
X90900498Y-105840820D01*
X90864188Y-105960518D01*
X90851928Y-106085000D01*
X90851928Y-106450000D01*
X86035119Y-106450000D01*
X85721468Y-106480892D01*
X85574692Y-106525416D01*
X85389485Y-106543658D01*
X85081287Y-106637148D01*
X84932030Y-106716928D01*
X84610000Y-106716928D01*
X84485518Y-106729188D01*
X84365820Y-106765498D01*
X84342740Y-106777835D01*
X84254180Y-106730498D01*
X84134482Y-106694188D01*
X84010000Y-106681928D01*
X79050000Y-106681928D01*
X78925518Y-106694188D01*
X78805820Y-106730498D01*
X78695506Y-106789463D01*
X78598815Y-106868815D01*
X78519463Y-106965506D01*
X78460498Y-107075820D01*
X78457713Y-107085000D01*
X76894295Y-107085000D01*
X76807207Y-106997912D01*
X76342876Y-106687656D01*
X75826939Y-106473948D01*
X75279223Y-106365000D01*
X74720777Y-106365000D01*
X74173061Y-106473948D01*
X73657124Y-106687656D01*
X73192793Y-106997912D01*
X72797912Y-107392793D01*
X72487656Y-107857124D01*
X72273948Y-108373061D01*
X72165000Y-108920777D01*
X72165000Y-109479223D01*
X72273948Y-110026939D01*
X72487656Y-110542876D01*
X72797912Y-111007207D01*
X73192793Y-111402088D01*
X73657124Y-111712344D01*
X74173061Y-111926052D01*
X74720777Y-112035000D01*
X75279223Y-112035000D01*
X75826939Y-111926052D01*
X76342876Y-111712344D01*
X76807207Y-111402088D01*
X76854295Y-111355000D01*
X78457713Y-111355000D01*
X78460498Y-111364180D01*
X78519463Y-111474494D01*
X78598815Y-111571185D01*
X78695506Y-111650537D01*
X78805820Y-111709502D01*
X78925518Y-111745812D01*
X79050000Y-111758072D01*
X79395000Y-111758072D01*
X79395001Y-115005118D01*
X79384671Y-115110000D01*
X79425893Y-115528533D01*
X79547975Y-115930982D01*
X79746224Y-116301881D01*
X79946165Y-116545510D01*
X79946168Y-116545513D01*
X80013024Y-116626977D01*
X80094488Y-116693833D01*
X80661928Y-117261273D01*
X80661928Y-117630000D01*
X80678992Y-117803254D01*
X80729528Y-117969850D01*
X80811595Y-118123386D01*
X80922038Y-118257962D01*
X81056614Y-118368405D01*
X81210150Y-118450472D01*
X81376746Y-118501008D01*
X81550000Y-118518072D01*
X83550000Y-118518072D01*
X83723254Y-118501008D01*
X83889850Y-118450472D01*
X84043386Y-118368405D01*
X84177962Y-118257962D01*
X84288405Y-118123386D01*
X84370472Y-117969850D01*
X84421008Y-117803254D01*
X84438072Y-117630000D01*
X84438072Y-117263787D01*
X84592499Y-117248577D01*
X84806447Y-117183676D01*
X85003623Y-117078284D01*
X85176449Y-116936449D01*
X85211996Y-116893135D01*
X86035132Y-116070000D01*
X89092015Y-116070000D01*
X89205150Y-116130472D01*
X89371746Y-116181008D01*
X89545000Y-116198072D01*
X90795000Y-116198072D01*
X90968254Y-116181008D01*
X91134850Y-116130472D01*
X91288386Y-116048405D01*
X91422962Y-115937962D01*
X91533405Y-115803386D01*
X91615472Y-115649850D01*
X91666008Y-115483254D01*
X91683072Y-115310000D01*
X91683072Y-114560000D01*
X91666008Y-114386746D01*
X91615472Y-114220150D01*
X91533405Y-114066614D01*
X91422962Y-113932038D01*
X91288386Y-113821595D01*
X91134850Y-113739528D01*
X90968254Y-113688992D01*
X90795000Y-113671928D01*
X89545000Y-113671928D01*
X89371746Y-113688992D01*
X89205150Y-113739528D01*
X89092015Y-113800000D01*
X85620743Y-113800000D01*
X85564999Y-113794510D01*
X85509255Y-113800000D01*
X85509248Y-113800000D01*
X85363493Y-113814356D01*
X85342500Y-113816423D01*
X85325451Y-113821595D01*
X85128553Y-113881324D01*
X84931377Y-113986716D01*
X84758551Y-114128551D01*
X84723008Y-114171860D01*
X84422542Y-114472326D01*
X84421008Y-114456746D01*
X84370472Y-114290150D01*
X84288405Y-114136614D01*
X84177962Y-114002038D01*
X84043386Y-113891595D01*
X83889850Y-113809528D01*
X83723254Y-113758992D01*
X83665000Y-113753254D01*
X83665000Y-111758072D01*
X84010000Y-111758072D01*
X84134482Y-111745812D01*
X84254180Y-111709502D01*
X84342740Y-111662165D01*
X84365820Y-111674502D01*
X84485518Y-111710812D01*
X84610000Y-111723072D01*
X84932030Y-111723072D01*
X85081287Y-111802852D01*
X85389485Y-111896342D01*
X85710001Y-111927911D01*
X86030517Y-111896342D01*
X86338715Y-111802852D01*
X86622753Y-111651030D01*
X86809324Y-111497915D01*
X87587239Y-110720000D01*
X90851928Y-110720000D01*
X90851928Y-111085000D01*
X90864188Y-111209482D01*
X90900498Y-111329180D01*
X90959463Y-111439494D01*
X91038815Y-111536185D01*
X91135506Y-111615537D01*
X91245820Y-111674502D01*
X91365518Y-111710812D01*
X91490000Y-111723072D01*
X93203726Y-111723072D01*
X94190000Y-112709346D01*
X94190001Y-116476928D01*
X93125000Y-116476928D01*
X93000518Y-116489188D01*
X92880820Y-116525498D01*
X92770506Y-116584463D01*
X92673815Y-116663815D01*
X92594463Y-116760506D01*
X92535498Y-116870820D01*
X92499188Y-116990518D01*
X92486928Y-117115000D01*
X92486928Y-119081416D01*
X92301898Y-119004774D01*
X92101939Y-118965000D01*
X91898061Y-118965000D01*
X91772377Y-118990000D01*
X91588666Y-118990000D01*
X91533405Y-118886614D01*
X91422962Y-118752038D01*
X91414386Y-118745000D01*
X91422962Y-118737962D01*
X91533405Y-118603386D01*
X91615472Y-118449850D01*
X91666008Y-118283254D01*
X91683072Y-118110000D01*
X91683072Y-117360000D01*
X91666008Y-117186746D01*
X91615472Y-117020150D01*
X91533405Y-116866614D01*
X91422962Y-116732038D01*
X91288386Y-116621595D01*
X91134850Y-116539528D01*
X90968254Y-116488992D01*
X90795000Y-116471928D01*
X89545000Y-116471928D01*
X89371746Y-116488992D01*
X89205150Y-116539528D01*
X89051614Y-116621595D01*
X88917038Y-116732038D01*
X88806595Y-116866614D01*
X88724528Y-117020150D01*
X88673992Y-117186746D01*
X88656928Y-117360000D01*
X88656928Y-118110000D01*
X88673992Y-118283254D01*
X88724528Y-118449850D01*
X88806595Y-118603386D01*
X88917038Y-118737962D01*
X88925614Y-118745000D01*
X88917038Y-118752038D01*
X88806595Y-118886614D01*
X88724528Y-119040150D01*
X88673992Y-119206746D01*
X88656928Y-119380000D01*
X88656928Y-120130000D01*
X88673992Y-120303254D01*
X88724528Y-120469850D01*
X88806595Y-120623386D01*
X88917038Y-120757962D01*
X89051614Y-120868405D01*
X89205150Y-120950472D01*
X89371746Y-121001008D01*
X89545000Y-121018072D01*
X90795000Y-121018072D01*
X90876957Y-121010000D01*
X91772377Y-121010000D01*
X91898061Y-121035000D01*
X92101939Y-121035000D01*
X92301898Y-120995226D01*
X92486928Y-120918584D01*
X92486928Y-122915000D01*
X92499188Y-123039482D01*
X92535498Y-123159180D01*
X92594463Y-123269494D01*
X92673815Y-123366185D01*
X92770506Y-123445537D01*
X92880820Y-123504502D01*
X93000518Y-123540812D01*
X93125000Y-123553072D01*
X96598572Y-123553072D01*
X94796645Y-125355000D01*
X93684608Y-125355000D01*
X93635000Y-125350114D01*
X93591102Y-125354438D01*
X93502962Y-125247038D01*
X93368386Y-125136595D01*
X93214850Y-125054528D01*
X93048254Y-125003992D01*
X92875000Y-124986928D01*
X92125000Y-124986928D01*
X91951746Y-125003992D01*
X91785150Y-125054528D01*
X91631614Y-125136595D01*
X91497038Y-125247038D01*
X91386595Y-125381614D01*
X91304528Y-125535150D01*
X91253992Y-125701746D01*
X91236928Y-125875000D01*
X91236928Y-127125000D01*
X91253992Y-127298254D01*
X91258507Y-127313138D01*
X90870909Y-127700736D01*
X90914502Y-127619180D01*
X90950812Y-127499482D01*
X90963072Y-127375000D01*
X90960000Y-126785750D01*
X90801250Y-126627000D01*
X89827000Y-126627000D01*
X89827000Y-127851250D01*
X89985750Y-128010000D01*
X90325000Y-128013072D01*
X90449482Y-128000812D01*
X90569180Y-127964502D01*
X90650736Y-127920908D01*
X90530906Y-128040739D01*
X90492367Y-128072367D01*
X90366153Y-128226160D01*
X90287666Y-128373000D01*
X90272368Y-128401621D01*
X90214615Y-128592006D01*
X90195114Y-128790000D01*
X90200000Y-128839608D01*
X90200000Y-129589608D01*
X90214615Y-129737994D01*
X90236928Y-129811549D01*
X90236928Y-130165000D01*
X90253992Y-130338254D01*
X90304528Y-130504850D01*
X90350042Y-130590000D01*
X89935488Y-130590000D01*
X89950812Y-130539482D01*
X89963072Y-130415000D01*
X89960000Y-129825750D01*
X89801250Y-129667000D01*
X88827000Y-129667000D01*
X88827000Y-129687000D01*
X88573000Y-129687000D01*
X88573000Y-129667000D01*
X87598750Y-129667000D01*
X87440000Y-129825750D01*
X87436928Y-130415000D01*
X87449188Y-130539482D01*
X87464512Y-130590000D01*
X80518355Y-130590000D01*
X78593355Y-128665000D01*
X87436928Y-128665000D01*
X87440000Y-129254250D01*
X87598750Y-129413000D01*
X88573000Y-129413000D01*
X88573000Y-128188750D01*
X88827000Y-128188750D01*
X88827000Y-129413000D01*
X89801250Y-129413000D01*
X89960000Y-129254250D01*
X89963072Y-128665000D01*
X89950812Y-128540518D01*
X89914502Y-128420820D01*
X89855537Y-128310506D01*
X89776185Y-128213815D01*
X89679494Y-128134463D01*
X89569180Y-128075498D01*
X89449482Y-128039188D01*
X89325000Y-128026928D01*
X88985750Y-128030000D01*
X88827000Y-128188750D01*
X88573000Y-128188750D01*
X88414250Y-128030000D01*
X88075000Y-128026928D01*
X87950518Y-128039188D01*
X87830820Y-128075498D01*
X87720506Y-128134463D01*
X87623815Y-128213815D01*
X87544463Y-128310506D01*
X87485498Y-128420820D01*
X87449188Y-128540518D01*
X87436928Y-128665000D01*
X78593355Y-128665000D01*
X77303355Y-127375000D01*
X88436928Y-127375000D01*
X88449188Y-127499482D01*
X88485498Y-127619180D01*
X88544463Y-127729494D01*
X88623815Y-127826185D01*
X88720506Y-127905537D01*
X88830820Y-127964502D01*
X88950518Y-128000812D01*
X89075000Y-128013072D01*
X89414250Y-128010000D01*
X89573000Y-127851250D01*
X89573000Y-126627000D01*
X88598750Y-126627000D01*
X88440000Y-126785750D01*
X88436928Y-127375000D01*
X77303355Y-127375000D01*
X76489057Y-126560702D01*
X76628686Y-126390565D01*
X76653815Y-126421185D01*
X76750506Y-126500537D01*
X76860820Y-126559502D01*
X76980518Y-126595812D01*
X77105000Y-126608072D01*
X77444250Y-126605000D01*
X77603000Y-126446250D01*
X77603000Y-125222000D01*
X77857000Y-125222000D01*
X77857000Y-126446250D01*
X78015750Y-126605000D01*
X78355000Y-126608072D01*
X78479482Y-126595812D01*
X78599180Y-126559502D01*
X78709494Y-126500537D01*
X78806185Y-126421185D01*
X78885537Y-126324494D01*
X78944502Y-126214180D01*
X78980812Y-126094482D01*
X78993072Y-125970000D01*
X78991274Y-125625000D01*
X88436928Y-125625000D01*
X88440000Y-126214250D01*
X88598750Y-126373000D01*
X89573000Y-126373000D01*
X89573000Y-125148750D01*
X89827000Y-125148750D01*
X89827000Y-126373000D01*
X90801250Y-126373000D01*
X90960000Y-126214250D01*
X90963072Y-125625000D01*
X90950812Y-125500518D01*
X90914502Y-125380820D01*
X90855537Y-125270506D01*
X90776185Y-125173815D01*
X90679494Y-125094463D01*
X90569180Y-125035498D01*
X90449482Y-124999188D01*
X90325000Y-124986928D01*
X89985750Y-124990000D01*
X89827000Y-125148750D01*
X89573000Y-125148750D01*
X89414250Y-124990000D01*
X89075000Y-124986928D01*
X88950518Y-124999188D01*
X88830820Y-125035498D01*
X88720506Y-125094463D01*
X88623815Y-125173815D01*
X88544463Y-125270506D01*
X88485498Y-125380820D01*
X88449188Y-125500518D01*
X88436928Y-125625000D01*
X78991274Y-125625000D01*
X78990000Y-125380750D01*
X78831250Y-125222000D01*
X77857000Y-125222000D01*
X77603000Y-125222000D01*
X77583000Y-125222000D01*
X77583000Y-124968000D01*
X77603000Y-124968000D01*
X77603000Y-123743750D01*
X77857000Y-123743750D01*
X77857000Y-124968000D01*
X78831250Y-124968000D01*
X78990000Y-124809250D01*
X78992237Y-124380000D01*
X80661928Y-124380000D01*
X80674188Y-124504482D01*
X80710498Y-124624180D01*
X80769463Y-124734494D01*
X80848815Y-124831185D01*
X80945506Y-124910537D01*
X81055820Y-124969502D01*
X81175518Y-125005812D01*
X81300000Y-125018072D01*
X82264250Y-125015000D01*
X82423000Y-124856250D01*
X82423000Y-122757000D01*
X82677000Y-122757000D01*
X82677000Y-124856250D01*
X82835750Y-125015000D01*
X83800000Y-125018072D01*
X83924482Y-125005812D01*
X84044180Y-124969502D01*
X84154494Y-124910537D01*
X84251185Y-124831185D01*
X84330537Y-124734494D01*
X84389502Y-124624180D01*
X84425812Y-124504482D01*
X84438072Y-124380000D01*
X84435555Y-123180000D01*
X88656928Y-123180000D01*
X88669188Y-123304482D01*
X88705498Y-123424180D01*
X88764463Y-123534494D01*
X88843815Y-123631185D01*
X88940506Y-123710537D01*
X89050820Y-123769502D01*
X89170518Y-123805812D01*
X89295000Y-123818072D01*
X89884250Y-123815000D01*
X90043000Y-123656250D01*
X90043000Y-122682000D01*
X90297000Y-122682000D01*
X90297000Y-123656250D01*
X90455750Y-123815000D01*
X91045000Y-123818072D01*
X91169482Y-123805812D01*
X91289180Y-123769502D01*
X91399494Y-123710537D01*
X91496185Y-123631185D01*
X91575537Y-123534494D01*
X91634502Y-123424180D01*
X91670812Y-123304482D01*
X91683072Y-123180000D01*
X91680000Y-122840750D01*
X91521250Y-122682000D01*
X90297000Y-122682000D01*
X90043000Y-122682000D01*
X88818750Y-122682000D01*
X88660000Y-122840750D01*
X88656928Y-123180000D01*
X84435555Y-123180000D01*
X84435000Y-122915750D01*
X84276250Y-122757000D01*
X82677000Y-122757000D01*
X82423000Y-122757000D01*
X80823750Y-122757000D01*
X80665000Y-122915750D01*
X80661928Y-124380000D01*
X78992237Y-124380000D01*
X78993072Y-124220000D01*
X78980812Y-124095518D01*
X78944502Y-123975820D01*
X78885537Y-123865506D01*
X78806185Y-123768815D01*
X78709494Y-123689463D01*
X78599180Y-123630498D01*
X78479482Y-123594188D01*
X78355000Y-123581928D01*
X78015750Y-123585000D01*
X77857000Y-123743750D01*
X77603000Y-123743750D01*
X77444250Y-123585000D01*
X77105000Y-123581928D01*
X77065000Y-123585868D01*
X77065000Y-120880000D01*
X80661928Y-120880000D01*
X80665000Y-122344250D01*
X80823750Y-122503000D01*
X82423000Y-122503000D01*
X82423000Y-120403750D01*
X82677000Y-120403750D01*
X82677000Y-122503000D01*
X84276250Y-122503000D01*
X84435000Y-122344250D01*
X84435869Y-121930000D01*
X88656928Y-121930000D01*
X88660000Y-122269250D01*
X88818750Y-122428000D01*
X90043000Y-122428000D01*
X90043000Y-121453750D01*
X90297000Y-121453750D01*
X90297000Y-122428000D01*
X91521250Y-122428000D01*
X91680000Y-122269250D01*
X91683072Y-121930000D01*
X91670812Y-121805518D01*
X91634502Y-121685820D01*
X91575537Y-121575506D01*
X91496185Y-121478815D01*
X91399494Y-121399463D01*
X91289180Y-121340498D01*
X91169482Y-121304188D01*
X91045000Y-121291928D01*
X90455750Y-121295000D01*
X90297000Y-121453750D01*
X90043000Y-121453750D01*
X89884250Y-121295000D01*
X89295000Y-121291928D01*
X89170518Y-121304188D01*
X89050820Y-121340498D01*
X88940506Y-121399463D01*
X88843815Y-121478815D01*
X88764463Y-121575506D01*
X88705498Y-121685820D01*
X88669188Y-121805518D01*
X88656928Y-121930000D01*
X84435869Y-121930000D01*
X84438072Y-120880000D01*
X84425812Y-120755518D01*
X84389502Y-120635820D01*
X84330537Y-120525506D01*
X84251185Y-120428815D01*
X84154494Y-120349463D01*
X84044180Y-120290498D01*
X83924482Y-120254188D01*
X83800000Y-120241928D01*
X82835750Y-120245000D01*
X82677000Y-120403750D01*
X82423000Y-120403750D01*
X82264250Y-120245000D01*
X81300000Y-120241928D01*
X81175518Y-120254188D01*
X81055820Y-120290498D01*
X80945506Y-120349463D01*
X80848815Y-120428815D01*
X80769463Y-120525506D01*
X80710498Y-120635820D01*
X80674188Y-120755518D01*
X80661928Y-120880000D01*
X77065000Y-120880000D01*
X77065000Y-120826746D01*
X77123255Y-120821008D01*
X77289851Y-120770472D01*
X77443387Y-120688405D01*
X77577962Y-120577962D01*
X77688405Y-120443387D01*
X77770472Y-120289851D01*
X77821008Y-120123255D01*
X77838072Y-119950001D01*
X77838072Y-116049999D01*
X77821008Y-115876745D01*
X77770472Y-115710149D01*
X77688405Y-115556613D01*
X77577962Y-115422038D01*
X77443387Y-115311595D01*
X77289851Y-115229528D01*
X77123255Y-115178992D01*
X76950001Y-115161928D01*
X73049999Y-115161928D01*
X72876745Y-115178992D01*
X72710149Y-115229528D01*
X72556613Y-115311595D01*
X72422038Y-115422038D01*
X72311595Y-115556613D01*
X72229528Y-115710149D01*
X72178992Y-115876745D01*
X72161928Y-116049999D01*
X71660000Y-116049999D01*
X71660000Y-103532279D01*
X71679920Y-103329117D01*
X72265000Y-103329117D01*
X72265000Y-103670883D01*
X72331675Y-104006081D01*
X72462463Y-104321831D01*
X72652337Y-104605998D01*
X72894002Y-104847663D01*
X73178169Y-105037537D01*
X73493919Y-105168325D01*
X73829117Y-105235000D01*
X74170883Y-105235000D01*
X74506081Y-105168325D01*
X74821831Y-105037537D01*
X75105998Y-104847663D01*
X75347663Y-104605998D01*
X75537537Y-104321831D01*
X75668325Y-104006081D01*
X75735000Y-103670883D01*
X75735000Y-103329117D01*
X110765000Y-103329117D01*
X110765000Y-103670883D01*
X110831675Y-104006081D01*
X110962463Y-104321831D01*
X111152337Y-104605998D01*
X111394002Y-104847663D01*
X111678169Y-105037537D01*
X111993919Y-105168325D01*
X112329117Y-105235000D01*
X112670883Y-105235000D01*
X113006081Y-105168325D01*
X113321831Y-105037537D01*
X113605998Y-104847663D01*
X113847663Y-104605998D01*
X114037537Y-104321831D01*
X114168325Y-104006081D01*
X114235000Y-103670883D01*
X114235000Y-103329117D01*
X114168325Y-102993919D01*
X114037537Y-102678169D01*
X113847663Y-102394002D01*
X113605998Y-102152337D01*
X113321831Y-101962463D01*
X113006081Y-101831675D01*
X112670883Y-101765000D01*
X112329117Y-101765000D01*
X111993919Y-101831675D01*
X111678169Y-101962463D01*
X111394002Y-102152337D01*
X111152337Y-102394002D01*
X110962463Y-102678169D01*
X110831675Y-102993919D01*
X110765000Y-103329117D01*
X75735000Y-103329117D01*
X75668325Y-102993919D01*
X75537537Y-102678169D01*
X75347663Y-102394002D01*
X75105998Y-102152337D01*
X74821831Y-101962463D01*
X74506081Y-101831675D01*
X74170883Y-101765000D01*
X73829117Y-101765000D01*
X73493919Y-101831675D01*
X73178169Y-101962463D01*
X72894002Y-102152337D01*
X72652337Y-102394002D01*
X72462463Y-102678169D01*
X72331675Y-102993919D01*
X72265000Y-103329117D01*
X71679920Y-103329117D01*
X71707670Y-103046107D01*
X71839489Y-102609502D01*
X72053600Y-102206815D01*
X72341848Y-101853388D01*
X72693261Y-101562673D01*
X73094439Y-101345758D01*
X73530113Y-101210894D01*
X74014344Y-101160000D01*
X112467721Y-101160000D01*
X112953893Y-101207670D01*
G36*
X93701928Y-127785000D02*
G01*
X93717071Y-127938745D01*
X93761916Y-128086582D01*
X93833730Y-128220936D01*
X93809463Y-128250506D01*
X93750498Y-128360820D01*
X93714188Y-128480518D01*
X93701928Y-128605000D01*
X93705000Y-128619250D01*
X93863750Y-128778000D01*
X95088000Y-128778000D01*
X95088000Y-128758000D01*
X95342000Y-128758000D01*
X95342000Y-128778000D01*
X95362000Y-128778000D01*
X95362000Y-129032000D01*
X95342000Y-129032000D01*
X95342000Y-129052000D01*
X95088000Y-129052000D01*
X95088000Y-129032000D01*
X93863750Y-129032000D01*
X93705000Y-129190750D01*
X93701928Y-129205000D01*
X93714188Y-129329482D01*
X93750498Y-129449180D01*
X93809463Y-129559494D01*
X93833730Y-129589064D01*
X93761916Y-129723418D01*
X93717071Y-129871255D01*
X93701928Y-130025000D01*
X93701928Y-130325000D01*
X93717071Y-130478745D01*
X93750819Y-130590000D01*
X92649958Y-130590000D01*
X92695472Y-130504850D01*
X92746008Y-130338254D01*
X92763072Y-130165000D01*
X92763072Y-128915000D01*
X92746008Y-128741746D01*
X92732183Y-128696172D01*
X93701928Y-127726428D01*
X93701928Y-127785000D01*
G37*
X93701928Y-127785000D02*
X93717071Y-127938745D01*
X93761916Y-128086582D01*
X93833730Y-128220936D01*
X93809463Y-128250506D01*
X93750498Y-128360820D01*
X93714188Y-128480518D01*
X93701928Y-128605000D01*
X93705000Y-128619250D01*
X93863750Y-128778000D01*
X95088000Y-128778000D01*
X95088000Y-128758000D01*
X95342000Y-128758000D01*
X95342000Y-128778000D01*
X95362000Y-128778000D01*
X95362000Y-129032000D01*
X95342000Y-129032000D01*
X95342000Y-129052000D01*
X95088000Y-129052000D01*
X95088000Y-129032000D01*
X93863750Y-129032000D01*
X93705000Y-129190750D01*
X93701928Y-129205000D01*
X93714188Y-129329482D01*
X93750498Y-129449180D01*
X93809463Y-129559494D01*
X93833730Y-129589064D01*
X93761916Y-129723418D01*
X93717071Y-129871255D01*
X93701928Y-130025000D01*
X93701928Y-130325000D01*
X93717071Y-130478745D01*
X93750819Y-130590000D01*
X92649958Y-130590000D01*
X92695472Y-130504850D01*
X92746008Y-130338254D01*
X92763072Y-130165000D01*
X92763072Y-128915000D01*
X92746008Y-128741746D01*
X92732183Y-128696172D01*
X93701928Y-127726428D01*
X93701928Y-127785000D01*
%TD*%
M02*
