%TF.GenerationSoftware,KiCad,Pcbnew,5.1.6*%
%TF.CreationDate,2020-09-21T04:05:30+02:00*%
%TF.ProjectId,AL8853_Led_driver,414c3838-3533-45f4-9c65-645f64726976,rev?*%
%TF.SameCoordinates,Original*%
%TF.FileFunction,Soldermask,Top*%
%TF.FilePolarity,Negative*%
%FSLAX46Y46*%
G04 Gerber Fmt 4.6, Leading zero omitted, Abs format (unit mm)*
G04 Created by KiCad (PCBNEW 5.1.6) date 2020-09-21 04:05:30*
%MOMM*%
%LPD*%
G01*
G04 APERTURE LIST*
%ADD10O,1.800000X1.800000*%
%ADD11R,1.800000X1.800000*%
%ADD12C,2.300000*%
%ADD13R,6.500000X5.900000*%
%ADD14R,2.300000X1.300000*%
%ADD15R,3.200000X5.100000*%
%ADD16C,4.500000*%
%ADD17R,5.060000X3.900000*%
%ADD18R,1.540000X1.700000*%
G04 APERTURE END LIST*
%TO.C,U1*%
G36*
G01*
X99440000Y-126540000D02*
X99440000Y-126190000D01*
G75*
G02*
X99615000Y-126015000I175000J0D01*
G01*
X101115000Y-126015000D01*
G75*
G02*
X101290000Y-126190000I0J-175000D01*
G01*
X101290000Y-126540000D01*
G75*
G02*
X101115000Y-126715000I-175000J0D01*
G01*
X99615000Y-126715000D01*
G75*
G02*
X99440000Y-126540000I0J175000D01*
G01*
G37*
G36*
G01*
X99440000Y-127810000D02*
X99440000Y-127460000D01*
G75*
G02*
X99615000Y-127285000I175000J0D01*
G01*
X101115000Y-127285000D01*
G75*
G02*
X101290000Y-127460000I0J-175000D01*
G01*
X101290000Y-127810000D01*
G75*
G02*
X101115000Y-127985000I-175000J0D01*
G01*
X99615000Y-127985000D01*
G75*
G02*
X99440000Y-127810000I0J175000D01*
G01*
G37*
G36*
G01*
X99440000Y-129080000D02*
X99440000Y-128730000D01*
G75*
G02*
X99615000Y-128555000I175000J0D01*
G01*
X101115000Y-128555000D01*
G75*
G02*
X101290000Y-128730000I0J-175000D01*
G01*
X101290000Y-129080000D01*
G75*
G02*
X101115000Y-129255000I-175000J0D01*
G01*
X99615000Y-129255000D01*
G75*
G02*
X99440000Y-129080000I0J175000D01*
G01*
G37*
G36*
G01*
X99440000Y-130350000D02*
X99440000Y-130000000D01*
G75*
G02*
X99615000Y-129825000I175000J0D01*
G01*
X101115000Y-129825000D01*
G75*
G02*
X101290000Y-130000000I0J-175000D01*
G01*
X101290000Y-130350000D01*
G75*
G02*
X101115000Y-130525000I-175000J0D01*
G01*
X99615000Y-130525000D01*
G75*
G02*
X99440000Y-130350000I0J175000D01*
G01*
G37*
G36*
G01*
X94290000Y-130350000D02*
X94290000Y-130000000D01*
G75*
G02*
X94465000Y-129825000I175000J0D01*
G01*
X95965000Y-129825000D01*
G75*
G02*
X96140000Y-130000000I0J-175000D01*
G01*
X96140000Y-130350000D01*
G75*
G02*
X95965000Y-130525000I-175000J0D01*
G01*
X94465000Y-130525000D01*
G75*
G02*
X94290000Y-130350000I0J175000D01*
G01*
G37*
G36*
G01*
X94290000Y-129080000D02*
X94290000Y-128730000D01*
G75*
G02*
X94465000Y-128555000I175000J0D01*
G01*
X95965000Y-128555000D01*
G75*
G02*
X96140000Y-128730000I0J-175000D01*
G01*
X96140000Y-129080000D01*
G75*
G02*
X95965000Y-129255000I-175000J0D01*
G01*
X94465000Y-129255000D01*
G75*
G02*
X94290000Y-129080000I0J175000D01*
G01*
G37*
G36*
G01*
X94290000Y-127810000D02*
X94290000Y-127460000D01*
G75*
G02*
X94465000Y-127285000I175000J0D01*
G01*
X95965000Y-127285000D01*
G75*
G02*
X96140000Y-127460000I0J-175000D01*
G01*
X96140000Y-127810000D01*
G75*
G02*
X95965000Y-127985000I-175000J0D01*
G01*
X94465000Y-127985000D01*
G75*
G02*
X94290000Y-127810000I0J175000D01*
G01*
G37*
G36*
G01*
X94290000Y-126540000D02*
X94290000Y-126190000D01*
G75*
G02*
X94465000Y-126015000I175000J0D01*
G01*
X95965000Y-126015000D01*
G75*
G02*
X96140000Y-126190000I0J-175000D01*
G01*
X96140000Y-126540000D01*
G75*
G02*
X95965000Y-126715000I-175000J0D01*
G01*
X94465000Y-126715000D01*
G75*
G02*
X94290000Y-126540000I0J175000D01*
G01*
G37*
%TD*%
D10*
%TO.C,J2*%
X109000000Y-125960000D03*
D11*
X109000000Y-128500000D03*
%TD*%
D12*
%TO.C,REF\u002A\u002A*%
X112500000Y-131500000D03*
%TD*%
%TO.C,REF\u002A\u002A*%
X74000000Y-131500000D03*
%TD*%
%TO.C,REF\u002A\u002A*%
X74000000Y-103500000D03*
%TD*%
%TO.C,REF\u002A\u002A*%
X112500000Y-103500000D03*
%TD*%
%TO.C,R1*%
G36*
G01*
X104825000Y-128155000D02*
X104825000Y-126845000D01*
G75*
G02*
X105095000Y-126575000I270000J0D01*
G01*
X105905000Y-126575000D01*
G75*
G02*
X106175000Y-126845000I0J-270000D01*
G01*
X106175000Y-128155000D01*
G75*
G02*
X105905000Y-128425000I-270000J0D01*
G01*
X105095000Y-128425000D01*
G75*
G02*
X104825000Y-128155000I0J270000D01*
G01*
G37*
G36*
G01*
X102025000Y-128155000D02*
X102025000Y-126845000D01*
G75*
G02*
X102295000Y-126575000I270000J0D01*
G01*
X103105000Y-126575000D01*
G75*
G02*
X103375000Y-126845000I0J-270000D01*
G01*
X103375000Y-128155000D01*
G75*
G02*
X103105000Y-128425000I-270000J0D01*
G01*
X102295000Y-128425000D01*
G75*
G02*
X102025000Y-128155000I0J270000D01*
G01*
G37*
%TD*%
%TO.C,R6*%
G36*
G01*
X75605000Y-124440000D02*
X75605000Y-125750000D01*
G75*
G02*
X75335000Y-126020000I-270000J0D01*
G01*
X74525000Y-126020000D01*
G75*
G02*
X74255000Y-125750000I0J270000D01*
G01*
X74255000Y-124440000D01*
G75*
G02*
X74525000Y-124170000I270000J0D01*
G01*
X75335000Y-124170000D01*
G75*
G02*
X75605000Y-124440000I0J-270000D01*
G01*
G37*
G36*
G01*
X78405000Y-124440000D02*
X78405000Y-125750000D01*
G75*
G02*
X78135000Y-126020000I-270000J0D01*
G01*
X77325000Y-126020000D01*
G75*
G02*
X77055000Y-125750000I0J270000D01*
G01*
X77055000Y-124440000D01*
G75*
G02*
X77325000Y-124170000I270000J0D01*
G01*
X78135000Y-124170000D01*
G75*
G02*
X78405000Y-124440000I0J-270000D01*
G01*
G37*
%TD*%
%TO.C,R5*%
G36*
G01*
X90825000Y-120430000D02*
X89515000Y-120430000D01*
G75*
G02*
X89245000Y-120160000I0J270000D01*
G01*
X89245000Y-119350000D01*
G75*
G02*
X89515000Y-119080000I270000J0D01*
G01*
X90825000Y-119080000D01*
G75*
G02*
X91095000Y-119350000I0J-270000D01*
G01*
X91095000Y-120160000D01*
G75*
G02*
X90825000Y-120430000I-270000J0D01*
G01*
G37*
G36*
G01*
X90825000Y-123230000D02*
X89515000Y-123230000D01*
G75*
G02*
X89245000Y-122960000I0J270000D01*
G01*
X89245000Y-122150000D01*
G75*
G02*
X89515000Y-121880000I270000J0D01*
G01*
X90825000Y-121880000D01*
G75*
G02*
X91095000Y-122150000I0J-270000D01*
G01*
X91095000Y-122960000D01*
G75*
G02*
X90825000Y-123230000I-270000J0D01*
G01*
G37*
%TD*%
%TO.C,R4*%
G36*
G01*
X90825000Y-115610000D02*
X89515000Y-115610000D01*
G75*
G02*
X89245000Y-115340000I0J270000D01*
G01*
X89245000Y-114530000D01*
G75*
G02*
X89515000Y-114260000I270000J0D01*
G01*
X90825000Y-114260000D01*
G75*
G02*
X91095000Y-114530000I0J-270000D01*
G01*
X91095000Y-115340000D01*
G75*
G02*
X90825000Y-115610000I-270000J0D01*
G01*
G37*
G36*
G01*
X90825000Y-118410000D02*
X89515000Y-118410000D01*
G75*
G02*
X89245000Y-118140000I0J270000D01*
G01*
X89245000Y-117330000D01*
G75*
G02*
X89515000Y-117060000I270000J0D01*
G01*
X90825000Y-117060000D01*
G75*
G02*
X91095000Y-117330000I0J-270000D01*
G01*
X91095000Y-118140000D01*
G75*
G02*
X90825000Y-118410000I-270000J0D01*
G01*
G37*
%TD*%
%TO.C,R3*%
G36*
G01*
X105573518Y-121195000D02*
X107786482Y-121195000D01*
G75*
G02*
X108055000Y-121463518I0J-268518D01*
G01*
X108055000Y-122376482D01*
G75*
G02*
X107786482Y-122645000I-268518J0D01*
G01*
X105573518Y-122645000D01*
G75*
G02*
X105305000Y-122376482I0J268518D01*
G01*
X105305000Y-121463518D01*
G75*
G02*
X105573518Y-121195000I268518J0D01*
G01*
G37*
G36*
G01*
X105573518Y-116695000D02*
X107786482Y-116695000D01*
G75*
G02*
X108055000Y-116963518I0J-268518D01*
G01*
X108055000Y-117876482D01*
G75*
G02*
X107786482Y-118145000I-268518J0D01*
G01*
X105573518Y-118145000D01*
G75*
G02*
X105305000Y-117876482I0J268518D01*
G01*
X105305000Y-116963518D01*
G75*
G02*
X105573518Y-116695000I268518J0D01*
G01*
G37*
%TD*%
D13*
%TO.C,Q1*%
X96325000Y-120015000D03*
D14*
X102625000Y-117735000D03*
X102625000Y-122295000D03*
%TD*%
D15*
%TO.C,L1*%
X104140000Y-108585000D03*
X93040000Y-108585000D03*
%TD*%
D16*
%TO.C,J3*%
X75000000Y-109200000D03*
G36*
G01*
X76994319Y-120250000D02*
X73005681Y-120250000D01*
G75*
G02*
X72750000Y-119994319I0J255681D01*
G01*
X72750000Y-116005681D01*
G75*
G02*
X73005681Y-115750000I255681J0D01*
G01*
X76994319Y-115750000D01*
G75*
G02*
X77250000Y-116005681I0J-255681D01*
G01*
X77250000Y-119994319D01*
G75*
G02*
X76994319Y-120250000I-255681J0D01*
G01*
G37*
%TD*%
%TO.C,J1*%
X111760000Y-109000000D03*
G36*
G01*
X113754319Y-120050000D02*
X109765681Y-120050000D01*
G75*
G02*
X109510000Y-119794319I0J255681D01*
G01*
X109510000Y-115805681D01*
G75*
G02*
X109765681Y-115550000I255681J0D01*
G01*
X113754319Y-115550000D01*
G75*
G02*
X114010000Y-115805681I0J-255681D01*
G01*
X114010000Y-119794319D01*
G75*
G02*
X113754319Y-120050000I-255681J0D01*
G01*
G37*
%TD*%
D17*
%TO.C,D2*%
X81530000Y-109220000D03*
D18*
X85330000Y-110285000D03*
X85330000Y-108155000D03*
%TD*%
%TO.C,C4*%
G36*
G01*
X90375000Y-125845000D02*
X90375000Y-127155000D01*
G75*
G02*
X90105000Y-127425000I-270000J0D01*
G01*
X89295000Y-127425000D01*
G75*
G02*
X89025000Y-127155000I0J270000D01*
G01*
X89025000Y-125845000D01*
G75*
G02*
X89295000Y-125575000I270000J0D01*
G01*
X90105000Y-125575000D01*
G75*
G02*
X90375000Y-125845000I0J-270000D01*
G01*
G37*
G36*
G01*
X93175000Y-125845000D02*
X93175000Y-127155000D01*
G75*
G02*
X92905000Y-127425000I-270000J0D01*
G01*
X92095000Y-127425000D01*
G75*
G02*
X91825000Y-127155000I0J270000D01*
G01*
X91825000Y-125845000D01*
G75*
G02*
X92095000Y-125575000I270000J0D01*
G01*
X92905000Y-125575000D01*
G75*
G02*
X93175000Y-125845000I0J-270000D01*
G01*
G37*
%TD*%
%TO.C,C3*%
G36*
G01*
X81510000Y-120830000D02*
X83590000Y-120830000D01*
G75*
G02*
X83850000Y-121090000I0J-260000D01*
G01*
X83850000Y-124170000D01*
G75*
G02*
X83590000Y-124430000I-260000J0D01*
G01*
X81510000Y-124430000D01*
G75*
G02*
X81250000Y-124170000I0J260000D01*
G01*
X81250000Y-121090000D01*
G75*
G02*
X81510000Y-120830000I260000J0D01*
G01*
G37*
G36*
G01*
X81510000Y-114330000D02*
X83590000Y-114330000D01*
G75*
G02*
X83850000Y-114590000I0J-260000D01*
G01*
X83850000Y-117670000D01*
G75*
G02*
X83590000Y-117930000I-260000J0D01*
G01*
X81510000Y-117930000D01*
G75*
G02*
X81250000Y-117670000I0J260000D01*
G01*
X81250000Y-114590000D01*
G75*
G02*
X81510000Y-114330000I260000J0D01*
G01*
G37*
%TD*%
%TO.C,C2*%
G36*
G01*
X104825000Y-130655000D02*
X104825000Y-129345000D01*
G75*
G02*
X105095000Y-129075000I270000J0D01*
G01*
X105905000Y-129075000D01*
G75*
G02*
X106175000Y-129345000I0J-270000D01*
G01*
X106175000Y-130655000D01*
G75*
G02*
X105905000Y-130925000I-270000J0D01*
G01*
X105095000Y-130925000D01*
G75*
G02*
X104825000Y-130655000I0J270000D01*
G01*
G37*
G36*
G01*
X102025000Y-130655000D02*
X102025000Y-129345000D01*
G75*
G02*
X102295000Y-129075000I270000J0D01*
G01*
X103105000Y-129075000D01*
G75*
G02*
X103375000Y-129345000I0J-270000D01*
G01*
X103375000Y-130655000D01*
G75*
G02*
X103105000Y-130925000I-270000J0D01*
G01*
X102295000Y-130925000D01*
G75*
G02*
X102025000Y-130655000I0J270000D01*
G01*
G37*
%TD*%
%TO.C,C1*%
G36*
G01*
X89375000Y-128885000D02*
X89375000Y-130195000D01*
G75*
G02*
X89105000Y-130465000I-270000J0D01*
G01*
X88295000Y-130465000D01*
G75*
G02*
X88025000Y-130195000I0J270000D01*
G01*
X88025000Y-128885000D01*
G75*
G02*
X88295000Y-128615000I270000J0D01*
G01*
X89105000Y-128615000D01*
G75*
G02*
X89375000Y-128885000I0J-270000D01*
G01*
G37*
G36*
G01*
X92175000Y-128885000D02*
X92175000Y-130195000D01*
G75*
G02*
X91905000Y-130465000I-270000J0D01*
G01*
X91095000Y-130465000D01*
G75*
G02*
X90825000Y-130195000I0J270000D01*
G01*
X90825000Y-128885000D01*
G75*
G02*
X91095000Y-128615000I270000J0D01*
G01*
X91905000Y-128615000D01*
G75*
G02*
X92175000Y-128885000I0J-270000D01*
G01*
G37*
%TD*%
M02*
