%TF.GenerationSoftware,KiCad,Pcbnew,5.1.6*%
%TF.CreationDate,2020-09-21T04:05:30+02:00*%
%TF.ProjectId,AL8853_Led_driver,414c3838-3533-45f4-9c65-645f64726976,rev?*%
%TF.SameCoordinates,Original*%
%TF.FileFunction,Legend,Top*%
%TF.FilePolarity,Positive*%
%FSLAX46Y46*%
G04 Gerber Fmt 4.6, Leading zero omitted, Abs format (unit mm)*
G04 Created by KiCad (PCBNEW 5.1.6) date 2020-09-21 04:05:30*
%MOMM*%
%LPD*%
G01*
G04 APERTURE LIST*
%ADD10C,0.150000*%
%ADD11C,0.120000*%
G04 APERTURE END LIST*
D10*
X111390476Y-128100000D02*
X111314285Y-128061904D01*
X111200000Y-128061904D01*
X111085714Y-128100000D01*
X111009523Y-128176190D01*
X110971428Y-128252380D01*
X110933333Y-128404761D01*
X110933333Y-128519047D01*
X110971428Y-128671428D01*
X111009523Y-128747619D01*
X111085714Y-128823809D01*
X111200000Y-128861904D01*
X111276190Y-128861904D01*
X111390476Y-128823809D01*
X111428571Y-128785714D01*
X111428571Y-128519047D01*
X111276190Y-128519047D01*
X111771428Y-128861904D02*
X111771428Y-128061904D01*
X112228571Y-128861904D01*
X112228571Y-128061904D01*
X112609523Y-128861904D02*
X112609523Y-128061904D01*
X112800000Y-128061904D01*
X112914285Y-128100000D01*
X112990476Y-128176190D01*
X113028571Y-128252380D01*
X113066666Y-128404761D01*
X113066666Y-128519047D01*
X113028571Y-128671428D01*
X112990476Y-128747619D01*
X112914285Y-128823809D01*
X112800000Y-128861904D01*
X112609523Y-128861904D01*
X110876190Y-126361904D02*
X110876190Y-125561904D01*
X111180952Y-125561904D01*
X111257142Y-125600000D01*
X111295238Y-125638095D01*
X111333333Y-125714285D01*
X111333333Y-125828571D01*
X111295238Y-125904761D01*
X111257142Y-125942857D01*
X111180952Y-125980952D01*
X110876190Y-125980952D01*
X111600000Y-125561904D02*
X111790476Y-126361904D01*
X111942857Y-125790476D01*
X112095238Y-126361904D01*
X112285714Y-125561904D01*
X112590476Y-126361904D02*
X112590476Y-125561904D01*
X112857142Y-126133333D01*
X113123809Y-125561904D01*
X113123809Y-126361904D01*
X73357142Y-113452380D02*
X72880952Y-113452380D01*
X72880952Y-112452380D01*
X73690476Y-112928571D02*
X74023809Y-112928571D01*
X74166666Y-113452380D02*
X73690476Y-113452380D01*
X73690476Y-112452380D01*
X74166666Y-112452380D01*
X74595238Y-113452380D02*
X74595238Y-112452380D01*
X74833333Y-112452380D01*
X74976190Y-112500000D01*
X75071428Y-112595238D01*
X75119047Y-112690476D01*
X75166666Y-112880952D01*
X75166666Y-113023809D01*
X75119047Y-113214285D01*
X75071428Y-113309523D01*
X74976190Y-113404761D01*
X74833333Y-113452380D01*
X74595238Y-113452380D01*
X76357142Y-113071428D02*
X77119047Y-113071428D01*
X76738095Y-113452380D02*
X76738095Y-112690476D01*
X73357142Y-122452380D02*
X72880952Y-122452380D01*
X72880952Y-121452380D01*
X73690476Y-121928571D02*
X74023809Y-121928571D01*
X74166666Y-122452380D02*
X73690476Y-122452380D01*
X73690476Y-121452380D01*
X74166666Y-121452380D01*
X74595238Y-122452380D02*
X74595238Y-121452380D01*
X74833333Y-121452380D01*
X74976190Y-121500000D01*
X75071428Y-121595238D01*
X75119047Y-121690476D01*
X75166666Y-121880952D01*
X75166666Y-122023809D01*
X75119047Y-122214285D01*
X75071428Y-122309523D01*
X74976190Y-122404761D01*
X74833333Y-122452380D01*
X74595238Y-122452380D01*
X76357142Y-122071428D02*
X77119047Y-122071428D01*
X110976190Y-111952380D02*
X111309523Y-112952380D01*
X111642857Y-111952380D01*
X111976190Y-112952380D02*
X111976190Y-111952380D01*
X111976190Y-112333333D02*
X112071428Y-112285714D01*
X112261904Y-112285714D01*
X112357142Y-112333333D01*
X112404761Y-112380952D01*
X112452380Y-112476190D01*
X112452380Y-112761904D01*
X112404761Y-112857142D01*
X112357142Y-112904761D01*
X112261904Y-112952380D01*
X112071428Y-112952380D01*
X111976190Y-112904761D01*
X113309523Y-112952380D02*
X113309523Y-112428571D01*
X113261904Y-112333333D01*
X113166666Y-112285714D01*
X112976190Y-112285714D01*
X112880952Y-112333333D01*
X113309523Y-112904761D02*
X113214285Y-112952380D01*
X112976190Y-112952380D01*
X112880952Y-112904761D01*
X112833333Y-112809523D01*
X112833333Y-112714285D01*
X112880952Y-112619047D01*
X112976190Y-112571428D01*
X113214285Y-112571428D01*
X113309523Y-112523809D01*
X113642857Y-112285714D02*
X114023809Y-112285714D01*
X113785714Y-111952380D02*
X113785714Y-112809523D01*
X113833333Y-112904761D01*
X113928571Y-112952380D01*
X114023809Y-112952380D01*
X111738095Y-121000000D02*
X111642857Y-120952380D01*
X111500000Y-120952380D01*
X111357142Y-121000000D01*
X111261904Y-121095238D01*
X111214285Y-121190476D01*
X111166666Y-121380952D01*
X111166666Y-121523809D01*
X111214285Y-121714285D01*
X111261904Y-121809523D01*
X111357142Y-121904761D01*
X111500000Y-121952380D01*
X111595238Y-121952380D01*
X111738095Y-121904761D01*
X111785714Y-121857142D01*
X111785714Y-121523809D01*
X111595238Y-121523809D01*
X112214285Y-121952380D02*
X112214285Y-120952380D01*
X112785714Y-121952380D01*
X112785714Y-120952380D01*
X113261904Y-121952380D02*
X113261904Y-120952380D01*
X113500000Y-120952380D01*
X113642857Y-121000000D01*
X113738095Y-121095238D01*
X113785714Y-121190476D01*
X113833333Y-121380952D01*
X113833333Y-121523809D01*
X113785714Y-121714285D01*
X113738095Y-121809523D01*
X113642857Y-121904761D01*
X113500000Y-121952380D01*
X113261904Y-121952380D01*
D11*
%TO.C,U1*%
X97790000Y-130830000D02*
X99740000Y-130830000D01*
X97790000Y-130830000D02*
X95840000Y-130830000D01*
X97790000Y-125710000D02*
X99740000Y-125710000D01*
X97790000Y-125710000D02*
X94340000Y-125710000D01*
%TO.C,J2*%
X110330000Y-124630000D02*
X107670000Y-124630000D01*
X110330000Y-127230000D02*
X110330000Y-124630000D01*
X107670000Y-127230000D02*
X107670000Y-124630000D01*
X110330000Y-127230000D02*
X107670000Y-127230000D01*
X110330000Y-128500000D02*
X110330000Y-129830000D01*
X110330000Y-129830000D02*
X109000000Y-129830000D01*
%TO.C,R1*%
X103497936Y-128410000D02*
X104702064Y-128410000D01*
X103497936Y-126590000D02*
X104702064Y-126590000D01*
%TO.C,R6*%
X76932064Y-124185000D02*
X75727936Y-124185000D01*
X76932064Y-126005000D02*
X75727936Y-126005000D01*
%TO.C,R5*%
X91080000Y-121757064D02*
X91080000Y-120552936D01*
X89260000Y-121757064D02*
X89260000Y-120552936D01*
%TO.C,R4*%
X91080000Y-116937064D02*
X91080000Y-115732936D01*
X89260000Y-116937064D02*
X89260000Y-115732936D01*
%TO.C,R3*%
X105320000Y-118267936D02*
X105320000Y-121072064D01*
X108040000Y-118267936D02*
X108040000Y-121072064D01*
%TO.C,Q1*%
X100895000Y-116835000D02*
X101995000Y-116835000D01*
X100895000Y-116565000D02*
X100895000Y-116835000D01*
X99395000Y-116565000D02*
X100895000Y-116565000D01*
X100895000Y-123195000D02*
X103725000Y-123195000D01*
X100895000Y-123465000D02*
X100895000Y-123195000D01*
X99395000Y-123465000D02*
X100895000Y-123465000D01*
%TO.C,L1*%
X92190000Y-105585000D02*
X92190000Y-102835000D01*
X104990000Y-105585000D02*
X104990000Y-102835000D01*
X92190000Y-114335000D02*
X92190000Y-111585000D01*
X92840000Y-102185000D02*
X104340000Y-102185000D01*
X104990000Y-114335000D02*
X104990000Y-111585000D01*
X104340000Y-114985000D02*
X92840000Y-114985000D01*
X92840000Y-114985000D02*
G75*
G02*
X92190000Y-114335000I0J650000D01*
G01*
X92190000Y-102835000D02*
G75*
G02*
X92840000Y-102185000I650000J0D01*
G01*
X104340000Y-102185000D02*
G75*
G02*
X104990000Y-102835000I0J-650000D01*
G01*
X104990000Y-114335000D02*
G75*
G02*
X104340000Y-114985000I-650000J0D01*
G01*
%TO.C,D2*%
X80650000Y-106960000D02*
X84450000Y-106960000D01*
X80650000Y-111480000D02*
X86050000Y-111480000D01*
%TO.C,C4*%
X91702064Y-125590000D02*
X90497936Y-125590000D01*
X91702064Y-127410000D02*
X90497936Y-127410000D01*
%TO.C,C3*%
X85560000Y-114380000D02*
X84560000Y-114380000D01*
X85060000Y-113880000D02*
X85060000Y-114880000D01*
X79354437Y-115120000D02*
X78290000Y-116184437D01*
X85745563Y-115120000D02*
X86810000Y-116184437D01*
X85745563Y-115120000D02*
X84060000Y-115120000D01*
X79354437Y-115120000D02*
X81040000Y-115120000D01*
X78290000Y-116184437D02*
X78290000Y-123640000D01*
X86810000Y-116184437D02*
X86810000Y-123640000D01*
X86810000Y-123640000D02*
X84060000Y-123640000D01*
X78290000Y-123640000D02*
X81040000Y-123640000D01*
%TO.C,C2*%
X103497936Y-130910000D02*
X104702064Y-130910000D01*
X103497936Y-129090000D02*
X104702064Y-129090000D01*
%TO.C,C1*%
X90702064Y-128630000D02*
X89497936Y-128630000D01*
X90702064Y-130450000D02*
X89497936Y-130450000D01*
%TO.C,U1*%
D10*
X97028095Y-124322380D02*
X97028095Y-125131904D01*
X97075714Y-125227142D01*
X97123333Y-125274761D01*
X97218571Y-125322380D01*
X97409047Y-125322380D01*
X97504285Y-125274761D01*
X97551904Y-125227142D01*
X97599523Y-125131904D01*
X97599523Y-124322380D01*
X98599523Y-125322380D02*
X98028095Y-125322380D01*
X98313809Y-125322380D02*
X98313809Y-124322380D01*
X98218571Y-124465238D01*
X98123333Y-124560476D01*
X98028095Y-124608095D01*
%TO.C,R1*%
X103933333Y-126132380D02*
X103600000Y-125656190D01*
X103361904Y-126132380D02*
X103361904Y-125132380D01*
X103742857Y-125132380D01*
X103838095Y-125180000D01*
X103885714Y-125227619D01*
X103933333Y-125322857D01*
X103933333Y-125465714D01*
X103885714Y-125560952D01*
X103838095Y-125608571D01*
X103742857Y-125656190D01*
X103361904Y-125656190D01*
X104885714Y-126132380D02*
X104314285Y-126132380D01*
X104600000Y-126132380D02*
X104600000Y-125132380D01*
X104504761Y-125275238D01*
X104409523Y-125370476D01*
X104314285Y-125418095D01*
%TO.C,R6*%
X76163333Y-127367380D02*
X75830000Y-126891190D01*
X75591904Y-127367380D02*
X75591904Y-126367380D01*
X75972857Y-126367380D01*
X76068095Y-126415000D01*
X76115714Y-126462619D01*
X76163333Y-126557857D01*
X76163333Y-126700714D01*
X76115714Y-126795952D01*
X76068095Y-126843571D01*
X75972857Y-126891190D01*
X75591904Y-126891190D01*
X77020476Y-126367380D02*
X76830000Y-126367380D01*
X76734761Y-126415000D01*
X76687142Y-126462619D01*
X76591904Y-126605476D01*
X76544285Y-126795952D01*
X76544285Y-127176904D01*
X76591904Y-127272142D01*
X76639523Y-127319761D01*
X76734761Y-127367380D01*
X76925238Y-127367380D01*
X77020476Y-127319761D01*
X77068095Y-127272142D01*
X77115714Y-127176904D01*
X77115714Y-126938809D01*
X77068095Y-126843571D01*
X77020476Y-126795952D01*
X76925238Y-126748333D01*
X76734761Y-126748333D01*
X76639523Y-126795952D01*
X76591904Y-126843571D01*
X76544285Y-126938809D01*
%TO.C,R5*%
X88802380Y-121321666D02*
X88326190Y-121655000D01*
X88802380Y-121893095D02*
X87802380Y-121893095D01*
X87802380Y-121512142D01*
X87850000Y-121416904D01*
X87897619Y-121369285D01*
X87992857Y-121321666D01*
X88135714Y-121321666D01*
X88230952Y-121369285D01*
X88278571Y-121416904D01*
X88326190Y-121512142D01*
X88326190Y-121893095D01*
X87802380Y-120416904D02*
X87802380Y-120893095D01*
X88278571Y-120940714D01*
X88230952Y-120893095D01*
X88183333Y-120797857D01*
X88183333Y-120559761D01*
X88230952Y-120464523D01*
X88278571Y-120416904D01*
X88373809Y-120369285D01*
X88611904Y-120369285D01*
X88707142Y-120416904D01*
X88754761Y-120464523D01*
X88802380Y-120559761D01*
X88802380Y-120797857D01*
X88754761Y-120893095D01*
X88707142Y-120940714D01*
%TO.C,R4*%
X88802380Y-116501666D02*
X88326190Y-116835000D01*
X88802380Y-117073095D02*
X87802380Y-117073095D01*
X87802380Y-116692142D01*
X87850000Y-116596904D01*
X87897619Y-116549285D01*
X87992857Y-116501666D01*
X88135714Y-116501666D01*
X88230952Y-116549285D01*
X88278571Y-116596904D01*
X88326190Y-116692142D01*
X88326190Y-117073095D01*
X88135714Y-115644523D02*
X88802380Y-115644523D01*
X87754761Y-115882619D02*
X88469047Y-116120714D01*
X88469047Y-115501666D01*
%TO.C,R3*%
X106333333Y-115952380D02*
X106000000Y-115476190D01*
X105761904Y-115952380D02*
X105761904Y-114952380D01*
X106142857Y-114952380D01*
X106238095Y-115000000D01*
X106285714Y-115047619D01*
X106333333Y-115142857D01*
X106333333Y-115285714D01*
X106285714Y-115380952D01*
X106238095Y-115428571D01*
X106142857Y-115476190D01*
X105761904Y-115476190D01*
X106666666Y-114952380D02*
X107285714Y-114952380D01*
X106952380Y-115333333D01*
X107095238Y-115333333D01*
X107190476Y-115380952D01*
X107238095Y-115428571D01*
X107285714Y-115523809D01*
X107285714Y-115761904D01*
X107238095Y-115857142D01*
X107190476Y-115904761D01*
X107095238Y-115952380D01*
X106809523Y-115952380D01*
X106714285Y-115904761D01*
X106666666Y-115857142D01*
%TO.C,Q1*%
X93904761Y-116547619D02*
X93809523Y-116500000D01*
X93714285Y-116404761D01*
X93571428Y-116261904D01*
X93476190Y-116214285D01*
X93380952Y-116214285D01*
X93428571Y-116452380D02*
X93333333Y-116404761D01*
X93238095Y-116309523D01*
X93190476Y-116119047D01*
X93190476Y-115785714D01*
X93238095Y-115595238D01*
X93333333Y-115500000D01*
X93428571Y-115452380D01*
X93619047Y-115452380D01*
X93714285Y-115500000D01*
X93809523Y-115595238D01*
X93857142Y-115785714D01*
X93857142Y-116119047D01*
X93809523Y-116309523D01*
X93714285Y-116404761D01*
X93619047Y-116452380D01*
X93428571Y-116452380D01*
X94809523Y-116452380D02*
X94238095Y-116452380D01*
X94523809Y-116452380D02*
X94523809Y-115452380D01*
X94428571Y-115595238D01*
X94333333Y-115690476D01*
X94238095Y-115738095D01*
%TO.C,L1*%
X105833333Y-105452380D02*
X105357142Y-105452380D01*
X105357142Y-104452380D01*
X106690476Y-105452380D02*
X106119047Y-105452380D01*
X106404761Y-105452380D02*
X106404761Y-104452380D01*
X106309523Y-104595238D01*
X106214285Y-104690476D01*
X106119047Y-104738095D01*
%TO.C,D2*%
X81811904Y-106672380D02*
X81811904Y-105672380D01*
X82050000Y-105672380D01*
X82192857Y-105720000D01*
X82288095Y-105815238D01*
X82335714Y-105910476D01*
X82383333Y-106100952D01*
X82383333Y-106243809D01*
X82335714Y-106434285D01*
X82288095Y-106529523D01*
X82192857Y-106624761D01*
X82050000Y-106672380D01*
X81811904Y-106672380D01*
X82764285Y-105767619D02*
X82811904Y-105720000D01*
X82907142Y-105672380D01*
X83145238Y-105672380D01*
X83240476Y-105720000D01*
X83288095Y-105767619D01*
X83335714Y-105862857D01*
X83335714Y-105958095D01*
X83288095Y-106100952D01*
X82716666Y-106672380D01*
X83335714Y-106672380D01*
%TO.C,C4*%
X87623333Y-127127142D02*
X87575714Y-127174761D01*
X87432857Y-127222380D01*
X87337619Y-127222380D01*
X87194761Y-127174761D01*
X87099523Y-127079523D01*
X87051904Y-126984285D01*
X87004285Y-126793809D01*
X87004285Y-126650952D01*
X87051904Y-126460476D01*
X87099523Y-126365238D01*
X87194761Y-126270000D01*
X87337619Y-126222380D01*
X87432857Y-126222380D01*
X87575714Y-126270000D01*
X87623333Y-126317619D01*
X88480476Y-126555714D02*
X88480476Y-127222380D01*
X88242380Y-126174761D02*
X88004285Y-126889047D01*
X88623333Y-126889047D01*
%TO.C,C3*%
X82333333Y-125857142D02*
X82285714Y-125904761D01*
X82142857Y-125952380D01*
X82047619Y-125952380D01*
X81904761Y-125904761D01*
X81809523Y-125809523D01*
X81761904Y-125714285D01*
X81714285Y-125523809D01*
X81714285Y-125380952D01*
X81761904Y-125190476D01*
X81809523Y-125095238D01*
X81904761Y-125000000D01*
X82047619Y-124952380D01*
X82142857Y-124952380D01*
X82285714Y-125000000D01*
X82333333Y-125047619D01*
X82666666Y-124952380D02*
X83285714Y-124952380D01*
X82952380Y-125333333D01*
X83095238Y-125333333D01*
X83190476Y-125380952D01*
X83238095Y-125428571D01*
X83285714Y-125523809D01*
X83285714Y-125761904D01*
X83238095Y-125857142D01*
X83190476Y-125904761D01*
X83095238Y-125952380D01*
X82809523Y-125952380D01*
X82714285Y-125904761D01*
X82666666Y-125857142D01*
%TO.C,C2*%
X103833333Y-132357142D02*
X103785714Y-132404761D01*
X103642857Y-132452380D01*
X103547619Y-132452380D01*
X103404761Y-132404761D01*
X103309523Y-132309523D01*
X103261904Y-132214285D01*
X103214285Y-132023809D01*
X103214285Y-131880952D01*
X103261904Y-131690476D01*
X103309523Y-131595238D01*
X103404761Y-131500000D01*
X103547619Y-131452380D01*
X103642857Y-131452380D01*
X103785714Y-131500000D01*
X103833333Y-131547619D01*
X104214285Y-131547619D02*
X104261904Y-131500000D01*
X104357142Y-131452380D01*
X104595238Y-131452380D01*
X104690476Y-131500000D01*
X104738095Y-131547619D01*
X104785714Y-131642857D01*
X104785714Y-131738095D01*
X104738095Y-131880952D01*
X104166666Y-132452380D01*
X104785714Y-132452380D01*
%TO.C,C1*%
X86623333Y-129857142D02*
X86575714Y-129904761D01*
X86432857Y-129952380D01*
X86337619Y-129952380D01*
X86194761Y-129904761D01*
X86099523Y-129809523D01*
X86051904Y-129714285D01*
X86004285Y-129523809D01*
X86004285Y-129380952D01*
X86051904Y-129190476D01*
X86099523Y-129095238D01*
X86194761Y-129000000D01*
X86337619Y-128952380D01*
X86432857Y-128952380D01*
X86575714Y-129000000D01*
X86623333Y-129047619D01*
X87575714Y-129952380D02*
X87004285Y-129952380D01*
X87290000Y-129952380D02*
X87290000Y-128952380D01*
X87194761Y-129095238D01*
X87099523Y-129190476D01*
X87004285Y-129238095D01*
%TD*%
M02*
