%TF.GenerationSoftware,KiCad,Pcbnew,5.1.6*%
%TF.CreationDate,2020-09-21T04:05:30+02:00*%
%TF.ProjectId,AL8853_Led_driver,414c3838-3533-45f4-9c65-645f64726976,rev?*%
%TF.SameCoordinates,Original*%
%TF.FileFunction,Legend,Bot*%
%TF.FilePolarity,Positive*%
%FSLAX46Y46*%
G04 Gerber Fmt 4.6, Leading zero omitted, Abs format (unit mm)*
G04 Created by KiCad (PCBNEW 5.1.6) date 2020-09-21 04:05:30*
%MOMM*%
%LPD*%
G01*
G04 APERTURE LIST*
%ADD10C,0.150000*%
%ADD11C,0.010000*%
G04 APERTURE END LIST*
D10*
X88485714Y-110961904D02*
X88485714Y-111609523D01*
X88447619Y-111685714D01*
X88409523Y-111723809D01*
X88333333Y-111761904D01*
X88180952Y-111761904D01*
X88104761Y-111723809D01*
X88066666Y-111685714D01*
X88028571Y-111609523D01*
X88028571Y-110961904D01*
X87761904Y-110961904D02*
X87495238Y-111761904D01*
X87228571Y-110961904D01*
X87000000Y-111533333D02*
X86619047Y-111533333D01*
X87076190Y-111761904D02*
X86809523Y-110961904D01*
X86542857Y-111761904D01*
X86276190Y-111457142D02*
X85666666Y-111457142D01*
X85285714Y-111342857D02*
X85019047Y-111342857D01*
X84904761Y-111761904D02*
X85285714Y-111761904D01*
X85285714Y-110961904D01*
X84904761Y-110961904D01*
X84561904Y-111457142D02*
X83952380Y-111457142D01*
X83571428Y-111761904D02*
X83571428Y-110961904D01*
X83380952Y-110961904D01*
X83266666Y-111000000D01*
X83190476Y-111076190D01*
X83152380Y-111152380D01*
X83114285Y-111304761D01*
X83114285Y-111419047D01*
X83152380Y-111571428D01*
X83190476Y-111647619D01*
X83266666Y-111723809D01*
X83380952Y-111761904D01*
X83571428Y-111761904D01*
X82314285Y-111761904D02*
X82580952Y-111380952D01*
X82771428Y-111761904D02*
X82771428Y-110961904D01*
X82466666Y-110961904D01*
X82390476Y-111000000D01*
X82352380Y-111038095D01*
X82314285Y-111114285D01*
X82314285Y-111228571D01*
X82352380Y-111304761D01*
X82390476Y-111342857D01*
X82466666Y-111380952D01*
X82771428Y-111380952D01*
X82085714Y-110961904D02*
X81819047Y-111761904D01*
X81552380Y-110961904D01*
X81285714Y-111457142D02*
X80676190Y-111457142D01*
X79876190Y-111761904D02*
X80333333Y-111761904D01*
X80104761Y-111761904D02*
X80104761Y-110961904D01*
X80180952Y-111076190D01*
X80257142Y-111152380D01*
X80333333Y-111190476D01*
D11*
%TO.C,G\u002A\u002A\u002A*%
G36*
X84134710Y-104085766D02*
G01*
X84059946Y-104120214D01*
X84030548Y-104146395D01*
X83983461Y-104196499D01*
X83977831Y-105049749D01*
X83976901Y-105230158D01*
X83976525Y-105399649D01*
X83976678Y-105553976D01*
X83977332Y-105688895D01*
X83978461Y-105800160D01*
X83980038Y-105883525D01*
X83982037Y-105934746D01*
X83983506Y-105948626D01*
X84018109Y-106014360D01*
X84078236Y-106063660D01*
X84150897Y-106086713D01*
X84167045Y-106087293D01*
X84227812Y-106080569D01*
X84278535Y-106066097D01*
X84280396Y-106065227D01*
X84304264Y-106052406D01*
X84324158Y-106036754D01*
X84340437Y-106014833D01*
X84353464Y-105983204D01*
X84363600Y-105938430D01*
X84371204Y-105877073D01*
X84376639Y-105795697D01*
X84380266Y-105690862D01*
X84382444Y-105559133D01*
X84383537Y-105397069D01*
X84383903Y-105201236D01*
X84383927Y-105079431D01*
X84383841Y-104876230D01*
X84383513Y-104708387D01*
X84382784Y-104572184D01*
X84381491Y-104463904D01*
X84379473Y-104379828D01*
X84376570Y-104316237D01*
X84372619Y-104269415D01*
X84367459Y-104235641D01*
X84360930Y-104211199D01*
X84352869Y-104192371D01*
X84344841Y-104178243D01*
X84286676Y-104115746D01*
X84213460Y-104084598D01*
X84134710Y-104085766D01*
G37*
X84134710Y-104085766D02*
X84059946Y-104120214D01*
X84030548Y-104146395D01*
X83983461Y-104196499D01*
X83977831Y-105049749D01*
X83976901Y-105230158D01*
X83976525Y-105399649D01*
X83976678Y-105553976D01*
X83977332Y-105688895D01*
X83978461Y-105800160D01*
X83980038Y-105883525D01*
X83982037Y-105934746D01*
X83983506Y-105948626D01*
X84018109Y-106014360D01*
X84078236Y-106063660D01*
X84150897Y-106086713D01*
X84167045Y-106087293D01*
X84227812Y-106080569D01*
X84278535Y-106066097D01*
X84280396Y-106065227D01*
X84304264Y-106052406D01*
X84324158Y-106036754D01*
X84340437Y-106014833D01*
X84353464Y-105983204D01*
X84363600Y-105938430D01*
X84371204Y-105877073D01*
X84376639Y-105795697D01*
X84380266Y-105690862D01*
X84382444Y-105559133D01*
X84383537Y-105397069D01*
X84383903Y-105201236D01*
X84383927Y-105079431D01*
X84383841Y-104876230D01*
X84383513Y-104708387D01*
X84382784Y-104572184D01*
X84381491Y-104463904D01*
X84379473Y-104379828D01*
X84376570Y-104316237D01*
X84372619Y-104269415D01*
X84367459Y-104235641D01*
X84360930Y-104211199D01*
X84352869Y-104192371D01*
X84344841Y-104178243D01*
X84286676Y-104115746D01*
X84213460Y-104084598D01*
X84134710Y-104085766D01*
G36*
X86051256Y-105760047D02*
G01*
X85922965Y-105888802D01*
X85802832Y-106010719D01*
X85693804Y-106122708D01*
X85598832Y-106221678D01*
X85520866Y-106304536D01*
X85462855Y-106368192D01*
X85427748Y-106409554D01*
X85418529Y-106423206D01*
X85405630Y-106498299D01*
X85424706Y-106568384D01*
X85468681Y-106626956D01*
X85530482Y-106667508D01*
X85603033Y-106683533D01*
X85679261Y-106668526D01*
X85683307Y-106666723D01*
X85709193Y-106647452D01*
X85759339Y-106603327D01*
X85830603Y-106537351D01*
X85919844Y-106452527D01*
X86023919Y-106351861D01*
X86139687Y-106238356D01*
X86264005Y-106115017D01*
X86342730Y-106036200D01*
X86943538Y-105432620D01*
X86943538Y-105348807D01*
X86926768Y-105261905D01*
X86879743Y-105196934D01*
X86807394Y-105158825D01*
X86745489Y-105150769D01*
X86661665Y-105150769D01*
X86051256Y-105760047D01*
G37*
X86051256Y-105760047D02*
X85922965Y-105888802D01*
X85802832Y-106010719D01*
X85693804Y-106122708D01*
X85598832Y-106221678D01*
X85520866Y-106304536D01*
X85462855Y-106368192D01*
X85427748Y-106409554D01*
X85418529Y-106423206D01*
X85405630Y-106498299D01*
X85424706Y-106568384D01*
X85468681Y-106626956D01*
X85530482Y-106667508D01*
X85603033Y-106683533D01*
X85679261Y-106668526D01*
X85683307Y-106666723D01*
X85709193Y-106647452D01*
X85759339Y-106603327D01*
X85830603Y-106537351D01*
X85919844Y-106452527D01*
X86023919Y-106351861D01*
X86139687Y-106238356D01*
X86264005Y-106115017D01*
X86342730Y-106036200D01*
X86943538Y-105432620D01*
X86943538Y-105348807D01*
X86926768Y-105261905D01*
X86879743Y-105196934D01*
X86807394Y-105158825D01*
X86745489Y-105150769D01*
X86661665Y-105150769D01*
X86051256Y-105760047D01*
G36*
X84034303Y-106402738D02*
G01*
X84024805Y-106405453D01*
X83949917Y-106442078D01*
X83870914Y-106503757D01*
X83798782Y-106579503D01*
X83744509Y-106658327D01*
X83723915Y-106706343D01*
X83702320Y-106842095D01*
X83716342Y-106972987D01*
X83763491Y-107092992D01*
X83841280Y-107196078D01*
X83947218Y-107276216D01*
X83962508Y-107284418D01*
X84054190Y-107316641D01*
X84160562Y-107331650D01*
X84264295Y-107328126D01*
X84330309Y-107312390D01*
X84451683Y-107246755D01*
X84551770Y-107150310D01*
X84593602Y-107089299D01*
X84634137Y-106987224D01*
X84650109Y-106870040D01*
X84641141Y-106752406D01*
X84606856Y-106648976D01*
X84605016Y-106645461D01*
X84525013Y-106533847D01*
X84422281Y-106451426D01*
X84302479Y-106400540D01*
X84171266Y-106383531D01*
X84034303Y-106402738D01*
G37*
X84034303Y-106402738D02*
X84024805Y-106405453D01*
X83949917Y-106442078D01*
X83870914Y-106503757D01*
X83798782Y-106579503D01*
X83744509Y-106658327D01*
X83723915Y-106706343D01*
X83702320Y-106842095D01*
X83716342Y-106972987D01*
X83763491Y-107092992D01*
X83841280Y-107196078D01*
X83947218Y-107276216D01*
X83962508Y-107284418D01*
X84054190Y-107316641D01*
X84160562Y-107331650D01*
X84264295Y-107328126D01*
X84330309Y-107312390D01*
X84451683Y-107246755D01*
X84551770Y-107150310D01*
X84593602Y-107089299D01*
X84634137Y-106987224D01*
X84650109Y-106870040D01*
X84641141Y-106752406D01*
X84606856Y-106648976D01*
X84605016Y-106645461D01*
X84525013Y-106533847D01*
X84422281Y-106451426D01*
X84302479Y-106400540D01*
X84171266Y-106383531D01*
X84034303Y-106402738D01*
G36*
X83150860Y-106924673D02*
G01*
X83033546Y-106969562D01*
X82932987Y-107042611D01*
X82854476Y-107140419D01*
X82803306Y-107259582D01*
X82788429Y-107335528D01*
X82791545Y-107464527D01*
X82828866Y-107584245D01*
X82895695Y-107689076D01*
X82987335Y-107773413D01*
X83099087Y-107831648D01*
X83226255Y-107858176D01*
X83226338Y-107858181D01*
X83297728Y-107859552D01*
X83360219Y-107855116D01*
X83387665Y-107849522D01*
X83515383Y-107789140D01*
X83616716Y-107703148D01*
X83689018Y-107596521D01*
X83729638Y-107474232D01*
X83735929Y-107341255D01*
X83715469Y-107233882D01*
X83678844Y-107158994D01*
X83617165Y-107079990D01*
X83541420Y-107007859D01*
X83462595Y-106953586D01*
X83414579Y-106932991D01*
X83279635Y-106911349D01*
X83150860Y-106924673D01*
G37*
X83150860Y-106924673D02*
X83033546Y-106969562D01*
X82932987Y-107042611D01*
X82854476Y-107140419D01*
X82803306Y-107259582D01*
X82788429Y-107335528D01*
X82791545Y-107464527D01*
X82828866Y-107584245D01*
X82895695Y-107689076D01*
X82987335Y-107773413D01*
X83099087Y-107831648D01*
X83226255Y-107858176D01*
X83226338Y-107858181D01*
X83297728Y-107859552D01*
X83360219Y-107855116D01*
X83387665Y-107849522D01*
X83515383Y-107789140D01*
X83616716Y-107703148D01*
X83689018Y-107596521D01*
X83729638Y-107474232D01*
X83735929Y-107341255D01*
X83715469Y-107233882D01*
X83678844Y-107158994D01*
X83617165Y-107079990D01*
X83541420Y-107007859D01*
X83462595Y-106953586D01*
X83414579Y-106932991D01*
X83279635Y-106911349D01*
X83150860Y-106924673D01*
G36*
X84967278Y-106926160D02*
G01*
X84854352Y-106973114D01*
X84764579Y-107042218D01*
X84680006Y-107151489D01*
X84630749Y-107275431D01*
X84617867Y-107409907D01*
X84638031Y-107535738D01*
X84673827Y-107612804D01*
X84734422Y-107693345D01*
X84808937Y-107764892D01*
X84878031Y-107810841D01*
X84983243Y-107846601D01*
X85102492Y-107859025D01*
X85217952Y-107847027D01*
X85261559Y-107834249D01*
X85362691Y-107778747D01*
X85452254Y-107695597D01*
X85519693Y-107596020D01*
X85545244Y-107532723D01*
X85566843Y-107450589D01*
X85573940Y-107386844D01*
X85566651Y-107323641D01*
X85547099Y-107249815D01*
X85493730Y-107132196D01*
X85414618Y-107037809D01*
X85316090Y-106968334D01*
X85204473Y-106925448D01*
X85086094Y-106910831D01*
X84967278Y-106926160D01*
G37*
X84967278Y-106926160D02*
X84854352Y-106973114D01*
X84764579Y-107042218D01*
X84680006Y-107151489D01*
X84630749Y-107275431D01*
X84617867Y-107409907D01*
X84638031Y-107535738D01*
X84673827Y-107612804D01*
X84734422Y-107693345D01*
X84808937Y-107764892D01*
X84878031Y-107810841D01*
X84983243Y-107846601D01*
X85102492Y-107859025D01*
X85217952Y-107847027D01*
X85261559Y-107834249D01*
X85362691Y-107778747D01*
X85452254Y-107695597D01*
X85519693Y-107596020D01*
X85545244Y-107532723D01*
X85566843Y-107450589D01*
X85573940Y-107386844D01*
X85566651Y-107323641D01*
X85547099Y-107249815D01*
X85493730Y-107132196D01*
X85414618Y-107037809D01*
X85316090Y-106968334D01*
X85204473Y-106925448D01*
X85086094Y-106910831D01*
X84967278Y-106926160D01*
G36*
X86489905Y-107713137D02*
G01*
X86370041Y-107714747D01*
X86275381Y-107717872D01*
X86202458Y-107722792D01*
X86147803Y-107729787D01*
X86107949Y-107739138D01*
X86079428Y-107751124D01*
X86058773Y-107766026D01*
X86042516Y-107784124D01*
X86034221Y-107795501D01*
X86011567Y-107855190D01*
X86007473Y-107930382D01*
X86021776Y-108002283D01*
X86036289Y-108031917D01*
X86077119Y-108072193D01*
X86127128Y-108099615D01*
X86164820Y-108105525D01*
X86240745Y-108110487D01*
X86354068Y-108114479D01*
X86503955Y-108117483D01*
X86689574Y-108119479D01*
X86910089Y-108120447D01*
X87019723Y-108120542D01*
X87222290Y-108120455D01*
X87389511Y-108120125D01*
X87525116Y-108119388D01*
X87632836Y-108118083D01*
X87716402Y-108116047D01*
X87779545Y-108113116D01*
X87825994Y-108109129D01*
X87859481Y-108103922D01*
X87883737Y-108097333D01*
X87902491Y-108089199D01*
X87916064Y-108081456D01*
X87978561Y-108023291D01*
X88009709Y-107950075D01*
X88008541Y-107871326D01*
X87974093Y-107796562D01*
X87947912Y-107767163D01*
X87897808Y-107720077D01*
X87035398Y-107714592D01*
X86819116Y-107713340D01*
X86638441Y-107712761D01*
X86489905Y-107713137D01*
G37*
X86489905Y-107713137D02*
X86370041Y-107714747D01*
X86275381Y-107717872D01*
X86202458Y-107722792D01*
X86147803Y-107729787D01*
X86107949Y-107739138D01*
X86079428Y-107751124D01*
X86058773Y-107766026D01*
X86042516Y-107784124D01*
X86034221Y-107795501D01*
X86011567Y-107855190D01*
X86007473Y-107930382D01*
X86021776Y-108002283D01*
X86036289Y-108031917D01*
X86077119Y-108072193D01*
X86127128Y-108099615D01*
X86164820Y-108105525D01*
X86240745Y-108110487D01*
X86354068Y-108114479D01*
X86503955Y-108117483D01*
X86689574Y-108119479D01*
X86910089Y-108120447D01*
X87019723Y-108120542D01*
X87222290Y-108120455D01*
X87389511Y-108120125D01*
X87525116Y-108119388D01*
X87632836Y-108118083D01*
X87716402Y-108116047D01*
X87779545Y-108113116D01*
X87825994Y-108109129D01*
X87859481Y-108103922D01*
X87883737Y-108097333D01*
X87902491Y-108089199D01*
X87916064Y-108081456D01*
X87978561Y-108023291D01*
X88009709Y-107950075D01*
X88008541Y-107871326D01*
X87974093Y-107796562D01*
X87947912Y-107767163D01*
X87897808Y-107720077D01*
X87035398Y-107714592D01*
X86819116Y-107713340D01*
X86638441Y-107712761D01*
X86489905Y-107713137D01*
G36*
X84053108Y-107456237D02*
G01*
X83982375Y-107483147D01*
X83869712Y-107553847D01*
X83786764Y-107643235D01*
X83732531Y-107745853D01*
X83706011Y-107856242D01*
X83706203Y-107968945D01*
X83732106Y-108078502D01*
X83782719Y-108179455D01*
X83857041Y-108266347D01*
X83954071Y-108333718D01*
X84072807Y-108376111D01*
X84148124Y-108386885D01*
X84238427Y-108385916D01*
X84317696Y-108371700D01*
X84330091Y-108367542D01*
X84428587Y-108321781D01*
X84503992Y-108262630D01*
X84560291Y-108195053D01*
X84623161Y-108080076D01*
X84651399Y-107962663D01*
X84648525Y-107847152D01*
X84618062Y-107737882D01*
X84563531Y-107639191D01*
X84488454Y-107555416D01*
X84396351Y-107490895D01*
X84290745Y-107449966D01*
X84175157Y-107436968D01*
X84053108Y-107456237D01*
G37*
X84053108Y-107456237D02*
X83982375Y-107483147D01*
X83869712Y-107553847D01*
X83786764Y-107643235D01*
X83732531Y-107745853D01*
X83706011Y-107856242D01*
X83706203Y-107968945D01*
X83732106Y-108078502D01*
X83782719Y-108179455D01*
X83857041Y-108266347D01*
X83954071Y-108333718D01*
X84072807Y-108376111D01*
X84148124Y-108386885D01*
X84238427Y-108385916D01*
X84317696Y-108371700D01*
X84330091Y-108367542D01*
X84428587Y-108321781D01*
X84503992Y-108262630D01*
X84560291Y-108195053D01*
X84623161Y-108080076D01*
X84651399Y-107962663D01*
X84648525Y-107847152D01*
X84618062Y-107737882D01*
X84563531Y-107639191D01*
X84488454Y-107555416D01*
X84396351Y-107490895D01*
X84290745Y-107449966D01*
X84175157Y-107436968D01*
X84053108Y-107456237D01*
G36*
X83182460Y-107974379D02*
G01*
X83070531Y-108007555D01*
X82969520Y-108066830D01*
X82885154Y-108150470D01*
X82823160Y-108256741D01*
X82789263Y-108383910D01*
X82788429Y-108390605D01*
X82792293Y-108516853D01*
X82830578Y-108638695D01*
X82898848Y-108747604D01*
X82992667Y-108835050D01*
X83032717Y-108860121D01*
X83111858Y-108891201D01*
X83207384Y-108910660D01*
X83302800Y-108916433D01*
X83381611Y-108906451D01*
X83387665Y-108904599D01*
X83511554Y-108846204D01*
X83610439Y-108763917D01*
X83682541Y-108663483D01*
X83726085Y-108550649D01*
X83739295Y-108431159D01*
X83720395Y-108310760D01*
X83667609Y-108195198D01*
X83624834Y-108137347D01*
X83526494Y-108048787D01*
X83416168Y-107993261D01*
X83299581Y-107969037D01*
X83182460Y-107974379D01*
G37*
X83182460Y-107974379D02*
X83070531Y-108007555D01*
X82969520Y-108066830D01*
X82885154Y-108150470D01*
X82823160Y-108256741D01*
X82789263Y-108383910D01*
X82788429Y-108390605D01*
X82792293Y-108516853D01*
X82830578Y-108638695D01*
X82898848Y-108747604D01*
X82992667Y-108835050D01*
X83032717Y-108860121D01*
X83111858Y-108891201D01*
X83207384Y-108910660D01*
X83302800Y-108916433D01*
X83381611Y-108906451D01*
X83387665Y-108904599D01*
X83511554Y-108846204D01*
X83610439Y-108763917D01*
X83682541Y-108663483D01*
X83726085Y-108550649D01*
X83739295Y-108431159D01*
X83720395Y-108310760D01*
X83667609Y-108195198D01*
X83624834Y-108137347D01*
X83526494Y-108048787D01*
X83416168Y-107993261D01*
X83299581Y-107969037D01*
X83182460Y-107974379D01*
G36*
X85007790Y-107973882D02*
G01*
X84892783Y-108010766D01*
X84787010Y-108080621D01*
X84759904Y-108106286D01*
X84708759Y-108165901D01*
X84665730Y-108228741D01*
X84648694Y-108261641D01*
X84625381Y-108352952D01*
X84619746Y-108461155D01*
X84632381Y-108567999D01*
X84638031Y-108590815D01*
X84673827Y-108667881D01*
X84734422Y-108748422D01*
X84808937Y-108819969D01*
X84878031Y-108865918D01*
X84971743Y-108898925D01*
X85079281Y-108914278D01*
X85183630Y-108910642D01*
X85248616Y-108895006D01*
X85368158Y-108831549D01*
X85462878Y-108742754D01*
X85529456Y-108634525D01*
X85564570Y-108512767D01*
X85564896Y-108383386D01*
X85557967Y-108345090D01*
X85512722Y-108221602D01*
X85440950Y-108120384D01*
X85348610Y-108043220D01*
X85241664Y-107991892D01*
X85126070Y-107968185D01*
X85007790Y-107973882D01*
G37*
X85007790Y-107973882D02*
X84892783Y-108010766D01*
X84787010Y-108080621D01*
X84759904Y-108106286D01*
X84708759Y-108165901D01*
X84665730Y-108228741D01*
X84648694Y-108261641D01*
X84625381Y-108352952D01*
X84619746Y-108461155D01*
X84632381Y-108567999D01*
X84638031Y-108590815D01*
X84673827Y-108667881D01*
X84734422Y-108748422D01*
X84808937Y-108819969D01*
X84878031Y-108865918D01*
X84971743Y-108898925D01*
X85079281Y-108914278D01*
X85183630Y-108910642D01*
X85248616Y-108895006D01*
X85368158Y-108831549D01*
X85462878Y-108742754D01*
X85529456Y-108634525D01*
X85564570Y-108512767D01*
X85564896Y-108383386D01*
X85557967Y-108345090D01*
X85512722Y-108221602D01*
X85440950Y-108120384D01*
X85348610Y-108043220D01*
X85241664Y-107991892D01*
X85126070Y-107968185D01*
X85007790Y-107973882D01*
G36*
X84093517Y-108502434D02*
G01*
X83980561Y-108537595D01*
X83878145Y-108601854D01*
X83792145Y-108695145D01*
X83746094Y-108775011D01*
X83707954Y-108900102D01*
X83705668Y-109026766D01*
X83736898Y-109148309D01*
X83799304Y-109258036D01*
X83890550Y-109349252D01*
X83962508Y-109394572D01*
X84036721Y-109421208D01*
X84128007Y-109438071D01*
X84219735Y-109443342D01*
X84295275Y-109435201D01*
X84305972Y-109432138D01*
X84436835Y-109372084D01*
X84536821Y-109288406D01*
X84605157Y-109182151D01*
X84641070Y-109054366D01*
X84646738Y-108970538D01*
X84640167Y-108862909D01*
X84619468Y-108783788D01*
X84610830Y-108765384D01*
X84533276Y-108654076D01*
X84436894Y-108572192D01*
X84327557Y-108519667D01*
X84211141Y-108496437D01*
X84093517Y-108502434D01*
G37*
X84093517Y-108502434D02*
X83980561Y-108537595D01*
X83878145Y-108601854D01*
X83792145Y-108695145D01*
X83746094Y-108775011D01*
X83707954Y-108900102D01*
X83705668Y-109026766D01*
X83736898Y-109148309D01*
X83799304Y-109258036D01*
X83890550Y-109349252D01*
X83962508Y-109394572D01*
X84036721Y-109421208D01*
X84128007Y-109438071D01*
X84219735Y-109443342D01*
X84295275Y-109435201D01*
X84305972Y-109432138D01*
X84436835Y-109372084D01*
X84536821Y-109288406D01*
X84605157Y-109182151D01*
X84641070Y-109054366D01*
X84646738Y-108970538D01*
X84640167Y-108862909D01*
X84619468Y-108783788D01*
X84610830Y-108765384D01*
X84533276Y-108654076D01*
X84436894Y-108572192D01*
X84327557Y-108519667D01*
X84211141Y-108496437D01*
X84093517Y-108502434D01*
G36*
X83495412Y-109808537D02*
G01*
X83479367Y-109823297D01*
X83461351Y-109853088D01*
X83438756Y-109902664D01*
X83408970Y-109976778D01*
X83369386Y-110080186D01*
X83343577Y-110148401D01*
X83302455Y-110257851D01*
X83266568Y-110354640D01*
X83238055Y-110432891D01*
X83219057Y-110486724D01*
X83211715Y-110510262D01*
X83211692Y-110510573D01*
X83228319Y-110520873D01*
X83256500Y-110523846D01*
X83289171Y-110514801D01*
X83314407Y-110481846D01*
X83331533Y-110440807D01*
X83361757Y-110357769D01*
X83529059Y-110352151D01*
X83696362Y-110346534D01*
X83730220Y-110435190D01*
X83755531Y-110490979D01*
X83780891Y-110517530D01*
X83811586Y-110523846D01*
X83845757Y-110517346D01*
X83849369Y-110493488D01*
X83848220Y-110489582D01*
X83837864Y-110460765D01*
X83815910Y-110402161D01*
X83784880Y-110320419D01*
X83760300Y-110256175D01*
X83661077Y-110256175D01*
X83643253Y-110263138D01*
X83596619Y-110268061D01*
X83534077Y-110269846D01*
X83469403Y-110267261D01*
X83423662Y-110260499D01*
X83407077Y-110251425D01*
X83413690Y-110223140D01*
X83430746Y-110170163D01*
X83454071Y-110103874D01*
X83479491Y-110035654D01*
X83502829Y-109976883D01*
X83519913Y-109938940D01*
X83524305Y-109931853D01*
X83535220Y-109943077D01*
X83555619Y-109981577D01*
X83581533Y-110037945D01*
X83608993Y-110102767D01*
X83634032Y-110166635D01*
X83652679Y-110220137D01*
X83660967Y-110253862D01*
X83661077Y-110256175D01*
X83760300Y-110256175D01*
X83747296Y-110222189D01*
X83712971Y-110133005D01*
X83668025Y-110017287D01*
X83634067Y-109933023D01*
X83608283Y-109875112D01*
X83587857Y-109838452D01*
X83569973Y-109817941D01*
X83551816Y-109808476D01*
X83532029Y-109805096D01*
X83512096Y-109804055D01*
X83495412Y-109808537D01*
G37*
X83495412Y-109808537D02*
X83479367Y-109823297D01*
X83461351Y-109853088D01*
X83438756Y-109902664D01*
X83408970Y-109976778D01*
X83369386Y-110080186D01*
X83343577Y-110148401D01*
X83302455Y-110257851D01*
X83266568Y-110354640D01*
X83238055Y-110432891D01*
X83219057Y-110486724D01*
X83211715Y-110510262D01*
X83211692Y-110510573D01*
X83228319Y-110520873D01*
X83256500Y-110523846D01*
X83289171Y-110514801D01*
X83314407Y-110481846D01*
X83331533Y-110440807D01*
X83361757Y-110357769D01*
X83529059Y-110352151D01*
X83696362Y-110346534D01*
X83730220Y-110435190D01*
X83755531Y-110490979D01*
X83780891Y-110517530D01*
X83811586Y-110523846D01*
X83845757Y-110517346D01*
X83849369Y-110493488D01*
X83848220Y-110489582D01*
X83837864Y-110460765D01*
X83815910Y-110402161D01*
X83784880Y-110320419D01*
X83760300Y-110256175D01*
X83661077Y-110256175D01*
X83643253Y-110263138D01*
X83596619Y-110268061D01*
X83534077Y-110269846D01*
X83469403Y-110267261D01*
X83423662Y-110260499D01*
X83407077Y-110251425D01*
X83413690Y-110223140D01*
X83430746Y-110170163D01*
X83454071Y-110103874D01*
X83479491Y-110035654D01*
X83502829Y-109976883D01*
X83519913Y-109938940D01*
X83524305Y-109931853D01*
X83535220Y-109943077D01*
X83555619Y-109981577D01*
X83581533Y-110037945D01*
X83608993Y-110102767D01*
X83634032Y-110166635D01*
X83652679Y-110220137D01*
X83660967Y-110253862D01*
X83661077Y-110256175D01*
X83760300Y-110256175D01*
X83747296Y-110222189D01*
X83712971Y-110133005D01*
X83668025Y-110017287D01*
X83634067Y-109933023D01*
X83608283Y-109875112D01*
X83587857Y-109838452D01*
X83569973Y-109817941D01*
X83551816Y-109808476D01*
X83532029Y-109805096D01*
X83512096Y-109804055D01*
X83495412Y-109808537D01*
G36*
X83846528Y-109806429D02*
G01*
X83836543Y-109815577D01*
X83843008Y-109837648D01*
X83861228Y-109890313D01*
X83889067Y-109967641D01*
X83924388Y-110063700D01*
X83965055Y-110172560D01*
X83966741Y-110177038D01*
X84012396Y-110297676D01*
X84047055Y-110386527D01*
X84073305Y-110448441D01*
X84093730Y-110488271D01*
X84110918Y-110510869D01*
X84127454Y-110521088D01*
X84145925Y-110523780D01*
X84151583Y-110523846D01*
X84194256Y-110519125D01*
X84214749Y-110509192D01*
X84224187Y-110487184D01*
X84244486Y-110436080D01*
X84273001Y-110362824D01*
X84307086Y-110274362D01*
X84344095Y-110177640D01*
X84381382Y-110079602D01*
X84416300Y-109987195D01*
X84446204Y-109907362D01*
X84468448Y-109847051D01*
X84480386Y-109813206D01*
X84481692Y-109808500D01*
X84464970Y-109802723D01*
X84434554Y-109800923D01*
X84407634Y-109806065D01*
X84385514Y-109826602D01*
X84362556Y-109870195D01*
X84337526Y-109932807D01*
X84306609Y-110014560D01*
X84268829Y-110114499D01*
X84231130Y-110214255D01*
X84221847Y-110238823D01*
X84156059Y-110412954D01*
X84076815Y-110208480D01*
X84040195Y-110113199D01*
X84004766Y-110019653D01*
X83975410Y-109940803D01*
X83961507Y-109902464D01*
X83936650Y-109841599D01*
X83913483Y-109810568D01*
X83885401Y-109801021D01*
X83881183Y-109800923D01*
X83846528Y-109806429D01*
G37*
X83846528Y-109806429D02*
X83836543Y-109815577D01*
X83843008Y-109837648D01*
X83861228Y-109890313D01*
X83889067Y-109967641D01*
X83924388Y-110063700D01*
X83965055Y-110172560D01*
X83966741Y-110177038D01*
X84012396Y-110297676D01*
X84047055Y-110386527D01*
X84073305Y-110448441D01*
X84093730Y-110488271D01*
X84110918Y-110510869D01*
X84127454Y-110521088D01*
X84145925Y-110523780D01*
X84151583Y-110523846D01*
X84194256Y-110519125D01*
X84214749Y-110509192D01*
X84224187Y-110487184D01*
X84244486Y-110436080D01*
X84273001Y-110362824D01*
X84307086Y-110274362D01*
X84344095Y-110177640D01*
X84381382Y-110079602D01*
X84416300Y-109987195D01*
X84446204Y-109907362D01*
X84468448Y-109847051D01*
X84480386Y-109813206D01*
X84481692Y-109808500D01*
X84464970Y-109802723D01*
X84434554Y-109800923D01*
X84407634Y-109806065D01*
X84385514Y-109826602D01*
X84362556Y-109870195D01*
X84337526Y-109932807D01*
X84306609Y-110014560D01*
X84268829Y-110114499D01*
X84231130Y-110214255D01*
X84221847Y-110238823D01*
X84156059Y-110412954D01*
X84076815Y-110208480D01*
X84040195Y-110113199D01*
X84004766Y-110019653D01*
X83975410Y-109940803D01*
X83961507Y-109902464D01*
X83936650Y-109841599D01*
X83913483Y-109810568D01*
X83885401Y-109801021D01*
X83881183Y-109800923D01*
X83846528Y-109806429D01*
G36*
X84966677Y-110093357D02*
G01*
X84963059Y-110220571D01*
X84956829Y-110313927D01*
X84945502Y-110378641D01*
X84926594Y-110419934D01*
X84897622Y-110443021D01*
X84856101Y-110453122D01*
X84799548Y-110455454D01*
X84794307Y-110455461D01*
X84736446Y-110453525D01*
X84693816Y-110444236D01*
X84663933Y-110422378D01*
X84644312Y-110382732D01*
X84632471Y-110320080D01*
X84625924Y-110229204D01*
X84622190Y-110104886D01*
X84621938Y-110093357D01*
X84615646Y-109800923D01*
X84520769Y-109800923D01*
X84520842Y-110079346D01*
X84521473Y-110192475D01*
X84523874Y-110274059D01*
X84528912Y-110331617D01*
X84537452Y-110372671D01*
X84550361Y-110404741D01*
X84560347Y-110422445D01*
X84621451Y-110487527D01*
X84704749Y-110528155D01*
X84800005Y-110541678D01*
X84896984Y-110525444D01*
X84921307Y-110515981D01*
X84969787Y-110492224D01*
X85005337Y-110465919D01*
X85030121Y-110430805D01*
X85046301Y-110380620D01*
X85056039Y-110309103D01*
X85061497Y-110209990D01*
X85064337Y-110101778D01*
X85070597Y-109800923D01*
X84972969Y-109800923D01*
X84966677Y-110093357D01*
G37*
X84966677Y-110093357D02*
X84963059Y-110220571D01*
X84956829Y-110313927D01*
X84945502Y-110378641D01*
X84926594Y-110419934D01*
X84897622Y-110443021D01*
X84856101Y-110453122D01*
X84799548Y-110455454D01*
X84794307Y-110455461D01*
X84736446Y-110453525D01*
X84693816Y-110444236D01*
X84663933Y-110422378D01*
X84644312Y-110382732D01*
X84632471Y-110320080D01*
X84625924Y-110229204D01*
X84622190Y-110104886D01*
X84621938Y-110093357D01*
X84615646Y-109800923D01*
X84520769Y-109800923D01*
X84520842Y-110079346D01*
X84521473Y-110192475D01*
X84523874Y-110274059D01*
X84528912Y-110331617D01*
X84537452Y-110372671D01*
X84550361Y-110404741D01*
X84560347Y-110422445D01*
X84621451Y-110487527D01*
X84704749Y-110528155D01*
X84800005Y-110541678D01*
X84896984Y-110525444D01*
X84921307Y-110515981D01*
X84969787Y-110492224D01*
X85005337Y-110465919D01*
X85030121Y-110430805D01*
X85046301Y-110380620D01*
X85056039Y-110309103D01*
X85061497Y-110209990D01*
X85064337Y-110101778D01*
X85070597Y-109800923D01*
X84972969Y-109800923D01*
X84966677Y-110093357D01*
%TD*%
M02*
