%TF.GenerationSoftware,KiCad,Pcbnew,5.1.6*%
%TF.CreationDate,2020-09-21T04:05:30+02:00*%
%TF.ProjectId,AL8853_Led_driver,414c3838-3533-45f4-9c65-645f64726976,rev?*%
%TF.SameCoordinates,Original*%
%TF.FileFunction,Paste,Top*%
%TF.FilePolarity,Positive*%
%FSLAX46Y46*%
G04 Gerber Fmt 4.6, Leading zero omitted, Abs format (unit mm)*
G04 Created by KiCad (PCBNEW 5.1.6) date 2020-09-21 04:05:30*
%MOMM*%
%LPD*%
G01*
G04 APERTURE LIST*
%ADD10R,3.050000X2.750000*%
%ADD11R,2.200000X1.200000*%
%ADD12R,3.100000X5.000000*%
%ADD13R,1.440000X1.600000*%
%ADD14R,1.900000X1.700000*%
%ADD15R,0.600000X2.400000*%
G04 APERTURE END LIST*
%TO.C,U1*%
G36*
G01*
X99490000Y-126515000D02*
X99490000Y-126215000D01*
G75*
G02*
X99640000Y-126065000I150000J0D01*
G01*
X101090000Y-126065000D01*
G75*
G02*
X101240000Y-126215000I0J-150000D01*
G01*
X101240000Y-126515000D01*
G75*
G02*
X101090000Y-126665000I-150000J0D01*
G01*
X99640000Y-126665000D01*
G75*
G02*
X99490000Y-126515000I0J150000D01*
G01*
G37*
G36*
G01*
X99490000Y-127785000D02*
X99490000Y-127485000D01*
G75*
G02*
X99640000Y-127335000I150000J0D01*
G01*
X101090000Y-127335000D01*
G75*
G02*
X101240000Y-127485000I0J-150000D01*
G01*
X101240000Y-127785000D01*
G75*
G02*
X101090000Y-127935000I-150000J0D01*
G01*
X99640000Y-127935000D01*
G75*
G02*
X99490000Y-127785000I0J150000D01*
G01*
G37*
G36*
G01*
X99490000Y-129055000D02*
X99490000Y-128755000D01*
G75*
G02*
X99640000Y-128605000I150000J0D01*
G01*
X101090000Y-128605000D01*
G75*
G02*
X101240000Y-128755000I0J-150000D01*
G01*
X101240000Y-129055000D01*
G75*
G02*
X101090000Y-129205000I-150000J0D01*
G01*
X99640000Y-129205000D01*
G75*
G02*
X99490000Y-129055000I0J150000D01*
G01*
G37*
G36*
G01*
X99490000Y-130325000D02*
X99490000Y-130025000D01*
G75*
G02*
X99640000Y-129875000I150000J0D01*
G01*
X101090000Y-129875000D01*
G75*
G02*
X101240000Y-130025000I0J-150000D01*
G01*
X101240000Y-130325000D01*
G75*
G02*
X101090000Y-130475000I-150000J0D01*
G01*
X99640000Y-130475000D01*
G75*
G02*
X99490000Y-130325000I0J150000D01*
G01*
G37*
G36*
G01*
X94340000Y-130325000D02*
X94340000Y-130025000D01*
G75*
G02*
X94490000Y-129875000I150000J0D01*
G01*
X95940000Y-129875000D01*
G75*
G02*
X96090000Y-130025000I0J-150000D01*
G01*
X96090000Y-130325000D01*
G75*
G02*
X95940000Y-130475000I-150000J0D01*
G01*
X94490000Y-130475000D01*
G75*
G02*
X94340000Y-130325000I0J150000D01*
G01*
G37*
G36*
G01*
X94340000Y-129055000D02*
X94340000Y-128755000D01*
G75*
G02*
X94490000Y-128605000I150000J0D01*
G01*
X95940000Y-128605000D01*
G75*
G02*
X96090000Y-128755000I0J-150000D01*
G01*
X96090000Y-129055000D01*
G75*
G02*
X95940000Y-129205000I-150000J0D01*
G01*
X94490000Y-129205000D01*
G75*
G02*
X94340000Y-129055000I0J150000D01*
G01*
G37*
G36*
G01*
X94340000Y-127785000D02*
X94340000Y-127485000D01*
G75*
G02*
X94490000Y-127335000I150000J0D01*
G01*
X95940000Y-127335000D01*
G75*
G02*
X96090000Y-127485000I0J-150000D01*
G01*
X96090000Y-127785000D01*
G75*
G02*
X95940000Y-127935000I-150000J0D01*
G01*
X94490000Y-127935000D01*
G75*
G02*
X94340000Y-127785000I0J150000D01*
G01*
G37*
G36*
G01*
X94340000Y-126515000D02*
X94340000Y-126215000D01*
G75*
G02*
X94490000Y-126065000I150000J0D01*
G01*
X95940000Y-126065000D01*
G75*
G02*
X96090000Y-126215000I0J-150000D01*
G01*
X96090000Y-126515000D01*
G75*
G02*
X95940000Y-126665000I-150000J0D01*
G01*
X94490000Y-126665000D01*
G75*
G02*
X94340000Y-126515000I0J150000D01*
G01*
G37*
%TD*%
%TO.C,R1*%
G36*
G01*
X104875000Y-128125000D02*
X104875000Y-126875000D01*
G75*
G02*
X105125000Y-126625000I250000J0D01*
G01*
X105875000Y-126625000D01*
G75*
G02*
X106125000Y-126875000I0J-250000D01*
G01*
X106125000Y-128125000D01*
G75*
G02*
X105875000Y-128375000I-250000J0D01*
G01*
X105125000Y-128375000D01*
G75*
G02*
X104875000Y-128125000I0J250000D01*
G01*
G37*
G36*
G01*
X102075000Y-128125000D02*
X102075000Y-126875000D01*
G75*
G02*
X102325000Y-126625000I250000J0D01*
G01*
X103075000Y-126625000D01*
G75*
G02*
X103325000Y-126875000I0J-250000D01*
G01*
X103325000Y-128125000D01*
G75*
G02*
X103075000Y-128375000I-250000J0D01*
G01*
X102325000Y-128375000D01*
G75*
G02*
X102075000Y-128125000I0J250000D01*
G01*
G37*
%TD*%
%TO.C,R6*%
G36*
G01*
X75555000Y-124470000D02*
X75555000Y-125720000D01*
G75*
G02*
X75305000Y-125970000I-250000J0D01*
G01*
X74555000Y-125970000D01*
G75*
G02*
X74305000Y-125720000I0J250000D01*
G01*
X74305000Y-124470000D01*
G75*
G02*
X74555000Y-124220000I250000J0D01*
G01*
X75305000Y-124220000D01*
G75*
G02*
X75555000Y-124470000I0J-250000D01*
G01*
G37*
G36*
G01*
X78355000Y-124470000D02*
X78355000Y-125720000D01*
G75*
G02*
X78105000Y-125970000I-250000J0D01*
G01*
X77355000Y-125970000D01*
G75*
G02*
X77105000Y-125720000I0J250000D01*
G01*
X77105000Y-124470000D01*
G75*
G02*
X77355000Y-124220000I250000J0D01*
G01*
X78105000Y-124220000D01*
G75*
G02*
X78355000Y-124470000I0J-250000D01*
G01*
G37*
%TD*%
%TO.C,R5*%
G36*
G01*
X90795000Y-120380000D02*
X89545000Y-120380000D01*
G75*
G02*
X89295000Y-120130000I0J250000D01*
G01*
X89295000Y-119380000D01*
G75*
G02*
X89545000Y-119130000I250000J0D01*
G01*
X90795000Y-119130000D01*
G75*
G02*
X91045000Y-119380000I0J-250000D01*
G01*
X91045000Y-120130000D01*
G75*
G02*
X90795000Y-120380000I-250000J0D01*
G01*
G37*
G36*
G01*
X90795000Y-123180000D02*
X89545000Y-123180000D01*
G75*
G02*
X89295000Y-122930000I0J250000D01*
G01*
X89295000Y-122180000D01*
G75*
G02*
X89545000Y-121930000I250000J0D01*
G01*
X90795000Y-121930000D01*
G75*
G02*
X91045000Y-122180000I0J-250000D01*
G01*
X91045000Y-122930000D01*
G75*
G02*
X90795000Y-123180000I-250000J0D01*
G01*
G37*
%TD*%
%TO.C,R4*%
G36*
G01*
X90795000Y-115560000D02*
X89545000Y-115560000D01*
G75*
G02*
X89295000Y-115310000I0J250000D01*
G01*
X89295000Y-114560000D01*
G75*
G02*
X89545000Y-114310000I250000J0D01*
G01*
X90795000Y-114310000D01*
G75*
G02*
X91045000Y-114560000I0J-250000D01*
G01*
X91045000Y-115310000D01*
G75*
G02*
X90795000Y-115560000I-250000J0D01*
G01*
G37*
G36*
G01*
X90795000Y-118360000D02*
X89545000Y-118360000D01*
G75*
G02*
X89295000Y-118110000I0J250000D01*
G01*
X89295000Y-117360000D01*
G75*
G02*
X89545000Y-117110000I250000J0D01*
G01*
X90795000Y-117110000D01*
G75*
G02*
X91045000Y-117360000I0J-250000D01*
G01*
X91045000Y-118110000D01*
G75*
G02*
X90795000Y-118360000I-250000J0D01*
G01*
G37*
%TD*%
%TO.C,R3*%
G36*
G01*
X105604999Y-121245000D02*
X107755001Y-121245000D01*
G75*
G02*
X108005000Y-121494999I0J-249999D01*
G01*
X108005000Y-122345001D01*
G75*
G02*
X107755001Y-122595000I-249999J0D01*
G01*
X105604999Y-122595000D01*
G75*
G02*
X105355000Y-122345001I0J249999D01*
G01*
X105355000Y-121494999D01*
G75*
G02*
X105604999Y-121245000I249999J0D01*
G01*
G37*
G36*
G01*
X105604999Y-116745000D02*
X107755001Y-116745000D01*
G75*
G02*
X108005000Y-116994999I0J-249999D01*
G01*
X108005000Y-117845001D01*
G75*
G02*
X107755001Y-118095000I-249999J0D01*
G01*
X105604999Y-118095000D01*
G75*
G02*
X105355000Y-117845001I0J249999D01*
G01*
X105355000Y-116994999D01*
G75*
G02*
X105604999Y-116745000I249999J0D01*
G01*
G37*
%TD*%
D10*
%TO.C,Q1*%
X98000000Y-118490000D03*
X94650000Y-121540000D03*
X98000000Y-121540000D03*
X94650000Y-118490000D03*
D11*
X102625000Y-117735000D03*
X102625000Y-122295000D03*
%TD*%
D12*
%TO.C,L1*%
X104140000Y-108585000D03*
X93040000Y-108585000D03*
%TD*%
D13*
%TO.C,D2*%
X85330000Y-110285000D03*
X85330000Y-108155000D03*
D14*
X80850000Y-108270000D03*
X82950000Y-108270000D03*
D15*
X79400000Y-109220000D03*
D14*
X80850000Y-110170000D03*
X82950000Y-110170000D03*
%TD*%
%TO.C,C4*%
G36*
G01*
X90325000Y-125875000D02*
X90325000Y-127125000D01*
G75*
G02*
X90075000Y-127375000I-250000J0D01*
G01*
X89325000Y-127375000D01*
G75*
G02*
X89075000Y-127125000I0J250000D01*
G01*
X89075000Y-125875000D01*
G75*
G02*
X89325000Y-125625000I250000J0D01*
G01*
X90075000Y-125625000D01*
G75*
G02*
X90325000Y-125875000I0J-250000D01*
G01*
G37*
G36*
G01*
X93125000Y-125875000D02*
X93125000Y-127125000D01*
G75*
G02*
X92875000Y-127375000I-250000J0D01*
G01*
X92125000Y-127375000D01*
G75*
G02*
X91875000Y-127125000I0J250000D01*
G01*
X91875000Y-125875000D01*
G75*
G02*
X92125000Y-125625000I250000J0D01*
G01*
X92875000Y-125625000D01*
G75*
G02*
X93125000Y-125875000I0J-250000D01*
G01*
G37*
%TD*%
%TO.C,C3*%
G36*
G01*
X81550000Y-120880000D02*
X83550000Y-120880000D01*
G75*
G02*
X83800000Y-121130000I0J-250000D01*
G01*
X83800000Y-124130000D01*
G75*
G02*
X83550000Y-124380000I-250000J0D01*
G01*
X81550000Y-124380000D01*
G75*
G02*
X81300000Y-124130000I0J250000D01*
G01*
X81300000Y-121130000D01*
G75*
G02*
X81550000Y-120880000I250000J0D01*
G01*
G37*
G36*
G01*
X81550000Y-114380000D02*
X83550000Y-114380000D01*
G75*
G02*
X83800000Y-114630000I0J-250000D01*
G01*
X83800000Y-117630000D01*
G75*
G02*
X83550000Y-117880000I-250000J0D01*
G01*
X81550000Y-117880000D01*
G75*
G02*
X81300000Y-117630000I0J250000D01*
G01*
X81300000Y-114630000D01*
G75*
G02*
X81550000Y-114380000I250000J0D01*
G01*
G37*
%TD*%
%TO.C,C2*%
G36*
G01*
X104875000Y-130625000D02*
X104875000Y-129375000D01*
G75*
G02*
X105125000Y-129125000I250000J0D01*
G01*
X105875000Y-129125000D01*
G75*
G02*
X106125000Y-129375000I0J-250000D01*
G01*
X106125000Y-130625000D01*
G75*
G02*
X105875000Y-130875000I-250000J0D01*
G01*
X105125000Y-130875000D01*
G75*
G02*
X104875000Y-130625000I0J250000D01*
G01*
G37*
G36*
G01*
X102075000Y-130625000D02*
X102075000Y-129375000D01*
G75*
G02*
X102325000Y-129125000I250000J0D01*
G01*
X103075000Y-129125000D01*
G75*
G02*
X103325000Y-129375000I0J-250000D01*
G01*
X103325000Y-130625000D01*
G75*
G02*
X103075000Y-130875000I-250000J0D01*
G01*
X102325000Y-130875000D01*
G75*
G02*
X102075000Y-130625000I0J250000D01*
G01*
G37*
%TD*%
%TO.C,C1*%
G36*
G01*
X89325000Y-128915000D02*
X89325000Y-130165000D01*
G75*
G02*
X89075000Y-130415000I-250000J0D01*
G01*
X88325000Y-130415000D01*
G75*
G02*
X88075000Y-130165000I0J250000D01*
G01*
X88075000Y-128915000D01*
G75*
G02*
X88325000Y-128665000I250000J0D01*
G01*
X89075000Y-128665000D01*
G75*
G02*
X89325000Y-128915000I0J-250000D01*
G01*
G37*
G36*
G01*
X92125000Y-128915000D02*
X92125000Y-130165000D01*
G75*
G02*
X91875000Y-130415000I-250000J0D01*
G01*
X91125000Y-130415000D01*
G75*
G02*
X90875000Y-130165000I0J250000D01*
G01*
X90875000Y-128915000D01*
G75*
G02*
X91125000Y-128665000I250000J0D01*
G01*
X91875000Y-128665000D01*
G75*
G02*
X92125000Y-128915000I0J-250000D01*
G01*
G37*
%TD*%
M02*
