M48
INCH,TZ
T1C0.0157
T2C0.0394
T3C0.1181
%
G90
G05
T1
X28976Y-44567
X28976Y-50551
X30315Y-52126
X30551Y-44567
X30709Y-40472
X31654Y-49449
X31654Y-49921
X31654Y-50394
X31654Y-50866
X32205Y-40472
X32205Y-49449
X32205Y-49921
X32205Y-50394
X32205Y-50866
X32283Y-52441
X32756Y-49449
X32756Y-49921
X32756Y-50394
X32756Y-50866
X33307Y-49449
X33307Y-49921
X33307Y-50394
X33307Y-50866
X33780Y-40472
X33858Y-49449
X33858Y-49921
X33858Y-50394
X33858Y-50866
X34331Y-46850
X34409Y-52441
X34961Y-44173
X35354Y-40472
X36220Y-47244
X36457Y-52441
X36693Y-50787
X36929Y-40472
X38504Y-40472
X38504Y-42047
X38780Y-50394
X39055Y-52441
X39370Y-43307
X39370Y-44724
X39449Y-41417
X40079Y-40472
X41142Y-52362
X41654Y-40472
X42835Y-52126
X43228Y-40472
X44488Y-44646
X44488Y-48189
X44882Y-49213
X44882Y-50787
T2
X42913Y-49591
X42913Y-50591
T3
X44000Y-42913
X44000Y-46378
X29528Y-42992
X29528Y-46457
T0
M30
