%TF.GenerationSoftware,KiCad,Pcbnew,5.1.6*%
%TF.CreationDate,2020-09-21T04:05:30+02:00*%
%TF.ProjectId,AL8853_Led_driver,414c3838-3533-45f4-9c65-645f64726976,rev?*%
%TF.SameCoordinates,Original*%
%TF.FileFunction,Copper,L2,Bot*%
%TF.FilePolarity,Positive*%
%FSLAX46Y46*%
G04 Gerber Fmt 4.6, Leading zero omitted, Abs format (unit mm)*
G04 Created by KiCad (PCBNEW 5.1.6) date 2020-09-21 04:05:30*
%MOMM*%
%LPD*%
G01*
G04 APERTURE LIST*
%TA.AperFunction,ComponentPad*%
%ADD10O,1.700000X1.700000*%
%TD*%
%TA.AperFunction,ComponentPad*%
%ADD11R,1.700000X1.700000*%
%TD*%
%TA.AperFunction,ComponentPad*%
%ADD12C,4.400000*%
%TD*%
%TA.AperFunction,ViaPad*%
%ADD13C,0.800000*%
%TD*%
%TA.AperFunction,Conductor*%
%ADD14C,0.750000*%
%TD*%
%TA.AperFunction,Conductor*%
%ADD15C,0.254000*%
%TD*%
G04 APERTURE END LIST*
D10*
%TO.P,J2,2*%
%TO.N,Net-(J2-Pad2)*%
X109000000Y-125960000D03*
D11*
%TO.P,J2,1*%
%TO.N,GND*%
X109000000Y-128500000D03*
%TD*%
D12*
%TO.P,J3,2*%
%TO.N,Net-(C3-Pad1)*%
X75000000Y-109200000D03*
%TO.P,J3,1*%
%TO.N,Net-(J3-Pad1)*%
%TA.AperFunction,ComponentPad*%
G36*
G01*
X76950001Y-120200000D02*
X73049999Y-120200000D01*
G75*
G02*
X72800000Y-119950001I0J249999D01*
G01*
X72800000Y-116049999D01*
G75*
G02*
X73049999Y-115800000I249999J0D01*
G01*
X76950001Y-115800000D01*
G75*
G02*
X77200000Y-116049999I0J-249999D01*
G01*
X77200000Y-119950001D01*
G75*
G02*
X76950001Y-120200000I-249999J0D01*
G01*
G37*
%TD.AperFunction*%
%TD*%
%TO.P,J1,2*%
%TO.N,Net-(C1-Pad1)*%
X111760000Y-109000000D03*
%TO.P,J1,1*%
%TO.N,GND*%
%TA.AperFunction,ComponentPad*%
G36*
G01*
X113710001Y-120000000D02*
X109809999Y-120000000D01*
G75*
G02*
X109560000Y-119750001I0J249999D01*
G01*
X109560000Y-115849999D01*
G75*
G02*
X109809999Y-115600000I249999J0D01*
G01*
X113710001Y-115600000D01*
G75*
G02*
X113960000Y-115849999I0J-249999D01*
G01*
X113960000Y-119750001D01*
G75*
G02*
X113710001Y-120000000I-249999J0D01*
G01*
G37*
%TD.AperFunction*%
%TD*%
D13*
%TO.N,GND*%
X80400000Y-126800000D03*
X81800000Y-126800000D03*
X83200000Y-126800000D03*
X80400000Y-128000000D03*
X81800000Y-128000000D03*
X83200000Y-128000000D03*
X80400000Y-129200000D03*
X81800000Y-129200000D03*
X83200000Y-129200000D03*
X80400000Y-125600000D03*
X81800000Y-125600000D03*
X83200000Y-125600000D03*
X84600000Y-125600000D03*
X84600000Y-126800000D03*
X84600000Y-128000000D03*
X84600000Y-129200000D03*
X78000000Y-102800000D03*
X81800000Y-102800000D03*
X85800000Y-102800000D03*
X89800000Y-102800000D03*
X93800000Y-102800000D03*
X97800000Y-102800000D03*
X101800000Y-102800000D03*
X105800000Y-102800000D03*
X109800000Y-102800000D03*
X73600000Y-113200000D03*
X77600000Y-113200000D03*
X73600000Y-128400000D03*
X97800000Y-106800000D03*
X88800000Y-112200000D03*
X100000000Y-113600000D03*
X100000000Y-110000000D03*
X100200000Y-105200000D03*
X113000000Y-113400000D03*
X113000000Y-122400000D03*
X114000000Y-125000000D03*
X86000000Y-129200000D03*
X86000000Y-128000000D03*
X86000000Y-126800000D03*
X86000000Y-125600000D03*
X93200000Y-129000000D03*
X87200000Y-119000000D03*
X114000000Y-129000000D03*
X108800000Y-132400000D03*
X104500000Y-133000000D03*
X77000000Y-132400000D03*
X82000000Y-133200000D03*
X87400000Y-133200000D03*
X92600000Y-133200000D03*
X99200000Y-133200000D03*
%TO.N,Net-(R4-Pad1)*%
X98500000Y-128000000D03*
X92000000Y-120000000D03*
%TD*%
D14*
%TO.N,Net-(R4-Pad1)*%
X98500000Y-128000000D02*
X95500000Y-125000000D01*
X95500000Y-125000000D02*
X92500000Y-125000000D01*
X92500000Y-125000000D02*
X92000000Y-124500000D01*
X92000000Y-124500000D02*
X92000000Y-120000000D01*
%TD*%
D15*
%TO.N,GND*%
G36*
X112953893Y-101207670D02*
G01*
X113390498Y-101339489D01*
X113793185Y-101553600D01*
X114146612Y-101841848D01*
X114437327Y-102193261D01*
X114654242Y-102594439D01*
X114789106Y-103030113D01*
X114840000Y-103514344D01*
X114840001Y-131467711D01*
X114792330Y-131953894D01*
X114660512Y-132390497D01*
X114446399Y-132793186D01*
X114158150Y-133146613D01*
X113806739Y-133437327D01*
X113405564Y-133654240D01*
X112969886Y-133789106D01*
X112485664Y-133840000D01*
X74032279Y-133840000D01*
X73546106Y-133792330D01*
X73109503Y-133660512D01*
X72706814Y-133446399D01*
X72353387Y-133158150D01*
X72062673Y-132806739D01*
X71845760Y-132405564D01*
X71710894Y-131969886D01*
X71660000Y-131485664D01*
X71660000Y-131329117D01*
X72265000Y-131329117D01*
X72265000Y-131670883D01*
X72331675Y-132006081D01*
X72462463Y-132321831D01*
X72652337Y-132605998D01*
X72894002Y-132847663D01*
X73178169Y-133037537D01*
X73493919Y-133168325D01*
X73829117Y-133235000D01*
X74170883Y-133235000D01*
X74506081Y-133168325D01*
X74821831Y-133037537D01*
X75105998Y-132847663D01*
X75347663Y-132605998D01*
X75537537Y-132321831D01*
X75668325Y-132006081D01*
X75735000Y-131670883D01*
X75735000Y-131329117D01*
X110765000Y-131329117D01*
X110765000Y-131670883D01*
X110831675Y-132006081D01*
X110962463Y-132321831D01*
X111152337Y-132605998D01*
X111394002Y-132847663D01*
X111678169Y-133037537D01*
X111993919Y-133168325D01*
X112329117Y-133235000D01*
X112670883Y-133235000D01*
X113006081Y-133168325D01*
X113321831Y-133037537D01*
X113605998Y-132847663D01*
X113847663Y-132605998D01*
X114037537Y-132321831D01*
X114168325Y-132006081D01*
X114235000Y-131670883D01*
X114235000Y-131329117D01*
X114168325Y-130993919D01*
X114037537Y-130678169D01*
X113847663Y-130394002D01*
X113605998Y-130152337D01*
X113321831Y-129962463D01*
X113006081Y-129831675D01*
X112670883Y-129765000D01*
X112329117Y-129765000D01*
X111993919Y-129831675D01*
X111678169Y-129962463D01*
X111394002Y-130152337D01*
X111152337Y-130394002D01*
X110962463Y-130678169D01*
X110831675Y-130993919D01*
X110765000Y-131329117D01*
X75735000Y-131329117D01*
X75668325Y-130993919D01*
X75537537Y-130678169D01*
X75347663Y-130394002D01*
X75105998Y-130152337D01*
X74821831Y-129962463D01*
X74506081Y-129831675D01*
X74170883Y-129765000D01*
X73829117Y-129765000D01*
X73493919Y-129831675D01*
X73178169Y-129962463D01*
X72894002Y-130152337D01*
X72652337Y-130394002D01*
X72462463Y-130678169D01*
X72331675Y-130993919D01*
X72265000Y-131329117D01*
X71660000Y-131329117D01*
X71660000Y-129350000D01*
X107511928Y-129350000D01*
X107524188Y-129474482D01*
X107560498Y-129594180D01*
X107619463Y-129704494D01*
X107698815Y-129801185D01*
X107795506Y-129880537D01*
X107905820Y-129939502D01*
X108025518Y-129975812D01*
X108150000Y-129988072D01*
X108714250Y-129985000D01*
X108873000Y-129826250D01*
X108873000Y-128627000D01*
X109127000Y-128627000D01*
X109127000Y-129826250D01*
X109285750Y-129985000D01*
X109850000Y-129988072D01*
X109974482Y-129975812D01*
X110094180Y-129939502D01*
X110204494Y-129880537D01*
X110301185Y-129801185D01*
X110380537Y-129704494D01*
X110439502Y-129594180D01*
X110475812Y-129474482D01*
X110488072Y-129350000D01*
X110485000Y-128785750D01*
X110326250Y-128627000D01*
X109127000Y-128627000D01*
X108873000Y-128627000D01*
X107673750Y-128627000D01*
X107515000Y-128785750D01*
X107511928Y-129350000D01*
X71660000Y-129350000D01*
X71660000Y-116049999D01*
X72161928Y-116049999D01*
X72161928Y-119950001D01*
X72178992Y-120123255D01*
X72229528Y-120289851D01*
X72311595Y-120443387D01*
X72422038Y-120577962D01*
X72556613Y-120688405D01*
X72710149Y-120770472D01*
X72876745Y-120821008D01*
X73049999Y-120838072D01*
X76950001Y-120838072D01*
X77123255Y-120821008D01*
X77289851Y-120770472D01*
X77443387Y-120688405D01*
X77577962Y-120577962D01*
X77688405Y-120443387D01*
X77770472Y-120289851D01*
X77821008Y-120123255D01*
X77838072Y-119950001D01*
X77838072Y-119898061D01*
X90965000Y-119898061D01*
X90965000Y-120101939D01*
X90990001Y-120227628D01*
X90990000Y-124450392D01*
X90985114Y-124500000D01*
X90990000Y-124549607D01*
X91004615Y-124697993D01*
X91062368Y-124888379D01*
X91156153Y-125063840D01*
X91282367Y-125217633D01*
X91320906Y-125249261D01*
X91750739Y-125679094D01*
X91782367Y-125717633D01*
X91936160Y-125843847D01*
X92111620Y-125937632D01*
X92302005Y-125995385D01*
X92500000Y-126014886D01*
X92549608Y-126010000D01*
X95081645Y-126010000D01*
X97624870Y-128553226D01*
X97696063Y-128659774D01*
X97840226Y-128803937D01*
X98009744Y-128917205D01*
X98198102Y-128995226D01*
X98398061Y-129035000D01*
X98601939Y-129035000D01*
X98801898Y-128995226D01*
X98990256Y-128917205D01*
X99159774Y-128803937D01*
X99303937Y-128659774D01*
X99417205Y-128490256D01*
X99495226Y-128301898D01*
X99535000Y-128101939D01*
X99535000Y-127898061D01*
X99495226Y-127698102D01*
X99475302Y-127650000D01*
X107511928Y-127650000D01*
X107515000Y-128214250D01*
X107673750Y-128373000D01*
X108873000Y-128373000D01*
X108873000Y-128353000D01*
X109127000Y-128353000D01*
X109127000Y-128373000D01*
X110326250Y-128373000D01*
X110485000Y-128214250D01*
X110488072Y-127650000D01*
X110475812Y-127525518D01*
X110439502Y-127405820D01*
X110380537Y-127295506D01*
X110301185Y-127198815D01*
X110204494Y-127119463D01*
X110094180Y-127060498D01*
X110021620Y-127038487D01*
X110153475Y-126906632D01*
X110315990Y-126663411D01*
X110427932Y-126393158D01*
X110485000Y-126106260D01*
X110485000Y-125813740D01*
X110427932Y-125526842D01*
X110315990Y-125256589D01*
X110153475Y-125013368D01*
X109946632Y-124806525D01*
X109703411Y-124644010D01*
X109433158Y-124532068D01*
X109146260Y-124475000D01*
X108853740Y-124475000D01*
X108566842Y-124532068D01*
X108296589Y-124644010D01*
X108053368Y-124806525D01*
X107846525Y-125013368D01*
X107684010Y-125256589D01*
X107572068Y-125526842D01*
X107515000Y-125813740D01*
X107515000Y-126106260D01*
X107572068Y-126393158D01*
X107684010Y-126663411D01*
X107846525Y-126906632D01*
X107978380Y-127038487D01*
X107905820Y-127060498D01*
X107795506Y-127119463D01*
X107698815Y-127198815D01*
X107619463Y-127295506D01*
X107560498Y-127405820D01*
X107524188Y-127525518D01*
X107511928Y-127650000D01*
X99475302Y-127650000D01*
X99417205Y-127509744D01*
X99303937Y-127340226D01*
X99159774Y-127196063D01*
X99053226Y-127124870D01*
X96249261Y-124320906D01*
X96217633Y-124282367D01*
X96063840Y-124156153D01*
X95888380Y-124062368D01*
X95697994Y-124004615D01*
X95549608Y-123990000D01*
X95500000Y-123985114D01*
X95450392Y-123990000D01*
X93010000Y-123990000D01*
X93010000Y-120227623D01*
X93035000Y-120101939D01*
X93035000Y-120000000D01*
X108921928Y-120000000D01*
X108934188Y-120124482D01*
X108970498Y-120244180D01*
X109029463Y-120354494D01*
X109108815Y-120451185D01*
X109205506Y-120530537D01*
X109315820Y-120589502D01*
X109435518Y-120625812D01*
X109560000Y-120638072D01*
X111474250Y-120635000D01*
X111633000Y-120476250D01*
X111633000Y-117927000D01*
X111887000Y-117927000D01*
X111887000Y-120476250D01*
X112045750Y-120635000D01*
X113960000Y-120638072D01*
X114084482Y-120625812D01*
X114204180Y-120589502D01*
X114314494Y-120530537D01*
X114411185Y-120451185D01*
X114490537Y-120354494D01*
X114549502Y-120244180D01*
X114585812Y-120124482D01*
X114598072Y-120000000D01*
X114595000Y-118085750D01*
X114436250Y-117927000D01*
X111887000Y-117927000D01*
X111633000Y-117927000D01*
X109083750Y-117927000D01*
X108925000Y-118085750D01*
X108921928Y-120000000D01*
X93035000Y-120000000D01*
X93035000Y-119898061D01*
X92995226Y-119698102D01*
X92917205Y-119509744D01*
X92803937Y-119340226D01*
X92659774Y-119196063D01*
X92490256Y-119082795D01*
X92301898Y-119004774D01*
X92101939Y-118965000D01*
X91898061Y-118965000D01*
X91698102Y-119004774D01*
X91509744Y-119082795D01*
X91340226Y-119196063D01*
X91196063Y-119340226D01*
X91082795Y-119509744D01*
X91004774Y-119698102D01*
X90965000Y-119898061D01*
X77838072Y-119898061D01*
X77838072Y-116049999D01*
X77821008Y-115876745D01*
X77770472Y-115710149D01*
X77711596Y-115600000D01*
X108921928Y-115600000D01*
X108925000Y-117514250D01*
X109083750Y-117673000D01*
X111633000Y-117673000D01*
X111633000Y-115123750D01*
X111887000Y-115123750D01*
X111887000Y-117673000D01*
X114436250Y-117673000D01*
X114595000Y-117514250D01*
X114598072Y-115600000D01*
X114585812Y-115475518D01*
X114549502Y-115355820D01*
X114490537Y-115245506D01*
X114411185Y-115148815D01*
X114314494Y-115069463D01*
X114204180Y-115010498D01*
X114084482Y-114974188D01*
X113960000Y-114961928D01*
X112045750Y-114965000D01*
X111887000Y-115123750D01*
X111633000Y-115123750D01*
X111474250Y-114965000D01*
X109560000Y-114961928D01*
X109435518Y-114974188D01*
X109315820Y-115010498D01*
X109205506Y-115069463D01*
X109108815Y-115148815D01*
X109029463Y-115245506D01*
X108970498Y-115355820D01*
X108934188Y-115475518D01*
X108921928Y-115600000D01*
X77711596Y-115600000D01*
X77688405Y-115556613D01*
X77577962Y-115422038D01*
X77443387Y-115311595D01*
X77289851Y-115229528D01*
X77123255Y-115178992D01*
X76950001Y-115161928D01*
X73049999Y-115161928D01*
X72876745Y-115178992D01*
X72710149Y-115229528D01*
X72556613Y-115311595D01*
X72422038Y-115422038D01*
X72311595Y-115556613D01*
X72229528Y-115710149D01*
X72178992Y-115876745D01*
X72161928Y-116049999D01*
X71660000Y-116049999D01*
X71660000Y-108920777D01*
X72165000Y-108920777D01*
X72165000Y-109479223D01*
X72273948Y-110026939D01*
X72487656Y-110542876D01*
X72797912Y-111007207D01*
X73192793Y-111402088D01*
X73657124Y-111712344D01*
X74173061Y-111926052D01*
X74720777Y-112035000D01*
X75279223Y-112035000D01*
X75826939Y-111926052D01*
X76342876Y-111712344D01*
X76807207Y-111402088D01*
X77202088Y-111007207D01*
X77512344Y-110542876D01*
X77726052Y-110026939D01*
X77835000Y-109479223D01*
X77835000Y-108920777D01*
X77795218Y-108720777D01*
X108925000Y-108720777D01*
X108925000Y-109279223D01*
X109033948Y-109826939D01*
X109247656Y-110342876D01*
X109557912Y-110807207D01*
X109952793Y-111202088D01*
X110417124Y-111512344D01*
X110933061Y-111726052D01*
X111480777Y-111835000D01*
X112039223Y-111835000D01*
X112586939Y-111726052D01*
X113102876Y-111512344D01*
X113567207Y-111202088D01*
X113962088Y-110807207D01*
X114272344Y-110342876D01*
X114486052Y-109826939D01*
X114595000Y-109279223D01*
X114595000Y-108720777D01*
X114486052Y-108173061D01*
X114272344Y-107657124D01*
X113962088Y-107192793D01*
X113567207Y-106797912D01*
X113102876Y-106487656D01*
X112586939Y-106273948D01*
X112039223Y-106165000D01*
X111480777Y-106165000D01*
X110933061Y-106273948D01*
X110417124Y-106487656D01*
X109952793Y-106797912D01*
X109557912Y-107192793D01*
X109247656Y-107657124D01*
X109033948Y-108173061D01*
X108925000Y-108720777D01*
X77795218Y-108720777D01*
X77726052Y-108373061D01*
X77512344Y-107857124D01*
X77202088Y-107392793D01*
X76807207Y-106997912D01*
X76342876Y-106687656D01*
X75826939Y-106473948D01*
X75279223Y-106365000D01*
X74720777Y-106365000D01*
X74173061Y-106473948D01*
X73657124Y-106687656D01*
X73192793Y-106997912D01*
X72797912Y-107392793D01*
X72487656Y-107857124D01*
X72273948Y-108373061D01*
X72165000Y-108920777D01*
X71660000Y-108920777D01*
X71660000Y-103532279D01*
X71679920Y-103329117D01*
X72265000Y-103329117D01*
X72265000Y-103670883D01*
X72331675Y-104006081D01*
X72462463Y-104321831D01*
X72652337Y-104605998D01*
X72894002Y-104847663D01*
X73178169Y-105037537D01*
X73493919Y-105168325D01*
X73829117Y-105235000D01*
X74170883Y-105235000D01*
X74506081Y-105168325D01*
X74821831Y-105037537D01*
X75105998Y-104847663D01*
X75347663Y-104605998D01*
X75537537Y-104321831D01*
X75668325Y-104006081D01*
X75735000Y-103670883D01*
X75735000Y-103329117D01*
X110765000Y-103329117D01*
X110765000Y-103670883D01*
X110831675Y-104006081D01*
X110962463Y-104321831D01*
X111152337Y-104605998D01*
X111394002Y-104847663D01*
X111678169Y-105037537D01*
X111993919Y-105168325D01*
X112329117Y-105235000D01*
X112670883Y-105235000D01*
X113006081Y-105168325D01*
X113321831Y-105037537D01*
X113605998Y-104847663D01*
X113847663Y-104605998D01*
X114037537Y-104321831D01*
X114168325Y-104006081D01*
X114235000Y-103670883D01*
X114235000Y-103329117D01*
X114168325Y-102993919D01*
X114037537Y-102678169D01*
X113847663Y-102394002D01*
X113605998Y-102152337D01*
X113321831Y-101962463D01*
X113006081Y-101831675D01*
X112670883Y-101765000D01*
X112329117Y-101765000D01*
X111993919Y-101831675D01*
X111678169Y-101962463D01*
X111394002Y-102152337D01*
X111152337Y-102394002D01*
X110962463Y-102678169D01*
X110831675Y-102993919D01*
X110765000Y-103329117D01*
X75735000Y-103329117D01*
X75668325Y-102993919D01*
X75537537Y-102678169D01*
X75347663Y-102394002D01*
X75105998Y-102152337D01*
X74821831Y-101962463D01*
X74506081Y-101831675D01*
X74170883Y-101765000D01*
X73829117Y-101765000D01*
X73493919Y-101831675D01*
X73178169Y-101962463D01*
X72894002Y-102152337D01*
X72652337Y-102394002D01*
X72462463Y-102678169D01*
X72331675Y-102993919D01*
X72265000Y-103329117D01*
X71679920Y-103329117D01*
X71707670Y-103046107D01*
X71839489Y-102609502D01*
X72053600Y-102206815D01*
X72341848Y-101853388D01*
X72693261Y-101562673D01*
X73094439Y-101345758D01*
X73530113Y-101210894D01*
X74014344Y-101160000D01*
X112467721Y-101160000D01*
X112953893Y-101207670D01*
G37*
X112953893Y-101207670D02*
X113390498Y-101339489D01*
X113793185Y-101553600D01*
X114146612Y-101841848D01*
X114437327Y-102193261D01*
X114654242Y-102594439D01*
X114789106Y-103030113D01*
X114840000Y-103514344D01*
X114840001Y-131467711D01*
X114792330Y-131953894D01*
X114660512Y-132390497D01*
X114446399Y-132793186D01*
X114158150Y-133146613D01*
X113806739Y-133437327D01*
X113405564Y-133654240D01*
X112969886Y-133789106D01*
X112485664Y-133840000D01*
X74032279Y-133840000D01*
X73546106Y-133792330D01*
X73109503Y-133660512D01*
X72706814Y-133446399D01*
X72353387Y-133158150D01*
X72062673Y-132806739D01*
X71845760Y-132405564D01*
X71710894Y-131969886D01*
X71660000Y-131485664D01*
X71660000Y-131329117D01*
X72265000Y-131329117D01*
X72265000Y-131670883D01*
X72331675Y-132006081D01*
X72462463Y-132321831D01*
X72652337Y-132605998D01*
X72894002Y-132847663D01*
X73178169Y-133037537D01*
X73493919Y-133168325D01*
X73829117Y-133235000D01*
X74170883Y-133235000D01*
X74506081Y-133168325D01*
X74821831Y-133037537D01*
X75105998Y-132847663D01*
X75347663Y-132605998D01*
X75537537Y-132321831D01*
X75668325Y-132006081D01*
X75735000Y-131670883D01*
X75735000Y-131329117D01*
X110765000Y-131329117D01*
X110765000Y-131670883D01*
X110831675Y-132006081D01*
X110962463Y-132321831D01*
X111152337Y-132605998D01*
X111394002Y-132847663D01*
X111678169Y-133037537D01*
X111993919Y-133168325D01*
X112329117Y-133235000D01*
X112670883Y-133235000D01*
X113006081Y-133168325D01*
X113321831Y-133037537D01*
X113605998Y-132847663D01*
X113847663Y-132605998D01*
X114037537Y-132321831D01*
X114168325Y-132006081D01*
X114235000Y-131670883D01*
X114235000Y-131329117D01*
X114168325Y-130993919D01*
X114037537Y-130678169D01*
X113847663Y-130394002D01*
X113605998Y-130152337D01*
X113321831Y-129962463D01*
X113006081Y-129831675D01*
X112670883Y-129765000D01*
X112329117Y-129765000D01*
X111993919Y-129831675D01*
X111678169Y-129962463D01*
X111394002Y-130152337D01*
X111152337Y-130394002D01*
X110962463Y-130678169D01*
X110831675Y-130993919D01*
X110765000Y-131329117D01*
X75735000Y-131329117D01*
X75668325Y-130993919D01*
X75537537Y-130678169D01*
X75347663Y-130394002D01*
X75105998Y-130152337D01*
X74821831Y-129962463D01*
X74506081Y-129831675D01*
X74170883Y-129765000D01*
X73829117Y-129765000D01*
X73493919Y-129831675D01*
X73178169Y-129962463D01*
X72894002Y-130152337D01*
X72652337Y-130394002D01*
X72462463Y-130678169D01*
X72331675Y-130993919D01*
X72265000Y-131329117D01*
X71660000Y-131329117D01*
X71660000Y-129350000D01*
X107511928Y-129350000D01*
X107524188Y-129474482D01*
X107560498Y-129594180D01*
X107619463Y-129704494D01*
X107698815Y-129801185D01*
X107795506Y-129880537D01*
X107905820Y-129939502D01*
X108025518Y-129975812D01*
X108150000Y-129988072D01*
X108714250Y-129985000D01*
X108873000Y-129826250D01*
X108873000Y-128627000D01*
X109127000Y-128627000D01*
X109127000Y-129826250D01*
X109285750Y-129985000D01*
X109850000Y-129988072D01*
X109974482Y-129975812D01*
X110094180Y-129939502D01*
X110204494Y-129880537D01*
X110301185Y-129801185D01*
X110380537Y-129704494D01*
X110439502Y-129594180D01*
X110475812Y-129474482D01*
X110488072Y-129350000D01*
X110485000Y-128785750D01*
X110326250Y-128627000D01*
X109127000Y-128627000D01*
X108873000Y-128627000D01*
X107673750Y-128627000D01*
X107515000Y-128785750D01*
X107511928Y-129350000D01*
X71660000Y-129350000D01*
X71660000Y-116049999D01*
X72161928Y-116049999D01*
X72161928Y-119950001D01*
X72178992Y-120123255D01*
X72229528Y-120289851D01*
X72311595Y-120443387D01*
X72422038Y-120577962D01*
X72556613Y-120688405D01*
X72710149Y-120770472D01*
X72876745Y-120821008D01*
X73049999Y-120838072D01*
X76950001Y-120838072D01*
X77123255Y-120821008D01*
X77289851Y-120770472D01*
X77443387Y-120688405D01*
X77577962Y-120577962D01*
X77688405Y-120443387D01*
X77770472Y-120289851D01*
X77821008Y-120123255D01*
X77838072Y-119950001D01*
X77838072Y-119898061D01*
X90965000Y-119898061D01*
X90965000Y-120101939D01*
X90990001Y-120227628D01*
X90990000Y-124450392D01*
X90985114Y-124500000D01*
X90990000Y-124549607D01*
X91004615Y-124697993D01*
X91062368Y-124888379D01*
X91156153Y-125063840D01*
X91282367Y-125217633D01*
X91320906Y-125249261D01*
X91750739Y-125679094D01*
X91782367Y-125717633D01*
X91936160Y-125843847D01*
X92111620Y-125937632D01*
X92302005Y-125995385D01*
X92500000Y-126014886D01*
X92549608Y-126010000D01*
X95081645Y-126010000D01*
X97624870Y-128553226D01*
X97696063Y-128659774D01*
X97840226Y-128803937D01*
X98009744Y-128917205D01*
X98198102Y-128995226D01*
X98398061Y-129035000D01*
X98601939Y-129035000D01*
X98801898Y-128995226D01*
X98990256Y-128917205D01*
X99159774Y-128803937D01*
X99303937Y-128659774D01*
X99417205Y-128490256D01*
X99495226Y-128301898D01*
X99535000Y-128101939D01*
X99535000Y-127898061D01*
X99495226Y-127698102D01*
X99475302Y-127650000D01*
X107511928Y-127650000D01*
X107515000Y-128214250D01*
X107673750Y-128373000D01*
X108873000Y-128373000D01*
X108873000Y-128353000D01*
X109127000Y-128353000D01*
X109127000Y-128373000D01*
X110326250Y-128373000D01*
X110485000Y-128214250D01*
X110488072Y-127650000D01*
X110475812Y-127525518D01*
X110439502Y-127405820D01*
X110380537Y-127295506D01*
X110301185Y-127198815D01*
X110204494Y-127119463D01*
X110094180Y-127060498D01*
X110021620Y-127038487D01*
X110153475Y-126906632D01*
X110315990Y-126663411D01*
X110427932Y-126393158D01*
X110485000Y-126106260D01*
X110485000Y-125813740D01*
X110427932Y-125526842D01*
X110315990Y-125256589D01*
X110153475Y-125013368D01*
X109946632Y-124806525D01*
X109703411Y-124644010D01*
X109433158Y-124532068D01*
X109146260Y-124475000D01*
X108853740Y-124475000D01*
X108566842Y-124532068D01*
X108296589Y-124644010D01*
X108053368Y-124806525D01*
X107846525Y-125013368D01*
X107684010Y-125256589D01*
X107572068Y-125526842D01*
X107515000Y-125813740D01*
X107515000Y-126106260D01*
X107572068Y-126393158D01*
X107684010Y-126663411D01*
X107846525Y-126906632D01*
X107978380Y-127038487D01*
X107905820Y-127060498D01*
X107795506Y-127119463D01*
X107698815Y-127198815D01*
X107619463Y-127295506D01*
X107560498Y-127405820D01*
X107524188Y-127525518D01*
X107511928Y-127650000D01*
X99475302Y-127650000D01*
X99417205Y-127509744D01*
X99303937Y-127340226D01*
X99159774Y-127196063D01*
X99053226Y-127124870D01*
X96249261Y-124320906D01*
X96217633Y-124282367D01*
X96063840Y-124156153D01*
X95888380Y-124062368D01*
X95697994Y-124004615D01*
X95549608Y-123990000D01*
X95500000Y-123985114D01*
X95450392Y-123990000D01*
X93010000Y-123990000D01*
X93010000Y-120227623D01*
X93035000Y-120101939D01*
X93035000Y-120000000D01*
X108921928Y-120000000D01*
X108934188Y-120124482D01*
X108970498Y-120244180D01*
X109029463Y-120354494D01*
X109108815Y-120451185D01*
X109205506Y-120530537D01*
X109315820Y-120589502D01*
X109435518Y-120625812D01*
X109560000Y-120638072D01*
X111474250Y-120635000D01*
X111633000Y-120476250D01*
X111633000Y-117927000D01*
X111887000Y-117927000D01*
X111887000Y-120476250D01*
X112045750Y-120635000D01*
X113960000Y-120638072D01*
X114084482Y-120625812D01*
X114204180Y-120589502D01*
X114314494Y-120530537D01*
X114411185Y-120451185D01*
X114490537Y-120354494D01*
X114549502Y-120244180D01*
X114585812Y-120124482D01*
X114598072Y-120000000D01*
X114595000Y-118085750D01*
X114436250Y-117927000D01*
X111887000Y-117927000D01*
X111633000Y-117927000D01*
X109083750Y-117927000D01*
X108925000Y-118085750D01*
X108921928Y-120000000D01*
X93035000Y-120000000D01*
X93035000Y-119898061D01*
X92995226Y-119698102D01*
X92917205Y-119509744D01*
X92803937Y-119340226D01*
X92659774Y-119196063D01*
X92490256Y-119082795D01*
X92301898Y-119004774D01*
X92101939Y-118965000D01*
X91898061Y-118965000D01*
X91698102Y-119004774D01*
X91509744Y-119082795D01*
X91340226Y-119196063D01*
X91196063Y-119340226D01*
X91082795Y-119509744D01*
X91004774Y-119698102D01*
X90965000Y-119898061D01*
X77838072Y-119898061D01*
X77838072Y-116049999D01*
X77821008Y-115876745D01*
X77770472Y-115710149D01*
X77711596Y-115600000D01*
X108921928Y-115600000D01*
X108925000Y-117514250D01*
X109083750Y-117673000D01*
X111633000Y-117673000D01*
X111633000Y-115123750D01*
X111887000Y-115123750D01*
X111887000Y-117673000D01*
X114436250Y-117673000D01*
X114595000Y-117514250D01*
X114598072Y-115600000D01*
X114585812Y-115475518D01*
X114549502Y-115355820D01*
X114490537Y-115245506D01*
X114411185Y-115148815D01*
X114314494Y-115069463D01*
X114204180Y-115010498D01*
X114084482Y-114974188D01*
X113960000Y-114961928D01*
X112045750Y-114965000D01*
X111887000Y-115123750D01*
X111633000Y-115123750D01*
X111474250Y-114965000D01*
X109560000Y-114961928D01*
X109435518Y-114974188D01*
X109315820Y-115010498D01*
X109205506Y-115069463D01*
X109108815Y-115148815D01*
X109029463Y-115245506D01*
X108970498Y-115355820D01*
X108934188Y-115475518D01*
X108921928Y-115600000D01*
X77711596Y-115600000D01*
X77688405Y-115556613D01*
X77577962Y-115422038D01*
X77443387Y-115311595D01*
X77289851Y-115229528D01*
X77123255Y-115178992D01*
X76950001Y-115161928D01*
X73049999Y-115161928D01*
X72876745Y-115178992D01*
X72710149Y-115229528D01*
X72556613Y-115311595D01*
X72422038Y-115422038D01*
X72311595Y-115556613D01*
X72229528Y-115710149D01*
X72178992Y-115876745D01*
X72161928Y-116049999D01*
X71660000Y-116049999D01*
X71660000Y-108920777D01*
X72165000Y-108920777D01*
X72165000Y-109479223D01*
X72273948Y-110026939D01*
X72487656Y-110542876D01*
X72797912Y-111007207D01*
X73192793Y-111402088D01*
X73657124Y-111712344D01*
X74173061Y-111926052D01*
X74720777Y-112035000D01*
X75279223Y-112035000D01*
X75826939Y-111926052D01*
X76342876Y-111712344D01*
X76807207Y-111402088D01*
X77202088Y-111007207D01*
X77512344Y-110542876D01*
X77726052Y-110026939D01*
X77835000Y-109479223D01*
X77835000Y-108920777D01*
X77795218Y-108720777D01*
X108925000Y-108720777D01*
X108925000Y-109279223D01*
X109033948Y-109826939D01*
X109247656Y-110342876D01*
X109557912Y-110807207D01*
X109952793Y-111202088D01*
X110417124Y-111512344D01*
X110933061Y-111726052D01*
X111480777Y-111835000D01*
X112039223Y-111835000D01*
X112586939Y-111726052D01*
X113102876Y-111512344D01*
X113567207Y-111202088D01*
X113962088Y-110807207D01*
X114272344Y-110342876D01*
X114486052Y-109826939D01*
X114595000Y-109279223D01*
X114595000Y-108720777D01*
X114486052Y-108173061D01*
X114272344Y-107657124D01*
X113962088Y-107192793D01*
X113567207Y-106797912D01*
X113102876Y-106487656D01*
X112586939Y-106273948D01*
X112039223Y-106165000D01*
X111480777Y-106165000D01*
X110933061Y-106273948D01*
X110417124Y-106487656D01*
X109952793Y-106797912D01*
X109557912Y-107192793D01*
X109247656Y-107657124D01*
X109033948Y-108173061D01*
X108925000Y-108720777D01*
X77795218Y-108720777D01*
X77726052Y-108373061D01*
X77512344Y-107857124D01*
X77202088Y-107392793D01*
X76807207Y-106997912D01*
X76342876Y-106687656D01*
X75826939Y-106473948D01*
X75279223Y-106365000D01*
X74720777Y-106365000D01*
X74173061Y-106473948D01*
X73657124Y-106687656D01*
X73192793Y-106997912D01*
X72797912Y-107392793D01*
X72487656Y-107857124D01*
X72273948Y-108373061D01*
X72165000Y-108920777D01*
X71660000Y-108920777D01*
X71660000Y-103532279D01*
X71679920Y-103329117D01*
X72265000Y-103329117D01*
X72265000Y-103670883D01*
X72331675Y-104006081D01*
X72462463Y-104321831D01*
X72652337Y-104605998D01*
X72894002Y-104847663D01*
X73178169Y-105037537D01*
X73493919Y-105168325D01*
X73829117Y-105235000D01*
X74170883Y-105235000D01*
X74506081Y-105168325D01*
X74821831Y-105037537D01*
X75105998Y-104847663D01*
X75347663Y-104605998D01*
X75537537Y-104321831D01*
X75668325Y-104006081D01*
X75735000Y-103670883D01*
X75735000Y-103329117D01*
X110765000Y-103329117D01*
X110765000Y-103670883D01*
X110831675Y-104006081D01*
X110962463Y-104321831D01*
X111152337Y-104605998D01*
X111394002Y-104847663D01*
X111678169Y-105037537D01*
X111993919Y-105168325D01*
X112329117Y-105235000D01*
X112670883Y-105235000D01*
X113006081Y-105168325D01*
X113321831Y-105037537D01*
X113605998Y-104847663D01*
X113847663Y-104605998D01*
X114037537Y-104321831D01*
X114168325Y-104006081D01*
X114235000Y-103670883D01*
X114235000Y-103329117D01*
X114168325Y-102993919D01*
X114037537Y-102678169D01*
X113847663Y-102394002D01*
X113605998Y-102152337D01*
X113321831Y-101962463D01*
X113006081Y-101831675D01*
X112670883Y-101765000D01*
X112329117Y-101765000D01*
X111993919Y-101831675D01*
X111678169Y-101962463D01*
X111394002Y-102152337D01*
X111152337Y-102394002D01*
X110962463Y-102678169D01*
X110831675Y-102993919D01*
X110765000Y-103329117D01*
X75735000Y-103329117D01*
X75668325Y-102993919D01*
X75537537Y-102678169D01*
X75347663Y-102394002D01*
X75105998Y-102152337D01*
X74821831Y-101962463D01*
X74506081Y-101831675D01*
X74170883Y-101765000D01*
X73829117Y-101765000D01*
X73493919Y-101831675D01*
X73178169Y-101962463D01*
X72894002Y-102152337D01*
X72652337Y-102394002D01*
X72462463Y-102678169D01*
X72331675Y-102993919D01*
X72265000Y-103329117D01*
X71679920Y-103329117D01*
X71707670Y-103046107D01*
X71839489Y-102609502D01*
X72053600Y-102206815D01*
X72341848Y-101853388D01*
X72693261Y-101562673D01*
X73094439Y-101345758D01*
X73530113Y-101210894D01*
X74014344Y-101160000D01*
X112467721Y-101160000D01*
X112953893Y-101207670D01*
%TD*%
M02*
