M48
INCH,TZ
T1C0.0118
T2C0.0157
T3C0.0394
T4C0.1181
%
G90
G05
T1
X40551Y-18504
X40630Y-18819
X40866Y-18583
X40866Y-19055
X40866Y-24488
X40945Y-24173
X41102Y-18819
X41102Y-19291
X41181Y-23937
X41181Y-24409
X41339Y-19055
X41339Y-19528
X41417Y-23701
X41417Y-24173
X41575Y-19291
X41654Y-19606
X41654Y-23465
X41654Y-23937
X41890Y-23701
X41969Y-23386
X45118Y-15984
X45118Y-16299
X45118Y-16614
X45118Y-16929
X45118Y-20236
X45118Y-20551
X45118Y-20866
X45118Y-21181
X45276Y-15748
X45276Y-17165
X45276Y-20000
X45276Y-21417
X45433Y-15984
X45433Y-16299
X45433Y-16614
X45433Y-16929
X45433Y-20236
X45433Y-20551
X45433Y-20866
X45433Y-21181
X48819Y-19685
X48819Y-23228
X48898Y-19370
X48898Y-23543
X49134Y-19134
X49134Y-19606
X49134Y-23307
X49134Y-23780
X49370Y-18898
X49370Y-19370
X49370Y-23543
X49370Y-24016
X49606Y-18661
X49606Y-19134
X49606Y-23780
X49606Y-24252
X49843Y-18898
X49843Y-24016
X49921Y-18583
X49921Y-24331
T2
X44488Y-25512
X46299Y-24671
X47087Y-27165
X48110Y-25984
T3
X40591Y-28465
X41591Y-28465
X42591Y-28465
X43591Y-28465
T4
X38780Y-15748
X51772Y-15748
T0
M30
