%TF.GenerationSoftware,KiCad,Pcbnew,5.1.6*%
%TF.CreationDate,2020-09-21T04:08:01+02:00*%
%TF.ProjectId,inulox_led_bulb,696e756c-6f78-45f6-9c65-645f62756c62,rev?*%
%TF.SameCoordinates,Original*%
%TF.FileFunction,Soldermask,Top*%
%TF.FilePolarity,Negative*%
%FSLAX46Y46*%
G04 Gerber Fmt 4.6, Leading zero omitted, Abs format (unit mm)*
G04 Created by KiCad (PCBNEW 5.1.6) date 2020-09-21 04:08:01*
%MOMM*%
%LPD*%
G01*
G04 APERTURE LIST*
%ADD10C,2.300000*%
%ADD11R,1.160000X0.750000*%
%ADD12R,0.180000X0.350000*%
%ADD13R,0.600000X0.600000*%
%ADD14O,1.800000X1.800000*%
%ADD15R,1.800000X1.800000*%
%ADD16C,0.100000*%
%ADD17R,1.400000X3.400000*%
%ADD18R,0.600000X3.400000*%
%ADD19R,0.500000X0.600000*%
G04 APERTURE END LIST*
D10*
%TO.C,REF\u002A\u002A*%
X132200000Y-73200000D03*
%TD*%
%TO.C,REF\u002A\u002A*%
X97800000Y-73200000D03*
%TD*%
%TO.C,LED +*%
G36*
G01*
X96250000Y-41994319D02*
X96250000Y-38005681D01*
G75*
G02*
X96505681Y-37750000I255681J0D01*
G01*
X100494319Y-37750000D01*
G75*
G02*
X100750000Y-38005681I0J-255681D01*
G01*
X100750000Y-41994319D01*
G75*
G02*
X100494319Y-42250000I-255681J0D01*
G01*
X96505681Y-42250000D01*
G75*
G02*
X96250000Y-41994319I0J255681D01*
G01*
G37*
%TD*%
%TO.C,LED -*%
G36*
G01*
X129250000Y-41994319D02*
X129250000Y-38005681D01*
G75*
G02*
X129505681Y-37750000I255681J0D01*
G01*
X133494319Y-37750000D01*
G75*
G02*
X133750000Y-38005681I0J-255681D01*
G01*
X133750000Y-41994319D01*
G75*
G02*
X133494319Y-42250000I-255681J0D01*
G01*
X129505681Y-42250000D01*
G75*
G02*
X129250000Y-41994319I0J255681D01*
G01*
G37*
%TD*%
D11*
%TO.C,U2*%
X116300000Y-56800000D03*
X116300000Y-55850000D03*
X116300000Y-57750000D03*
X114100000Y-57750000D03*
X114100000Y-56800000D03*
X114100000Y-55850000D03*
%TD*%
D12*
%TO.C,U1*%
X120390000Y-66175000D03*
D13*
X116900000Y-65500000D03*
X116900000Y-66300000D03*
X117700000Y-66300000D03*
X118500000Y-66300000D03*
X119300000Y-66300000D03*
X120100000Y-66300000D03*
X120100000Y-65500000D03*
X116900000Y-64700000D03*
X117700000Y-64700000D03*
X118500000Y-64700000D03*
X119300000Y-64700000D03*
X120100000Y-64700000D03*
%TD*%
%TO.C,R6*%
G36*
G01*
X118255000Y-69275000D02*
X116945000Y-69275000D01*
G75*
G02*
X116675000Y-69005000I0J270000D01*
G01*
X116675000Y-68195000D01*
G75*
G02*
X116945000Y-67925000I270000J0D01*
G01*
X118255000Y-67925000D01*
G75*
G02*
X118525000Y-68195000I0J-270000D01*
G01*
X118525000Y-69005000D01*
G75*
G02*
X118255000Y-69275000I-270000J0D01*
G01*
G37*
G36*
G01*
X118255000Y-72075000D02*
X116945000Y-72075000D01*
G75*
G02*
X116675000Y-71805000I0J270000D01*
G01*
X116675000Y-70995000D01*
G75*
G02*
X116945000Y-70725000I270000J0D01*
G01*
X118255000Y-70725000D01*
G75*
G02*
X118525000Y-70995000I0J-270000D01*
G01*
X118525000Y-71805000D01*
G75*
G02*
X118255000Y-72075000I-270000J0D01*
G01*
G37*
%TD*%
%TO.C,R4*%
G36*
G01*
X115225000Y-69315000D02*
X113915000Y-69315000D01*
G75*
G02*
X113645000Y-69045000I0J270000D01*
G01*
X113645000Y-68235000D01*
G75*
G02*
X113915000Y-67965000I270000J0D01*
G01*
X115225000Y-67965000D01*
G75*
G02*
X115495000Y-68235000I0J-270000D01*
G01*
X115495000Y-69045000D01*
G75*
G02*
X115225000Y-69315000I-270000J0D01*
G01*
G37*
G36*
G01*
X115225000Y-72115000D02*
X113915000Y-72115000D01*
G75*
G02*
X113645000Y-71845000I0J270000D01*
G01*
X113645000Y-71035000D01*
G75*
G02*
X113915000Y-70765000I270000J0D01*
G01*
X115225000Y-70765000D01*
G75*
G02*
X115495000Y-71035000I0J-270000D01*
G01*
X115495000Y-71845000D01*
G75*
G02*
X115225000Y-72115000I-270000J0D01*
G01*
G37*
%TD*%
%TO.C,R2*%
G36*
G01*
X114525000Y-63255000D02*
X114525000Y-61945000D01*
G75*
G02*
X114795000Y-61675000I270000J0D01*
G01*
X115605000Y-61675000D01*
G75*
G02*
X115875000Y-61945000I0J-270000D01*
G01*
X115875000Y-63255000D01*
G75*
G02*
X115605000Y-63525000I-270000J0D01*
G01*
X114795000Y-63525000D01*
G75*
G02*
X114525000Y-63255000I0J270000D01*
G01*
G37*
G36*
G01*
X111725000Y-63255000D02*
X111725000Y-61945000D01*
G75*
G02*
X111995000Y-61675000I270000J0D01*
G01*
X112805000Y-61675000D01*
G75*
G02*
X113075000Y-61945000I0J-270000D01*
G01*
X113075000Y-63255000D01*
G75*
G02*
X112805000Y-63525000I-270000J0D01*
G01*
X111995000Y-63525000D01*
G75*
G02*
X111725000Y-63255000I0J270000D01*
G01*
G37*
%TD*%
%TO.C,R1*%
G36*
G01*
X114525000Y-60855000D02*
X114525000Y-59545000D01*
G75*
G02*
X114795000Y-59275000I270000J0D01*
G01*
X115605000Y-59275000D01*
G75*
G02*
X115875000Y-59545000I0J-270000D01*
G01*
X115875000Y-60855000D01*
G75*
G02*
X115605000Y-61125000I-270000J0D01*
G01*
X114795000Y-61125000D01*
G75*
G02*
X114525000Y-60855000I0J270000D01*
G01*
G37*
G36*
G01*
X111725000Y-60855000D02*
X111725000Y-59545000D01*
G75*
G02*
X111995000Y-59275000I270000J0D01*
G01*
X112805000Y-59275000D01*
G75*
G02*
X113075000Y-59545000I0J-270000D01*
G01*
X113075000Y-60855000D01*
G75*
G02*
X112805000Y-61125000I-270000J0D01*
G01*
X111995000Y-61125000D01*
G75*
G02*
X111725000Y-60855000I0J270000D01*
G01*
G37*
%TD*%
D14*
%TO.C,J1*%
X110720000Y-72300000D03*
X108180000Y-72300000D03*
X105640000Y-72300000D03*
D15*
X103100000Y-72300000D03*
%TD*%
D16*
%TO.C,D6*%
G36*
X126207107Y-62197056D02*
G01*
X123802944Y-59792893D01*
X124792893Y-58802944D01*
X127197056Y-61207107D01*
X126207107Y-62197056D01*
G37*
G36*
X125500000Y-62904163D02*
G01*
X123095837Y-60500000D01*
X123520102Y-60075735D01*
X125924265Y-62479898D01*
X125500000Y-62904163D01*
G37*
G36*
X127479898Y-60924265D02*
G01*
X125075735Y-58520102D01*
X125500000Y-58095837D01*
X127904163Y-60500000D01*
X127479898Y-60924265D01*
G37*
G36*
X124227207Y-62197057D02*
G01*
X123802943Y-61772793D01*
X124156497Y-61419239D01*
X124580761Y-61843503D01*
X124227207Y-62197057D01*
G37*
G36*
X126843503Y-59580761D02*
G01*
X126419239Y-59156497D01*
X126772793Y-58802943D01*
X127197057Y-59227207D01*
X126843503Y-59580761D01*
G37*
%TD*%
%TO.C,D5*%
G36*
X127197056Y-47792893D02*
G01*
X124792893Y-50197056D01*
X123802944Y-49207107D01*
X126207107Y-46802944D01*
X127197056Y-47792893D01*
G37*
G36*
X127904163Y-48500000D02*
G01*
X125500000Y-50904163D01*
X125075735Y-50479898D01*
X127479898Y-48075735D01*
X127904163Y-48500000D01*
G37*
G36*
X125924265Y-46520102D02*
G01*
X123520102Y-48924265D01*
X123095837Y-48500000D01*
X125500000Y-46095837D01*
X125924265Y-46520102D01*
G37*
G36*
X127197057Y-49772793D02*
G01*
X126772793Y-50197057D01*
X126419239Y-49843503D01*
X126843503Y-49419239D01*
X127197057Y-49772793D01*
G37*
G36*
X124580761Y-47156497D02*
G01*
X124156497Y-47580761D01*
X123802943Y-47227207D01*
X124227207Y-46802943D01*
X124580761Y-47156497D01*
G37*
%TD*%
D17*
%TO.C,D4*%
X115000000Y-42000000D03*
D18*
X116400000Y-42000000D03*
X113600000Y-42000000D03*
D19*
X116850000Y-42000000D03*
X113150000Y-42000000D03*
%TD*%
D17*
%TO.C,D3*%
X115000000Y-52800000D03*
D18*
X116400000Y-52800000D03*
X113600000Y-52800000D03*
D19*
X116850000Y-52800000D03*
X113150000Y-52800000D03*
%TD*%
D16*
%TO.C,D2*%
G36*
X103792893Y-46802944D02*
G01*
X106197056Y-49207107D01*
X105207107Y-50197056D01*
X102802944Y-47792893D01*
X103792893Y-46802944D01*
G37*
G36*
X104500000Y-46095837D02*
G01*
X106904163Y-48500000D01*
X106479898Y-48924265D01*
X104075735Y-46520102D01*
X104500000Y-46095837D01*
G37*
G36*
X102520102Y-48075735D02*
G01*
X104924265Y-50479898D01*
X104500000Y-50904163D01*
X102095837Y-48500000D01*
X102520102Y-48075735D01*
G37*
G36*
X105772793Y-46802943D02*
G01*
X106197057Y-47227207D01*
X105843503Y-47580761D01*
X105419239Y-47156497D01*
X105772793Y-46802943D01*
G37*
G36*
X103156497Y-49419239D02*
G01*
X103580761Y-49843503D01*
X103227207Y-50197057D01*
X102802943Y-49772793D01*
X103156497Y-49419239D01*
G37*
%TD*%
%TO.C,D1*%
G36*
X103302944Y-61707107D02*
G01*
X105707107Y-59302944D01*
X106697056Y-60292893D01*
X104292893Y-62697056D01*
X103302944Y-61707107D01*
G37*
G36*
X102595837Y-61000000D02*
G01*
X105000000Y-58595837D01*
X105424265Y-59020102D01*
X103020102Y-61424265D01*
X102595837Y-61000000D01*
G37*
G36*
X104575735Y-62979898D02*
G01*
X106979898Y-60575735D01*
X107404163Y-61000000D01*
X105000000Y-63404163D01*
X104575735Y-62979898D01*
G37*
G36*
X103302943Y-59727207D02*
G01*
X103727207Y-59302943D01*
X104080761Y-59656497D01*
X103656497Y-60080761D01*
X103302943Y-59727207D01*
G37*
G36*
X105919239Y-62343503D02*
G01*
X106343503Y-61919239D01*
X106697057Y-62272793D01*
X106272793Y-62697057D01*
X105919239Y-62343503D01*
G37*
%TD*%
%TO.C,C3*%
G36*
G01*
X123475000Y-69605000D02*
X123475000Y-68295000D01*
G75*
G02*
X123745000Y-68025000I270000J0D01*
G01*
X124555000Y-68025000D01*
G75*
G02*
X124825000Y-68295000I0J-270000D01*
G01*
X124825000Y-69605000D01*
G75*
G02*
X124555000Y-69875000I-270000J0D01*
G01*
X123745000Y-69875000D01*
G75*
G02*
X123475000Y-69605000I0J270000D01*
G01*
G37*
G36*
G01*
X120675000Y-69605000D02*
X120675000Y-68295000D01*
G75*
G02*
X120945000Y-68025000I270000J0D01*
G01*
X121755000Y-68025000D01*
G75*
G02*
X122025000Y-68295000I0J-270000D01*
G01*
X122025000Y-69605000D01*
G75*
G02*
X121755000Y-69875000I-270000J0D01*
G01*
X120945000Y-69875000D01*
G75*
G02*
X120675000Y-69605000I0J270000D01*
G01*
G37*
%TD*%
%TO.C,C2*%
G36*
G01*
X123605000Y-72145000D02*
X123605000Y-70835000D01*
G75*
G02*
X123875000Y-70565000I270000J0D01*
G01*
X124685000Y-70565000D01*
G75*
G02*
X124955000Y-70835000I0J-270000D01*
G01*
X124955000Y-72145000D01*
G75*
G02*
X124685000Y-72415000I-270000J0D01*
G01*
X123875000Y-72415000D01*
G75*
G02*
X123605000Y-72145000I0J270000D01*
G01*
G37*
G36*
G01*
X120805000Y-72145000D02*
X120805000Y-70835000D01*
G75*
G02*
X121075000Y-70565000I270000J0D01*
G01*
X121885000Y-70565000D01*
G75*
G02*
X122155000Y-70835000I0J-270000D01*
G01*
X122155000Y-72145000D01*
G75*
G02*
X121885000Y-72415000I-270000J0D01*
G01*
X121075000Y-72415000D01*
G75*
G02*
X120805000Y-72145000I0J270000D01*
G01*
G37*
%TD*%
%TO.C,C1*%
G36*
G01*
X110745000Y-57125000D02*
X112055000Y-57125000D01*
G75*
G02*
X112325000Y-57395000I0J-270000D01*
G01*
X112325000Y-58205000D01*
G75*
G02*
X112055000Y-58475000I-270000J0D01*
G01*
X110745000Y-58475000D01*
G75*
G02*
X110475000Y-58205000I0J270000D01*
G01*
X110475000Y-57395000D01*
G75*
G02*
X110745000Y-57125000I270000J0D01*
G01*
G37*
G36*
G01*
X110745000Y-54325000D02*
X112055000Y-54325000D01*
G75*
G02*
X112325000Y-54595000I0J-270000D01*
G01*
X112325000Y-55405000D01*
G75*
G02*
X112055000Y-55675000I-270000J0D01*
G01*
X110745000Y-55675000D01*
G75*
G02*
X110475000Y-55405000I0J270000D01*
G01*
X110475000Y-54595000D01*
G75*
G02*
X110745000Y-54325000I270000J0D01*
G01*
G37*
%TD*%
M02*
