%TF.GenerationSoftware,KiCad,Pcbnew,5.1.6*%
%TF.CreationDate,2020-09-21T04:08:01+02:00*%
%TF.ProjectId,inulox_led_bulb,696e756c-6f78-45f6-9c65-645f62756c62,rev?*%
%TF.SameCoordinates,Original*%
%TF.FileFunction,Soldermask,Bot*%
%TF.FilePolarity,Negative*%
%FSLAX46Y46*%
G04 Gerber Fmt 4.6, Leading zero omitted, Abs format (unit mm)*
G04 Created by KiCad (PCBNEW 5.1.6) date 2020-09-21 04:08:01*
%MOMM*%
%LPD*%
G01*
G04 APERTURE LIST*
%ADD10C,2.300000*%
%ADD11O,1.800000X1.800000*%
%ADD12R,1.800000X1.800000*%
%ADD13C,0.254000*%
G04 APERTURE END LIST*
D10*
%TO.C,REF\u002A\u002A*%
X132200000Y-73200000D03*
%TD*%
%TO.C,REF\u002A\u002A*%
X97800000Y-73200000D03*
%TD*%
%TO.C,LED +*%
G36*
G01*
X96250000Y-41994319D02*
X96250000Y-38005681D01*
G75*
G02*
X96505681Y-37750000I255681J0D01*
G01*
X100494319Y-37750000D01*
G75*
G02*
X100750000Y-38005681I0J-255681D01*
G01*
X100750000Y-41994319D01*
G75*
G02*
X100494319Y-42250000I-255681J0D01*
G01*
X96505681Y-42250000D01*
G75*
G02*
X96250000Y-41994319I0J255681D01*
G01*
G37*
%TD*%
%TO.C,LED -*%
G36*
G01*
X129250000Y-41994319D02*
X129250000Y-38005681D01*
G75*
G02*
X129505681Y-37750000I255681J0D01*
G01*
X133494319Y-37750000D01*
G75*
G02*
X133750000Y-38005681I0J-255681D01*
G01*
X133750000Y-41994319D01*
G75*
G02*
X133494319Y-42250000I-255681J0D01*
G01*
X129505681Y-42250000D01*
G75*
G02*
X129250000Y-41994319I0J255681D01*
G01*
G37*
%TD*%
D11*
%TO.C,J1*%
X110720000Y-72300000D03*
X108180000Y-72300000D03*
X105640000Y-72300000D03*
D12*
X103100000Y-72300000D03*
%TD*%
D13*
G36*
X119963938Y-38322846D02*
G01*
X123140101Y-39712417D01*
X125320053Y-41099659D01*
X127899143Y-43678749D01*
X129686196Y-46657172D01*
X131074468Y-50028688D01*
X131273000Y-53403735D01*
X131273000Y-56583357D01*
X130479652Y-59558411D01*
X129288436Y-62337916D01*
X127937241Y-64268194D01*
X125256304Y-64076698D01*
X118289803Y-57110197D01*
X118270557Y-57094403D01*
X118248601Y-57082667D01*
X118224776Y-57075440D01*
X118200000Y-57073000D01*
X111400000Y-57073000D01*
X111375224Y-57075440D01*
X111351399Y-57082667D01*
X111329443Y-57094403D01*
X111310197Y-57110197D01*
X109910197Y-58510197D01*
X109894403Y-58529443D01*
X109882667Y-58551399D01*
X109875440Y-58575224D01*
X109873000Y-58600000D01*
X109873000Y-63150128D01*
X107344619Y-65873000D01*
X103652606Y-65873000D01*
X101701828Y-63922222D01*
X100117011Y-61148792D01*
X98924850Y-57373614D01*
X98527469Y-53797192D01*
X98725716Y-50823490D01*
X99716007Y-47654561D01*
X102299221Y-43680385D01*
X104879120Y-41100486D01*
X108452217Y-38916927D01*
X112423385Y-37725576D01*
X114994766Y-37527778D01*
X119963938Y-38322846D01*
G37*
X119963938Y-38322846D02*
X123140101Y-39712417D01*
X125320053Y-41099659D01*
X127899143Y-43678749D01*
X129686196Y-46657172D01*
X131074468Y-50028688D01*
X131273000Y-53403735D01*
X131273000Y-56583357D01*
X130479652Y-59558411D01*
X129288436Y-62337916D01*
X127937241Y-64268194D01*
X125256304Y-64076698D01*
X118289803Y-57110197D01*
X118270557Y-57094403D01*
X118248601Y-57082667D01*
X118224776Y-57075440D01*
X118200000Y-57073000D01*
X111400000Y-57073000D01*
X111375224Y-57075440D01*
X111351399Y-57082667D01*
X111329443Y-57094403D01*
X111310197Y-57110197D01*
X109910197Y-58510197D01*
X109894403Y-58529443D01*
X109882667Y-58551399D01*
X109875440Y-58575224D01*
X109873000Y-58600000D01*
X109873000Y-63150128D01*
X107344619Y-65873000D01*
X103652606Y-65873000D01*
X101701828Y-63922222D01*
X100117011Y-61148792D01*
X98924850Y-57373614D01*
X98527469Y-53797192D01*
X98725716Y-50823490D01*
X99716007Y-47654561D01*
X102299221Y-43680385D01*
X104879120Y-41100486D01*
X108452217Y-38916927D01*
X112423385Y-37725576D01*
X114994766Y-37527778D01*
X119963938Y-38322846D01*
M02*
