%TF.GenerationSoftware,KiCad,Pcbnew,5.1.6*%
%TF.CreationDate,2020-09-21T04:08:01+02:00*%
%TF.ProjectId,inulox_led_bulb,696e756c-6f78-45f6-9c65-645f62756c62,rev?*%
%TF.SameCoordinates,Original*%
%TF.FileFunction,Copper,L2,Bot*%
%TF.FilePolarity,Positive*%
%FSLAX46Y46*%
G04 Gerber Fmt 4.6, Leading zero omitted, Abs format (unit mm)*
G04 Created by KiCad (PCBNEW 5.1.6) date 2020-09-21 04:08:01*
%MOMM*%
%LPD*%
G01*
G04 APERTURE LIST*
%TA.AperFunction,ComponentPad*%
%ADD10O,1.700000X1.700000*%
%TD*%
%TA.AperFunction,ComponentPad*%
%ADD11R,1.700000X1.700000*%
%TD*%
%TA.AperFunction,ViaPad*%
%ADD12C,0.800000*%
%TD*%
%TA.AperFunction,ViaPad*%
%ADD13C,0.600000*%
%TD*%
%TA.AperFunction,Conductor*%
%ADD14C,0.500000*%
%TD*%
%TA.AperFunction,Conductor*%
%ADD15C,0.254000*%
%TD*%
G04 APERTURE END LIST*
%TO.P,LED +,1*%
%TO.N,Net-(D1-Pad2)*%
%TA.AperFunction,ComponentPad*%
G36*
G01*
X96300000Y-41950001D02*
X96300000Y-38049999D01*
G75*
G02*
X96549999Y-37800000I249999J0D01*
G01*
X100450001Y-37800000D01*
G75*
G02*
X100700000Y-38049999I0J-249999D01*
G01*
X100700000Y-41950001D01*
G75*
G02*
X100450001Y-42200000I-249999J0D01*
G01*
X96549999Y-42200000D01*
G75*
G02*
X96300000Y-41950001I0J249999D01*
G01*
G37*
%TD.AperFunction*%
%TD*%
%TO.P,LED -,1*%
%TO.N,Net-(D6-Pad1)*%
%TA.AperFunction,ComponentPad*%
G36*
G01*
X129300000Y-41950001D02*
X129300000Y-38049999D01*
G75*
G02*
X129549999Y-37800000I249999J0D01*
G01*
X133450001Y-37800000D01*
G75*
G02*
X133700000Y-38049999I0J-249999D01*
G01*
X133700000Y-41950001D01*
G75*
G02*
X133450001Y-42200000I-249999J0D01*
G01*
X129549999Y-42200000D01*
G75*
G02*
X129300000Y-41950001I0J249999D01*
G01*
G37*
%TD.AperFunction*%
%TD*%
D10*
%TO.P,J1,4*%
%TO.N,Net-(J1-Pad4)*%
X110720000Y-72300000D03*
%TO.P,J1,3*%
%TO.N,Net-(J1-Pad3)*%
X108180000Y-72300000D03*
%TO.P,J1,2*%
%TO.N,VCC*%
X105640000Y-72300000D03*
D11*
%TO.P,J1,1*%
%TO.N,GND*%
X103100000Y-72300000D03*
%TD*%
D12*
%TO.N,VCC*%
X122200000Y-66000000D03*
X119600000Y-69000014D03*
D13*
%TO.N,GND*%
X115000000Y-54400000D03*
X114600000Y-53800000D03*
X115400000Y-53800000D03*
X115400000Y-53000000D03*
X114600000Y-53000000D03*
X114600000Y-52200000D03*
X115400000Y-52200000D03*
X115400000Y-51400000D03*
X114600000Y-51400000D03*
X115000000Y-43600000D03*
X115400000Y-43000000D03*
X114600000Y-43000000D03*
X114600000Y-42200000D03*
X115400000Y-42200000D03*
X115400000Y-41400000D03*
X114600000Y-41400000D03*
X115400000Y-40600000D03*
X114600000Y-40600000D03*
X104000000Y-61400000D03*
X104600000Y-62000000D03*
X105200000Y-61400000D03*
X104600000Y-60800000D03*
X105200000Y-60200000D03*
X105800000Y-60800000D03*
X106400000Y-60200000D03*
X105800000Y-59600000D03*
X126000000Y-47400000D03*
X126600000Y-48000000D03*
X126000000Y-48600000D03*
X125400000Y-48000000D03*
X124800000Y-48600000D03*
X125400000Y-49200000D03*
X124800000Y-49800000D03*
X124200000Y-49200000D03*
X126000000Y-61600000D03*
X126600000Y-61000000D03*
X126000000Y-60400000D03*
X125400000Y-61000000D03*
X124800000Y-60400000D03*
X125400000Y-59800000D03*
X124800000Y-59200000D03*
X124200000Y-59800000D03*
X105600000Y-49000000D03*
X105000000Y-49600000D03*
X104400000Y-49000000D03*
X105000000Y-48400000D03*
X104400000Y-47800000D03*
X103800000Y-48400000D03*
X103200000Y-47800000D03*
X103800000Y-47200000D03*
X103800000Y-62200000D03*
X106600000Y-59400000D03*
X115000000Y-40000000D03*
X124000000Y-50000000D03*
X126800000Y-47200000D03*
X124000000Y-59000000D03*
X126800000Y-61800000D03*
X105800000Y-49800000D03*
X103000000Y-47000000D03*
X115000000Y-50800000D03*
D12*
%TO.N,Net-(J1-Pad3)*%
X117600000Y-62664956D03*
X112999999Y-64800001D03*
%TD*%
D14*
%TO.N,VCC*%
X122200000Y-68100000D02*
X121350000Y-68950000D01*
X122200000Y-66000000D02*
X122200000Y-68100000D01*
X119650014Y-68950000D02*
X119600000Y-69000014D01*
X121350000Y-68950000D02*
X119650014Y-68950000D01*
%TO.N,Net-(J1-Pad3)*%
X115135044Y-62664956D02*
X112999999Y-64800001D01*
X117600000Y-62664956D02*
X115135044Y-62664956D01*
%TD*%
D15*
%TO.N,GND*%
G36*
X125675497Y-37311730D02*
G01*
X125939312Y-37332206D01*
X126193425Y-37388101D01*
X126437339Y-37478676D01*
X126666345Y-37602184D01*
X126876019Y-37756239D01*
X127062313Y-37937861D01*
X127221646Y-38143566D01*
X127350926Y-38369363D01*
X127447661Y-38610892D01*
X127509987Y-38863510D01*
X127537153Y-39126715D01*
X127608624Y-41270861D01*
X127609230Y-41279714D01*
X127638006Y-41557541D01*
X127641060Y-41575012D01*
X127708261Y-41846121D01*
X127713720Y-41862997D01*
X127818035Y-42122100D01*
X127825792Y-42138050D01*
X127965187Y-42380093D01*
X127975091Y-42394807D01*
X128146848Y-42615070D01*
X128158704Y-42628261D01*
X128359471Y-42822448D01*
X128373050Y-42833859D01*
X128598913Y-42998182D01*
X128613949Y-43007589D01*
X128860502Y-43138843D01*
X128876702Y-43146064D01*
X129139136Y-43241689D01*
X129156183Y-43246583D01*
X129429380Y-43304715D01*
X129446944Y-43307186D01*
X129725576Y-43326690D01*
X129734444Y-43327000D01*
X131995470Y-43327000D01*
X132266504Y-43346385D01*
X132527593Y-43403181D01*
X132777940Y-43496556D01*
X133012445Y-43624605D01*
X133226338Y-43784724D01*
X133415276Y-43973662D01*
X133575395Y-44187555D01*
X133703444Y-44422060D01*
X133796819Y-44672407D01*
X133853615Y-44933496D01*
X133873000Y-45204530D01*
X133873000Y-65595470D01*
X133853615Y-65866504D01*
X133796819Y-66127593D01*
X133703444Y-66377940D01*
X133575395Y-66612445D01*
X133415276Y-66826338D01*
X133226338Y-67015276D01*
X133012445Y-67175395D01*
X132777940Y-67303444D01*
X132527593Y-67396819D01*
X132266504Y-67453615D01*
X131995470Y-67473000D01*
X129432583Y-67473000D01*
X129183989Y-67456707D01*
X128943728Y-67408916D01*
X128711768Y-67330175D01*
X128492062Y-67221829D01*
X128288384Y-67085736D01*
X128101081Y-66921475D01*
X118875589Y-57695983D01*
X118869523Y-57690302D01*
X118672833Y-57517809D01*
X118659653Y-57507696D01*
X118442130Y-57362352D01*
X118427744Y-57354046D01*
X118193111Y-57238338D01*
X118177763Y-57231981D01*
X117930034Y-57147888D01*
X117913987Y-57143588D01*
X117657401Y-57092550D01*
X117640931Y-57090382D01*
X117379879Y-57073272D01*
X117371573Y-57073000D01*
X112228427Y-57073000D01*
X112220121Y-57073272D01*
X111959069Y-57090382D01*
X111942599Y-57092550D01*
X111686013Y-57143588D01*
X111669966Y-57147888D01*
X111422237Y-57231981D01*
X111406889Y-57238338D01*
X111172256Y-57354046D01*
X111157870Y-57362352D01*
X110940347Y-57507696D01*
X110927167Y-57517809D01*
X110730477Y-57690302D01*
X110724411Y-57695983D01*
X110495983Y-57924411D01*
X110490302Y-57930477D01*
X110317809Y-58127167D01*
X110307696Y-58140347D01*
X110162352Y-58357870D01*
X110154046Y-58372256D01*
X110038338Y-58606889D01*
X110031981Y-58622237D01*
X109947888Y-58869966D01*
X109943588Y-58886013D01*
X109892550Y-59142599D01*
X109890382Y-59159069D01*
X109873272Y-59420121D01*
X109873000Y-59428427D01*
X109873000Y-62487897D01*
X109853158Y-62740017D01*
X109795291Y-62981050D01*
X109700426Y-63210072D01*
X109570912Y-63421421D01*
X109406671Y-63613723D01*
X108951756Y-64068638D01*
X108949157Y-64071315D01*
X108868552Y-64156801D01*
X108866033Y-64159553D01*
X107904736Y-65241013D01*
X107713237Y-65428122D01*
X107501001Y-65583882D01*
X107269027Y-65708337D01*
X107021881Y-65799038D01*
X106764476Y-65854181D01*
X106497397Y-65873000D01*
X98004530Y-65873000D01*
X97733496Y-65853615D01*
X97472407Y-65796819D01*
X97222060Y-65703444D01*
X96987555Y-65575395D01*
X96773662Y-65415276D01*
X96584724Y-65226338D01*
X96424605Y-65012445D01*
X96296556Y-64777940D01*
X96203181Y-64527593D01*
X96146385Y-64266504D01*
X96127000Y-63995470D01*
X96127000Y-45204530D01*
X96146385Y-44933496D01*
X96203181Y-44672407D01*
X96296556Y-44422060D01*
X96424605Y-44187555D01*
X96584724Y-43973662D01*
X96773662Y-43784724D01*
X96987555Y-43624605D01*
X97222060Y-43496556D01*
X97472407Y-43403181D01*
X97733496Y-43346385D01*
X98004530Y-43327000D01*
X100400000Y-43327000D01*
X100409060Y-43326676D01*
X100693690Y-43306319D01*
X100711626Y-43303741D01*
X100990461Y-43243084D01*
X101007847Y-43237979D01*
X101275212Y-43138257D01*
X101291695Y-43130729D01*
X101542147Y-42993972D01*
X101557390Y-42984176D01*
X101785829Y-42813168D01*
X101799524Y-42801302D01*
X102001302Y-42599524D01*
X102013168Y-42585829D01*
X102184176Y-42357390D01*
X102193972Y-42342147D01*
X102330729Y-42091695D01*
X102338257Y-42075212D01*
X102437979Y-41807847D01*
X102443084Y-41790461D01*
X102503741Y-41511626D01*
X102506319Y-41493690D01*
X102526676Y-41209060D01*
X102527000Y-41200000D01*
X102527000Y-39020493D01*
X102546582Y-38748088D01*
X102603946Y-38485752D01*
X102698245Y-38234315D01*
X102827536Y-37998951D01*
X102989163Y-37784496D01*
X103179793Y-37595374D01*
X103395528Y-37435450D01*
X103631908Y-37308032D01*
X103884085Y-37215733D01*
X104146876Y-37160449D01*
X104419418Y-37143031D01*
X125675497Y-37311730D01*
G37*
X125675497Y-37311730D02*
X125939312Y-37332206D01*
X126193425Y-37388101D01*
X126437339Y-37478676D01*
X126666345Y-37602184D01*
X126876019Y-37756239D01*
X127062313Y-37937861D01*
X127221646Y-38143566D01*
X127350926Y-38369363D01*
X127447661Y-38610892D01*
X127509987Y-38863510D01*
X127537153Y-39126715D01*
X127608624Y-41270861D01*
X127609230Y-41279714D01*
X127638006Y-41557541D01*
X127641060Y-41575012D01*
X127708261Y-41846121D01*
X127713720Y-41862997D01*
X127818035Y-42122100D01*
X127825792Y-42138050D01*
X127965187Y-42380093D01*
X127975091Y-42394807D01*
X128146848Y-42615070D01*
X128158704Y-42628261D01*
X128359471Y-42822448D01*
X128373050Y-42833859D01*
X128598913Y-42998182D01*
X128613949Y-43007589D01*
X128860502Y-43138843D01*
X128876702Y-43146064D01*
X129139136Y-43241689D01*
X129156183Y-43246583D01*
X129429380Y-43304715D01*
X129446944Y-43307186D01*
X129725576Y-43326690D01*
X129734444Y-43327000D01*
X131995470Y-43327000D01*
X132266504Y-43346385D01*
X132527593Y-43403181D01*
X132777940Y-43496556D01*
X133012445Y-43624605D01*
X133226338Y-43784724D01*
X133415276Y-43973662D01*
X133575395Y-44187555D01*
X133703444Y-44422060D01*
X133796819Y-44672407D01*
X133853615Y-44933496D01*
X133873000Y-45204530D01*
X133873000Y-65595470D01*
X133853615Y-65866504D01*
X133796819Y-66127593D01*
X133703444Y-66377940D01*
X133575395Y-66612445D01*
X133415276Y-66826338D01*
X133226338Y-67015276D01*
X133012445Y-67175395D01*
X132777940Y-67303444D01*
X132527593Y-67396819D01*
X132266504Y-67453615D01*
X131995470Y-67473000D01*
X129432583Y-67473000D01*
X129183989Y-67456707D01*
X128943728Y-67408916D01*
X128711768Y-67330175D01*
X128492062Y-67221829D01*
X128288384Y-67085736D01*
X128101081Y-66921475D01*
X118875589Y-57695983D01*
X118869523Y-57690302D01*
X118672833Y-57517809D01*
X118659653Y-57507696D01*
X118442130Y-57362352D01*
X118427744Y-57354046D01*
X118193111Y-57238338D01*
X118177763Y-57231981D01*
X117930034Y-57147888D01*
X117913987Y-57143588D01*
X117657401Y-57092550D01*
X117640931Y-57090382D01*
X117379879Y-57073272D01*
X117371573Y-57073000D01*
X112228427Y-57073000D01*
X112220121Y-57073272D01*
X111959069Y-57090382D01*
X111942599Y-57092550D01*
X111686013Y-57143588D01*
X111669966Y-57147888D01*
X111422237Y-57231981D01*
X111406889Y-57238338D01*
X111172256Y-57354046D01*
X111157870Y-57362352D01*
X110940347Y-57507696D01*
X110927167Y-57517809D01*
X110730477Y-57690302D01*
X110724411Y-57695983D01*
X110495983Y-57924411D01*
X110490302Y-57930477D01*
X110317809Y-58127167D01*
X110307696Y-58140347D01*
X110162352Y-58357870D01*
X110154046Y-58372256D01*
X110038338Y-58606889D01*
X110031981Y-58622237D01*
X109947888Y-58869966D01*
X109943588Y-58886013D01*
X109892550Y-59142599D01*
X109890382Y-59159069D01*
X109873272Y-59420121D01*
X109873000Y-59428427D01*
X109873000Y-62487897D01*
X109853158Y-62740017D01*
X109795291Y-62981050D01*
X109700426Y-63210072D01*
X109570912Y-63421421D01*
X109406671Y-63613723D01*
X108951756Y-64068638D01*
X108949157Y-64071315D01*
X108868552Y-64156801D01*
X108866033Y-64159553D01*
X107904736Y-65241013D01*
X107713237Y-65428122D01*
X107501001Y-65583882D01*
X107269027Y-65708337D01*
X107021881Y-65799038D01*
X106764476Y-65854181D01*
X106497397Y-65873000D01*
X98004530Y-65873000D01*
X97733496Y-65853615D01*
X97472407Y-65796819D01*
X97222060Y-65703444D01*
X96987555Y-65575395D01*
X96773662Y-65415276D01*
X96584724Y-65226338D01*
X96424605Y-65012445D01*
X96296556Y-64777940D01*
X96203181Y-64527593D01*
X96146385Y-64266504D01*
X96127000Y-63995470D01*
X96127000Y-45204530D01*
X96146385Y-44933496D01*
X96203181Y-44672407D01*
X96296556Y-44422060D01*
X96424605Y-44187555D01*
X96584724Y-43973662D01*
X96773662Y-43784724D01*
X96987555Y-43624605D01*
X97222060Y-43496556D01*
X97472407Y-43403181D01*
X97733496Y-43346385D01*
X98004530Y-43327000D01*
X100400000Y-43327000D01*
X100409060Y-43326676D01*
X100693690Y-43306319D01*
X100711626Y-43303741D01*
X100990461Y-43243084D01*
X101007847Y-43237979D01*
X101275212Y-43138257D01*
X101291695Y-43130729D01*
X101542147Y-42993972D01*
X101557390Y-42984176D01*
X101785829Y-42813168D01*
X101799524Y-42801302D01*
X102001302Y-42599524D01*
X102013168Y-42585829D01*
X102184176Y-42357390D01*
X102193972Y-42342147D01*
X102330729Y-42091695D01*
X102338257Y-42075212D01*
X102437979Y-41807847D01*
X102443084Y-41790461D01*
X102503741Y-41511626D01*
X102506319Y-41493690D01*
X102526676Y-41209060D01*
X102527000Y-41200000D01*
X102527000Y-39020493D01*
X102546582Y-38748088D01*
X102603946Y-38485752D01*
X102698245Y-38234315D01*
X102827536Y-37998951D01*
X102989163Y-37784496D01*
X103179793Y-37595374D01*
X103395528Y-37435450D01*
X103631908Y-37308032D01*
X103884085Y-37215733D01*
X104146876Y-37160449D01*
X104419418Y-37143031D01*
X125675497Y-37311730D01*
%TD*%
M02*
