%TF.GenerationSoftware,KiCad,Pcbnew,5.1.6*%
%TF.CreationDate,2020-09-21T04:08:01+02:00*%
%TF.ProjectId,inulox_led_bulb,696e756c-6f78-45f6-9c65-645f62756c62,rev?*%
%TF.SameCoordinates,Original*%
%TF.FileFunction,Copper,L1,Top*%
%TF.FilePolarity,Positive*%
%FSLAX46Y46*%
G04 Gerber Fmt 4.6, Leading zero omitted, Abs format (unit mm)*
G04 Created by KiCad (PCBNEW 5.1.6) date 2020-09-21 04:08:01*
%MOMM*%
%LPD*%
G01*
G04 APERTURE LIST*
%TA.AperFunction,SMDPad,CuDef*%
%ADD10R,1.060000X0.650000*%
%TD*%
%TA.AperFunction,SMDPad,CuDef*%
%ADD11R,0.080000X0.250000*%
%TD*%
%TA.AperFunction,SMDPad,CuDef*%
%ADD12R,0.500000X0.500000*%
%TD*%
%TA.AperFunction,ComponentPad*%
%ADD13O,1.700000X1.700000*%
%TD*%
%TA.AperFunction,ComponentPad*%
%ADD14R,1.700000X1.700000*%
%TD*%
%TA.AperFunction,SMDPad,CuDef*%
%ADD15C,0.100000*%
%TD*%
%TA.AperFunction,SMDPad,CuDef*%
%ADD16R,1.300000X3.300000*%
%TD*%
%TA.AperFunction,SMDPad,CuDef*%
%ADD17R,0.500000X3.300000*%
%TD*%
%TA.AperFunction,SMDPad,CuDef*%
%ADD18R,0.400000X0.500000*%
%TD*%
%TA.AperFunction,ViaPad*%
%ADD19C,0.800000*%
%TD*%
%TA.AperFunction,ViaPad*%
%ADD20C,0.600000*%
%TD*%
%TA.AperFunction,Conductor*%
%ADD21C,0.500000*%
%TD*%
%TA.AperFunction,Conductor*%
%ADD22C,0.750000*%
%TD*%
%TA.AperFunction,Conductor*%
%ADD23C,1.500000*%
%TD*%
%TA.AperFunction,Conductor*%
%ADD24C,0.250000*%
%TD*%
%TA.AperFunction,Conductor*%
%ADD25C,0.254000*%
%TD*%
G04 APERTURE END LIST*
%TO.P,LED +,1*%
%TO.N,Net-(D1-Pad2)*%
%TA.AperFunction,ComponentPad*%
G36*
G01*
X96300000Y-41950001D02*
X96300000Y-38049999D01*
G75*
G02*
X96549999Y-37800000I249999J0D01*
G01*
X100450001Y-37800000D01*
G75*
G02*
X100700000Y-38049999I0J-249999D01*
G01*
X100700000Y-41950001D01*
G75*
G02*
X100450001Y-42200000I-249999J0D01*
G01*
X96549999Y-42200000D01*
G75*
G02*
X96300000Y-41950001I0J249999D01*
G01*
G37*
%TD.AperFunction*%
%TD*%
%TO.P,LED -,1*%
%TO.N,Net-(D6-Pad1)*%
%TA.AperFunction,ComponentPad*%
G36*
G01*
X129300000Y-41950001D02*
X129300000Y-38049999D01*
G75*
G02*
X129549999Y-37800000I249999J0D01*
G01*
X133450001Y-37800000D01*
G75*
G02*
X133700000Y-38049999I0J-249999D01*
G01*
X133700000Y-41950001D01*
G75*
G02*
X133450001Y-42200000I-249999J0D01*
G01*
X129549999Y-42200000D01*
G75*
G02*
X129300000Y-41950001I0J249999D01*
G01*
G37*
%TD.AperFunction*%
%TD*%
D10*
%TO.P,U2,5*%
%TO.N,Net-(U2-Pad5)*%
X116300000Y-56800000D03*
%TO.P,U2,6*%
%TO.N,Net-(J1-Pad4)*%
X116300000Y-55850000D03*
%TO.P,U2,4*%
%TO.N,Net-(J1-Pad3)*%
X116300000Y-57750000D03*
%TO.P,U2,3*%
%TO.N,VCC*%
X114100000Y-57750000D03*
%TO.P,U2,2*%
%TO.N,GND*%
X114100000Y-56800000D03*
%TO.P,U2,1*%
X114100000Y-55850000D03*
%TD*%
D11*
%TO.P,U1,1*%
%TO.N,VCC*%
X120390000Y-66175000D03*
D12*
%TO.P,U1,6*%
%TO.N,GND*%
X116900000Y-65500000D03*
%TO.P,U1,5*%
%TO.N,Net-(R6-Pad2)*%
X116900000Y-66300000D03*
%TO.P,U1,4*%
%TO.N,GND*%
X117700000Y-66300000D03*
%TO.P,U1,3*%
X118500000Y-66300000D03*
%TO.P,U1,2*%
X119300000Y-66300000D03*
%TO.P,U1,1*%
%TO.N,VCC*%
X120100000Y-66300000D03*
%TO.P,U1,12*%
%TO.N,GND*%
X120100000Y-65500000D03*
%TO.P,U1,7*%
%TO.N,Net-(R4-Pad2)*%
X116900000Y-64700000D03*
%TO.P,U1,8*%
%TO.N,Net-(U1-Pad8)*%
X117700000Y-64700000D03*
%TO.P,U1,9*%
%TO.N,Net-(J1-Pad4)*%
X118500000Y-64700000D03*
%TO.P,U1,10*%
%TO.N,Net-(J1-Pad3)*%
X119300000Y-64700000D03*
%TO.P,U1,11*%
%TO.N,VCC*%
X120100000Y-64700000D03*
%TD*%
%TO.P,R6,2*%
%TO.N,Net-(R6-Pad2)*%
%TA.AperFunction,SMDPad,CuDef*%
G36*
G01*
X118225000Y-69225000D02*
X116975000Y-69225000D01*
G75*
G02*
X116725000Y-68975000I0J250000D01*
G01*
X116725000Y-68225000D01*
G75*
G02*
X116975000Y-67975000I250000J0D01*
G01*
X118225000Y-67975000D01*
G75*
G02*
X118475000Y-68225000I0J-250000D01*
G01*
X118475000Y-68975000D01*
G75*
G02*
X118225000Y-69225000I-250000J0D01*
G01*
G37*
%TD.AperFunction*%
%TO.P,R6,1*%
%TO.N,VCC*%
%TA.AperFunction,SMDPad,CuDef*%
G36*
G01*
X118225000Y-72025000D02*
X116975000Y-72025000D01*
G75*
G02*
X116725000Y-71775000I0J250000D01*
G01*
X116725000Y-71025000D01*
G75*
G02*
X116975000Y-70775000I250000J0D01*
G01*
X118225000Y-70775000D01*
G75*
G02*
X118475000Y-71025000I0J-250000D01*
G01*
X118475000Y-71775000D01*
G75*
G02*
X118225000Y-72025000I-250000J0D01*
G01*
G37*
%TD.AperFunction*%
%TD*%
%TO.P,R4,2*%
%TO.N,Net-(R4-Pad2)*%
%TA.AperFunction,SMDPad,CuDef*%
G36*
G01*
X115195000Y-69265000D02*
X113945000Y-69265000D01*
G75*
G02*
X113695000Y-69015000I0J250000D01*
G01*
X113695000Y-68265000D01*
G75*
G02*
X113945000Y-68015000I250000J0D01*
G01*
X115195000Y-68015000D01*
G75*
G02*
X115445000Y-68265000I0J-250000D01*
G01*
X115445000Y-69015000D01*
G75*
G02*
X115195000Y-69265000I-250000J0D01*
G01*
G37*
%TD.AperFunction*%
%TO.P,R4,1*%
%TO.N,VCC*%
%TA.AperFunction,SMDPad,CuDef*%
G36*
G01*
X115195000Y-72065000D02*
X113945000Y-72065000D01*
G75*
G02*
X113695000Y-71815000I0J250000D01*
G01*
X113695000Y-71065000D01*
G75*
G02*
X113945000Y-70815000I250000J0D01*
G01*
X115195000Y-70815000D01*
G75*
G02*
X115445000Y-71065000I0J-250000D01*
G01*
X115445000Y-71815000D01*
G75*
G02*
X115195000Y-72065000I-250000J0D01*
G01*
G37*
%TD.AperFunction*%
%TD*%
%TO.P,R2,2*%
%TO.N,Net-(J1-Pad3)*%
%TA.AperFunction,SMDPad,CuDef*%
G36*
G01*
X114575000Y-63225000D02*
X114575000Y-61975000D01*
G75*
G02*
X114825000Y-61725000I250000J0D01*
G01*
X115575000Y-61725000D01*
G75*
G02*
X115825000Y-61975000I0J-250000D01*
G01*
X115825000Y-63225000D01*
G75*
G02*
X115575000Y-63475000I-250000J0D01*
G01*
X114825000Y-63475000D01*
G75*
G02*
X114575000Y-63225000I0J250000D01*
G01*
G37*
%TD.AperFunction*%
%TO.P,R2,1*%
%TO.N,VCC*%
%TA.AperFunction,SMDPad,CuDef*%
G36*
G01*
X111775000Y-63225000D02*
X111775000Y-61975000D01*
G75*
G02*
X112025000Y-61725000I250000J0D01*
G01*
X112775000Y-61725000D01*
G75*
G02*
X113025000Y-61975000I0J-250000D01*
G01*
X113025000Y-63225000D01*
G75*
G02*
X112775000Y-63475000I-250000J0D01*
G01*
X112025000Y-63475000D01*
G75*
G02*
X111775000Y-63225000I0J250000D01*
G01*
G37*
%TD.AperFunction*%
%TD*%
%TO.P,R1,2*%
%TO.N,Net-(J1-Pad4)*%
%TA.AperFunction,SMDPad,CuDef*%
G36*
G01*
X114575000Y-60825000D02*
X114575000Y-59575000D01*
G75*
G02*
X114825000Y-59325000I250000J0D01*
G01*
X115575000Y-59325000D01*
G75*
G02*
X115825000Y-59575000I0J-250000D01*
G01*
X115825000Y-60825000D01*
G75*
G02*
X115575000Y-61075000I-250000J0D01*
G01*
X114825000Y-61075000D01*
G75*
G02*
X114575000Y-60825000I0J250000D01*
G01*
G37*
%TD.AperFunction*%
%TO.P,R1,1*%
%TO.N,VCC*%
%TA.AperFunction,SMDPad,CuDef*%
G36*
G01*
X111775000Y-60825000D02*
X111775000Y-59575000D01*
G75*
G02*
X112025000Y-59325000I250000J0D01*
G01*
X112775000Y-59325000D01*
G75*
G02*
X113025000Y-59575000I0J-250000D01*
G01*
X113025000Y-60825000D01*
G75*
G02*
X112775000Y-61075000I-250000J0D01*
G01*
X112025000Y-61075000D01*
G75*
G02*
X111775000Y-60825000I0J250000D01*
G01*
G37*
%TD.AperFunction*%
%TD*%
D13*
%TO.P,J1,4*%
%TO.N,Net-(J1-Pad4)*%
X110720000Y-72300000D03*
%TO.P,J1,3*%
%TO.N,Net-(J1-Pad3)*%
X108180000Y-72300000D03*
%TO.P,J1,2*%
%TO.N,VCC*%
X105640000Y-72300000D03*
D14*
%TO.P,J1,1*%
%TO.N,GND*%
X103100000Y-72300000D03*
%TD*%
%TA.AperFunction,SMDPad,CuDef*%
D15*
%TO.P,D6,*%
%TO.N,GND*%
G36*
X126207107Y-62126346D02*
G01*
X123873654Y-59792893D01*
X124792893Y-58873654D01*
X127126346Y-61207107D01*
X126207107Y-62126346D01*
G37*
%TD.AperFunction*%
%TA.AperFunction,SMDPad,CuDef*%
%TO.P,D6,1*%
%TO.N,Net-(D6-Pad1)*%
G36*
X125500000Y-62833452D02*
G01*
X123166548Y-60500000D01*
X123520102Y-60146446D01*
X125853554Y-62479898D01*
X125500000Y-62833452D01*
G37*
%TD.AperFunction*%
%TA.AperFunction,SMDPad,CuDef*%
%TO.P,D6,2*%
%TO.N,Net-(D5-Pad1)*%
G36*
X127479898Y-60853554D02*
G01*
X125146446Y-58520102D01*
X125500000Y-58166548D01*
X127833452Y-60500000D01*
X127479898Y-60853554D01*
G37*
%TD.AperFunction*%
%TA.AperFunction,SMDPad,CuDef*%
%TO.P,D6,1*%
%TO.N,Net-(D6-Pad1)*%
G36*
X124227207Y-62126346D02*
G01*
X123873654Y-61772793D01*
X124156497Y-61489950D01*
X124510050Y-61843503D01*
X124227207Y-62126346D01*
G37*
%TD.AperFunction*%
%TA.AperFunction,SMDPad,CuDef*%
%TO.P,D6,2*%
%TO.N,Net-(D5-Pad1)*%
G36*
X126843503Y-59510050D02*
G01*
X126489950Y-59156497D01*
X126772793Y-58873654D01*
X127126346Y-59227207D01*
X126843503Y-59510050D01*
G37*
%TD.AperFunction*%
%TD*%
%TA.AperFunction,SMDPad,CuDef*%
%TO.P,D5,*%
%TO.N,GND*%
G36*
X127126346Y-47792893D02*
G01*
X124792893Y-50126346D01*
X123873654Y-49207107D01*
X126207107Y-46873654D01*
X127126346Y-47792893D01*
G37*
%TD.AperFunction*%
%TA.AperFunction,SMDPad,CuDef*%
%TO.P,D5,1*%
%TO.N,Net-(D5-Pad1)*%
G36*
X127833452Y-48500000D02*
G01*
X125500000Y-50833452D01*
X125146446Y-50479898D01*
X127479898Y-48146446D01*
X127833452Y-48500000D01*
G37*
%TD.AperFunction*%
%TA.AperFunction,SMDPad,CuDef*%
%TO.P,D5,2*%
%TO.N,Net-(D4-Pad1)*%
G36*
X125853554Y-46520102D02*
G01*
X123520102Y-48853554D01*
X123166548Y-48500000D01*
X125500000Y-46166548D01*
X125853554Y-46520102D01*
G37*
%TD.AperFunction*%
%TA.AperFunction,SMDPad,CuDef*%
%TO.P,D5,1*%
%TO.N,Net-(D5-Pad1)*%
G36*
X127126346Y-49772793D02*
G01*
X126772793Y-50126346D01*
X126489950Y-49843503D01*
X126843503Y-49489950D01*
X127126346Y-49772793D01*
G37*
%TD.AperFunction*%
%TA.AperFunction,SMDPad,CuDef*%
%TO.P,D5,2*%
%TO.N,Net-(D4-Pad1)*%
G36*
X124510050Y-47156497D02*
G01*
X124156497Y-47510050D01*
X123873654Y-47227207D01*
X124227207Y-46873654D01*
X124510050Y-47156497D01*
G37*
%TD.AperFunction*%
%TD*%
D16*
%TO.P,D4,*%
%TO.N,GND*%
X115000000Y-42000000D03*
D17*
%TO.P,D4,1*%
%TO.N,Net-(D4-Pad1)*%
X116400000Y-42000000D03*
%TO.P,D4,2*%
%TO.N,Net-(D3-Pad1)*%
X113600000Y-42000000D03*
D18*
%TO.P,D4,1*%
%TO.N,Net-(D4-Pad1)*%
X116850000Y-42000000D03*
%TO.P,D4,2*%
%TO.N,Net-(D3-Pad1)*%
X113150000Y-42000000D03*
%TD*%
D16*
%TO.P,D3,*%
%TO.N,GND*%
X115000000Y-52800000D03*
D17*
%TO.P,D3,1*%
%TO.N,Net-(D3-Pad1)*%
X116400000Y-52800000D03*
%TO.P,D3,2*%
%TO.N,Net-(D2-Pad1)*%
X113600000Y-52800000D03*
D18*
%TO.P,D3,1*%
%TO.N,Net-(D3-Pad1)*%
X116850000Y-52800000D03*
%TO.P,D3,2*%
%TO.N,Net-(D2-Pad1)*%
X113150000Y-52800000D03*
%TD*%
%TA.AperFunction,SMDPad,CuDef*%
D15*
%TO.P,D2,*%
%TO.N,GND*%
G36*
X103792893Y-46873654D02*
G01*
X106126346Y-49207107D01*
X105207107Y-50126346D01*
X102873654Y-47792893D01*
X103792893Y-46873654D01*
G37*
%TD.AperFunction*%
%TA.AperFunction,SMDPad,CuDef*%
%TO.P,D2,1*%
%TO.N,Net-(D2-Pad1)*%
G36*
X104500000Y-46166548D02*
G01*
X106833452Y-48500000D01*
X106479898Y-48853554D01*
X104146446Y-46520102D01*
X104500000Y-46166548D01*
G37*
%TD.AperFunction*%
%TA.AperFunction,SMDPad,CuDef*%
%TO.P,D2,2*%
%TO.N,Net-(D1-Pad1)*%
G36*
X102520102Y-48146446D02*
G01*
X104853554Y-50479898D01*
X104500000Y-50833452D01*
X102166548Y-48500000D01*
X102520102Y-48146446D01*
G37*
%TD.AperFunction*%
%TA.AperFunction,SMDPad,CuDef*%
%TO.P,D2,1*%
%TO.N,Net-(D2-Pad1)*%
G36*
X105772793Y-46873654D02*
G01*
X106126346Y-47227207D01*
X105843503Y-47510050D01*
X105489950Y-47156497D01*
X105772793Y-46873654D01*
G37*
%TD.AperFunction*%
%TA.AperFunction,SMDPad,CuDef*%
%TO.P,D2,2*%
%TO.N,Net-(D1-Pad1)*%
G36*
X103156497Y-49489950D02*
G01*
X103510050Y-49843503D01*
X103227207Y-50126346D01*
X102873654Y-49772793D01*
X103156497Y-49489950D01*
G37*
%TD.AperFunction*%
%TD*%
%TA.AperFunction,SMDPad,CuDef*%
%TO.P,D1,*%
%TO.N,GND*%
G36*
X103373654Y-61707107D02*
G01*
X105707107Y-59373654D01*
X106626346Y-60292893D01*
X104292893Y-62626346D01*
X103373654Y-61707107D01*
G37*
%TD.AperFunction*%
%TA.AperFunction,SMDPad,CuDef*%
%TO.P,D1,1*%
%TO.N,Net-(D1-Pad1)*%
G36*
X102666548Y-61000000D02*
G01*
X105000000Y-58666548D01*
X105353554Y-59020102D01*
X103020102Y-61353554D01*
X102666548Y-61000000D01*
G37*
%TD.AperFunction*%
%TA.AperFunction,SMDPad,CuDef*%
%TO.P,D1,2*%
%TO.N,Net-(D1-Pad2)*%
G36*
X104646446Y-62979898D02*
G01*
X106979898Y-60646446D01*
X107333452Y-61000000D01*
X105000000Y-63333452D01*
X104646446Y-62979898D01*
G37*
%TD.AperFunction*%
%TA.AperFunction,SMDPad,CuDef*%
%TO.P,D1,1*%
%TO.N,Net-(D1-Pad1)*%
G36*
X103373654Y-59727207D02*
G01*
X103727207Y-59373654D01*
X104010050Y-59656497D01*
X103656497Y-60010050D01*
X103373654Y-59727207D01*
G37*
%TD.AperFunction*%
%TA.AperFunction,SMDPad,CuDef*%
%TO.P,D1,2*%
%TO.N,Net-(D1-Pad2)*%
G36*
X105989950Y-62343503D02*
G01*
X106343503Y-61989950D01*
X106626346Y-62272793D01*
X106272793Y-62626346D01*
X105989950Y-62343503D01*
G37*
%TD.AperFunction*%
%TD*%
%TO.P,C3,2*%
%TO.N,GND*%
%TA.AperFunction,SMDPad,CuDef*%
G36*
G01*
X123525000Y-69575000D02*
X123525000Y-68325000D01*
G75*
G02*
X123775000Y-68075000I250000J0D01*
G01*
X124525000Y-68075000D01*
G75*
G02*
X124775000Y-68325000I0J-250000D01*
G01*
X124775000Y-69575000D01*
G75*
G02*
X124525000Y-69825000I-250000J0D01*
G01*
X123775000Y-69825000D01*
G75*
G02*
X123525000Y-69575000I0J250000D01*
G01*
G37*
%TD.AperFunction*%
%TO.P,C3,1*%
%TO.N,VCC*%
%TA.AperFunction,SMDPad,CuDef*%
G36*
G01*
X120725000Y-69575000D02*
X120725000Y-68325000D01*
G75*
G02*
X120975000Y-68075000I250000J0D01*
G01*
X121725000Y-68075000D01*
G75*
G02*
X121975000Y-68325000I0J-250000D01*
G01*
X121975000Y-69575000D01*
G75*
G02*
X121725000Y-69825000I-250000J0D01*
G01*
X120975000Y-69825000D01*
G75*
G02*
X120725000Y-69575000I0J250000D01*
G01*
G37*
%TD.AperFunction*%
%TD*%
%TO.P,C2,2*%
%TO.N,GND*%
%TA.AperFunction,SMDPad,CuDef*%
G36*
G01*
X123655000Y-72115000D02*
X123655000Y-70865000D01*
G75*
G02*
X123905000Y-70615000I250000J0D01*
G01*
X124655000Y-70615000D01*
G75*
G02*
X124905000Y-70865000I0J-250000D01*
G01*
X124905000Y-72115000D01*
G75*
G02*
X124655000Y-72365000I-250000J0D01*
G01*
X123905000Y-72365000D01*
G75*
G02*
X123655000Y-72115000I0J250000D01*
G01*
G37*
%TD.AperFunction*%
%TO.P,C2,1*%
%TO.N,VCC*%
%TA.AperFunction,SMDPad,CuDef*%
G36*
G01*
X120855000Y-72115000D02*
X120855000Y-70865000D01*
G75*
G02*
X121105000Y-70615000I250000J0D01*
G01*
X121855000Y-70615000D01*
G75*
G02*
X122105000Y-70865000I0J-250000D01*
G01*
X122105000Y-72115000D01*
G75*
G02*
X121855000Y-72365000I-250000J0D01*
G01*
X121105000Y-72365000D01*
G75*
G02*
X120855000Y-72115000I0J250000D01*
G01*
G37*
%TD.AperFunction*%
%TD*%
%TO.P,C1,2*%
%TO.N,VCC*%
%TA.AperFunction,SMDPad,CuDef*%
G36*
G01*
X110775000Y-57175000D02*
X112025000Y-57175000D01*
G75*
G02*
X112275000Y-57425000I0J-250000D01*
G01*
X112275000Y-58175000D01*
G75*
G02*
X112025000Y-58425000I-250000J0D01*
G01*
X110775000Y-58425000D01*
G75*
G02*
X110525000Y-58175000I0J250000D01*
G01*
X110525000Y-57425000D01*
G75*
G02*
X110775000Y-57175000I250000J0D01*
G01*
G37*
%TD.AperFunction*%
%TO.P,C1,1*%
%TO.N,GND*%
%TA.AperFunction,SMDPad,CuDef*%
G36*
G01*
X110775000Y-54375000D02*
X112025000Y-54375000D01*
G75*
G02*
X112275000Y-54625000I0J-250000D01*
G01*
X112275000Y-55375000D01*
G75*
G02*
X112025000Y-55625000I-250000J0D01*
G01*
X110775000Y-55625000D01*
G75*
G02*
X110525000Y-55375000I0J250000D01*
G01*
X110525000Y-54625000D01*
G75*
G02*
X110775000Y-54375000I250000J0D01*
G01*
G37*
%TD.AperFunction*%
%TD*%
D19*
%TO.N,VCC*%
X122200000Y-66000000D03*
X119600000Y-69000014D03*
D20*
%TO.N,GND*%
X115000000Y-54400000D03*
X114600000Y-53800000D03*
X115400000Y-53800000D03*
X115400000Y-53000000D03*
X114600000Y-53000000D03*
X114600000Y-52200000D03*
X115400000Y-52200000D03*
X115400000Y-51400000D03*
X114600000Y-51400000D03*
X115000000Y-43600000D03*
X115400000Y-43000000D03*
X114600000Y-43000000D03*
X114600000Y-42200000D03*
X115400000Y-42200000D03*
X115400000Y-41400000D03*
X114600000Y-41400000D03*
X115400000Y-40600000D03*
X114600000Y-40600000D03*
X104000000Y-61400000D03*
X104600000Y-62000000D03*
X105200000Y-61400000D03*
X104600000Y-60800000D03*
X105200000Y-60200000D03*
X105800000Y-60800000D03*
X106400000Y-60200000D03*
X105800000Y-59600000D03*
X126000000Y-47400000D03*
X126600000Y-48000000D03*
X126000000Y-48600000D03*
X125400000Y-48000000D03*
X124800000Y-48600000D03*
X125400000Y-49200000D03*
X124800000Y-49800000D03*
X124200000Y-49200000D03*
X126000000Y-61600000D03*
X126600000Y-61000000D03*
X126000000Y-60400000D03*
X125400000Y-61000000D03*
X124800000Y-60400000D03*
X125400000Y-59800000D03*
X124800000Y-59200000D03*
X124200000Y-59800000D03*
X105600000Y-49000000D03*
X105000000Y-49600000D03*
X104400000Y-49000000D03*
X105000000Y-48400000D03*
X104400000Y-47800000D03*
X103800000Y-48400000D03*
X103200000Y-47800000D03*
X103800000Y-47200000D03*
X103800000Y-62200000D03*
X106600000Y-59400000D03*
X115000000Y-40000000D03*
X124000000Y-50000000D03*
X126800000Y-47200000D03*
X124000000Y-59000000D03*
X126800000Y-61800000D03*
X105800000Y-49800000D03*
X103000000Y-47000000D03*
X115000000Y-50800000D03*
D19*
%TO.N,Net-(J1-Pad3)*%
X117600000Y-62664956D03*
X112999999Y-64800001D03*
%TD*%
D21*
%TO.N,VCC*%
X112400000Y-60200000D02*
X112400000Y-62600000D01*
X111450000Y-57750000D02*
X111400000Y-57800000D01*
X114100000Y-57750000D02*
X111450000Y-57750000D01*
X111400000Y-57800000D02*
X112400000Y-58800000D01*
X112400000Y-58800000D02*
X112400000Y-60200000D01*
X117560000Y-71440000D02*
X117600000Y-71400000D01*
X114570000Y-71440000D02*
X117560000Y-71440000D01*
X121390000Y-71400000D02*
X121480000Y-71490000D01*
X117600000Y-71400000D02*
X121390000Y-71400000D01*
X121480000Y-69080000D02*
X121350000Y-68950000D01*
X121480000Y-71490000D02*
X121480000Y-69080000D01*
X120100000Y-64700000D02*
X120900000Y-64700000D01*
X120900000Y-64700000D02*
X121200000Y-65000000D01*
X120850000Y-66300000D02*
X120100000Y-66300000D01*
X121200000Y-65950000D02*
X120850000Y-66300000D01*
X121200000Y-65000000D02*
X121200000Y-65950000D01*
X121250000Y-66000000D02*
X121200000Y-65950000D01*
X122200000Y-66000000D02*
X121250000Y-66000000D01*
X112400000Y-63700000D02*
X112400000Y-62600000D01*
X105640000Y-72300000D02*
X105640000Y-70460000D01*
X105640000Y-70460000D02*
X112400000Y-63700000D01*
X121350000Y-68950000D02*
X119650014Y-68950000D01*
X119650014Y-68950000D02*
X119600000Y-69000014D01*
D22*
X107289989Y-73949989D02*
X115050011Y-73949989D01*
X115050011Y-73949989D02*
X117600000Y-71400000D01*
X105640000Y-72300000D02*
X107289989Y-73949989D01*
D21*
%TO.N,GND*%
X111400000Y-55000000D02*
X111400000Y-55600000D01*
X112600000Y-56800000D02*
X114100000Y-56800000D01*
X111400000Y-55600000D02*
X112600000Y-56800000D01*
X114100000Y-55850000D02*
X114100000Y-56800000D01*
X124150000Y-71360000D02*
X124280000Y-71490000D01*
X124150000Y-68950000D02*
X124150000Y-71360000D01*
X119300000Y-66300000D02*
X118500000Y-66300000D01*
X118500000Y-66300000D02*
X117700000Y-66300000D01*
X117410002Y-65500000D02*
X116900000Y-65500000D01*
X117700000Y-65789998D02*
X117410002Y-65500000D01*
X117700000Y-66300000D02*
X117700000Y-65789998D01*
X119589998Y-65500000D02*
X120100000Y-65500000D01*
X119300000Y-65789998D02*
X119589998Y-65500000D01*
X119300000Y-66300000D02*
X119300000Y-65789998D01*
X103100000Y-70740000D02*
X106299990Y-67540010D01*
X109600000Y-56800000D02*
X111400000Y-55000000D01*
X103100000Y-72300000D02*
X103100000Y-70740000D01*
X109600000Y-64200000D02*
X109600000Y-56800000D01*
X106299990Y-67540010D02*
X106299990Y-67500010D01*
X106299990Y-67500010D02*
X109600000Y-64200000D01*
X119300000Y-67100000D02*
X119300000Y-66300000D01*
X119700000Y-67500000D02*
X119300000Y-67100000D01*
X124150000Y-68950000D02*
X122700000Y-67500000D01*
X122700000Y-67500000D02*
X119700000Y-67500000D01*
D22*
X120870000Y-74900000D02*
X124280000Y-71490000D01*
X103100000Y-72300000D02*
X105700000Y-74900000D01*
X105700000Y-74900000D02*
X120870000Y-74900000D01*
D23*
%TO.N,Net-(D1-Pad1)*%
X103691852Y-59691852D02*
X102000000Y-58000000D01*
X102000000Y-51000000D02*
X103274999Y-49725001D01*
X102000000Y-58000000D02*
X102000000Y-51000000D01*
%TO.N,Net-(D1-Pad2)*%
X106308148Y-64291852D02*
X106308148Y-62308148D01*
X104800000Y-65800000D02*
X106308148Y-64291852D01*
X99000000Y-45000000D02*
X99000000Y-63000000D01*
X99000000Y-63000000D02*
X101800000Y-65800000D01*
X101800000Y-65800000D02*
X104800000Y-65800000D01*
X99000000Y-45000000D02*
X99000000Y-40000000D01*
%TO.N,Net-(D2-Pad1)*%
X108341852Y-47191852D02*
X113150000Y-52000000D01*
X105808148Y-47191852D02*
X108341852Y-47191852D01*
D24*
X113150000Y-52350000D02*
X113600000Y-52800000D01*
X113150000Y-52000000D02*
X113150000Y-52350000D01*
X113150000Y-52350000D02*
X113150000Y-52800000D01*
D23*
%TO.N,Net-(D3-Pad1)*%
X116850000Y-52800000D02*
X117600000Y-52800000D01*
X117600000Y-52800000D02*
X118000000Y-52400000D01*
X118000000Y-52400000D02*
X118000000Y-48600000D01*
X111800000Y-46400000D02*
X111800000Y-43350000D01*
X111800000Y-43350000D02*
X113150000Y-42000000D01*
X112800000Y-47400000D02*
X111800000Y-46400000D01*
X118000000Y-48600000D02*
X116800000Y-47400000D01*
X116800000Y-47400000D02*
X112800000Y-47400000D01*
%TO.N,Net-(D4-Pad1)*%
X119000000Y-42000000D02*
X124191852Y-47191852D01*
X116850000Y-42000000D02*
X119000000Y-42000000D01*
%TO.N,Net-(D5-Pad1)*%
X126808148Y-49808148D02*
X128200000Y-51200000D01*
X128200000Y-57800000D02*
X126808148Y-59191852D01*
X128200000Y-51200000D02*
X128200000Y-57800000D01*
%TO.N,Net-(D6-Pad1)*%
X124191852Y-61808148D02*
X124191852Y-63791852D01*
X124191852Y-63791852D02*
X126600000Y-66200000D01*
X126600000Y-66200000D02*
X127800000Y-66200000D01*
X127800000Y-66200000D02*
X131000000Y-63000000D01*
X131000000Y-63000000D02*
X131000000Y-45000000D01*
X131000000Y-45000000D02*
X131000000Y-40000000D01*
D21*
%TO.N,Net-(J1-Pad3)*%
X115200000Y-62600000D02*
X113874990Y-63925010D01*
X113894093Y-63905907D02*
X113874990Y-63925010D01*
X119300000Y-64700000D02*
X119300000Y-63760038D01*
X118204918Y-62664956D02*
X117600000Y-62664956D01*
X119300000Y-63760038D02*
X118204918Y-62664956D01*
X113894093Y-63905907D02*
X112999999Y-64800001D01*
X113800000Y-64000000D02*
X112999999Y-64800001D01*
X113800000Y-59610034D02*
X113800000Y-64000000D01*
X116300000Y-57750000D02*
X115660034Y-57750000D01*
X115660034Y-57750000D02*
X113800000Y-59610034D01*
X108180000Y-69620000D02*
X112999999Y-64800001D01*
X108180000Y-72300000D02*
X108180000Y-69620000D01*
%TO.N,Net-(R4-Pad2)*%
X114610000Y-68640000D02*
X114570000Y-68640000D01*
X114600000Y-68610000D02*
X114570000Y-68640000D01*
X116900000Y-64700000D02*
X116500000Y-64700000D01*
X114600000Y-66600000D02*
X114600000Y-68610000D01*
X116500000Y-64700000D02*
X114600000Y-66600000D01*
%TO.N,Net-(R6-Pad2)*%
X116900000Y-67900000D02*
X116900000Y-66300000D01*
X117600000Y-68600000D02*
X116900000Y-67900000D01*
%TO.N,Net-(J1-Pad4)*%
X117015002Y-55850000D02*
X116300000Y-55850000D01*
X117280001Y-56114999D02*
X117015002Y-55850000D01*
X115825000Y-60200000D02*
X117280001Y-58744999D01*
X117280001Y-58744999D02*
X117280001Y-56114999D01*
X115200000Y-60200000D02*
X115825000Y-60200000D01*
X118150000Y-63600000D02*
X116600000Y-63600000D01*
X118500000Y-64700000D02*
X118500000Y-63950000D01*
X116600000Y-61600000D02*
X115200000Y-60200000D01*
X118500000Y-63950000D02*
X118150000Y-63600000D01*
X116600000Y-63600000D02*
X116600000Y-63400000D01*
X116600000Y-63400000D02*
X116600000Y-61600000D01*
X116410038Y-63600000D02*
X116600000Y-63600000D01*
X110720000Y-72300000D02*
X110720000Y-69290038D01*
X110720000Y-69290038D02*
X116410038Y-63600000D01*
%TD*%
D25*
%TO.N,GND*%
G36*
X104096568Y-45676174D02*
G01*
X104048815Y-45715363D01*
X103695261Y-46068917D01*
X103615909Y-46165608D01*
X103556944Y-46275922D01*
X103520634Y-46395620D01*
X103508374Y-46520102D01*
X103520634Y-46644584D01*
X103556944Y-46764282D01*
X103615909Y-46874596D01*
X103695261Y-46971287D01*
X104607330Y-47883356D01*
X104650991Y-47965040D01*
X104824067Y-48175933D01*
X105034960Y-48349009D01*
X105116644Y-48392670D01*
X106028713Y-49304739D01*
X106125404Y-49384091D01*
X106235718Y-49443056D01*
X106355416Y-49479366D01*
X106479898Y-49491626D01*
X106604380Y-49479366D01*
X106724078Y-49443056D01*
X106834392Y-49384091D01*
X106931083Y-49304739D01*
X107284637Y-48951185D01*
X107323826Y-48903432D01*
X108420394Y-50000000D01*
X106000000Y-52420394D01*
X104903432Y-51323826D01*
X104951185Y-51284637D01*
X105304739Y-50931083D01*
X105384091Y-50834392D01*
X105443056Y-50724078D01*
X105479366Y-50604380D01*
X105491626Y-50479898D01*
X105479366Y-50355416D01*
X105443056Y-50235718D01*
X105384091Y-50125404D01*
X105304739Y-50028713D01*
X104600961Y-49324935D01*
X104560763Y-49192421D01*
X104432155Y-48951813D01*
X104259080Y-48740920D01*
X104048187Y-48567845D01*
X103807579Y-48439237D01*
X103675065Y-48399039D01*
X102971287Y-47695261D01*
X102874596Y-47615909D01*
X102764282Y-47556944D01*
X102644584Y-47520634D01*
X102520102Y-47508374D01*
X102395620Y-47520634D01*
X102275922Y-47556944D01*
X102165608Y-47615909D01*
X102068917Y-47695261D01*
X101715363Y-48048815D01*
X101676174Y-48096568D01*
X100579606Y-47000000D01*
X103000000Y-44579606D01*
X104096568Y-45676174D01*
G37*
X104096568Y-45676174D02*
X104048815Y-45715363D01*
X103695261Y-46068917D01*
X103615909Y-46165608D01*
X103556944Y-46275922D01*
X103520634Y-46395620D01*
X103508374Y-46520102D01*
X103520634Y-46644584D01*
X103556944Y-46764282D01*
X103615909Y-46874596D01*
X103695261Y-46971287D01*
X104607330Y-47883356D01*
X104650991Y-47965040D01*
X104824067Y-48175933D01*
X105034960Y-48349009D01*
X105116644Y-48392670D01*
X106028713Y-49304739D01*
X106125404Y-49384091D01*
X106235718Y-49443056D01*
X106355416Y-49479366D01*
X106479898Y-49491626D01*
X106604380Y-49479366D01*
X106724078Y-49443056D01*
X106834392Y-49384091D01*
X106931083Y-49304739D01*
X107284637Y-48951185D01*
X107323826Y-48903432D01*
X108420394Y-50000000D01*
X106000000Y-52420394D01*
X104903432Y-51323826D01*
X104951185Y-51284637D01*
X105304739Y-50931083D01*
X105384091Y-50834392D01*
X105443056Y-50724078D01*
X105479366Y-50604380D01*
X105491626Y-50479898D01*
X105479366Y-50355416D01*
X105443056Y-50235718D01*
X105384091Y-50125404D01*
X105304739Y-50028713D01*
X104600961Y-49324935D01*
X104560763Y-49192421D01*
X104432155Y-48951813D01*
X104259080Y-48740920D01*
X104048187Y-48567845D01*
X103807579Y-48439237D01*
X103675065Y-48399039D01*
X102971287Y-47695261D01*
X102874596Y-47615909D01*
X102764282Y-47556944D01*
X102644584Y-47520634D01*
X102520102Y-47508374D01*
X102395620Y-47520634D01*
X102275922Y-47556944D01*
X102165608Y-47615909D01*
X102068917Y-47695261D01*
X101715363Y-48048815D01*
X101676174Y-48096568D01*
X100579606Y-47000000D01*
X103000000Y-44579606D01*
X104096568Y-45676174D01*
G36*
X124992286Y-57771892D02*
G01*
X124695261Y-58068917D01*
X124615909Y-58165608D01*
X124556944Y-58275922D01*
X124520634Y-58395620D01*
X124508374Y-58520102D01*
X124520634Y-58644584D01*
X124556944Y-58764282D01*
X124615909Y-58874596D01*
X124695261Y-58971287D01*
X125607332Y-59883358D01*
X125650992Y-59965040D01*
X125824067Y-60175933D01*
X126034960Y-60349008D01*
X126116642Y-60392668D01*
X127028713Y-61304739D01*
X127125404Y-61384091D01*
X127235718Y-61443056D01*
X127355416Y-61479366D01*
X127479898Y-61491626D01*
X127604380Y-61479366D01*
X127724078Y-61443056D01*
X127834392Y-61384091D01*
X127931083Y-61304739D01*
X128228108Y-61007714D01*
X129420394Y-62200000D01*
X127000000Y-64620394D01*
X125782225Y-63402619D01*
X125854494Y-63363989D01*
X125951185Y-63284637D01*
X126304739Y-62931083D01*
X126384091Y-62834392D01*
X126443056Y-62724078D01*
X126479366Y-62604380D01*
X126491626Y-62479898D01*
X126479366Y-62355416D01*
X126443056Y-62235718D01*
X126384091Y-62125404D01*
X126304739Y-62028713D01*
X125392670Y-61116644D01*
X125349009Y-61034960D01*
X125175932Y-60824067D01*
X124965039Y-60650991D01*
X124883357Y-60607331D01*
X123971287Y-59695261D01*
X123874596Y-59615909D01*
X123764282Y-59556944D01*
X123644584Y-59520634D01*
X123520102Y-59508374D01*
X123395620Y-59520634D01*
X123275922Y-59556944D01*
X123165608Y-59615909D01*
X123068917Y-59695261D01*
X122715363Y-60048815D01*
X122636011Y-60145506D01*
X122597382Y-60217776D01*
X121579606Y-59200000D01*
X124000000Y-56779606D01*
X124992286Y-57771892D01*
G37*
X124992286Y-57771892D02*
X124695261Y-58068917D01*
X124615909Y-58165608D01*
X124556944Y-58275922D01*
X124520634Y-58395620D01*
X124508374Y-58520102D01*
X124520634Y-58644584D01*
X124556944Y-58764282D01*
X124615909Y-58874596D01*
X124695261Y-58971287D01*
X125607332Y-59883358D01*
X125650992Y-59965040D01*
X125824067Y-60175933D01*
X126034960Y-60349008D01*
X126116642Y-60392668D01*
X127028713Y-61304739D01*
X127125404Y-61384091D01*
X127235718Y-61443056D01*
X127355416Y-61479366D01*
X127479898Y-61491626D01*
X127604380Y-61479366D01*
X127724078Y-61443056D01*
X127834392Y-61384091D01*
X127931083Y-61304739D01*
X128228108Y-61007714D01*
X129420394Y-62200000D01*
X127000000Y-64620394D01*
X125782225Y-63402619D01*
X125854494Y-63363989D01*
X125951185Y-63284637D01*
X126304739Y-62931083D01*
X126384091Y-62834392D01*
X126443056Y-62724078D01*
X126479366Y-62604380D01*
X126491626Y-62479898D01*
X126479366Y-62355416D01*
X126443056Y-62235718D01*
X126384091Y-62125404D01*
X126304739Y-62028713D01*
X125392670Y-61116644D01*
X125349009Y-61034960D01*
X125175932Y-60824067D01*
X124965039Y-60650991D01*
X124883357Y-60607331D01*
X123971287Y-59695261D01*
X123874596Y-59615909D01*
X123764282Y-59556944D01*
X123644584Y-59520634D01*
X123520102Y-59508374D01*
X123395620Y-59520634D01*
X123275922Y-59556944D01*
X123165608Y-59615909D01*
X123068917Y-59695261D01*
X122715363Y-60048815D01*
X122636011Y-60145506D01*
X122597382Y-60217776D01*
X121579606Y-59200000D01*
X124000000Y-56779606D01*
X124992286Y-57771892D01*
G36*
X129420394Y-47000000D02*
G01*
X128323826Y-48096568D01*
X128284637Y-48048815D01*
X127931083Y-47695261D01*
X127834392Y-47615909D01*
X127724078Y-47556944D01*
X127604380Y-47520634D01*
X127479898Y-47508374D01*
X127355416Y-47520634D01*
X127235718Y-47556944D01*
X127125404Y-47615909D01*
X127028713Y-47695261D01*
X126116642Y-48607332D01*
X126034960Y-48650992D01*
X125824067Y-48824067D01*
X125650992Y-49034960D01*
X125607332Y-49116642D01*
X124695261Y-50028713D01*
X124615909Y-50125404D01*
X124556944Y-50235718D01*
X124520634Y-50355416D01*
X124508374Y-50479898D01*
X124520634Y-50604380D01*
X124556944Y-50724078D01*
X124615909Y-50834392D01*
X124695261Y-50931083D01*
X125048815Y-51284637D01*
X125096568Y-51323826D01*
X124000000Y-52420394D01*
X121579606Y-50000000D01*
X122676174Y-48903432D01*
X122715363Y-48951185D01*
X123068917Y-49304739D01*
X123165608Y-49384091D01*
X123275922Y-49443056D01*
X123395620Y-49479366D01*
X123520102Y-49491626D01*
X123644584Y-49479366D01*
X123764282Y-49443056D01*
X123874596Y-49384091D01*
X123971287Y-49304739D01*
X124883356Y-48392670D01*
X124965040Y-48349009D01*
X125175933Y-48175933D01*
X125349009Y-47965040D01*
X125392670Y-47883356D01*
X126304739Y-46971287D01*
X126384091Y-46874596D01*
X126443056Y-46764282D01*
X126479366Y-46644584D01*
X126491626Y-46520102D01*
X126479366Y-46395620D01*
X126443056Y-46275922D01*
X126384091Y-46165608D01*
X126304739Y-46068917D01*
X125951185Y-45715363D01*
X125903432Y-45676174D01*
X127000000Y-44579606D01*
X129420394Y-47000000D01*
G37*
X129420394Y-47000000D02*
X128323826Y-48096568D01*
X128284637Y-48048815D01*
X127931083Y-47695261D01*
X127834392Y-47615909D01*
X127724078Y-47556944D01*
X127604380Y-47520634D01*
X127479898Y-47508374D01*
X127355416Y-47520634D01*
X127235718Y-47556944D01*
X127125404Y-47615909D01*
X127028713Y-47695261D01*
X126116642Y-48607332D01*
X126034960Y-48650992D01*
X125824067Y-48824067D01*
X125650992Y-49034960D01*
X125607332Y-49116642D01*
X124695261Y-50028713D01*
X124615909Y-50125404D01*
X124556944Y-50235718D01*
X124520634Y-50355416D01*
X124508374Y-50479898D01*
X124520634Y-50604380D01*
X124556944Y-50724078D01*
X124615909Y-50834392D01*
X124695261Y-50931083D01*
X125048815Y-51284637D01*
X125096568Y-51323826D01*
X124000000Y-52420394D01*
X121579606Y-50000000D01*
X122676174Y-48903432D01*
X122715363Y-48951185D01*
X123068917Y-49304739D01*
X123165608Y-49384091D01*
X123275922Y-49443056D01*
X123395620Y-49479366D01*
X123520102Y-49491626D01*
X123644584Y-49479366D01*
X123764282Y-49443056D01*
X123874596Y-49384091D01*
X123971287Y-49304739D01*
X124883356Y-48392670D01*
X124965040Y-48349009D01*
X125175933Y-48175933D01*
X125349009Y-47965040D01*
X125392670Y-47883356D01*
X126304739Y-46971287D01*
X126384091Y-46874596D01*
X126443056Y-46764282D01*
X126479366Y-46644584D01*
X126491626Y-46520102D01*
X126479366Y-46395620D01*
X126443056Y-46275922D01*
X126384091Y-46165608D01*
X126304739Y-46068917D01*
X125951185Y-45715363D01*
X125903432Y-45676174D01*
X127000000Y-44579606D01*
X129420394Y-47000000D01*
G36*
X108820394Y-59600000D02*
G01*
X107823826Y-60596568D01*
X107784637Y-60548815D01*
X107431083Y-60195261D01*
X107334392Y-60115909D01*
X107224078Y-60056944D01*
X107104380Y-60020634D01*
X106979898Y-60008374D01*
X106855416Y-60020634D01*
X106735718Y-60056944D01*
X106625404Y-60115909D01*
X106528713Y-60195261D01*
X105616643Y-61107331D01*
X105534961Y-61150991D01*
X105324068Y-61324067D01*
X105150992Y-61534960D01*
X105107332Y-61616642D01*
X104195261Y-62528713D01*
X104115909Y-62625404D01*
X104056944Y-62735718D01*
X104020634Y-62855416D01*
X104008374Y-62979898D01*
X104020634Y-63104380D01*
X104056944Y-63224078D01*
X104115909Y-63334392D01*
X104195261Y-63431083D01*
X104548815Y-63784637D01*
X104596568Y-63823826D01*
X104005394Y-64415000D01*
X102794606Y-64415000D01*
X100979606Y-62600000D01*
X102176174Y-61403432D01*
X102215363Y-61451185D01*
X102568917Y-61804739D01*
X102665608Y-61884091D01*
X102775922Y-61943056D01*
X102895620Y-61979366D01*
X103020102Y-61991626D01*
X103144584Y-61979366D01*
X103264282Y-61943056D01*
X103374596Y-61884091D01*
X103471287Y-61804739D01*
X104383358Y-60892668D01*
X104465040Y-60849008D01*
X104675933Y-60675933D01*
X104849008Y-60465040D01*
X104892668Y-60383358D01*
X105804739Y-59471287D01*
X105884091Y-59374596D01*
X105943056Y-59264282D01*
X105979366Y-59144584D01*
X105991626Y-59020102D01*
X105979366Y-58895620D01*
X105943056Y-58775922D01*
X105884091Y-58665608D01*
X105804739Y-58568917D01*
X105451185Y-58215363D01*
X105403432Y-58176174D01*
X106400000Y-57179606D01*
X108820394Y-59600000D01*
G37*
X108820394Y-59600000D02*
X107823826Y-60596568D01*
X107784637Y-60548815D01*
X107431083Y-60195261D01*
X107334392Y-60115909D01*
X107224078Y-60056944D01*
X107104380Y-60020634D01*
X106979898Y-60008374D01*
X106855416Y-60020634D01*
X106735718Y-60056944D01*
X106625404Y-60115909D01*
X106528713Y-60195261D01*
X105616643Y-61107331D01*
X105534961Y-61150991D01*
X105324068Y-61324067D01*
X105150992Y-61534960D01*
X105107332Y-61616642D01*
X104195261Y-62528713D01*
X104115909Y-62625404D01*
X104056944Y-62735718D01*
X104020634Y-62855416D01*
X104008374Y-62979898D01*
X104020634Y-63104380D01*
X104056944Y-63224078D01*
X104115909Y-63334392D01*
X104195261Y-63431083D01*
X104548815Y-63784637D01*
X104596568Y-63823826D01*
X104005394Y-64415000D01*
X102794606Y-64415000D01*
X100979606Y-62600000D01*
X102176174Y-61403432D01*
X102215363Y-61451185D01*
X102568917Y-61804739D01*
X102665608Y-61884091D01*
X102775922Y-61943056D01*
X102895620Y-61979366D01*
X103020102Y-61991626D01*
X103144584Y-61979366D01*
X103264282Y-61943056D01*
X103374596Y-61884091D01*
X103471287Y-61804739D01*
X104383358Y-60892668D01*
X104465040Y-60849008D01*
X104675933Y-60675933D01*
X104849008Y-60465040D01*
X104892668Y-60383358D01*
X105804739Y-59471287D01*
X105884091Y-59374596D01*
X105943056Y-59264282D01*
X105979366Y-59144584D01*
X105991626Y-59020102D01*
X105979366Y-58895620D01*
X105943056Y-58775922D01*
X105884091Y-58665608D01*
X105804739Y-58568917D01*
X105451185Y-58215363D01*
X105403432Y-58176174D01*
X106400000Y-57179606D01*
X108820394Y-59600000D01*
G36*
X116673000Y-39714193D02*
G01*
X116650000Y-39711928D01*
X116150000Y-39711928D01*
X116025518Y-39724188D01*
X115905820Y-39760498D01*
X115795506Y-39819463D01*
X115698815Y-39898815D01*
X115619463Y-39995506D01*
X115560498Y-40105820D01*
X115524188Y-40225518D01*
X115511928Y-40350000D01*
X115511928Y-41639855D01*
X115485040Y-41728493D01*
X115458299Y-42000000D01*
X115485040Y-42271507D01*
X115511928Y-42360145D01*
X115511928Y-43650000D01*
X115524188Y-43774482D01*
X115560498Y-43894180D01*
X115619463Y-44004494D01*
X115698815Y-44101185D01*
X115795506Y-44180537D01*
X115905820Y-44239502D01*
X116025518Y-44275812D01*
X116150000Y-44288072D01*
X116650000Y-44288072D01*
X116673000Y-44285807D01*
X116673000Y-45873000D01*
X113327000Y-45873000D01*
X113327000Y-44285807D01*
X113350000Y-44288072D01*
X113850000Y-44288072D01*
X113974482Y-44275812D01*
X114094180Y-44239502D01*
X114204494Y-44180537D01*
X114301185Y-44101185D01*
X114380537Y-44004494D01*
X114439502Y-43894180D01*
X114475812Y-43774482D01*
X114488072Y-43650000D01*
X114488072Y-42360142D01*
X114514959Y-42271508D01*
X114541700Y-42000001D01*
X114514959Y-41728494D01*
X114488072Y-41639860D01*
X114488072Y-40350000D01*
X114475812Y-40225518D01*
X114439502Y-40105820D01*
X114380537Y-39995506D01*
X114301185Y-39898815D01*
X114204494Y-39819463D01*
X114094180Y-39760498D01*
X113974482Y-39724188D01*
X113850000Y-39711928D01*
X113350000Y-39711928D01*
X113327000Y-39714193D01*
X113327000Y-38127000D01*
X116673000Y-38127000D01*
X116673000Y-39714193D01*
G37*
X116673000Y-39714193D02*
X116650000Y-39711928D01*
X116150000Y-39711928D01*
X116025518Y-39724188D01*
X115905820Y-39760498D01*
X115795506Y-39819463D01*
X115698815Y-39898815D01*
X115619463Y-39995506D01*
X115560498Y-40105820D01*
X115524188Y-40225518D01*
X115511928Y-40350000D01*
X115511928Y-41639855D01*
X115485040Y-41728493D01*
X115458299Y-42000000D01*
X115485040Y-42271507D01*
X115511928Y-42360145D01*
X115511928Y-43650000D01*
X115524188Y-43774482D01*
X115560498Y-43894180D01*
X115619463Y-44004494D01*
X115698815Y-44101185D01*
X115795506Y-44180537D01*
X115905820Y-44239502D01*
X116025518Y-44275812D01*
X116150000Y-44288072D01*
X116650000Y-44288072D01*
X116673000Y-44285807D01*
X116673000Y-45873000D01*
X113327000Y-45873000D01*
X113327000Y-44285807D01*
X113350000Y-44288072D01*
X113850000Y-44288072D01*
X113974482Y-44275812D01*
X114094180Y-44239502D01*
X114204494Y-44180537D01*
X114301185Y-44101185D01*
X114380537Y-44004494D01*
X114439502Y-43894180D01*
X114475812Y-43774482D01*
X114488072Y-43650000D01*
X114488072Y-42360142D01*
X114514959Y-42271508D01*
X114541700Y-42000001D01*
X114514959Y-41728494D01*
X114488072Y-41639860D01*
X114488072Y-40350000D01*
X114475812Y-40225518D01*
X114439502Y-40105820D01*
X114380537Y-39995506D01*
X114301185Y-39898815D01*
X114204494Y-39819463D01*
X114094180Y-39760498D01*
X113974482Y-39724188D01*
X113850000Y-39711928D01*
X113350000Y-39711928D01*
X113327000Y-39714193D01*
X113327000Y-38127000D01*
X116673000Y-38127000D01*
X116673000Y-39714193D01*
G36*
X116615001Y-49173686D02*
G01*
X116615000Y-50511928D01*
X116150000Y-50511928D01*
X116025518Y-50524188D01*
X115905820Y-50560498D01*
X115795506Y-50619463D01*
X115698815Y-50698815D01*
X115619463Y-50795506D01*
X115560498Y-50905820D01*
X115524188Y-51025518D01*
X115511928Y-51150000D01*
X115511928Y-52439855D01*
X115485040Y-52528493D01*
X115458299Y-52800000D01*
X115485040Y-53071507D01*
X115511928Y-53160145D01*
X115511928Y-54450000D01*
X115524188Y-54574482D01*
X115560498Y-54694180D01*
X115619463Y-54804494D01*
X115693313Y-54894481D01*
X115645518Y-54899188D01*
X115525820Y-54935498D01*
X115415506Y-54994463D01*
X115318815Y-55073815D01*
X115239463Y-55170506D01*
X115227492Y-55192902D01*
X114710197Y-55710197D01*
X114694403Y-55729443D01*
X114682667Y-55751399D01*
X114675440Y-55775224D01*
X114673000Y-55800000D01*
X114673000Y-56673000D01*
X113327000Y-56673000D01*
X113327000Y-55085807D01*
X113350000Y-55088072D01*
X113850000Y-55088072D01*
X113974482Y-55075812D01*
X114094180Y-55039502D01*
X114204494Y-54980537D01*
X114301185Y-54901185D01*
X114380537Y-54804494D01*
X114439502Y-54694180D01*
X114475812Y-54574482D01*
X114488072Y-54450000D01*
X114488072Y-52360142D01*
X114514959Y-52271507D01*
X114541700Y-51999999D01*
X114514959Y-51728492D01*
X114488072Y-51639857D01*
X114488072Y-51150000D01*
X114475812Y-51025518D01*
X114439502Y-50905820D01*
X114380537Y-50795506D01*
X114301185Y-50698815D01*
X114204494Y-50619463D01*
X114094180Y-50560498D01*
X113974482Y-50524188D01*
X113850000Y-50511928D01*
X113620614Y-50511928D01*
X113327000Y-50218314D01*
X113327000Y-48927000D01*
X116368315Y-48927000D01*
X116615001Y-49173686D01*
G37*
X116615001Y-49173686D02*
X116615000Y-50511928D01*
X116150000Y-50511928D01*
X116025518Y-50524188D01*
X115905820Y-50560498D01*
X115795506Y-50619463D01*
X115698815Y-50698815D01*
X115619463Y-50795506D01*
X115560498Y-50905820D01*
X115524188Y-51025518D01*
X115511928Y-51150000D01*
X115511928Y-52439855D01*
X115485040Y-52528493D01*
X115458299Y-52800000D01*
X115485040Y-53071507D01*
X115511928Y-53160145D01*
X115511928Y-54450000D01*
X115524188Y-54574482D01*
X115560498Y-54694180D01*
X115619463Y-54804494D01*
X115693313Y-54894481D01*
X115645518Y-54899188D01*
X115525820Y-54935498D01*
X115415506Y-54994463D01*
X115318815Y-55073815D01*
X115239463Y-55170506D01*
X115227492Y-55192902D01*
X114710197Y-55710197D01*
X114694403Y-55729443D01*
X114682667Y-55751399D01*
X114675440Y-55775224D01*
X114673000Y-55800000D01*
X114673000Y-56673000D01*
X113327000Y-56673000D01*
X113327000Y-55085807D01*
X113350000Y-55088072D01*
X113850000Y-55088072D01*
X113974482Y-55075812D01*
X114094180Y-55039502D01*
X114204494Y-54980537D01*
X114301185Y-54901185D01*
X114380537Y-54804494D01*
X114439502Y-54694180D01*
X114475812Y-54574482D01*
X114488072Y-54450000D01*
X114488072Y-52360142D01*
X114514959Y-52271507D01*
X114541700Y-51999999D01*
X114514959Y-51728492D01*
X114488072Y-51639857D01*
X114488072Y-51150000D01*
X114475812Y-51025518D01*
X114439502Y-50905820D01*
X114380537Y-50795506D01*
X114301185Y-50698815D01*
X114204494Y-50619463D01*
X114094180Y-50560498D01*
X113974482Y-50524188D01*
X113850000Y-50511928D01*
X113620614Y-50511928D01*
X113327000Y-50218314D01*
X113327000Y-48927000D01*
X116368315Y-48927000D01*
X116615001Y-49173686D01*
G36*
X127705027Y-38145865D02*
G01*
X127962739Y-38201144D01*
X128210150Y-38292063D01*
X128442333Y-38416813D01*
X128654702Y-38572925D01*
X128661928Y-38579999D01*
X128661928Y-41950001D01*
X128678992Y-42123255D01*
X128729528Y-42289851D01*
X128811595Y-42443387D01*
X128922038Y-42577962D01*
X129056613Y-42688405D01*
X129210149Y-42770472D01*
X129375538Y-42820642D01*
X129454783Y-46545159D01*
X129443031Y-46800763D01*
X129397891Y-47048269D01*
X129319985Y-47287485D01*
X129210713Y-47514108D01*
X129072053Y-47724035D01*
X128903698Y-47916696D01*
X128455915Y-48364479D01*
X128422954Y-48255820D01*
X128363989Y-48145506D01*
X128284637Y-48048815D01*
X127931083Y-47695261D01*
X127834392Y-47615909D01*
X127724078Y-47556944D01*
X127717763Y-47555028D01*
X127715848Y-47548714D01*
X127656884Y-47438399D01*
X127577531Y-47341708D01*
X127317795Y-47086317D01*
X127093288Y-47086317D01*
X125679605Y-48500000D01*
X125693748Y-48514142D01*
X125514142Y-48693748D01*
X125500000Y-48679605D01*
X124086317Y-50093288D01*
X124086317Y-50317795D01*
X124341708Y-50577531D01*
X124438399Y-50656884D01*
X124548714Y-50715848D01*
X124555028Y-50717763D01*
X124556944Y-50724078D01*
X124615909Y-50834392D01*
X124695261Y-50931083D01*
X125048815Y-51284637D01*
X125145506Y-51363989D01*
X125255820Y-51422954D01*
X125375518Y-51459264D01*
X125500000Y-51471524D01*
X125624482Y-51459264D01*
X125744180Y-51422954D01*
X125854494Y-51363989D01*
X125951185Y-51284637D01*
X126138568Y-51097254D01*
X126815000Y-51773686D01*
X126815001Y-57226313D01*
X126138568Y-57902746D01*
X125951185Y-57715363D01*
X125854494Y-57636011D01*
X125744180Y-57577046D01*
X125624482Y-57540736D01*
X125500000Y-57528476D01*
X125375518Y-57540736D01*
X125255820Y-57577046D01*
X125145506Y-57636011D01*
X125048815Y-57715363D01*
X124695261Y-58068917D01*
X124615909Y-58165608D01*
X124556944Y-58275922D01*
X124555028Y-58282237D01*
X124548714Y-58284152D01*
X124438399Y-58343116D01*
X124341708Y-58422469D01*
X124086317Y-58682205D01*
X124086317Y-58906712D01*
X125500000Y-60320395D01*
X125514142Y-60306252D01*
X125693748Y-60485858D01*
X125679605Y-60500000D01*
X125693748Y-60514143D01*
X125514143Y-60693748D01*
X125500000Y-60679605D01*
X125485858Y-60693748D01*
X125306252Y-60514142D01*
X125320395Y-60500000D01*
X123906712Y-59086317D01*
X123682205Y-59086317D01*
X123422469Y-59341708D01*
X123343116Y-59438399D01*
X123284152Y-59548714D01*
X123282237Y-59555028D01*
X123275922Y-59556944D01*
X123165608Y-59615909D01*
X123068917Y-59695261D01*
X122715363Y-60048815D01*
X122636011Y-60145506D01*
X122577046Y-60255820D01*
X122540736Y-60375518D01*
X122528476Y-60500000D01*
X122540736Y-60624482D01*
X122577046Y-60744180D01*
X122636011Y-60854494D01*
X122715363Y-60951185D01*
X122952645Y-61188467D01*
X122906088Y-61275568D01*
X122826892Y-61536642D01*
X122813462Y-61673000D01*
X120370668Y-61673000D01*
X120171976Y-61657362D01*
X119983034Y-61612002D01*
X119803511Y-61537640D01*
X119637837Y-61436115D01*
X119490081Y-61309919D01*
X119363885Y-61162163D01*
X119262360Y-60996489D01*
X119187998Y-60816966D01*
X119142638Y-60628024D01*
X119127000Y-60429332D01*
X119127000Y-53209934D01*
X119157157Y-53173188D01*
X119285764Y-52932581D01*
X119364960Y-52671507D01*
X119385000Y-52468037D01*
X119385000Y-52468028D01*
X119391700Y-52400001D01*
X119385000Y-52331974D01*
X119385000Y-48668026D01*
X119391700Y-48599999D01*
X119385000Y-48531972D01*
X119385000Y-48531963D01*
X119364960Y-48328493D01*
X119285764Y-48067419D01*
X119157157Y-47826812D01*
X119106396Y-47764960D01*
X119027452Y-47668766D01*
X119027450Y-47668764D01*
X118984081Y-47615919D01*
X118931236Y-47572550D01*
X117827454Y-46468769D01*
X117784081Y-46415919D01*
X117573188Y-46242843D01*
X117332581Y-46114236D01*
X117071507Y-46035040D01*
X116868037Y-46015000D01*
X116868029Y-46015000D01*
X116800000Y-46008300D01*
X116731971Y-46015000D01*
X113373686Y-46015000D01*
X113185000Y-45826315D01*
X113185000Y-44263521D01*
X113225518Y-44275812D01*
X113350000Y-44288072D01*
X113850000Y-44288072D01*
X113974482Y-44275812D01*
X114094180Y-44239502D01*
X114100000Y-44236391D01*
X114105820Y-44239502D01*
X114225518Y-44275812D01*
X114350000Y-44288072D01*
X114714250Y-44285000D01*
X114873000Y-44126250D01*
X114873000Y-42127000D01*
X114853000Y-42127000D01*
X114853000Y-41873000D01*
X114873000Y-41873000D01*
X114873000Y-39873750D01*
X115127000Y-39873750D01*
X115127000Y-41873000D01*
X115147000Y-41873000D01*
X115147000Y-42127000D01*
X115127000Y-42127000D01*
X115127000Y-44126250D01*
X115285750Y-44285000D01*
X115650000Y-44288072D01*
X115774482Y-44275812D01*
X115894180Y-44239502D01*
X115900000Y-44236391D01*
X115905820Y-44239502D01*
X116025518Y-44275812D01*
X116150000Y-44288072D01*
X116650000Y-44288072D01*
X116774482Y-44275812D01*
X116894180Y-44239502D01*
X117004494Y-44180537D01*
X117101185Y-44101185D01*
X117180537Y-44004494D01*
X117239502Y-43894180D01*
X117275812Y-43774482D01*
X117288072Y-43650000D01*
X117288072Y-43385000D01*
X118426315Y-43385000D01*
X122902746Y-47861432D01*
X122715363Y-48048815D01*
X122636011Y-48145506D01*
X122577046Y-48255820D01*
X122540736Y-48375518D01*
X122528476Y-48500000D01*
X122540736Y-48624482D01*
X122577046Y-48744180D01*
X122636011Y-48854494D01*
X122715363Y-48951185D01*
X123068917Y-49304739D01*
X123165608Y-49384091D01*
X123275922Y-49443056D01*
X123282237Y-49444972D01*
X123284152Y-49451286D01*
X123343116Y-49561601D01*
X123422469Y-49658292D01*
X123682205Y-49913683D01*
X123906712Y-49913683D01*
X125320395Y-48500000D01*
X125306253Y-48485858D01*
X125485858Y-48306253D01*
X125500000Y-48320395D01*
X126913683Y-46906712D01*
X126913683Y-46682205D01*
X126658292Y-46422469D01*
X126561601Y-46343116D01*
X126451286Y-46284152D01*
X126444972Y-46282237D01*
X126443056Y-46275922D01*
X126384091Y-46165608D01*
X126304739Y-46068917D01*
X125951185Y-45715363D01*
X125854494Y-45636011D01*
X125744180Y-45577046D01*
X125624482Y-45540736D01*
X125500000Y-45528476D01*
X125375518Y-45540736D01*
X125255820Y-45577046D01*
X125145506Y-45636011D01*
X125048815Y-45715363D01*
X124861432Y-45902746D01*
X120027454Y-41068769D01*
X119984081Y-41015919D01*
X119773188Y-40842843D01*
X119532581Y-40714236D01*
X119271507Y-40635040D01*
X119068037Y-40615000D01*
X119068029Y-40615000D01*
X119000000Y-40608300D01*
X118931971Y-40615000D01*
X117288072Y-40615000D01*
X117288072Y-40350000D01*
X117275812Y-40225518D01*
X117239502Y-40105820D01*
X117180537Y-39995506D01*
X117101185Y-39898815D01*
X117004494Y-39819463D01*
X116894180Y-39760498D01*
X116774482Y-39724188D01*
X116650000Y-39711928D01*
X116150000Y-39711928D01*
X116025518Y-39724188D01*
X115905820Y-39760498D01*
X115900000Y-39763609D01*
X115894180Y-39760498D01*
X115774482Y-39724188D01*
X115650000Y-39711928D01*
X115285750Y-39715000D01*
X115127000Y-39873750D01*
X114873000Y-39873750D01*
X114714250Y-39715000D01*
X114350000Y-39711928D01*
X114225518Y-39724188D01*
X114105820Y-39760498D01*
X114100000Y-39763609D01*
X114094180Y-39760498D01*
X113974482Y-39724188D01*
X113850000Y-39711928D01*
X113350000Y-39711928D01*
X113225518Y-39724188D01*
X113105820Y-39760498D01*
X112995506Y-39819463D01*
X112898815Y-39898815D01*
X112819463Y-39995506D01*
X112760498Y-40105820D01*
X112724188Y-40225518D01*
X112711928Y-40350000D01*
X112711928Y-40685568D01*
X112617418Y-40714237D01*
X112376811Y-40842844D01*
X112218766Y-40972548D01*
X110868764Y-42322551D01*
X110815920Y-42365919D01*
X110772551Y-42418764D01*
X110772548Y-42418767D01*
X110642844Y-42576812D01*
X110514236Y-42817420D01*
X110435040Y-43078493D01*
X110408300Y-43350000D01*
X110415001Y-43418039D01*
X110415000Y-46331971D01*
X110408300Y-46400000D01*
X110415000Y-46468029D01*
X110415000Y-46468036D01*
X110430638Y-46626812D01*
X110435040Y-46671507D01*
X110496647Y-46874596D01*
X110514236Y-46932580D01*
X110642843Y-47173187D01*
X110815919Y-47384080D01*
X110868764Y-47427450D01*
X111772550Y-48331236D01*
X111815919Y-48384081D01*
X111868764Y-48427450D01*
X111868766Y-48427452D01*
X112026812Y-48557157D01*
X112267419Y-48685764D01*
X112528493Y-48764960D01*
X112800000Y-48791701D01*
X112868037Y-48785000D01*
X116226315Y-48785000D01*
X116615001Y-49173686D01*
X116615000Y-50473000D01*
X113581686Y-50473000D01*
X109369306Y-46260621D01*
X109325933Y-46207771D01*
X109115040Y-46034695D01*
X108874433Y-45906088D01*
X108613359Y-45826892D01*
X108409889Y-45806852D01*
X108409881Y-45806852D01*
X108341852Y-45800152D01*
X108273823Y-45806852D01*
X105740111Y-45806852D01*
X105536641Y-45826892D01*
X105275567Y-45906088D01*
X105188466Y-45952644D01*
X104951185Y-45715363D01*
X104854494Y-45636011D01*
X104744180Y-45577046D01*
X104624482Y-45540736D01*
X104500000Y-45528476D01*
X104375518Y-45540736D01*
X104255820Y-45577046D01*
X104145506Y-45636011D01*
X104048815Y-45715363D01*
X103695261Y-46068917D01*
X103615909Y-46165608D01*
X103556944Y-46275922D01*
X103555028Y-46282237D01*
X103548714Y-46284152D01*
X103438399Y-46343116D01*
X103341708Y-46422469D01*
X103086317Y-46682205D01*
X103086317Y-46906712D01*
X104500000Y-48320395D01*
X104514143Y-48306253D01*
X104693748Y-48485858D01*
X104679605Y-48500000D01*
X106093288Y-49913683D01*
X106317795Y-49913683D01*
X106577531Y-49658292D01*
X106656884Y-49561601D01*
X106715848Y-49451286D01*
X106717763Y-49444972D01*
X106724078Y-49443056D01*
X106834392Y-49384091D01*
X106931083Y-49304739D01*
X107284637Y-48951185D01*
X107363989Y-48854494D01*
X107422954Y-48744180D01*
X107459264Y-48624482D01*
X107463955Y-48576852D01*
X107768167Y-48576852D01*
X110966288Y-51774974D01*
X109542230Y-53115264D01*
X109536149Y-53121389D01*
X109351410Y-53320603D01*
X109340566Y-53334021D01*
X109184531Y-53556433D01*
X109175605Y-53571196D01*
X109051153Y-53812705D01*
X109044310Y-53828543D01*
X108953739Y-54084689D01*
X108949105Y-54101307D01*
X108894085Y-54367366D01*
X108891747Y-54384459D01*
X108873293Y-54655519D01*
X108873000Y-54664145D01*
X108873000Y-58567417D01*
X108856707Y-58816011D01*
X108808916Y-59056272D01*
X108730175Y-59288232D01*
X108621829Y-59507938D01*
X108485736Y-59711616D01*
X108321475Y-59898919D01*
X107728108Y-60492286D01*
X107431083Y-60195261D01*
X107334392Y-60115909D01*
X107224078Y-60056944D01*
X107217763Y-60055028D01*
X107215848Y-60048714D01*
X107156884Y-59938399D01*
X107077531Y-59841708D01*
X106817795Y-59586317D01*
X106593288Y-59586317D01*
X105179605Y-61000000D01*
X105193748Y-61014142D01*
X105014143Y-61193748D01*
X105000000Y-61179605D01*
X103586317Y-62593288D01*
X103586317Y-62817795D01*
X103841708Y-63077531D01*
X103938399Y-63156884D01*
X104048714Y-63215848D01*
X104055028Y-63217763D01*
X104056944Y-63224078D01*
X104115909Y-63334392D01*
X104195261Y-63431083D01*
X104400471Y-63636293D01*
X103547601Y-64415000D01*
X102373686Y-64415000D01*
X100385000Y-62426315D01*
X100385000Y-51000000D01*
X100608300Y-51000000D01*
X100615001Y-51068039D01*
X100615000Y-57931971D01*
X100608300Y-58000000D01*
X100615000Y-58068029D01*
X100615000Y-58068036D01*
X100631502Y-58235582D01*
X100635040Y-58271507D01*
X100675440Y-58404686D01*
X100714236Y-58532580D01*
X100842843Y-58773187D01*
X100864848Y-58800000D01*
X100963613Y-58920345D01*
X101015919Y-58984080D01*
X101068765Y-59027450D01*
X102402746Y-60361432D01*
X102215363Y-60548815D01*
X102136011Y-60645506D01*
X102077046Y-60755820D01*
X102040736Y-60875518D01*
X102028476Y-61000000D01*
X102040736Y-61124482D01*
X102077046Y-61244180D01*
X102136011Y-61354494D01*
X102215363Y-61451185D01*
X102568917Y-61804739D01*
X102665608Y-61884091D01*
X102775922Y-61943056D01*
X102782237Y-61944972D01*
X102784152Y-61951286D01*
X102843116Y-62061601D01*
X102922469Y-62158292D01*
X103182205Y-62413683D01*
X103406712Y-62413683D01*
X104820395Y-61000000D01*
X104806252Y-60985858D01*
X104985858Y-60806252D01*
X105000000Y-60820395D01*
X106413683Y-59406712D01*
X106413683Y-59182205D01*
X106158292Y-58922469D01*
X106061601Y-58843116D01*
X105951286Y-58784152D01*
X105944972Y-58782237D01*
X105943056Y-58775922D01*
X105884091Y-58665608D01*
X105804739Y-58568917D01*
X105451185Y-58215363D01*
X105354494Y-58136011D01*
X105244180Y-58077046D01*
X105124482Y-58040736D01*
X105000000Y-58028476D01*
X104875518Y-58040736D01*
X104755820Y-58077046D01*
X104645506Y-58136011D01*
X104548815Y-58215363D01*
X104361432Y-58402746D01*
X103385000Y-57426315D01*
X103385000Y-51573685D01*
X103861432Y-51097254D01*
X104048815Y-51284637D01*
X104145506Y-51363989D01*
X104255820Y-51422954D01*
X104375518Y-51459264D01*
X104500000Y-51471524D01*
X104624482Y-51459264D01*
X104744180Y-51422954D01*
X104854494Y-51363989D01*
X104951185Y-51284637D01*
X105304739Y-50931083D01*
X105384091Y-50834392D01*
X105443056Y-50724078D01*
X105444972Y-50717763D01*
X105451286Y-50715848D01*
X105561601Y-50656884D01*
X105658292Y-50577531D01*
X105913683Y-50317795D01*
X105913683Y-50093288D01*
X104500000Y-48679605D01*
X104485858Y-48693748D01*
X104306252Y-48514142D01*
X104320395Y-48500000D01*
X102906712Y-47086317D01*
X102682205Y-47086317D01*
X102422469Y-47341708D01*
X102343116Y-47438399D01*
X102284152Y-47548714D01*
X102282237Y-47555028D01*
X102275922Y-47556944D01*
X102165608Y-47615909D01*
X102068917Y-47695261D01*
X101715363Y-48048815D01*
X101636011Y-48145506D01*
X101577046Y-48255820D01*
X101540736Y-48375518D01*
X101528476Y-48500000D01*
X101540736Y-48624482D01*
X101577046Y-48744180D01*
X101636011Y-48854494D01*
X101715363Y-48951185D01*
X101902746Y-49138568D01*
X101068764Y-49972551D01*
X101015920Y-50015919D01*
X100972551Y-50068764D01*
X100972548Y-50068767D01*
X100842844Y-50226812D01*
X100714236Y-50467420D01*
X100635040Y-50728493D01*
X100608300Y-51000000D01*
X100385000Y-51000000D01*
X100385000Y-42838072D01*
X100450001Y-42838072D01*
X100623255Y-42821008D01*
X100789851Y-42770472D01*
X100943387Y-42688405D01*
X101077962Y-42577962D01*
X101188405Y-42443387D01*
X101270472Y-42289851D01*
X101321008Y-42123255D01*
X101338072Y-41950001D01*
X101338072Y-38131753D01*
X101404530Y-38127000D01*
X127437629Y-38127000D01*
X127705027Y-38145865D01*
G37*
X127705027Y-38145865D02*
X127962739Y-38201144D01*
X128210150Y-38292063D01*
X128442333Y-38416813D01*
X128654702Y-38572925D01*
X128661928Y-38579999D01*
X128661928Y-41950001D01*
X128678992Y-42123255D01*
X128729528Y-42289851D01*
X128811595Y-42443387D01*
X128922038Y-42577962D01*
X129056613Y-42688405D01*
X129210149Y-42770472D01*
X129375538Y-42820642D01*
X129454783Y-46545159D01*
X129443031Y-46800763D01*
X129397891Y-47048269D01*
X129319985Y-47287485D01*
X129210713Y-47514108D01*
X129072053Y-47724035D01*
X128903698Y-47916696D01*
X128455915Y-48364479D01*
X128422954Y-48255820D01*
X128363989Y-48145506D01*
X128284637Y-48048815D01*
X127931083Y-47695261D01*
X127834392Y-47615909D01*
X127724078Y-47556944D01*
X127717763Y-47555028D01*
X127715848Y-47548714D01*
X127656884Y-47438399D01*
X127577531Y-47341708D01*
X127317795Y-47086317D01*
X127093288Y-47086317D01*
X125679605Y-48500000D01*
X125693748Y-48514142D01*
X125514142Y-48693748D01*
X125500000Y-48679605D01*
X124086317Y-50093288D01*
X124086317Y-50317795D01*
X124341708Y-50577531D01*
X124438399Y-50656884D01*
X124548714Y-50715848D01*
X124555028Y-50717763D01*
X124556944Y-50724078D01*
X124615909Y-50834392D01*
X124695261Y-50931083D01*
X125048815Y-51284637D01*
X125145506Y-51363989D01*
X125255820Y-51422954D01*
X125375518Y-51459264D01*
X125500000Y-51471524D01*
X125624482Y-51459264D01*
X125744180Y-51422954D01*
X125854494Y-51363989D01*
X125951185Y-51284637D01*
X126138568Y-51097254D01*
X126815000Y-51773686D01*
X126815001Y-57226313D01*
X126138568Y-57902746D01*
X125951185Y-57715363D01*
X125854494Y-57636011D01*
X125744180Y-57577046D01*
X125624482Y-57540736D01*
X125500000Y-57528476D01*
X125375518Y-57540736D01*
X125255820Y-57577046D01*
X125145506Y-57636011D01*
X125048815Y-57715363D01*
X124695261Y-58068917D01*
X124615909Y-58165608D01*
X124556944Y-58275922D01*
X124555028Y-58282237D01*
X124548714Y-58284152D01*
X124438399Y-58343116D01*
X124341708Y-58422469D01*
X124086317Y-58682205D01*
X124086317Y-58906712D01*
X125500000Y-60320395D01*
X125514142Y-60306252D01*
X125693748Y-60485858D01*
X125679605Y-60500000D01*
X125693748Y-60514143D01*
X125514143Y-60693748D01*
X125500000Y-60679605D01*
X125485858Y-60693748D01*
X125306252Y-60514142D01*
X125320395Y-60500000D01*
X123906712Y-59086317D01*
X123682205Y-59086317D01*
X123422469Y-59341708D01*
X123343116Y-59438399D01*
X123284152Y-59548714D01*
X123282237Y-59555028D01*
X123275922Y-59556944D01*
X123165608Y-59615909D01*
X123068917Y-59695261D01*
X122715363Y-60048815D01*
X122636011Y-60145506D01*
X122577046Y-60255820D01*
X122540736Y-60375518D01*
X122528476Y-60500000D01*
X122540736Y-60624482D01*
X122577046Y-60744180D01*
X122636011Y-60854494D01*
X122715363Y-60951185D01*
X122952645Y-61188467D01*
X122906088Y-61275568D01*
X122826892Y-61536642D01*
X122813462Y-61673000D01*
X120370668Y-61673000D01*
X120171976Y-61657362D01*
X119983034Y-61612002D01*
X119803511Y-61537640D01*
X119637837Y-61436115D01*
X119490081Y-61309919D01*
X119363885Y-61162163D01*
X119262360Y-60996489D01*
X119187998Y-60816966D01*
X119142638Y-60628024D01*
X119127000Y-60429332D01*
X119127000Y-53209934D01*
X119157157Y-53173188D01*
X119285764Y-52932581D01*
X119364960Y-52671507D01*
X119385000Y-52468037D01*
X119385000Y-52468028D01*
X119391700Y-52400001D01*
X119385000Y-52331974D01*
X119385000Y-48668026D01*
X119391700Y-48599999D01*
X119385000Y-48531972D01*
X119385000Y-48531963D01*
X119364960Y-48328493D01*
X119285764Y-48067419D01*
X119157157Y-47826812D01*
X119106396Y-47764960D01*
X119027452Y-47668766D01*
X119027450Y-47668764D01*
X118984081Y-47615919D01*
X118931236Y-47572550D01*
X117827454Y-46468769D01*
X117784081Y-46415919D01*
X117573188Y-46242843D01*
X117332581Y-46114236D01*
X117071507Y-46035040D01*
X116868037Y-46015000D01*
X116868029Y-46015000D01*
X116800000Y-46008300D01*
X116731971Y-46015000D01*
X113373686Y-46015000D01*
X113185000Y-45826315D01*
X113185000Y-44263521D01*
X113225518Y-44275812D01*
X113350000Y-44288072D01*
X113850000Y-44288072D01*
X113974482Y-44275812D01*
X114094180Y-44239502D01*
X114100000Y-44236391D01*
X114105820Y-44239502D01*
X114225518Y-44275812D01*
X114350000Y-44288072D01*
X114714250Y-44285000D01*
X114873000Y-44126250D01*
X114873000Y-42127000D01*
X114853000Y-42127000D01*
X114853000Y-41873000D01*
X114873000Y-41873000D01*
X114873000Y-39873750D01*
X115127000Y-39873750D01*
X115127000Y-41873000D01*
X115147000Y-41873000D01*
X115147000Y-42127000D01*
X115127000Y-42127000D01*
X115127000Y-44126250D01*
X115285750Y-44285000D01*
X115650000Y-44288072D01*
X115774482Y-44275812D01*
X115894180Y-44239502D01*
X115900000Y-44236391D01*
X115905820Y-44239502D01*
X116025518Y-44275812D01*
X116150000Y-44288072D01*
X116650000Y-44288072D01*
X116774482Y-44275812D01*
X116894180Y-44239502D01*
X117004494Y-44180537D01*
X117101185Y-44101185D01*
X117180537Y-44004494D01*
X117239502Y-43894180D01*
X117275812Y-43774482D01*
X117288072Y-43650000D01*
X117288072Y-43385000D01*
X118426315Y-43385000D01*
X122902746Y-47861432D01*
X122715363Y-48048815D01*
X122636011Y-48145506D01*
X122577046Y-48255820D01*
X122540736Y-48375518D01*
X122528476Y-48500000D01*
X122540736Y-48624482D01*
X122577046Y-48744180D01*
X122636011Y-48854494D01*
X122715363Y-48951185D01*
X123068917Y-49304739D01*
X123165608Y-49384091D01*
X123275922Y-49443056D01*
X123282237Y-49444972D01*
X123284152Y-49451286D01*
X123343116Y-49561601D01*
X123422469Y-49658292D01*
X123682205Y-49913683D01*
X123906712Y-49913683D01*
X125320395Y-48500000D01*
X125306253Y-48485858D01*
X125485858Y-48306253D01*
X125500000Y-48320395D01*
X126913683Y-46906712D01*
X126913683Y-46682205D01*
X126658292Y-46422469D01*
X126561601Y-46343116D01*
X126451286Y-46284152D01*
X126444972Y-46282237D01*
X126443056Y-46275922D01*
X126384091Y-46165608D01*
X126304739Y-46068917D01*
X125951185Y-45715363D01*
X125854494Y-45636011D01*
X125744180Y-45577046D01*
X125624482Y-45540736D01*
X125500000Y-45528476D01*
X125375518Y-45540736D01*
X125255820Y-45577046D01*
X125145506Y-45636011D01*
X125048815Y-45715363D01*
X124861432Y-45902746D01*
X120027454Y-41068769D01*
X119984081Y-41015919D01*
X119773188Y-40842843D01*
X119532581Y-40714236D01*
X119271507Y-40635040D01*
X119068037Y-40615000D01*
X119068029Y-40615000D01*
X119000000Y-40608300D01*
X118931971Y-40615000D01*
X117288072Y-40615000D01*
X117288072Y-40350000D01*
X117275812Y-40225518D01*
X117239502Y-40105820D01*
X117180537Y-39995506D01*
X117101185Y-39898815D01*
X117004494Y-39819463D01*
X116894180Y-39760498D01*
X116774482Y-39724188D01*
X116650000Y-39711928D01*
X116150000Y-39711928D01*
X116025518Y-39724188D01*
X115905820Y-39760498D01*
X115900000Y-39763609D01*
X115894180Y-39760498D01*
X115774482Y-39724188D01*
X115650000Y-39711928D01*
X115285750Y-39715000D01*
X115127000Y-39873750D01*
X114873000Y-39873750D01*
X114714250Y-39715000D01*
X114350000Y-39711928D01*
X114225518Y-39724188D01*
X114105820Y-39760498D01*
X114100000Y-39763609D01*
X114094180Y-39760498D01*
X113974482Y-39724188D01*
X113850000Y-39711928D01*
X113350000Y-39711928D01*
X113225518Y-39724188D01*
X113105820Y-39760498D01*
X112995506Y-39819463D01*
X112898815Y-39898815D01*
X112819463Y-39995506D01*
X112760498Y-40105820D01*
X112724188Y-40225518D01*
X112711928Y-40350000D01*
X112711928Y-40685568D01*
X112617418Y-40714237D01*
X112376811Y-40842844D01*
X112218766Y-40972548D01*
X110868764Y-42322551D01*
X110815920Y-42365919D01*
X110772551Y-42418764D01*
X110772548Y-42418767D01*
X110642844Y-42576812D01*
X110514236Y-42817420D01*
X110435040Y-43078493D01*
X110408300Y-43350000D01*
X110415001Y-43418039D01*
X110415000Y-46331971D01*
X110408300Y-46400000D01*
X110415000Y-46468029D01*
X110415000Y-46468036D01*
X110430638Y-46626812D01*
X110435040Y-46671507D01*
X110496647Y-46874596D01*
X110514236Y-46932580D01*
X110642843Y-47173187D01*
X110815919Y-47384080D01*
X110868764Y-47427450D01*
X111772550Y-48331236D01*
X111815919Y-48384081D01*
X111868764Y-48427450D01*
X111868766Y-48427452D01*
X112026812Y-48557157D01*
X112267419Y-48685764D01*
X112528493Y-48764960D01*
X112800000Y-48791701D01*
X112868037Y-48785000D01*
X116226315Y-48785000D01*
X116615001Y-49173686D01*
X116615000Y-50473000D01*
X113581686Y-50473000D01*
X109369306Y-46260621D01*
X109325933Y-46207771D01*
X109115040Y-46034695D01*
X108874433Y-45906088D01*
X108613359Y-45826892D01*
X108409889Y-45806852D01*
X108409881Y-45806852D01*
X108341852Y-45800152D01*
X108273823Y-45806852D01*
X105740111Y-45806852D01*
X105536641Y-45826892D01*
X105275567Y-45906088D01*
X105188466Y-45952644D01*
X104951185Y-45715363D01*
X104854494Y-45636011D01*
X104744180Y-45577046D01*
X104624482Y-45540736D01*
X104500000Y-45528476D01*
X104375518Y-45540736D01*
X104255820Y-45577046D01*
X104145506Y-45636011D01*
X104048815Y-45715363D01*
X103695261Y-46068917D01*
X103615909Y-46165608D01*
X103556944Y-46275922D01*
X103555028Y-46282237D01*
X103548714Y-46284152D01*
X103438399Y-46343116D01*
X103341708Y-46422469D01*
X103086317Y-46682205D01*
X103086317Y-46906712D01*
X104500000Y-48320395D01*
X104514143Y-48306253D01*
X104693748Y-48485858D01*
X104679605Y-48500000D01*
X106093288Y-49913683D01*
X106317795Y-49913683D01*
X106577531Y-49658292D01*
X106656884Y-49561601D01*
X106715848Y-49451286D01*
X106717763Y-49444972D01*
X106724078Y-49443056D01*
X106834392Y-49384091D01*
X106931083Y-49304739D01*
X107284637Y-48951185D01*
X107363989Y-48854494D01*
X107422954Y-48744180D01*
X107459264Y-48624482D01*
X107463955Y-48576852D01*
X107768167Y-48576852D01*
X110966288Y-51774974D01*
X109542230Y-53115264D01*
X109536149Y-53121389D01*
X109351410Y-53320603D01*
X109340566Y-53334021D01*
X109184531Y-53556433D01*
X109175605Y-53571196D01*
X109051153Y-53812705D01*
X109044310Y-53828543D01*
X108953739Y-54084689D01*
X108949105Y-54101307D01*
X108894085Y-54367366D01*
X108891747Y-54384459D01*
X108873293Y-54655519D01*
X108873000Y-54664145D01*
X108873000Y-58567417D01*
X108856707Y-58816011D01*
X108808916Y-59056272D01*
X108730175Y-59288232D01*
X108621829Y-59507938D01*
X108485736Y-59711616D01*
X108321475Y-59898919D01*
X107728108Y-60492286D01*
X107431083Y-60195261D01*
X107334392Y-60115909D01*
X107224078Y-60056944D01*
X107217763Y-60055028D01*
X107215848Y-60048714D01*
X107156884Y-59938399D01*
X107077531Y-59841708D01*
X106817795Y-59586317D01*
X106593288Y-59586317D01*
X105179605Y-61000000D01*
X105193748Y-61014142D01*
X105014143Y-61193748D01*
X105000000Y-61179605D01*
X103586317Y-62593288D01*
X103586317Y-62817795D01*
X103841708Y-63077531D01*
X103938399Y-63156884D01*
X104048714Y-63215848D01*
X104055028Y-63217763D01*
X104056944Y-63224078D01*
X104115909Y-63334392D01*
X104195261Y-63431083D01*
X104400471Y-63636293D01*
X103547601Y-64415000D01*
X102373686Y-64415000D01*
X100385000Y-62426315D01*
X100385000Y-51000000D01*
X100608300Y-51000000D01*
X100615001Y-51068039D01*
X100615000Y-57931971D01*
X100608300Y-58000000D01*
X100615000Y-58068029D01*
X100615000Y-58068036D01*
X100631502Y-58235582D01*
X100635040Y-58271507D01*
X100675440Y-58404686D01*
X100714236Y-58532580D01*
X100842843Y-58773187D01*
X100864848Y-58800000D01*
X100963613Y-58920345D01*
X101015919Y-58984080D01*
X101068765Y-59027450D01*
X102402746Y-60361432D01*
X102215363Y-60548815D01*
X102136011Y-60645506D01*
X102077046Y-60755820D01*
X102040736Y-60875518D01*
X102028476Y-61000000D01*
X102040736Y-61124482D01*
X102077046Y-61244180D01*
X102136011Y-61354494D01*
X102215363Y-61451185D01*
X102568917Y-61804739D01*
X102665608Y-61884091D01*
X102775922Y-61943056D01*
X102782237Y-61944972D01*
X102784152Y-61951286D01*
X102843116Y-62061601D01*
X102922469Y-62158292D01*
X103182205Y-62413683D01*
X103406712Y-62413683D01*
X104820395Y-61000000D01*
X104806252Y-60985858D01*
X104985858Y-60806252D01*
X105000000Y-60820395D01*
X106413683Y-59406712D01*
X106413683Y-59182205D01*
X106158292Y-58922469D01*
X106061601Y-58843116D01*
X105951286Y-58784152D01*
X105944972Y-58782237D01*
X105943056Y-58775922D01*
X105884091Y-58665608D01*
X105804739Y-58568917D01*
X105451185Y-58215363D01*
X105354494Y-58136011D01*
X105244180Y-58077046D01*
X105124482Y-58040736D01*
X105000000Y-58028476D01*
X104875518Y-58040736D01*
X104755820Y-58077046D01*
X104645506Y-58136011D01*
X104548815Y-58215363D01*
X104361432Y-58402746D01*
X103385000Y-57426315D01*
X103385000Y-51573685D01*
X103861432Y-51097254D01*
X104048815Y-51284637D01*
X104145506Y-51363989D01*
X104255820Y-51422954D01*
X104375518Y-51459264D01*
X104500000Y-51471524D01*
X104624482Y-51459264D01*
X104744180Y-51422954D01*
X104854494Y-51363989D01*
X104951185Y-51284637D01*
X105304739Y-50931083D01*
X105384091Y-50834392D01*
X105443056Y-50724078D01*
X105444972Y-50717763D01*
X105451286Y-50715848D01*
X105561601Y-50656884D01*
X105658292Y-50577531D01*
X105913683Y-50317795D01*
X105913683Y-50093288D01*
X104500000Y-48679605D01*
X104485858Y-48693748D01*
X104306252Y-48514142D01*
X104320395Y-48500000D01*
X102906712Y-47086317D01*
X102682205Y-47086317D01*
X102422469Y-47341708D01*
X102343116Y-47438399D01*
X102284152Y-47548714D01*
X102282237Y-47555028D01*
X102275922Y-47556944D01*
X102165608Y-47615909D01*
X102068917Y-47695261D01*
X101715363Y-48048815D01*
X101636011Y-48145506D01*
X101577046Y-48255820D01*
X101540736Y-48375518D01*
X101528476Y-48500000D01*
X101540736Y-48624482D01*
X101577046Y-48744180D01*
X101636011Y-48854494D01*
X101715363Y-48951185D01*
X101902746Y-49138568D01*
X101068764Y-49972551D01*
X101015920Y-50015919D01*
X100972551Y-50068764D01*
X100972548Y-50068767D01*
X100842844Y-50226812D01*
X100714236Y-50467420D01*
X100635040Y-50728493D01*
X100608300Y-51000000D01*
X100385000Y-51000000D01*
X100385000Y-42838072D01*
X100450001Y-42838072D01*
X100623255Y-42821008D01*
X100789851Y-42770472D01*
X100943387Y-42688405D01*
X101077962Y-42577962D01*
X101188405Y-42443387D01*
X101270472Y-42289851D01*
X101321008Y-42123255D01*
X101338072Y-41950001D01*
X101338072Y-38131753D01*
X101404530Y-38127000D01*
X127437629Y-38127000D01*
X127705027Y-38145865D01*
%TD*%
M02*
