<?xml version="1.0" standalone="no"?>
 <!DOCTYPE svg PUBLIC "-//W3C//DTD SVG 1.1//EN" 
 "http://www.w3.org/Graphics/SVG/1.1/DTD/svg11.dtd"> 
<svg
  xmlns:svg="http://www.w3.org/2000/svg"
  xmlns="http://www.w3.org/2000/svg"
  xmlns:xlink="http://www.w3.org/1999/xlink"
  version="1.1"
  width="19.999960cm" height="15.100300cm" viewBox="0 0 78740 59450">
<title>SVG Picture created as AL8853_Led_driver.svg date 2020/07/17 19:56:56 </title>
  <desc>Picture generated by Eeschema-SVG </desc>
<g style="fill:#000000; fill-opacity:1;stroke:#000000; stroke-opacity:1;
stroke-linecap:round; stroke-linejoin:round;"
 transform="translate(0 0) scale(1 1)">
</g>
<g style="fill:#000000; fill-opacity:0.0; 
stroke:#000000; stroke-width:0; stroke-opacity:1; 
stroke-linecap:round; stroke-linejoin:round;">
<g >
</g>
<g style="fill:#840000; fill-opacity:0.0; 
stroke:#840000; stroke-width:0; stroke-opacity:1; 
stroke-linecap:round; stroke-linejoin:round;">
</g>
<g style="fill:#840000; fill-opacity:0.0; 
stroke:#840000; stroke-width:60; stroke-opacity:1; 
stroke-linecap:round; stroke-linejoin:round;">
<path d="M30000 16999.6 A250 250 0.0 0 0 29500 16999.6" />
<path d="M29500 16999.6 A250 250 0.0 0 0 29000 16999.6" />
<path d="M29000 16999.6 A250 250 0.0 0 0 28500 16999.6" />
<path d="M28500 16999.6 A250 250 0.0 0 0 28000 16999.6" />
<path d="M28000 17000
L27500 17000
" />
<path d="M30000 17000
L30500 17000
" />
</g>
<g style="fill:#008484; fill-opacity:0.0; 
stroke:#008484; stroke-width:60; stroke-opacity:1; 
stroke-linecap:round; stroke-linejoin:round;">
<text x="29000" y="16220"
textLength="940" font-size="660" lengthAdjust="spacingAndGlyphs"
text-anchor="middle" opacity="0">L1</text>
<path d="M28910 16190
L28670 16190
L28670 15690
" />
<path d="M29340 16190
L29050 16190
" />
<path d="M29200 16190
L29200 15690
L29150 15760
L29100 15810
L29050 15830
" />
<text x="28990" y="18220"
textLength="1990" font-size="660" lengthAdjust="spacingAndGlyphs"
text-anchor="middle" opacity="0">47uH</text>
<path d="M28350 17860
L28350 18190
" />
<path d="M28240 17670
L28120 18020
L28430 18020
" />
<path d="M28570 17690
L28900 17690
L28690 18190
" />
<path d="M29310 17860
L29310 18190
" />
<path d="M29090 17860
L29090 18120
L29120 18170
L29160 18190
L29240 18190
L29280 18170
L29310 18140
" />
<path d="M29540 18190
L29540 17690
" />
<path d="M29540 17930
L29830 17930
" />
<path d="M29830 18190
L29830 17690
" />
</g>
</g>
<g style="fill:#008484; fill-opacity:0.0; 
stroke:#008484; stroke-width:0; stroke-opacity:1; 
stroke-linecap:round; stroke-linejoin:round;">
<g >
</g>
<g style="fill:#840000; fill-opacity:0.0; 
stroke:#840000; stroke-width:0; stroke-opacity:1; 
stroke-linecap:round; stroke-linejoin:round;">
</g>
<g style="fill:#840000; fill-opacity:0.0; 
stroke:#840000; stroke-width:60; stroke-opacity:1; 
stroke-linecap:round; stroke-linejoin:round;">
<path style="fill:#840000; fill-opacity:0.0; 
stroke:#840000; stroke-width:60; stroke-opacity:1; 
stroke-linecap:round; stroke-linejoin:round;fill:none"
d="M 19000,14000
19000,14500
19500,14500
19000,15000
18500,14500
19000,14500
" /> 
</g>
<g style="fill:#008484; fill-opacity:0.0; 
stroke:#008484; stroke-width:60; stroke-opacity:1; 
stroke-linecap:round; stroke-linejoin:round;">
<text x="19050" y="16000"
textLength="1580" font-size="660" lengthAdjust="spacingAndGlyphs"
text-anchor="middle" opacity="0">GND</text>
<path d="M18660 15500
L18620 15470
L18550 15470
L18470 15500
L18430 15540
L18400 15590
L18380 15690
L18380 15760
L18400 15850
L18430 15900
L18470 15950
L18550 15970
L18590 15970
L18660 15950
L18690 15920
L18690 15760
L18590 15760
" />
<path d="M18900 15970
L18900 15470
L19190 15970
L19190 15470
" />
<path d="M19430 15970
L19430 15470
L19550 15470
L19620 15500
L19660 15540
L19690 15590
L19710 15690
L19710 15760
L19690 15850
L19660 15900
L19620 15950
L19550 15970
L19430 15970
" />
</g>
</g>
<g style="fill:#008484; fill-opacity:0.0; 
stroke:#008484; stroke-width:0; stroke-opacity:1; 
stroke-linecap:round; stroke-linejoin:round;">
<g >
</g>
<g style="fill:#840000; fill-opacity:0.0; 
stroke:#840000; stroke-width:0; stroke-opacity:1; 
stroke-linecap:round; stroke-linejoin:round;">
</g>
<g style="fill:#840000; fill-opacity:0.0; 
stroke:#840000; stroke-width:100; stroke-opacity:1; 
stroke-linecap:round; stroke-linejoin:round;">
<path style="fill:#840000; fill-opacity:0.0; 
stroke:#840000; stroke-width:100; stroke-opacity:1; 
stroke-linecap:round; stroke-linejoin:round;fill:none"
d="M 61000,27000
60000,27000
" /> 
</g>
<g style="fill:#840000; fill-opacity:0.0; 
stroke:#840000; stroke-width:60; stroke-opacity:1; 
stroke-linecap:round; stroke-linejoin:round;">
<path style="fill:#840000; fill-opacity:0.0; 
stroke:#840000; stroke-width:60; stroke-opacity:1; 
stroke-linecap:round; stroke-linejoin:round;fill:none"
d="M 60500,27000
60500,26000
" /> 
</g>
<g style="fill:#840000; fill-opacity:0.0; 
stroke:#840000; stroke-width:100; stroke-opacity:1; 
stroke-linecap:round; stroke-linejoin:round;">
<path style="fill:#840000; fill-opacity:0.0; 
stroke:#840000; stroke-width:100; stroke-opacity:1; 
stroke-linecap:round; stroke-linejoin:round;fill:none"
d="M 61000,26000
60000,26000
60500,27000
Z" /> 
</g>
<g style="fill:#840000; fill-opacity:0.0; 
stroke:#840000; stroke-width:60; stroke-opacity:1; 
stroke-linecap:round; stroke-linejoin:round;">
<path style="fill:#840000; fill-opacity:0.0; 
stroke:#840000; stroke-width:60; stroke-opacity:1; 
stroke-linecap:round; stroke-linejoin:round;fill:none"
d="M 60800,27700
61400,28300
61400,28000
61400,28300
61100,28300
" /> 
<path style="fill:#840000; fill-opacity:0.0; 
stroke:#840000; stroke-width:60; stroke-opacity:1; 
stroke-linecap:round; stroke-linejoin:round;fill:none"
d="M 60800,27200
61400,27800
61400,27500
61400,27800
61100,27800
" /> 
<path d="M60500 27000
L60500 28000
" />
<path d="M60500 26000
L60500 25000
" />
</g>
<g style="fill:#008484; fill-opacity:0.0; 
stroke:#008484; stroke-width:60; stroke-opacity:1; 
stroke-linecap:round; stroke-linejoin:round;">
<text x="62200" y="26330"
textLength="1040" font-size="660" lengthAdjust="spacingAndGlyphs"
text-anchor="middle" opacity="0">D8</text>
<path d="M61830 26300
L61830 25800
L61950 25800
L62020 25830
L62060 25870
L62090 25920
L62110 26020
L62110 26090
L62090 26180
L62060 26230
L62020 26280
L61950 26300
L61830 26300
" />
<path d="M62400 26020
L62350 25990
L62330 25970
L62300 25920
L62300 25900
L62330 25850
L62350 25830
L62400 25800
L62490 25800
L62540 25830
L62560 25850
L62590 25900
L62590 25920
L62560 25970
L62540 25990
L62490 26020
L62400 26020
L62350 26040
L62330 26060
L62300 26110
L62300 26210
L62330 26250
L62350 26280
L62400 26300
L62490 26300
L62540 26280
L62560 26250
L62590 26210
L62590 26110
L62560 26060
L62540 26040
L62490 26020
" />
<text x="62390" y="27240"
textLength="1420" font-size="660" lengthAdjust="spacingAndGlyphs"
text-anchor="middle" opacity="0">LED</text>
<path d="M62060 27210
L61830 27210
L61830 26710
" />
<path d="M62230 26950
L62400 26950
" />
<path d="M62470 27210
L62230 27210
L62230 26710
L62470 26710
" />
<path d="M62680 27210
L62680 26710
L62800 26710
L62870 26740
L62920 26780
L62940 26830
L62970 26930
L62970 27000
L62940 27090
L62920 27140
L62870 27190
L62800 27210
L62680 27210
" />
</g>
</g>
<g style="fill:#008484; fill-opacity:0.0; 
stroke:#008484; stroke-width:0; stroke-opacity:1; 
stroke-linecap:round; stroke-linejoin:round;">
<g >
</g>
<g style="fill:#840000; fill-opacity:0.0; 
stroke:#840000; stroke-width:0; stroke-opacity:1; 
stroke-linecap:round; stroke-linejoin:round;">
</g>
<g style="fill:#840000; fill-opacity:0.0; 
stroke:#840000; stroke-width:100; stroke-opacity:1; 
stroke-linecap:round; stroke-linejoin:round;">
<path style="fill:#840000; fill-opacity:0.0; 
stroke:#840000; stroke-width:100; stroke-opacity:1; 
stroke-linecap:round; stroke-linejoin:round;fill:none"
d="M 61000,23500
60000,23500
" /> 
</g>
<g style="fill:#840000; fill-opacity:0.0; 
stroke:#840000; stroke-width:60; stroke-opacity:1; 
stroke-linecap:round; stroke-linejoin:round;">
<path style="fill:#840000; fill-opacity:0.0; 
stroke:#840000; stroke-width:60; stroke-opacity:1; 
stroke-linecap:round; stroke-linejoin:round;fill:none"
d="M 60500,23500
60500,22500
" /> 
</g>
<g style="fill:#840000; fill-opacity:0.0; 
stroke:#840000; stroke-width:100; stroke-opacity:1; 
stroke-linecap:round; stroke-linejoin:round;">
<path style="fill:#840000; fill-opacity:0.0; 
stroke:#840000; stroke-width:100; stroke-opacity:1; 
stroke-linecap:round; stroke-linejoin:round;fill:none"
d="M 61000,22500
60000,22500
60500,23500
Z" /> 
</g>
<g style="fill:#840000; fill-opacity:0.0; 
stroke:#840000; stroke-width:60; stroke-opacity:1; 
stroke-linecap:round; stroke-linejoin:round;">
<path style="fill:#840000; fill-opacity:0.0; 
stroke:#840000; stroke-width:60; stroke-opacity:1; 
stroke-linecap:round; stroke-linejoin:round;fill:none"
d="M 60800,24200
61400,24800
61400,24500
61400,24800
61100,24800
" /> 
<path style="fill:#840000; fill-opacity:0.0; 
stroke:#840000; stroke-width:60; stroke-opacity:1; 
stroke-linecap:round; stroke-linejoin:round;fill:none"
d="M 60800,23700
61400,24300
61400,24000
61400,24300
61100,24300
" /> 
<path d="M60500 23500
L60500 24500
" />
<path d="M60500 22500
L60500 21500
" />
</g>
<g style="fill:#008484; fill-opacity:0.0; 
stroke:#008484; stroke-width:60; stroke-opacity:1; 
stroke-linecap:round; stroke-linejoin:round;">
<text x="62200" y="22830"
textLength="1040" font-size="660" lengthAdjust="spacingAndGlyphs"
text-anchor="middle" opacity="0">D7</text>
<path d="M61830 22800
L61830 22300
L61950 22300
L62020 22330
L62060 22370
L62090 22420
L62110 22520
L62110 22590
L62090 22680
L62060 22730
L62020 22780
L61950 22800
L61830 22800
" />
<path d="M62280 22300
L62610 22300
L62400 22800
" />
<text x="62390" y="23740"
textLength="1420" font-size="660" lengthAdjust="spacingAndGlyphs"
text-anchor="middle" opacity="0">LED</text>
<path d="M62060 23710
L61830 23710
L61830 23210
" />
<path d="M62230 23450
L62400 23450
" />
<path d="M62470 23710
L62230 23710
L62230 23210
L62470 23210
" />
<path d="M62680 23710
L62680 23210
L62800 23210
L62870 23240
L62920 23280
L62940 23330
L62970 23430
L62970 23500
L62940 23590
L62920 23640
L62870 23690
L62800 23710
L62680 23710
" />
</g>
</g>
<g style="fill:#008484; fill-opacity:0.0; 
stroke:#008484; stroke-width:0; stroke-opacity:1; 
stroke-linecap:round; stroke-linejoin:round;">
<g >
</g>
<g style="fill:#840000; fill-opacity:0.0; 
stroke:#840000; stroke-width:0; stroke-opacity:1; 
stroke-linecap:round; stroke-linejoin:round;">
</g>
<g style="fill:#840000; fill-opacity:0.0; 
stroke:#840000; stroke-width:100; stroke-opacity:1; 
stroke-linecap:round; stroke-linejoin:round;">
<path style="fill:#840000; fill-opacity:0.0; 
stroke:#840000; stroke-width:100; stroke-opacity:1; 
stroke-linecap:round; stroke-linejoin:round;fill:none"
d="M 61000,19500
60000,19500
" /> 
</g>
<g style="fill:#840000; fill-opacity:0.0; 
stroke:#840000; stroke-width:60; stroke-opacity:1; 
stroke-linecap:round; stroke-linejoin:round;">
<path style="fill:#840000; fill-opacity:0.0; 
stroke:#840000; stroke-width:60; stroke-opacity:1; 
stroke-linecap:round; stroke-linejoin:round;fill:none"
d="M 60500,19500
60500,18500
" /> 
</g>
<g style="fill:#840000; fill-opacity:0.0; 
stroke:#840000; stroke-width:100; stroke-opacity:1; 
stroke-linecap:round; stroke-linejoin:round;">
<path style="fill:#840000; fill-opacity:0.0; 
stroke:#840000; stroke-width:100; stroke-opacity:1; 
stroke-linecap:round; stroke-linejoin:round;fill:none"
d="M 61000,18500
60000,18500
60500,19500
Z" /> 
</g>
<g style="fill:#840000; fill-opacity:0.0; 
stroke:#840000; stroke-width:60; stroke-opacity:1; 
stroke-linecap:round; stroke-linejoin:round;">
<path style="fill:#840000; fill-opacity:0.0; 
stroke:#840000; stroke-width:60; stroke-opacity:1; 
stroke-linecap:round; stroke-linejoin:round;fill:none"
d="M 60800,20200
61400,20800
61400,20500
61400,20800
61100,20800
" /> 
<path style="fill:#840000; fill-opacity:0.0; 
stroke:#840000; stroke-width:60; stroke-opacity:1; 
stroke-linecap:round; stroke-linejoin:round;fill:none"
d="M 60800,19700
61400,20300
61400,20000
61400,20300
61100,20300
" /> 
<path d="M60500 19500
L60500 20500
" />
<path d="M60500 18500
L60500 17500
" />
</g>
<g style="fill:#008484; fill-opacity:0.0; 
stroke:#008484; stroke-width:60; stroke-opacity:1; 
stroke-linecap:round; stroke-linejoin:round;">
<text x="62200" y="18830"
textLength="1040" font-size="660" lengthAdjust="spacingAndGlyphs"
text-anchor="middle" opacity="0">D6</text>
<path d="M61830 18800
L61830 18300
L61950 18300
L62020 18330
L62060 18370
L62090 18420
L62110 18520
L62110 18590
L62090 18680
L62060 18730
L62020 18780
L61950 18800
L61830 18800
" />
<path d="M62540 18300
L62450 18300
L62400 18330
L62370 18350
L62330 18420
L62300 18520
L62300 18710
L62330 18750
L62350 18780
L62400 18800
L62490 18800
L62540 18780
L62560 18750
L62590 18710
L62590 18590
L62560 18540
L62540 18520
L62490 18490
L62400 18490
L62350 18520
L62330 18540
L62300 18590
" />
<text x="62390" y="19740"
textLength="1420" font-size="660" lengthAdjust="spacingAndGlyphs"
text-anchor="middle" opacity="0">LED</text>
<path d="M62060 19710
L61830 19710
L61830 19210
" />
<path d="M62230 19450
L62400 19450
" />
<path d="M62470 19710
L62230 19710
L62230 19210
L62470 19210
" />
<path d="M62680 19710
L62680 19210
L62800 19210
L62870 19240
L62920 19280
L62940 19330
L62970 19430
L62970 19500
L62940 19590
L62920 19640
L62870 19690
L62800 19710
L62680 19710
" />
</g>
</g>
<g style="fill:#008484; fill-opacity:0.0; 
stroke:#008484; stroke-width:0; stroke-opacity:1; 
stroke-linecap:round; stroke-linejoin:round;">
<g >
</g>
<g style="fill:#840000; fill-opacity:0.0; 
stroke:#840000; stroke-width:0; stroke-opacity:1; 
stroke-linecap:round; stroke-linejoin:round;">
</g>
<g style="fill:#840000; fill-opacity:0.0; 
stroke:#840000; stroke-width:100; stroke-opacity:1; 
stroke-linecap:round; stroke-linejoin:round;">
<path style="fill:#840000; fill-opacity:0.0; 
stroke:#840000; stroke-width:100; stroke-opacity:1; 
stroke-linecap:round; stroke-linejoin:round;fill:none"
d="M 55500,27000
54500,27000
" /> 
</g>
<g style="fill:#840000; fill-opacity:0.0; 
stroke:#840000; stroke-width:60; stroke-opacity:1; 
stroke-linecap:round; stroke-linejoin:round;">
<path style="fill:#840000; fill-opacity:0.0; 
stroke:#840000; stroke-width:60; stroke-opacity:1; 
stroke-linecap:round; stroke-linejoin:round;fill:none"
d="M 55000,27000
55000,26000
" /> 
</g>
<g style="fill:#840000; fill-opacity:0.0; 
stroke:#840000; stroke-width:100; stroke-opacity:1; 
stroke-linecap:round; stroke-linejoin:round;">
<path style="fill:#840000; fill-opacity:0.0; 
stroke:#840000; stroke-width:100; stroke-opacity:1; 
stroke-linecap:round; stroke-linejoin:round;fill:none"
d="M 55500,26000
54500,26000
55000,27000
Z" /> 
</g>
<g style="fill:#840000; fill-opacity:0.0; 
stroke:#840000; stroke-width:60; stroke-opacity:1; 
stroke-linecap:round; stroke-linejoin:round;">
<path style="fill:#840000; fill-opacity:0.0; 
stroke:#840000; stroke-width:60; stroke-opacity:1; 
stroke-linecap:round; stroke-linejoin:round;fill:none"
d="M 55300,27700
55900,28300
55900,28000
55900,28300
55600,28300
" /> 
<path style="fill:#840000; fill-opacity:0.0; 
stroke:#840000; stroke-width:60; stroke-opacity:1; 
stroke-linecap:round; stroke-linejoin:round;fill:none"
d="M 55300,27200
55900,27800
55900,27500
55900,27800
55600,27800
" /> 
<path d="M55000 27000
L55000 28000
" />
<path d="M55000 26000
L55000 25000
" />
</g>
<g style="fill:#008484; fill-opacity:0.0; 
stroke:#008484; stroke-width:60; stroke-opacity:1; 
stroke-linecap:round; stroke-linejoin:round;">
<text x="56700" y="26330"
textLength="1040" font-size="660" lengthAdjust="spacingAndGlyphs"
text-anchor="middle" opacity="0">D5</text>
<path d="M56330 26300
L56330 25800
L56450 25800
L56520 25830
L56560 25870
L56590 25920
L56610 26020
L56610 26090
L56590 26180
L56560 26230
L56520 26280
L56450 26300
L56330 26300
" />
<path d="M57060 25800
L56830 25800
L56800 26040
L56830 26020
L56870 25990
L56990 25990
L57040 26020
L57060 26040
L57090 26090
L57090 26210
L57060 26250
L57040 26280
L56990 26300
L56870 26300
L56830 26280
L56800 26250
" />
<text x="56890" y="27240"
textLength="1420" font-size="660" lengthAdjust="spacingAndGlyphs"
text-anchor="middle" opacity="0">LED</text>
<path d="M56560 27210
L56330 27210
L56330 26710
" />
<path d="M56730 26950
L56900 26950
" />
<path d="M56970 27210
L56730 27210
L56730 26710
L56970 26710
" />
<path d="M57180 27210
L57180 26710
L57300 26710
L57370 26740
L57420 26780
L57440 26830
L57470 26930
L57470 27000
L57440 27090
L57420 27140
L57370 27190
L57300 27210
L57180 27210
" />
</g>
</g>
<g style="fill:#008484; fill-opacity:0.0; 
stroke:#008484; stroke-width:0; stroke-opacity:1; 
stroke-linecap:round; stroke-linejoin:round;">
<g >
</g>
<g style="fill:#840000; fill-opacity:0.0; 
stroke:#840000; stroke-width:0; stroke-opacity:1; 
stroke-linecap:round; stroke-linejoin:round;">
</g>
<g style="fill:#840000; fill-opacity:0.0; 
stroke:#840000; stroke-width:100; stroke-opacity:1; 
stroke-linecap:round; stroke-linejoin:round;">
<path style="fill:#840000; fill-opacity:0.0; 
stroke:#840000; stroke-width:100; stroke-opacity:1; 
stroke-linecap:round; stroke-linejoin:round;fill:none"
d="M 55500,23500
54500,23500
" /> 
</g>
<g style="fill:#840000; fill-opacity:0.0; 
stroke:#840000; stroke-width:60; stroke-opacity:1; 
stroke-linecap:round; stroke-linejoin:round;">
<path style="fill:#840000; fill-opacity:0.0; 
stroke:#840000; stroke-width:60; stroke-opacity:1; 
stroke-linecap:round; stroke-linejoin:round;fill:none"
d="M 55000,23500
55000,22500
" /> 
</g>
<g style="fill:#840000; fill-opacity:0.0; 
stroke:#840000; stroke-width:100; stroke-opacity:1; 
stroke-linecap:round; stroke-linejoin:round;">
<path style="fill:#840000; fill-opacity:0.0; 
stroke:#840000; stroke-width:100; stroke-opacity:1; 
stroke-linecap:round; stroke-linejoin:round;fill:none"
d="M 55500,22500
54500,22500
55000,23500
Z" /> 
</g>
<g style="fill:#840000; fill-opacity:0.0; 
stroke:#840000; stroke-width:60; stroke-opacity:1; 
stroke-linecap:round; stroke-linejoin:round;">
<path style="fill:#840000; fill-opacity:0.0; 
stroke:#840000; stroke-width:60; stroke-opacity:1; 
stroke-linecap:round; stroke-linejoin:round;fill:none"
d="M 55300,24200
55900,24800
55900,24500
55900,24800
55600,24800
" /> 
<path style="fill:#840000; fill-opacity:0.0; 
stroke:#840000; stroke-width:60; stroke-opacity:1; 
stroke-linecap:round; stroke-linejoin:round;fill:none"
d="M 55300,23700
55900,24300
55900,24000
55900,24300
55600,24300
" /> 
<path d="M55000 23500
L55000 24500
" />
<path d="M55000 22500
L55000 21500
" />
</g>
<g style="fill:#008484; fill-opacity:0.0; 
stroke:#008484; stroke-width:60; stroke-opacity:1; 
stroke-linecap:round; stroke-linejoin:round;">
<text x="56700" y="22830"
textLength="1040" font-size="660" lengthAdjust="spacingAndGlyphs"
text-anchor="middle" opacity="0">D4</text>
<path d="M56330 22800
L56330 22300
L56450 22300
L56520 22330
L56560 22370
L56590 22420
L56610 22520
L56610 22590
L56590 22680
L56560 22730
L56520 22780
L56450 22800
L56330 22800
" />
<path d="M57040 22470
L57040 22800
" />
<path d="M56920 22280
L56800 22630
L57110 22630
" />
<text x="56890" y="23740"
textLength="1420" font-size="660" lengthAdjust="spacingAndGlyphs"
text-anchor="middle" opacity="0">LED</text>
<path d="M56560 23710
L56330 23710
L56330 23210
" />
<path d="M56730 23450
L56900 23450
" />
<path d="M56970 23710
L56730 23710
L56730 23210
L56970 23210
" />
<path d="M57180 23710
L57180 23210
L57300 23210
L57370 23240
L57420 23280
L57440 23330
L57470 23430
L57470 23500
L57440 23590
L57420 23640
L57370 23690
L57300 23710
L57180 23710
" />
</g>
</g>
<g style="fill:#008484; fill-opacity:0.0; 
stroke:#008484; stroke-width:0; stroke-opacity:1; 
stroke-linecap:round; stroke-linejoin:round;">
<g >
</g>
<g style="fill:#840000; fill-opacity:0.0; 
stroke:#840000; stroke-width:0; stroke-opacity:1; 
stroke-linecap:round; stroke-linejoin:round;">
</g>
<g style="fill:#840000; fill-opacity:0.0; 
stroke:#840000; stroke-width:100; stroke-opacity:1; 
stroke-linecap:round; stroke-linejoin:round;">
<path style="fill:#840000; fill-opacity:0.0; 
stroke:#840000; stroke-width:100; stroke-opacity:1; 
stroke-linecap:round; stroke-linejoin:round;fill:none"
d="M 55500,19500
54500,19500
" /> 
</g>
<g style="fill:#840000; fill-opacity:0.0; 
stroke:#840000; stroke-width:60; stroke-opacity:1; 
stroke-linecap:round; stroke-linejoin:round;">
<path style="fill:#840000; fill-opacity:0.0; 
stroke:#840000; stroke-width:60; stroke-opacity:1; 
stroke-linecap:round; stroke-linejoin:round;fill:none"
d="M 55000,19500
55000,18500
" /> 
</g>
<g style="fill:#840000; fill-opacity:0.0; 
stroke:#840000; stroke-width:100; stroke-opacity:1; 
stroke-linecap:round; stroke-linejoin:round;">
<path style="fill:#840000; fill-opacity:0.0; 
stroke:#840000; stroke-width:100; stroke-opacity:1; 
stroke-linecap:round; stroke-linejoin:round;fill:none"
d="M 55500,18500
54500,18500
55000,19500
Z" /> 
</g>
<g style="fill:#840000; fill-opacity:0.0; 
stroke:#840000; stroke-width:60; stroke-opacity:1; 
stroke-linecap:round; stroke-linejoin:round;">
<path style="fill:#840000; fill-opacity:0.0; 
stroke:#840000; stroke-width:60; stroke-opacity:1; 
stroke-linecap:round; stroke-linejoin:round;fill:none"
d="M 55300,20200
55900,20800
55900,20500
55900,20800
55600,20800
" /> 
<path style="fill:#840000; fill-opacity:0.0; 
stroke:#840000; stroke-width:60; stroke-opacity:1; 
stroke-linecap:round; stroke-linejoin:round;fill:none"
d="M 55300,19700
55900,20300
55900,20000
55900,20300
55600,20300
" /> 
<path d="M55000 19500
L55000 20500
" />
<path d="M55000 18500
L55000 17500
" />
</g>
<g style="fill:#008484; fill-opacity:0.0; 
stroke:#008484; stroke-width:60; stroke-opacity:1; 
stroke-linecap:round; stroke-linejoin:round;">
<text x="56700" y="18830"
textLength="1040" font-size="660" lengthAdjust="spacingAndGlyphs"
text-anchor="middle" opacity="0">D3</text>
<path d="M56330 18800
L56330 18300
L56450 18300
L56520 18330
L56560 18370
L56590 18420
L56610 18520
L56610 18590
L56590 18680
L56560 18730
L56520 18780
L56450 18800
L56330 18800
" />
<path d="M56780 18300
L57090 18300
L56920 18490
L56990 18490
L57040 18520
L57060 18540
L57090 18590
L57090 18710
L57060 18750
L57040 18780
L56990 18800
L56850 18800
L56800 18780
L56780 18750
" />
<text x="56890" y="19740"
textLength="1420" font-size="660" lengthAdjust="spacingAndGlyphs"
text-anchor="middle" opacity="0">LED</text>
<path d="M56560 19710
L56330 19710
L56330 19210
" />
<path d="M56730 19450
L56900 19450
" />
<path d="M56970 19710
L56730 19710
L56730 19210
L56970 19210
" />
<path d="M57180 19710
L57180 19210
L57300 19210
L57370 19240
L57420 19280
L57440 19330
L57470 19430
L57470 19500
L57440 19590
L57420 19640
L57370 19690
L57300 19710
L57180 19710
" />
</g>
</g>
<g style="fill:#008484; fill-opacity:0.0; 
stroke:#008484; stroke-width:0; stroke-opacity:1; 
stroke-linecap:round; stroke-linejoin:round;">
<g >
</g>
<g style="fill:#840000; fill-opacity:0.0; 
stroke:#840000; stroke-width:0; stroke-opacity:1; 
stroke-linecap:round; stroke-linejoin:round;">
</g>
<g style="fill:#FFFFC2; fill-opacity:0.0; 
stroke:#FFFFC2; stroke-width:0; stroke-opacity:1; 
stroke-linecap:round; stroke-linejoin:round;">
</g>
<g style="fill:#FFFFC2; fill-opacity:0.6; 
stroke:#FFFFC2; stroke-width:0; stroke-opacity:1; 
stroke-linecap:round; stroke-linejoin:round;">
<rect x="21000" y="20000" width="7000" height="7500" rx="0" />
</g>
<g style="fill:#840000; fill-opacity:0.6; 
stroke:#840000; stroke-width:0; stroke-opacity:1; 
stroke-linecap:round; stroke-linejoin:round;">
</g>
<g style="fill:#840000; fill-opacity:0.0; 
stroke:#840000; stroke-width:100; stroke-opacity:1; 
stroke-linecap:round; stroke-linejoin:round;">
<rect x="21000" y="20000" width="7000" height="7500" rx="0" />
<rect x="21000" y="20000" width="7000" height="7500" rx="0" />
</g>
<g style="fill:#840000; fill-opacity:0.0; 
stroke:#840000; stroke-width:60; stroke-opacity:1; 
stroke-linecap:round; stroke-linejoin:round;">
<path d="M24500 20000
L24500 19000
" />
</g>
<g style="fill:#008484; fill-opacity:0.0; 
stroke:#008484; stroke-width:60; stroke-opacity:1; 
stroke-linecap:round; stroke-linejoin:round;">
<g transform="rotate(-90 24500 20200)">
<text x="24500" y="20450"
textLength="1250" font-size="660" lengthAdjust="spacingAndGlyphs"
text-anchor="end" opacity="0">VIN</text>
</g>
<path d="M24220 21370
L24720 21200
L24220 21030
" />
<path d="M24720 20870
L24220 20870
" />
<path d="M24720 20630
L24220 20630
L24720 20340
L24220 20340
" />
</g>
<g style="fill:#840000; fill-opacity:0.0; 
stroke:#840000; stroke-width:60; stroke-opacity:1; 
stroke-linecap:round; stroke-linejoin:round;">
<g transform="rotate(-90 24400 19500)">
<text x="24400" y="19500"
textLength="540" font-size="660" lengthAdjust="spacingAndGlyphs"
text-anchor="middle" opacity="0">1</text>
</g>
<path d="M24370 19350
L24370 19640
" />
<path d="M24370 19500
L23870 19500
L23940 19540
L23990 19590
L24010 19640
" />
<path d="M28000 21000
L29000 21000
" />
</g>
<g style="fill:#008484; fill-opacity:0.0; 
stroke:#008484; stroke-width:60; stroke-opacity:1; 
stroke-linecap:round; stroke-linejoin:round;">
<text x="27800" y="21250"
textLength="1820" font-size="660" lengthAdjust="spacingAndGlyphs"
text-anchor="end" opacity="0">GATE</text>
<path d="M26380 20750
L26340 20720
L26270 20720
L26190 20750
L26150 20790
L26120 20840
L26100 20940
L26100 21010
L26120 21100
L26150 21150
L26190 21200
L26270 21220
L26310 21220
L26380 21200
L26410 21170
L26410 21010
L26310 21010
" />
<path d="M26600 21080
L26840 21080
" />
<path d="M26550 21220
L26720 20720
L26880 21220
" />
<path d="M26980 20720
L27270 20720
" />
<path d="M27120 21220
L27120 20720
" />
<path d="M27430 20960
L27600 20960
" />
<path d="M27670 21220
L27430 21220
L27430 20720
L27670 20720
" />
</g>
<g style="fill:#840000; fill-opacity:0.0; 
stroke:#840000; stroke-width:60; stroke-opacity:1; 
stroke-linecap:round; stroke-linejoin:round;">
<text x="28500" y="20900"
textLength="540" font-size="660" lengthAdjust="spacingAndGlyphs"
text-anchor="middle" opacity="0">2</text>
<path d="M28350 20420
L28380 20400
L28420 20370
L28540 20370
L28590 20400
L28610 20420
L28640 20470
L28640 20510
L28610 20590
L28330 20870
L28640 20870
" />
<path d="M24500 27500
L24500 28500
" />
</g>
<g style="fill:#008484; fill-opacity:0.0; 
stroke:#008484; stroke-width:60; stroke-opacity:1; 
stroke-linecap:round; stroke-linejoin:round;">
<g transform="rotate(-90 24500 27300)">
<text x="24500" y="27550"
textLength="1580" font-size="660" lengthAdjust="spacingAndGlyphs"
text-anchor="start" opacity="0">GND</text>
</g>
<path d="M24250 26880
L24220 26930
L24220 27000
L24250 27070
L24290 27120
L24340 27150
L24440 27170
L24510 27170
L24600 27150
L24650 27120
L24700 27070
L24720 27000
L24720 26960
L24700 26880
L24670 26860
L24510 26860
L24510 26960
" />
<path d="M24720 26650
L24220 26650
L24720 26360
L24220 26360
" />
<path d="M24720 26120
L24220 26120
L24220 26000
L24250 25930
L24290 25880
L24340 25860
L24440 25840
L24510 25840
L24600 25860
L24650 25880
L24700 25930
L24720 26000
L24720 26120
" />
</g>
<g style="fill:#840000; fill-opacity:0.0; 
stroke:#840000; stroke-width:60; stroke-opacity:1; 
stroke-linecap:round; stroke-linejoin:round;">
<g transform="rotate(-90 24400 28000)">
<text x="24400" y="28000"
textLength="540" font-size="660" lengthAdjust="spacingAndGlyphs"
text-anchor="middle" opacity="0">3</text>
</g>
<path d="M23870 28160
L23870 27850
L24060 28020
L24060 27950
L24090 27900
L24110 27880
L24160 27850
L24280 27850
L24320 27880
L24350 27900
L24370 27950
L24370 28090
L24350 28140
L24320 28160
" />
<path d="M28000 23000
L29000 23000
" />
</g>
<g style="fill:#008484; fill-opacity:0.0; 
stroke:#008484; stroke-width:60; stroke-opacity:1; 
stroke-linecap:round; stroke-linejoin:round;">
<text x="27800" y="23250"
textLength="1040" font-size="660" lengthAdjust="spacingAndGlyphs"
text-anchor="end" opacity="0">CS</text>
<path d="M27190 23170
L27170 23200
L27100 23220
L27050 23220
L26980 23200
L26930 23150
L26910 23100
L26880 23010
L26880 22940
L26910 22840
L26930 22790
L26980 22750
L27050 22720
L27100 22720
L27170 22750
L27190 22770
" />
<path d="M27380 23200
L27460 23220
L27570 23220
L27620 23200
L27650 23170
L27670 23130
L27670 23080
L27650 23030
L27620 23010
L27570 22980
L27480 22960
L27430 22940
L27410 22910
L27380 22860
L27380 22820
L27410 22770
L27430 22750
L27480 22720
L27600 22720
L27670 22750
" />
</g>
<g style="fill:#840000; fill-opacity:0.0; 
stroke:#840000; stroke-width:60; stroke-opacity:1; 
stroke-linecap:round; stroke-linejoin:round;">
<text x="28500" y="22900"
textLength="540" font-size="660" lengthAdjust="spacingAndGlyphs"
text-anchor="middle" opacity="0">4</text>
<path d="M28590 22540
L28590 22870
" />
<path d="M28470 22350
L28350 22700
L28660 22700
" />
<path d="M28000 27000
L29000 27000
" />
</g>
<g style="fill:#008484; fill-opacity:0.0; 
stroke:#008484; stroke-width:60; stroke-opacity:1; 
stroke-linecap:round; stroke-linejoin:round;">
<text x="27800" y="27250"
textLength="990" font-size="660" lengthAdjust="spacingAndGlyphs"
text-anchor="end" opacity="0">FB</text>
<path d="M27120 26960
L26960 26960
" />
<path d="M26960 27220
L26960 26720
L27190 26720
" />
<path d="M27550 26960
L27620 26980
L27650 27010
L27670 27050
L27670 27130
L27650 27170
L27620 27200
L27570 27220
L27380 27220
L27380 26720
L27550 26720
L27600 26750
L27620 26770
L27650 26820
L27650 26860
L27620 26910
L27600 26940
L27550 26960
L27380 26960
" />
</g>
<g style="fill:#840000; fill-opacity:0.0; 
stroke:#840000; stroke-width:60; stroke-opacity:1; 
stroke-linecap:round; stroke-linejoin:round;">
<text x="28500" y="26900"
textLength="540" font-size="660" lengthAdjust="spacingAndGlyphs"
text-anchor="middle" opacity="0">5</text>
<path d="M28610 26370
L28380 26370
L28350 26610
L28380 26590
L28420 26560
L28540 26560
L28590 26590
L28610 26610
L28640 26660
L28640 26780
L28610 26820
L28590 26850
L28540 26870
L28420 26870
L28380 26850
L28350 26820
" />
<path d="M21000 25000
L20000 25000
" />
</g>
<g style="fill:#008484; fill-opacity:0.0; 
stroke:#008484; stroke-width:60; stroke-opacity:1; 
stroke-linecap:round; stroke-linejoin:round;">
<text x="21200" y="25250"
textLength="2160" font-size="660" lengthAdjust="spacingAndGlyphs"
text-anchor="start" opacity="0">COMP</text>
<path d="M21630 25170
L21610 25200
L21530 25220
L21490 25220
L21420 25200
L21370 25150
L21340 25100
L21320 25010
L21320 24940
L21340 24840
L21370 24790
L21420 24750
L21490 24720
L21530 24720
L21610 24750
L21630 24770
" />
<path d="M21940 24720
L22030 24720
L22080 24750
L22130 24790
L22150 24890
L22150 25050
L22130 25150
L22080 25200
L22030 25220
L21940 25220
L21890 25200
L21840 25150
L21820 25050
L21820 24890
L21840 24790
L21890 24750
L21940 24720
" />
<path d="M22370 25220
L22370 24720
L22530 25080
L22700 24720
L22700 25220
" />
<path d="M22940 25220
L22940 24720
L23130 24720
L23180 24750
L23200 24770
L23230 24820
L23230 24890
L23200 24940
L23180 24960
L23130 24980
L22940 24980
" />
</g>
<g style="fill:#840000; fill-opacity:0.0; 
stroke:#840000; stroke-width:60; stroke-opacity:1; 
stroke-linecap:round; stroke-linejoin:round;">
<text x="20500" y="24900"
textLength="540" font-size="660" lengthAdjust="spacingAndGlyphs"
text-anchor="middle" opacity="0">6</text>
<path d="M20590 24370
L20500 24370
L20450 24400
L20420 24420
L20380 24490
L20350 24590
L20350 24780
L20380 24820
L20400 24850
L20450 24870
L20540 24870
L20590 24850
L20610 24820
L20640 24780
L20640 24660
L20610 24610
L20590 24590
L20540 24560
L20450 24560
L20400 24590
L20380 24610
L20350 24660
" />
<path d="M28000 25000
L29000 25000
" />
</g>
<g style="fill:#008484; fill-opacity:0.0; 
stroke:#008484; stroke-width:60; stroke-opacity:1; 
stroke-linecap:round; stroke-linejoin:round;">
<text x="27800" y="25250"
textLength="1510" font-size="660" lengthAdjust="spacingAndGlyphs"
text-anchor="end" opacity="0">OVP</text>
<path d="M26530 24720
L26620 24720
L26670 24750
L26720 24790
L26740 24890
L26740 25050
L26720 25150
L26670 25200
L26620 25220
L26530 25220
L26480 25200
L26430 25150
L26410 25050
L26410 24890
L26430 24790
L26480 24750
L26530 24720
" />
<path d="M26880 24720
L27050 25220
L27220 24720
" />
<path d="M27380 25220
L27380 24720
L27570 24720
L27620 24750
L27650 24770
L27670 24820
L27670 24890
L27650 24940
L27620 24960
L27570 24980
L27380 24980
" />
</g>
<g style="fill:#840000; fill-opacity:0.0; 
stroke:#840000; stroke-width:60; stroke-opacity:1; 
stroke-linecap:round; stroke-linejoin:round;">
<text x="28500" y="24900"
textLength="540" font-size="660" lengthAdjust="spacingAndGlyphs"
text-anchor="middle" opacity="0">7</text>
<path d="M28330 24370
L28660 24370
L28450 24870
" />
<path d="M21000 22500
L20000 22500
" />
</g>
<g style="fill:#008484; fill-opacity:0.0; 
stroke:#008484; stroke-width:60; stroke-opacity:1; 
stroke-linecap:round; stroke-linejoin:round;">
<text x="21200" y="22750"
textLength="1700" font-size="660" lengthAdjust="spacingAndGlyphs"
text-anchor="start" opacity="0">PWM</text>
<path d="M21340 22720
L21340 22220
L21530 22220
L21580 22250
L21610 22270
L21630 22320
L21630 22390
L21610 22440
L21580 22460
L21530 22480
L21340 22480
" />
<path d="M21800 22220
L21920 22720
L22010 22360
L22110 22720
L22230 22220
" />
<path d="M22420 22720
L22420 22220
L22580 22580
L22750 22220
L22750 22720
" />
</g>
<g style="fill:#840000; fill-opacity:0.0; 
stroke:#840000; stroke-width:60; stroke-opacity:1; 
stroke-linecap:round; stroke-linejoin:round;">
<text x="20500" y="22400"
textLength="540" font-size="660" lengthAdjust="spacingAndGlyphs"
text-anchor="middle" opacity="0">8</text>
<path d="M20450 22090
L20400 22060
L20380 22040
L20350 21990
L20350 21970
L20380 21920
L20400 21900
L20450 21870
L20540 21870
L20590 21900
L20610 21920
L20640 21970
L20640 21990
L20610 22040
L20590 22060
L20540 22090
L20450 22090
L20400 22110
L20380 22130
L20350 22180
L20350 22280
L20380 22320
L20400 22350
L20450 22370
L20540 22370
L20590 22350
L20610 22320
L20640 22280
L20640 22180
L20610 22130
L20590 22110
L20540 22090
" />
</g>
<g style="fill:#008484; fill-opacity:0.0; 
stroke:#008484; stroke-width:60; stroke-opacity:1; 
stroke-linecap:round; stroke-linejoin:round;">
<text x="21500" y="19770"
textLength="1060" font-size="660" lengthAdjust="spacingAndGlyphs"
text-anchor="middle" opacity="0">U1</text>
<path d="M21110 19240
L21110 19650
L21140 19690
L21160 19720
L21210 19740
L21300 19740
L21350 19720
L21380 19690
L21400 19650
L21400 19240
" />
<path d="M21900 19740
L21610 19740
" />
<path d="M21760 19740
L21760 19240
L21710 19310
L21660 19360
L21610 19380
" />
<text x="22000" y="28270"
textLength="2800" font-size="660" lengthAdjust="spacingAndGlyphs"
text-anchor="middle" opacity="0">AL8853</text>
<path d="M20720 28100
L20960 28100
" />
<path d="M20670 28240
L20840 27740
L21010 28240
" />
<path d="M21410 28240
L21170 28240
L21170 27740
" />
<path d="M21650 27960
L21600 27930
L21580 27910
L21550 27860
L21550 27840
L21580 27790
L21600 27770
L21650 27740
L21750 27740
L21790 27770
L21820 27790
L21840 27840
L21840 27860
L21820 27910
L21790 27930
L21750 27960
L21650 27960
L21600 27980
L21580 28000
L21550 28050
L21550 28150
L21580 28190
L21600 28220
L21650 28240
L21750 28240
L21790 28220
L21820 28190
L21840 28150
L21840 28050
L21820 28000
L21790 27980
L21750 27960
" />
<path d="M22130 27960
L22080 27930
L22050 27910
L22030 27860
L22030 27840
L22050 27790
L22080 27770
L22130 27740
L22220 27740
L22270 27770
L22290 27790
L22320 27840
L22320 27860
L22290 27910
L22270 27930
L22220 27960
L22130 27960
L22080 27980
L22050 28000
L22030 28050
L22030 28150
L22050 28190
L22080 28220
L22130 28240
L22220 28240
L22270 28220
L22290 28190
L22320 28150
L22320 28050
L22290 28000
L22270 27980
L22220 27960
" />
<path d="M22770 27740
L22530 27740
L22510 27980
L22530 27960
L22580 27930
L22700 27930
L22750 27960
L22770 27980
L22790 28030
L22790 28150
L22770 28190
L22750 28220
L22700 28240
L22580 28240
L22530 28220
L22510 28190
" />
<path d="M22960 27740
L23270 27740
L23100 27930
L23170 27930
L23220 27960
L23250 27980
L23270 28030
L23270 28150
L23250 28190
L23220 28220
L23170 28240
L23030 28240
L22980 28220
L22960 28190
" />
</g>
</g>
<g style="fill:#008484; fill-opacity:0.0; 
stroke:#008484; stroke-width:0; stroke-opacity:1; 
stroke-linecap:round; stroke-linejoin:round;">
<g >
</g>
<g style="fill:#840000; fill-opacity:0.0; 
stroke:#840000; stroke-width:0; stroke-opacity:1; 
stroke-linecap:round; stroke-linejoin:round;">
</g>
<g style="fill:#840000; fill-opacity:0.0; 
stroke:#840000; stroke-width:60; stroke-opacity:1; 
stroke-linecap:round; stroke-linejoin:round;">
<rect x="21700" y="13100" width="200" height="1800" rx="0" />
</g>
<g style="fill:#840000; fill-opacity:1.0; 
stroke:#840000; stroke-width:60; stroke-opacity:1; 
stroke-linecap:round; stroke-linejoin:round;">
<rect x="21100" y="13100" width="200" height="1800" rx="0" />
</g>
<g style="fill:#840000; fill-opacity:0.0; 
stroke:#840000; stroke-width:60; stroke-opacity:1; 
stroke-linecap:round; stroke-linejoin:round;">
<path style="fill:#840000; fill-opacity:0.0; 
stroke:#840000; stroke-width:60; stroke-opacity:1; 
stroke-linecap:round; stroke-linejoin:round;fill:none"
d="M 22400,13300
22400,13700
" /> 
<path style="fill:#840000; fill-opacity:0.0; 
stroke:#840000; stroke-width:60; stroke-opacity:1; 
stroke-linecap:round; stroke-linejoin:round;fill:none"
d="M 22600,13500
22200,13500
" /> 
<path d="M21900 14000
L23000 14000
" />
<path d="M21100 14000
L20000 14000
" />
</g>
<g style="fill:#008484; fill-opacity:0.0; 
stroke:#008484; stroke-width:60; stroke-opacity:1; 
stroke-linecap:round; stroke-linejoin:round;">
<text x="21500" y="11720"
textLength="1040" font-size="660" lengthAdjust="spacingAndGlyphs"
text-anchor="middle" opacity="0">C1</text>
<path d="M21410 11640
L21390 11670
L21320 11690
L21270 11690
L21200 11670
L21150 11620
L21130 11570
L21100 11480
L21100 11410
L21130 11310
L21150 11260
L21200 11220
L21270 11190
L21320 11190
L21390 11220
L21410 11240
" />
<path d="M21890 11690
L21600 11690
" />
<path d="M21750 11690
L21750 11190
L21700 11260
L21650 11310
L21600 11330
" />
<text x="21500" y="12630"
textLength="2130" font-size="660" lengthAdjust="spacingAndGlyphs"
text-anchor="middle" opacity="0">4.7uF</text>
<path d="M20790 12270
L20790 12600
" />
<path d="M20670 12080
L20550 12430
L20860 12430
" />
<path d="M21050 12550
L21080 12580
L21050 12600
L21030 12580
L21050 12550
L21050 12600
" />
<path d="M21250 12100
L21580 12100
L21360 12600
" />
<path d="M21980 12270
L21980 12600
" />
<path d="M21770 12270
L21770 12530
L21790 12580
L21840 12600
L21910 12600
L21960 12580
L21980 12550
" />
<path d="M22390 12340
L22220 12340
" />
<path d="M22220 12600
L22220 12100
L22460 12100
" />
</g>
</g>
<g style="fill:#008484; fill-opacity:0.0; 
stroke:#008484; stroke-width:0; stroke-opacity:1; 
stroke-linecap:round; stroke-linejoin:round;">
<g >
</g>
<g style="fill:#840000; fill-opacity:0.0; 
stroke:#840000; stroke-width:0; stroke-opacity:1; 
stroke-linecap:round; stroke-linejoin:round;">
</g>
<g style="fill:#840000; fill-opacity:0.0; 
stroke:#840000; stroke-width:100; stroke-opacity:1; 
stroke-linecap:round; stroke-linejoin:round;">
<rect x="16000" y="22100" width="2000" height="800" rx="0" />
</g>
<g style="fill:#840000; fill-opacity:0.0; 
stroke:#840000; stroke-width:60; stroke-opacity:1; 
stroke-linecap:round; stroke-linejoin:round;">
<path d="M18000 22500
L18500 22500
" />
<path d="M16000 22500
L15500 22500
" />
</g>
<g style="fill:#008484; fill-opacity:0.0; 
stroke:#008484; stroke-width:60; stroke-opacity:1; 
stroke-linecap:round; stroke-linejoin:round;">
<text x="17000" y="21770"
textLength="1040" font-size="660" lengthAdjust="spacingAndGlyphs"
text-anchor="middle" opacity="0">R1</text>
<path d="M16910 21740
L16750 21500
" />
<path d="M16630 21740
L16630 21240
L16820 21240
L16860 21270
L16890 21290
L16910 21340
L16910 21410
L16890 21460
L16860 21480
L16820 21500
L16630 21500
" />
<path d="M17390 21740
L17100 21740
" />
<path d="M17250 21740
L17250 21240
L17200 21310
L17150 21360
L17100 21380
" />
<text x="17000" y="23770"
textLength="1420" font-size="660" lengthAdjust="spacingAndGlyphs"
text-anchor="middle" opacity="0">10k</text>
<path d="M16700 23740
L16410 23740
" />
<path d="M16550 23740
L16550 23240
L16510 23310
L16460 23360
L16410 23380
" />
<path d="M17010 23240
L17050 23240
L17100 23270
L17130 23290
L17150 23340
L17170 23430
L17170 23550
L17150 23650
L17130 23690
L17100 23720
L17050 23740
L17010 23740
L16960 23720
L16940 23690
L16910 23650
L16890 23550
L16890 23430
L16910 23340
L16940 23290
L16960 23270
L17010 23240
" />
<path d="M17390 23740
L17390 23240
" />
<path d="M17440 23550
L17580 23740
" />
<path d="M17580 23410
L17390 23600
" />
</g>
</g>
<g style="fill:#008484; fill-opacity:0.0; 
stroke:#008484; stroke-width:0; stroke-opacity:1; 
stroke-linecap:round; stroke-linejoin:round;">
<g >
</g>
<g style="fill:#840000; fill-opacity:0.0; 
stroke:#840000; stroke-width:0; stroke-opacity:1; 
stroke-linecap:round; stroke-linejoin:round;">
</g>
<g style="fill:#840000; fill-opacity:0.0; 
stroke:#840000; stroke-width:60; stroke-opacity:1; 
stroke-linecap:round; stroke-linejoin:round;">
<path style="fill:#840000; fill-opacity:0.0; 
stroke:#840000; stroke-width:60; stroke-opacity:1; 
stroke-linecap:round; stroke-linejoin:round;fill:none"
d="M 60500,34500
60500,35000
61000,35000
60500,35500
60000,35000
60500,35000
" /> 
</g>
<g style="fill:#008484; fill-opacity:0.0; 
stroke:#008484; stroke-width:60; stroke-opacity:1; 
stroke-linecap:round; stroke-linejoin:round;">
<text x="60550" y="36500"
textLength="1580" font-size="660" lengthAdjust="spacingAndGlyphs"
text-anchor="middle" opacity="0">GND</text>
<path d="M60160 36000
L60120 35970
L60050 35970
L59970 36000
L59930 36040
L59900 36090
L59880 36190
L59880 36260
L59900 36350
L59930 36400
L59970 36450
L60050 36470
L60090 36470
L60160 36450
L60190 36420
L60190 36260
L60090 36260
" />
<path d="M60400 36470
L60400 35970
L60690 36470
L60690 35970
" />
<path d="M60930 36470
L60930 35970
L61050 35970
L61120 36000
L61160 36040
L61190 36090
L61210 36190
L61210 36260
L61190 36350
L61160 36400
L61120 36450
L61050 36470
L60930 36470
" />
</g>
</g>
<g style="fill:#008484; fill-opacity:0.0; 
stroke:#008484; stroke-width:0; stroke-opacity:1; 
stroke-linecap:round; stroke-linejoin:round;">
<g >
</g>
<g style="fill:#840000; fill-opacity:0.0; 
stroke:#840000; stroke-width:0; stroke-opacity:1; 
stroke-linecap:round; stroke-linejoin:round;">
</g>
<g style="fill:#840000; fill-opacity:0.0; 
stroke:#840000; stroke-width:60; stroke-opacity:1; 
stroke-linecap:round; stroke-linejoin:round;">
<path style="fill:#840000; fill-opacity:0.0; 
stroke:#840000; stroke-width:60; stroke-opacity:1; 
stroke-linecap:round; stroke-linejoin:round;fill:none"
d="M 48000,23000
48000,23500
48500,23500
48000,24000
47500,23500
48000,23500
" /> 
</g>
<g style="fill:#008484; fill-opacity:0.0; 
stroke:#008484; stroke-width:60; stroke-opacity:1; 
stroke-linecap:round; stroke-linejoin:round;">
<text x="48050" y="25000"
textLength="1580" font-size="660" lengthAdjust="spacingAndGlyphs"
text-anchor="middle" opacity="0">GND</text>
<path d="M47660 24500
L47620 24470
L47550 24470
L47470 24500
L47430 24540
L47400 24590
L47380 24690
L47380 24760
L47400 24850
L47430 24900
L47470 24950
L47550 24970
L47590 24970
L47660 24950
L47690 24920
L47690 24760
L47590 24760
" />
<path d="M47900 24970
L47900 24470
L48190 24970
L48190 24470
" />
<path d="M48430 24970
L48430 24470
L48550 24470
L48620 24500
L48660 24540
L48690 24590
L48710 24690
L48710 24760
L48690 24850
L48660 24900
L48620 24950
L48550 24970
L48430 24970
" />
</g>
</g>
<g style="fill:#008484; fill-opacity:0.0; 
stroke:#008484; stroke-width:0; stroke-opacity:1; 
stroke-linecap:round; stroke-linejoin:round;">
<g >
</g>
<g style="fill:#840000; fill-opacity:0.0; 
stroke:#840000; stroke-width:0; stroke-opacity:1; 
stroke-linecap:round; stroke-linejoin:round;">
</g>
<g style="fill:#840000; fill-opacity:0.0; 
stroke:#840000; stroke-width:60; stroke-opacity:1; 
stroke-linecap:round; stroke-linejoin:round;">
<path style="fill:#840000; fill-opacity:0.0; 
stroke:#840000; stroke-width:60; stroke-opacity:1; 
stroke-linecap:round; stroke-linejoin:round;fill:none"
d="M 43000,28000
43000,28500
43500,28500
43000,29000
42500,28500
43000,28500
" /> 
</g>
<g style="fill:#008484; fill-opacity:0.0; 
stroke:#008484; stroke-width:60; stroke-opacity:1; 
stroke-linecap:round; stroke-linejoin:round;">
<text x="43050" y="30000"
textLength="1580" font-size="660" lengthAdjust="spacingAndGlyphs"
text-anchor="middle" opacity="0">GND</text>
<path d="M42660 29500
L42620 29470
L42550 29470
L42470 29500
L42430 29540
L42400 29590
L42380 29690
L42380 29760
L42400 29850
L42430 29900
L42470 29950
L42550 29970
L42590 29970
L42660 29950
L42690 29920
L42690 29760
L42590 29760
" />
<path d="M42900 29970
L42900 29470
L43190 29970
L43190 29470
" />
<path d="M43430 29970
L43430 29470
L43550 29470
L43620 29500
L43660 29540
L43690 29590
L43710 29690
L43710 29760
L43690 29850
L43660 29900
L43620 29950
L43550 29970
L43430 29970
" />
</g>
</g>
<g style="fill:#008484; fill-opacity:0.0; 
stroke:#008484; stroke-width:0; stroke-opacity:1; 
stroke-linecap:round; stroke-linejoin:round;">
<g >
</g>
<g style="fill:#840000; fill-opacity:0.0; 
stroke:#840000; stroke-width:0; stroke-opacity:1; 
stroke-linecap:round; stroke-linejoin:round;">
</g>
<g style="fill:#840000; fill-opacity:0.0; 
stroke:#840000; stroke-width:100; stroke-opacity:1; 
stroke-linecap:round; stroke-linejoin:round;">
<path style="fill:#840000; fill-opacity:0.0; 
stroke:#840000; stroke-width:100; stroke-opacity:1; 
stroke-linecap:round; stroke-linejoin:round;fill:none"
d="M 40000,17500
40000,16500
" /> 
</g>
<g style="fill:#840000; fill-opacity:0.0; 
stroke:#840000; stroke-width:60; stroke-opacity:1; 
stroke-linecap:round; stroke-linejoin:round;">
<path style="fill:#840000; fill-opacity:0.0; 
stroke:#840000; stroke-width:60; stroke-opacity:1; 
stroke-linecap:round; stroke-linejoin:round;fill:none"
d="M 39000,17000
40000,17000
" /> 
</g>
<g style="fill:#840000; fill-opacity:0.0; 
stroke:#840000; stroke-width:100; stroke-opacity:1; 
stroke-linecap:round; stroke-linejoin:round;">
<path style="fill:#840000; fill-opacity:0.0; 
stroke:#840000; stroke-width:100; stroke-opacity:1; 
stroke-linecap:round; stroke-linejoin:round;fill:none"
d="M 39000,17500
39000,16500
40000,17000
Z" /> 
</g>
<g style="fill:#840000; fill-opacity:0.0; 
stroke:#840000; stroke-width:60; stroke-opacity:1; 
stroke-linecap:round; stroke-linejoin:round;">
<path d="M40000 17000
L41000 17000
" />
<path d="M39000 17000
L38000 17000
" />
</g>
<g style="fill:#008484; fill-opacity:0.0; 
stroke:#008484; stroke-width:60; stroke-opacity:1; 
stroke-linecap:round; stroke-linejoin:round;">
<text x="39500" y="15050"
textLength="1040" font-size="660" lengthAdjust="spacingAndGlyphs"
text-anchor="middle" opacity="0">D2</text>
<path d="M39130 15020
L39130 14520
L39250 14520
L39320 14550
L39360 14590
L39390 14640
L39410 14740
L39410 14810
L39390 14900
L39360 14950
L39320 15000
L39250 15020
L39130 15020
" />
<path d="M39600 14570
L39630 14550
L39670 14520
L39790 14520
L39840 14550
L39860 14570
L39890 14620
L39890 14660
L39860 14740
L39580 15020
L39890 15020
" />
<text x="39490" y="15960"
textLength="7730" font-size="660" lengthAdjust="spacingAndGlyphs"
text-anchor="middle" opacity="0">PMEG045V100EPDAZ</text>
<path d="M35770 15930
L35770 15430
L35960 15430
L36010 15460
L36030 15480
L36060 15530
L36060 15600
L36030 15650
L36010 15670
L35960 15690
L35770 15690
" />
<path d="M36270 15930
L36270 15430
L36440 15790
L36600 15430
L36600 15930
" />
<path d="M36840 15670
L37010 15670
" />
<path d="M37080 15930
L36840 15930
L36840 15430
L37080 15430
" />
<path d="M37560 15460
L37510 15430
L37440 15430
L37370 15460
L37320 15500
L37290 15550
L37270 15650
L37270 15720
L37290 15810
L37320 15860
L37370 15910
L37440 15930
L37490 15930
L37560 15910
L37580 15880
L37580 15720
L37490 15720
" />
<path d="M37890 15430
L37940 15430
L37990 15460
L38010 15480
L38030 15530
L38060 15620
L38060 15740
L38030 15840
L38010 15880
L37990 15910
L37940 15930
L37890 15930
L37840 15910
L37820 15880
L37790 15840
L37770 15740
L37770 15620
L37790 15530
L37820 15480
L37840 15460
L37890 15430
" />
<path d="M38490 15600
L38490 15930
" />
<path d="M38370 15410
L38250 15760
L38560 15760
" />
<path d="M38990 15430
L38750 15430
L38720 15670
L38750 15650
L38790 15620
L38910 15620
L38960 15650
L38990 15670
L39010 15720
L39010 15840
L38990 15880
L38960 15910
L38910 15930
L38790 15930
L38750 15910
L38720 15880
" />
<path d="M39150 15430
L39320 15930
L39490 15430
" />
<path d="M39910 15930
L39630 15930
" />
<path d="M39770 15930
L39770 15430
L39720 15500
L39680 15550
L39630 15570
" />
<path d="M40220 15430
L40270 15430
L40320 15460
L40340 15480
L40370 15530
L40390 15620
L40390 15740
L40370 15840
L40340 15880
L40320 15910
L40270 15930
L40220 15930
L40180 15910
L40150 15880
L40130 15840
L40100 15740
L40100 15620
L40130 15530
L40150 15480
L40180 15460
L40220 15430
" />
<path d="M40700 15430
L40750 15430
L40790 15460
L40820 15480
L40840 15530
L40870 15620
L40870 15740
L40840 15840
L40820 15880
L40790 15910
L40750 15930
L40700 15930
L40650 15910
L40630 15880
L40600 15840
L40580 15740
L40580 15620
L40600 15530
L40630 15480
L40650 15460
L40700 15430
" />
<path d="M41080 15670
L41250 15670
" />
<path d="M41320 15930
L41080 15930
L41080 15430
L41320 15430
" />
<path d="M41530 15930
L41530 15430
L41720 15430
L41770 15460
L41790 15480
L41820 15530
L41820 15600
L41790 15650
L41770 15670
L41720 15690
L41530 15690
" />
<path d="M42030 15930
L42030 15430
L42150 15430
L42220 15460
L42270 15500
L42290 15550
L42320 15650
L42320 15720
L42290 15810
L42270 15860
L42220 15910
L42150 15930
L42030 15930
" />
<path d="M42510 15790
L42750 15790
" />
<path d="M42460 15930
L42630 15430
L42790 15930
" />
<path d="M42910 15430
L43250 15430
L42910 15930
L43250 15930
" />
</g>
</g>
<g style="fill:#008484; fill-opacity:0.0; 
stroke:#008484; stroke-width:0; stroke-opacity:1; 
stroke-linecap:round; stroke-linejoin:round;">
<g >
</g>
<g style="fill:#840000; fill-opacity:0.0; 
stroke:#840000; stroke-width:0; stroke-opacity:1; 
stroke-linecap:round; stroke-linejoin:round;">
</g>
<g style="fill:#840000; fill-opacity:0.0; 
stroke:#840000; stroke-width:100; stroke-opacity:1; 
stroke-linecap:round; stroke-linejoin:round;">
<circle cx="34150" cy="21000" r="1100" /> 
</g>
<g style="fill:#840000; fill-opacity:1.0; 
stroke:#840000; stroke-width:60; stroke-opacity:1; 
stroke-linecap:round; stroke-linejoin:round;">
<circle cx="34500" cy="21700" r="100" /> 
<circle cx="34500" cy="20300" r="100" /> 
</g>
<g style="fill:#840000; fill-opacity:0.0; 
stroke:#840000; stroke-width:60; stroke-opacity:1; 
stroke-linecap:round; stroke-linejoin:round;">
<path style="fill:#840000; fill-opacity:0.0; 
stroke:#840000; stroke-width:60; stroke-opacity:1; 
stroke-linecap:round; stroke-linejoin:round;fill:none"
d="M 33600,21000
32500,21000
" /> 
</g>
<g style="fill:#840000; fill-opacity:0.0; 
stroke:#840000; stroke-width:100; stroke-opacity:1; 
stroke-linecap:round; stroke-linejoin:round;">
<path style="fill:#840000; fill-opacity:0.0; 
stroke:#840000; stroke-width:100; stroke-opacity:1; 
stroke-linecap:round; stroke-linejoin:round;fill:none"
d="M 33600,20250
33600,21750
" /> 
<path style="fill:#840000; fill-opacity:0.0; 
stroke:#840000; stroke-width:100; stroke-opacity:1; 
stroke-linecap:round; stroke-linejoin:round;fill:none"
d="M 33800,21500
33800,21900
" /> 
<path style="fill:#840000; fill-opacity:0.0; 
stroke:#840000; stroke-width:100; stroke-opacity:1; 
stroke-linecap:round; stroke-linejoin:round;fill:none"
d="M 33800,20800
33800,21200
" /> 
<path style="fill:#840000; fill-opacity:0.0; 
stroke:#840000; stroke-width:100; stroke-opacity:1; 
stroke-linecap:round; stroke-linejoin:round;fill:none"
d="M 33800,20100
33800,20500
" /> 
</g>
<g style="fill:#840000; fill-opacity:0.0; 
stroke:#840000; stroke-width:60; stroke-opacity:1; 
stroke-linecap:round; stroke-linejoin:round;">
<path style="fill:#840000; fill-opacity:0.0; 
stroke:#840000; stroke-width:60; stroke-opacity:1; 
stroke-linecap:round; stroke-linejoin:round;fill:none"
d="M 34500,20000
34500,20300
" /> 
<path style="fill:#840000; fill-opacity:0.0; 
stroke:#840000; stroke-width:60; stroke-opacity:1; 
stroke-linecap:round; stroke-linejoin:round;fill:none"
d="M 34500,22000
34500,21000
33800,21000
" /> 
<path style="fill:#840000; fill-opacity:0.0; 
stroke:#840000; stroke-width:60; stroke-opacity:1; 
stroke-linecap:round; stroke-linejoin:round;fill:none"
d="M 33800,21700
34800,21700
34800,20300
33800,20300
" /> 
</g>
<g style="fill:#840000; fill-opacity:1.0; 
stroke:#840000; stroke-width:60; stroke-opacity:1; 
stroke-linecap:round; stroke-linejoin:round;">
<path style="fill:#840000; fill-opacity:1.0; 
stroke:#840000; stroke-width:60; stroke-opacity:1; 
stroke-linecap:round; stroke-linejoin:round;fill-rule:evenodd;"
d="M 33900,21000
34300,20850
34300,21150
Z" /> 
</g>
<g style="fill:#840000; fill-opacity:0.0; 
stroke:#840000; stroke-width:60; stroke-opacity:1; 
stroke-linecap:round; stroke-linejoin:round;">
<path style="fill:#840000; fill-opacity:0.0; 
stroke:#840000; stroke-width:60; stroke-opacity:1; 
stroke-linecap:round; stroke-linejoin:round;fill:none"
d="M 34600,20800
34650,20850
34950,20850
35000,20900
" /> 
<path style="fill:#840000; fill-opacity:0.0; 
stroke:#840000; stroke-width:60; stroke-opacity:1; 
stroke-linecap:round; stroke-linejoin:round;fill:none"
d="M 34800,20850
34650,21100
34950,21100
Z" /> 
<path d="M32500 21000
L31500 21000
" />
<text x="32000" y="21600"
textLength="540" font-size="660" lengthAdjust="spacingAndGlyphs"
text-anchor="middle" opacity="0">1</text>
<path d="M32140 21570
L31850 21570
" />
<path d="M32000 21570
L32000 21070
L31950 21140
L31900 21190
L31850 21210
" />
<path d="M34500 20000
L34500 19000
" />
<g transform="rotate(-90 34600 19500)">
<text x="34600" y="20000"
textLength="540" font-size="660" lengthAdjust="spacingAndGlyphs"
text-anchor="middle" opacity="0">2</text>
</g>
<path d="M34620 19640
L34600 19610
L34570 19570
L34570 19450
L34600 19400
L34620 19380
L34670 19350
L34710 19350
L34790 19380
L35070 19660
L35070 19350
" />
<path d="M34500 22000
L34500 23000
" />
<g transform="rotate(-90 34600 22500)">
<text x="34600" y="23000"
textLength="540" font-size="660" lengthAdjust="spacingAndGlyphs"
text-anchor="middle" opacity="0">3</text>
</g>
<path d="M34570 22660
L34570 22350
L34760 22520
L34760 22450
L34790 22400
L34810 22380
L34860 22350
L34980 22350
L35020 22380
L35050 22400
L35070 22450
L35070 22590
L35050 22640
L35020 22660
" />
</g>
<g style="fill:#008484; fill-opacity:0.0; 
stroke:#008484; stroke-width:60; stroke-opacity:1; 
stroke-linecap:round; stroke-linejoin:round;">
<text x="36070" y="20810"
textLength="1060" font-size="660" lengthAdjust="spacingAndGlyphs"
text-anchor="middle" opacity="0">Q1</text>
<path d="M36020 20830
L35970 20810
L35920 20760
L35850 20690
L35800 20660
L35760 20660
" />
<path d="M35780 20780
L35730 20760
L35680 20710
L35660 20610
L35660 20450
L35680 20350
L35730 20310
L35780 20280
L35870 20280
L35920 20310
L35970 20350
L35990 20450
L35990 20610
L35970 20710
L35920 20760
L35870 20780
L35780 20780
" />
<path d="M36470 20780
L36180 20780
" />
<path d="M36330 20780
L36330 20280
L36280 20350
L36230 20400
L36180 20420
" />
<text x="38510" y="21720"
textLength="5940" font-size="660" lengthAdjust="spacingAndGlyphs"
text-anchor="middle" opacity="0">DMTH43M8LK3Q</text>
<path d="M35680 21690
L35680 21190
L35800 21190
L35870 21220
L35920 21260
L35950 21310
L35970 21410
L35970 21480
L35950 21570
L35920 21620
L35870 21670
L35800 21690
L35680 21690
" />
<path d="M36180 21690
L36180 21190
L36350 21550
L36520 21190
L36520 21690
" />
<path d="M36680 21190
L36970 21190
" />
<path d="M36830 21690
L36830 21190
" />
<path d="M37140 21690
L37140 21190
" />
<path d="M37140 21430
L37420 21430
" />
<path d="M37420 21690
L37420 21190
" />
<path d="M37870 21360
L37870 21690
" />
<path d="M37760 21170
L37640 21520
L37950 21520
" />
<path d="M38090 21190
L38400 21190
L38230 21380
L38300 21380
L38350 21410
L38370 21430
L38400 21480
L38400 21600
L38370 21640
L38350 21670
L38300 21690
L38160 21690
L38110 21670
L38090 21640
" />
<path d="M38610 21690
L38610 21190
L38780 21550
L38950 21190
L38950 21690
" />
<path d="M39260 21410
L39210 21380
L39180 21360
L39160 21310
L39160 21290
L39180 21240
L39210 21220
L39260 21190
L39350 21190
L39400 21220
L39420 21240
L39450 21290
L39450 21310
L39420 21360
L39400 21380
L39350 21410
L39260 21410
L39210 21430
L39180 21450
L39160 21500
L39160 21600
L39180 21640
L39210 21670
L39260 21690
L39350 21690
L39400 21670
L39420 21640
L39450 21600
L39450 21500
L39420 21450
L39400 21430
L39350 21410
" />
<path d="M39900 21690
L39660 21690
L39660 21190
" />
<path d="M40060 21690
L40060 21190
" />
<path d="M40350 21690
L40140 21410
" />
<path d="M40350 21190
L40060 21480
" />
<path d="M40520 21190
L40830 21190
L40660 21380
L40730 21380
L40780 21410
L40800 21430
L40830 21480
L40830 21600
L40800 21640
L40780 21670
L40730 21690
L40590 21690
L40540 21670
L40520 21640
" />
<path d="M41370 21740
L41330 21720
L41280 21670
L41210 21600
L41160 21570
L41110 21570
" />
<path d="M41140 21690
L41090 21670
L41040 21620
L41020 21520
L41020 21360
L41040 21260
L41090 21220
L41140 21190
L41230 21190
L41280 21220
L41330 21260
L41350 21360
L41350 21520
L41330 21620
L41280 21670
L41230 21690
L41140 21690
" />
</g>
</g>
<g style="fill:#008484; fill-opacity:0.0; 
stroke:#008484; stroke-width:0; stroke-opacity:1; 
stroke-linecap:round; stroke-linejoin:round;">
<g >
</g>
<g style="fill:#840000; fill-opacity:0.0; 
stroke:#840000; stroke-width:0; stroke-opacity:1; 
stroke-linecap:round; stroke-linejoin:round;">
</g>
<g style="fill:#840000; fill-opacity:0.0; 
stroke:#840000; stroke-width:100; stroke-opacity:1; 
stroke-linecap:round; stroke-linejoin:round;">
<rect x="42600" y="19000" width="800" height="2000" rx="0" />
</g>
<g style="fill:#840000; fill-opacity:0.0; 
stroke:#840000; stroke-width:60; stroke-opacity:1; 
stroke-linecap:round; stroke-linejoin:round;">
<path d="M43000 21000
L43000 21500
" />
<path d="M43000 19000
L43000 18500
" />
</g>
<g style="fill:#008484; fill-opacity:0.0; 
stroke:#008484; stroke-width:60; stroke-opacity:1; 
stroke-linecap:round; stroke-linejoin:round;">
<text x="44000" y="19720"
textLength="1040" font-size="660" lengthAdjust="spacingAndGlyphs"
text-anchor="middle" opacity="0">R4</text>
<path d="M43910 19690
L43750 19450
" />
<path d="M43630 19690
L43630 19190
L43820 19190
L43860 19220
L43890 19240
L43910 19290
L43910 19360
L43890 19410
L43860 19430
L43820 19450
L43630 19450
" />
<path d="M44340 19360
L44340 19690
" />
<path d="M44220 19170
L44100 19520
L44410 19520
" />
<text x="44490" y="20720"
textLength="1890" font-size="660" lengthAdjust="spacingAndGlyphs"
text-anchor="middle" opacity="0">150k</text>
<path d="M43950 20690
L43660 20690
" />
<path d="M43810 20690
L43810 20190
L43760 20260
L43710 20310
L43660 20330
" />
<path d="M44400 20190
L44160 20190
L44140 20430
L44160 20410
L44210 20380
L44330 20380
L44380 20410
L44400 20430
L44430 20480
L44430 20600
L44400 20640
L44380 20670
L44330 20690
L44210 20690
L44160 20670
L44140 20640
" />
<path d="M44740 20190
L44780 20190
L44830 20220
L44850 20240
L44880 20290
L44900 20380
L44900 20500
L44880 20600
L44850 20640
L44830 20670
L44780 20690
L44740 20690
L44690 20670
L44660 20640
L44640 20600
L44620 20500
L44620 20380
L44640 20290
L44660 20240
L44690 20220
L44740 20190
" />
<path d="M45120 20690
L45120 20190
" />
<path d="M45160 20500
L45310 20690
" />
<path d="M45310 20360
L45120 20550
" />
</g>
</g>
<g style="fill:#008484; fill-opacity:0.0; 
stroke:#008484; stroke-width:0; stroke-opacity:1; 
stroke-linecap:round; stroke-linejoin:round;">
<g >
</g>
<g style="fill:#840000; fill-opacity:0.0; 
stroke:#840000; stroke-width:0; stroke-opacity:1; 
stroke-linecap:round; stroke-linejoin:round;">
</g>
<g style="fill:#840000; fill-opacity:0.0; 
stroke:#840000; stroke-width:100; stroke-opacity:1; 
stroke-linecap:round; stroke-linejoin:round;">
<rect x="42600" y="25000" width="800" height="2000" rx="0" />
</g>
<g style="fill:#840000; fill-opacity:0.0; 
stroke:#840000; stroke-width:60; stroke-opacity:1; 
stroke-linecap:round; stroke-linejoin:round;">
<path d="M43000 27000
L43000 27500
" />
<path d="M43000 25000
L43000 24500
" />
</g>
<g style="fill:#008484; fill-opacity:0.0; 
stroke:#008484; stroke-width:60; stroke-opacity:1; 
stroke-linecap:round; stroke-linejoin:round;">
<text x="43980" y="25720"
textLength="1040" font-size="660" lengthAdjust="spacingAndGlyphs"
text-anchor="middle" opacity="0">R5</text>
<path d="M43890 25690
L43730 25450
" />
<path d="M43610 25690
L43610 25190
L43800 25190
L43840 25220
L43870 25240
L43890 25290
L43890 25360
L43870 25410
L43840 25430
L43800 25450
L43610 25450
" />
<path d="M44340 25190
L44110 25190
L44080 25430
L44110 25410
L44150 25380
L44270 25380
L44320 25410
L44340 25430
L44370 25480
L44370 25600
L44340 25640
L44320 25670
L44270 25690
L44150 25690
L44110 25670
L44080 25640
" />
<text x="44290" y="26720"
textLength="1420" font-size="660" lengthAdjust="spacingAndGlyphs"
text-anchor="middle" opacity="0">10k</text>
<path d="M43990 26690
L43700 26690
" />
<path d="M43840 26690
L43840 26190
L43800 26260
L43750 26310
L43700 26330
" />
<path d="M44300 26190
L44340 26190
L44390 26220
L44420 26240
L44440 26290
L44460 26380
L44460 26500
L44440 26600
L44420 26640
L44390 26670
L44340 26690
L44300 26690
L44250 26670
L44230 26640
L44200 26600
L44180 26500
L44180 26380
L44200 26290
L44230 26240
L44250 26220
L44300 26190
" />
<path d="M44680 26690
L44680 26190
" />
<path d="M44730 26500
L44870 26690
" />
<path d="M44870 26360
L44680 26550
" />
</g>
</g>
<g style="fill:#008484; fill-opacity:0.0; 
stroke:#008484; stroke-width:0; stroke-opacity:1; 
stroke-linecap:round; stroke-linejoin:round;">
<g >
</g>
<g style="fill:#840000; fill-opacity:0.0; 
stroke:#840000; stroke-width:0; stroke-opacity:1; 
stroke-linecap:round; stroke-linejoin:round;">
</g>
<g style="fill:#840000; fill-opacity:0.0; 
stroke:#840000; stroke-width:60; stroke-opacity:1; 
stroke-linecap:round; stroke-linejoin:round;">
<rect x="47100" y="19600" width="1800" height="200" rx="0" />
</g>
<g style="fill:#840000; fill-opacity:1.0; 
stroke:#840000; stroke-width:60; stroke-opacity:1; 
stroke-linecap:round; stroke-linejoin:round;">
<rect x="47100" y="20200" width="1800" height="200" rx="0" />
</g>
<g style="fill:#840000; fill-opacity:0.0; 
stroke:#840000; stroke-width:60; stroke-opacity:1; 
stroke-linecap:round; stroke-linejoin:round;">
<path style="fill:#840000; fill-opacity:0.0; 
stroke:#840000; stroke-width:60; stroke-opacity:1; 
stroke-linecap:round; stroke-linejoin:round;fill:none"
d="M 47300,19100
47700,19100
" /> 
<path style="fill:#840000; fill-opacity:0.0; 
stroke:#840000; stroke-width:60; stroke-opacity:1; 
stroke-linecap:round; stroke-linejoin:round;fill:none"
d="M 47500,18900
47500,19300
" /> 
<path d="M48000 19600
L48000 18500
" />
<path d="M48000 20400
L48000 21500
" />
</g>
<g style="fill:#008484; fill-opacity:0.0; 
stroke:#008484; stroke-width:60; stroke-opacity:1; 
stroke-linecap:round; stroke-linejoin:round;">
<text x="49700" y="19810"
textLength="1040" font-size="660" lengthAdjust="spacingAndGlyphs"
text-anchor="middle" opacity="0">C3</text>
<path d="M49610 19730
L49590 19760
L49520 19780
L49470 19780
L49400 19760
L49350 19710
L49330 19660
L49300 19570
L49300 19500
L49330 19400
L49350 19350
L49400 19310
L49470 19280
L49520 19280
L49590 19310
L49610 19330
" />
<path d="M49780 19280
L50090 19280
L49920 19470
L49990 19470
L50040 19500
L50060 19520
L50090 19570
L50090 19690
L50060 19730
L50040 19760
L49990 19780
L49850 19780
L49800 19760
L49780 19730
" />
<text x="50600" y="20720"
textLength="2850" font-size="660" lengthAdjust="spacingAndGlyphs"
text-anchor="middle" opacity="0">1000uF</text>
<path d="M49580 20690
L49300 20690
" />
<path d="M49440 20690
L49440 20190
L49390 20260
L49350 20310
L49300 20330
" />
<path d="M49890 20190
L49940 20190
L49990 20220
L50010 20240
L50040 20290
L50060 20380
L50060 20500
L50040 20600
L50010 20640
L49990 20670
L49940 20690
L49890 20690
L49850 20670
L49820 20640
L49800 20600
L49770 20500
L49770 20380
L49800 20290
L49820 20240
L49850 20220
L49890 20190
" />
<path d="M50370 20190
L50420 20190
L50460 20220
L50490 20240
L50510 20290
L50540 20380
L50540 20500
L50510 20600
L50490 20640
L50460 20670
L50420 20690
L50370 20690
L50320 20670
L50300 20640
L50270 20600
L50250 20500
L50250 20380
L50270 20290
L50300 20240
L50320 20220
L50370 20190
" />
<path d="M50850 20190
L50890 20190
L50940 20220
L50960 20240
L50990 20290
L51010 20380
L51010 20500
L50990 20600
L50960 20640
L50940 20670
L50890 20690
L50850 20690
L50800 20670
L50770 20640
L50750 20600
L50730 20500
L50730 20380
L50750 20290
L50770 20240
L50800 20220
L50850 20190
" />
<path d="M51440 20360
L51440 20690
" />
<path d="M51230 20360
L51230 20620
L51250 20670
L51300 20690
L51370 20690
L51420 20670
L51440 20640
" />
<path d="M51850 20430
L51680 20430
" />
<path d="M51680 20690
L51680 20190
L51920 20190
" />
</g>
</g>
<g style="fill:#008484; fill-opacity:0.0; 
stroke:#008484; stroke-width:0; stroke-opacity:1; 
stroke-linecap:round; stroke-linejoin:round;">
<g >
</g>
<g style="fill:#840000; fill-opacity:0.0; 
stroke:#840000; stroke-width:0; stroke-opacity:1; 
stroke-linecap:round; stroke-linejoin:round;">
</g>
<g style="fill:#840000; fill-opacity:0.0; 
stroke:#840000; stroke-width:200; stroke-opacity:1; 
stroke-linecap:round; stroke-linejoin:round;">
<path style="fill:#840000; fill-opacity:0.0; 
stroke:#840000; stroke-width:200; stroke-opacity:1; 
stroke-linecap:round; stroke-linejoin:round;fill:none"
d="M 16200,27800
17800,27800
" /> 
<path style="fill:#840000; fill-opacity:0.0; 
stroke:#840000; stroke-width:200; stroke-opacity:1; 
stroke-linecap:round; stroke-linejoin:round;fill:none"
d="M 16200,27200
17800,27200
" /> 
</g>
<g style="fill:#840000; fill-opacity:0.0; 
stroke:#840000; stroke-width:60; stroke-opacity:1; 
stroke-linecap:round; stroke-linejoin:round;">
<path d="M17000 27100
L17000 26000
" />
<path d="M17000 27900
L17000 29000
" />
</g>
<g style="fill:#008484; fill-opacity:0.0; 
stroke:#008484; stroke-width:60; stroke-opacity:1; 
stroke-linecap:round; stroke-linejoin:round;">
<text x="14520" y="27270"
textLength="1040" font-size="660" lengthAdjust="spacingAndGlyphs"
text-anchor="middle" opacity="0">C2</text>
<path d="M14430 27190
L14410 27220
L14340 27240
L14290 27240
L14220 27220
L14170 27170
L14150 27120
L14120 27030
L14120 26960
L14150 26860
L14170 26810
L14220 26770
L14290 26740
L14340 26740
L14410 26770
L14430 26790
" />
<path d="M14620 26790
L14650 26770
L14690 26740
L14810 26740
L14860 26770
L14880 26790
L14910 26840
L14910 26880
L14880 26960
L14600 27240
L14910 27240
" />
<text x="14680" y="28270"
textLength="2370" font-size="660" lengthAdjust="spacingAndGlyphs"
text-anchor="middle" opacity="0">100nF</text>
<path d="M13900 28240
L13620 28240
" />
<path d="M13760 28240
L13760 27740
L13710 27810
L13660 27860
L13620 27880
" />
<path d="M14210 27740
L14260 27740
L14310 27770
L14330 27790
L14350 27840
L14380 27930
L14380 28050
L14350 28150
L14330 28190
L14310 28220
L14260 28240
L14210 28240
L14160 28220
L14140 28190
L14120 28150
L14090 28050
L14090 27930
L14120 27840
L14140 27790
L14160 27770
L14210 27740
" />
<path d="M14690 27740
L14730 27740
L14780 27770
L14810 27790
L14830 27840
L14850 27930
L14850 28050
L14830 28150
L14810 28190
L14780 28220
L14730 28240
L14690 28240
L14640 28220
L14620 28190
L14590 28150
L14570 28050
L14570 27930
L14590 27840
L14620 27790
L14640 27770
L14690 27740
" />
<path d="M15070 27910
L15070 28240
" />
<path d="M15070 27960
L15090 27930
L15140 27910
L15210 27910
L15260 27930
L15280 27980
L15280 28240
" />
<path d="M15690 27980
L15520 27980
" />
<path d="M15520 28240
L15520 27740
L15760 27740
" />
</g>
</g>
<g style="fill:#008484; fill-opacity:0.0; 
stroke:#008484; stroke-width:0; stroke-opacity:1; 
stroke-linecap:round; stroke-linejoin:round;">
<g >
</g>
<g style="fill:#840000; fill-opacity:0.0; 
stroke:#840000; stroke-width:0; stroke-opacity:1; 
stroke-linecap:round; stroke-linejoin:round;">
</g>
<g style="fill:#840000; fill-opacity:0.0; 
stroke:#840000; stroke-width:60; stroke-opacity:1; 
stroke-linecap:round; stroke-linejoin:round;">
<path style="fill:#840000; fill-opacity:0.0; 
stroke:#840000; stroke-width:60; stroke-opacity:1; 
stroke-linecap:round; stroke-linejoin:round;fill:none"
d="M 24500,31000
24500,31500
25000,31500
24500,32000
24000,31500
24500,31500
" /> 
</g>
<g style="fill:#008484; fill-opacity:0.0; 
stroke:#008484; stroke-width:60; stroke-opacity:1; 
stroke-linecap:round; stroke-linejoin:round;">
<text x="24550" y="33000"
textLength="1580" font-size="660" lengthAdjust="spacingAndGlyphs"
text-anchor="middle" opacity="0">GND</text>
<path d="M24160 32500
L24120 32470
L24050 32470
L23970 32500
L23930 32540
L23900 32590
L23880 32690
L23880 32760
L23900 32850
L23930 32900
L23970 32950
L24050 32970
L24090 32970
L24160 32950
L24190 32920
L24190 32760
L24090 32760
" />
<path d="M24400 32970
L24400 32470
L24690 32970
L24690 32470
" />
<path d="M24930 32970
L24930 32470
L25050 32470
L25120 32500
L25160 32540
L25190 32590
L25210 32690
L25210 32760
L25190 32850
L25160 32900
L25120 32950
L25050 32970
L24930 32970
" />
</g>
</g>
<g style="fill:#008484; fill-opacity:0.0; 
stroke:#008484; stroke-width:0; stroke-opacity:1; 
stroke-linecap:round; stroke-linejoin:round;">
<g >
</g>
<g style="fill:#840000; fill-opacity:0.0; 
stroke:#840000; stroke-width:0; stroke-opacity:1; 
stroke-linecap:round; stroke-linejoin:round;">
</g>
<g style="fill:#840000; fill-opacity:0.0; 
stroke:#840000; stroke-width:100; stroke-opacity:1; 
stroke-linecap:round; stroke-linejoin:round;">
<rect x="34100" y="24500" width="800" height="2000" rx="0" />
</g>
<g style="fill:#840000; fill-opacity:0.0; 
stroke:#840000; stroke-width:60; stroke-opacity:1; 
stroke-linecap:round; stroke-linejoin:round;">
<path d="M34500 26500
L34500 27000
" />
<path d="M34500 24500
L34500 24000
" />
</g>
<g style="fill:#008484; fill-opacity:0.0; 
stroke:#008484; stroke-width:60; stroke-opacity:1; 
stroke-linecap:round; stroke-linejoin:round;">
<text x="36000" y="25220"
textLength="1040" font-size="660" lengthAdjust="spacingAndGlyphs"
text-anchor="middle" opacity="0">R3</text>
<path d="M35910 25190
L35750 24950
" />
<path d="M35630 25190
L35630 24690
L35820 24690
L35860 24720
L35890 24740
L35910 24790
L35910 24860
L35890 24910
L35860 24930
L35820 24950
L35630 24950
" />
<path d="M36080 24690
L36390 24690
L36220 24880
L36290 24880
L36340 24910
L36360 24930
L36390 24980
L36390 25100
L36360 25140
L36340 25170
L36290 25190
L36150 25190
L36100 25170
L36080 25140
" />
<text x="36000" y="26220"
textLength="1680" font-size="660" lengthAdjust="spacingAndGlyphs"
text-anchor="middle" opacity="0">60m</text>
<path d="M35520 25690
L35420 25690
L35380 25720
L35350 25740
L35300 25810
L35280 25910
L35280 26100
L35300 26140
L35330 26170
L35380 26190
L35470 26190
L35520 26170
L35540 26140
L35570 26100
L35570 25980
L35540 25930
L35520 25910
L35470 25880
L35380 25880
L35330 25910
L35300 25930
L35280 25980
" />
<path d="M35880 25690
L35920 25690
L35970 25720
L36000 25740
L36020 25790
L36040 25880
L36040 26000
L36020 26100
L36000 26140
L35970 26170
L35920 26190
L35880 26190
L35830 26170
L35800 26140
L35780 26100
L35760 26000
L35760 25880
L35780 25790
L35800 25740
L35830 25720
L35880 25690
" />
<path d="M36260 26190
L36260 25860
" />
<path d="M36260 25910
L36280 25880
L36330 25860
L36400 25860
L36450 25880
L36470 25930
L36470 26190
" />
<path d="M36470 25930
L36500 25880
L36540 25860
L36610 25860
L36660 25880
L36690 25930
L36690 26190
" />
</g>
</g>
<g style="fill:#008484; fill-opacity:0.0; 
stroke:#008484; stroke-width:0; stroke-opacity:1; 
stroke-linecap:round; stroke-linejoin:round;">
<g >
</g>
<g style="fill:#840000; fill-opacity:0.0; 
stroke:#840000; stroke-width:0; stroke-opacity:1; 
stroke-linecap:round; stroke-linejoin:round;">
</g>
<g style="fill:#840000; fill-opacity:0.0; 
stroke:#840000; stroke-width:100; stroke-opacity:1; 
stroke-linecap:round; stroke-linejoin:round;">
<rect x="60100" y="31500" width="800" height="2000" rx="0" />
</g>
<g style="fill:#840000; fill-opacity:0.0; 
stroke:#840000; stroke-width:60; stroke-opacity:1; 
stroke-linecap:round; stroke-linejoin:round;">
<path d="M60500 33500
L60500 34000
" />
<path d="M60500 31500
L60500 31000
" />
</g>
<g style="fill:#008484; fill-opacity:0.0; 
stroke:#008484; stroke-width:60; stroke-opacity:1; 
stroke-linecap:round; stroke-linejoin:round;">
<text x="62000" y="32220"
textLength="1040" font-size="660" lengthAdjust="spacingAndGlyphs"
text-anchor="middle" opacity="0">R6</text>
<path d="M61910 32190
L61750 31950
" />
<path d="M61630 32190
L61630 31690
L61820 31690
L61860 31720
L61890 31740
L61910 31790
L61910 31860
L61890 31910
L61860 31930
L61820 31950
L61630 31950
" />
<path d="M62340 31690
L62250 31690
L62200 31720
L62170 31740
L62130 31810
L62100 31910
L62100 32100
L62130 32140
L62150 32170
L62200 32190
L62290 32190
L62340 32170
L62360 32140
L62390 32100
L62390 31980
L62360 31930
L62340 31910
L62290 31880
L62200 31880
L62150 31910
L62130 31930
L62100 31980
" />
<text x="62420" y="33220"
textLength="2160" font-size="660" lengthAdjust="spacingAndGlyphs"
text-anchor="middle" opacity="0">220m</text>
<path d="M61460 32740
L61490 32720
L61530 32690
L61650 32690
L61700 32720
L61720 32740
L61750 32790
L61750 32830
L61720 32910
L61440 33190
L61750 33190
" />
<path d="M61940 32740
L61960 32720
L62010 32690
L62130 32690
L62180 32720
L62200 32740
L62220 32790
L62220 32830
L62200 32910
L61920 33190
L62220 33190
" />
<path d="M62530 32690
L62580 32690
L62630 32720
L62650 32740
L62680 32790
L62700 32880
L62700 33000
L62680 33100
L62650 33140
L62630 33170
L62580 33190
L62530 33190
L62490 33170
L62460 33140
L62440 33100
L62420 33000
L62420 32880
L62440 32790
L62460 32740
L62490 32720
L62530 32690
" />
<path d="M62920 33190
L62920 32860
" />
<path d="M62920 32910
L62940 32880
L62990 32860
L63060 32860
L63110 32880
L63130 32930
L63130 33190
" />
<path d="M63130 32930
L63150 32880
L63200 32860
L63270 32860
L63320 32880
L63340 32930
L63340 33190
" />
</g>
</g>
<g style="fill:#008484; fill-opacity:0.0; 
stroke:#008484; stroke-width:0; stroke-opacity:1; 
stroke-linecap:round; stroke-linejoin:round;">
<g >
</g>
<g style="fill:#840000; fill-opacity:0.0; 
stroke:#840000; stroke-width:0; stroke-opacity:1; 
stroke-linecap:round; stroke-linejoin:round;">
</g>
<g style="fill:#840000; fill-opacity:0.0; 
stroke:#840000; stroke-width:60; stroke-opacity:1; 
stroke-linecap:round; stroke-linejoin:round;">
<path style="fill:#840000; fill-opacity:0.0; 
stroke:#840000; stroke-width:60; stroke-opacity:1; 
stroke-linecap:round; stroke-linejoin:round;fill:none"
d="M 17000,30000
17000,30500
17500,30500
17000,31000
16500,30500
17000,30500
" /> 
</g>
<g style="fill:#008484; fill-opacity:0.0; 
stroke:#008484; stroke-width:60; stroke-opacity:1; 
stroke-linecap:round; stroke-linejoin:round;">
<text x="17050" y="32000"
textLength="1580" font-size="660" lengthAdjust="spacingAndGlyphs"
text-anchor="middle" opacity="0">GND</text>
<path d="M16660 31500
L16620 31470
L16550 31470
L16470 31500
L16430 31540
L16400 31590
L16380 31690
L16380 31760
L16400 31850
L16430 31900
L16470 31950
L16550 31970
L16590 31970
L16660 31950
L16690 31920
L16690 31760
L16590 31760
" />
<path d="M16900 31970
L16900 31470
L17190 31970
L17190 31470
" />
<path d="M17430 31970
L17430 31470
L17550 31470
L17620 31500
L17660 31540
L17690 31590
L17710 31690
L17710 31760
L17690 31850
L17660 31900
L17620 31950
L17550 31970
L17430 31970
" />
</g>
</g>
<g style="fill:#008484; fill-opacity:0.0; 
stroke:#008484; stroke-width:0; stroke-opacity:1; 
stroke-linecap:round; stroke-linejoin:round;">
<g >
</g>
<g style="fill:#840000; fill-opacity:0.0; 
stroke:#840000; stroke-width:0; stroke-opacity:1; 
stroke-linecap:round; stroke-linejoin:round;">
</g>
<g style="fill:#840000; fill-opacity:0.0; 
stroke:#840000; stroke-width:60; stroke-opacity:1; 
stroke-linecap:round; stroke-linejoin:round;">
<path style="fill:#840000; fill-opacity:0.0; 
stroke:#840000; stroke-width:60; stroke-opacity:1; 
stroke-linecap:round; stroke-linejoin:round;fill:none"
d="M 34500,28000
34500,28500
35000,28500
34500,29000
34000,28500
34500,28500
" /> 
</g>
<g style="fill:#008484; fill-opacity:0.0; 
stroke:#008484; stroke-width:60; stroke-opacity:1; 
stroke-linecap:round; stroke-linejoin:round;">
<text x="34550" y="30000"
textLength="1580" font-size="660" lengthAdjust="spacingAndGlyphs"
text-anchor="middle" opacity="0">GND</text>
<path d="M34160 29500
L34120 29470
L34050 29470
L33970 29500
L33930 29540
L33900 29590
L33880 29690
L33880 29760
L33900 29850
L33930 29900
L33970 29950
L34050 29970
L34090 29970
L34160 29950
L34190 29920
L34190 29760
L34090 29760
" />
<path d="M34400 29970
L34400 29470
L34690 29970
L34690 29470
" />
<path d="M34930 29970
L34930 29470
L35050 29470
L35120 29500
L35160 29540
L35190 29590
L35210 29690
L35210 29760
L35190 29850
L35160 29900
L35120 29950
L35050 29970
L34930 29970
" />
</g>
</g>
<g style="fill:#008484; fill-opacity:0.0; 
stroke:#008484; stroke-width:60; stroke-opacity:1; 
stroke-linecap:round; stroke-linejoin:round;">
</g>
<g style="fill:#0000C2; fill-opacity:0.0; 
stroke:#0000C2; stroke-width:60; stroke-opacity:1; 
stroke-linecap:round; stroke-linejoin:round;">
</g>
<g style="fill:#0000C2; fill-opacity:0.0; 
stroke:#0000C2; stroke-width:60; stroke-opacity:1; 
stroke-linecap:round; stroke-linejoin:round;stroke-dasharray:150,150;">
<path d="M53500 29500
L64000 29500
" />
</g>
<g style="fill:#0000C2; fill-opacity:0.0; 
stroke:#0000C2; stroke-width:60; stroke-opacity:1; 
stroke-linecap:round; stroke-linejoin:round;">
</g>
<g style="fill:#0000C2; fill-opacity:0.0; 
stroke:#0000C2; stroke-width:60; stroke-opacity:1; 
stroke-linecap:round; stroke-linejoin:round;stroke-dasharray:150,150;">
<path d="M53500 16000
L53500 29500
" />
</g>
<g style="fill:#0000C2; fill-opacity:0.0; 
stroke:#0000C2; stroke-width:60; stroke-opacity:1; 
stroke-linecap:round; stroke-linejoin:round;">
</g>
<g style="fill:#0000C2; fill-opacity:0.0; 
stroke:#0000C2; stroke-width:60; stroke-opacity:1; 
stroke-linecap:round; stroke-linejoin:round;stroke-dasharray:150,150;">
<path d="M64000 16000
L53500 16000
" />
</g>
<g style="fill:#0000C2; fill-opacity:0.0; 
stroke:#0000C2; stroke-width:60; stroke-opacity:1; 
stroke-linecap:round; stroke-linejoin:round;">
</g>
<g style="fill:#0000C2; fill-opacity:0.0; 
stroke:#0000C2; stroke-width:60; stroke-opacity:1; 
stroke-linecap:round; stroke-linejoin:round;stroke-dasharray:150,150;">
<path d="M64000 29500
L64000 16000
" />
</g>
<g style="fill:#0000C2; fill-opacity:0.0; 
stroke:#0000C2; stroke-width:60; stroke-opacity:1; 
stroke-linecap:round; stroke-linejoin:round;">
</g>
<g style="fill:#008400; fill-opacity:0.0; 
stroke:#008400; stroke-width:60; stroke-opacity:1; 
stroke-linecap:round; stroke-linejoin:round;">
<path d="M23000 17000
L24500 17000
" />
<path d="M23000 14000
L23000 17000
" />
<path d="M19000 14000
L20000 14000
" />
<path d="M33000 23000
L33000 23500
" />
<path d="M24500 17000
L27500 17000
" />
<path d="M24500 19000
L24500 17000
" />
<path d="M14500 17000
L23000 17000
" />
<path d="M60500 17000
L60500 17500
" />
<path d="M55000 29000
L58500 29000
" />
<path d="M59000 30000
L60500 30000
" />
<path d="M60500 30000
L60500 31000
" />
<path d="M60500 34000
L60500 34500
" />
<path d="M58500 17000
L60500 17000
" />
<path d="M55000 17000
L55000 17500
" />
<path d="M60500 24500
L60500 25000
" />
<path d="M60500 20500
L60500 21500
" />
<path d="M58500 29000
L58500 17000
" />
<path d="M55000 28000
L55000 29000
" />
<path d="M55000 24500
L55000 25000
" />
<path d="M55000 20500
L55000 21500
" />
<path d="M60500 28000
L60500 30000
" />
<path d="M29000 23000
L33000 23000
" />
<path d="M48000 17000
L55000 17000
" />
<path d="M59000 32500
L30000 32500
" />
<path d="M33000 23500
L34500 23500
" />
<path d="M43000 23500
L43000 24500
" />
<path d="M39000 23500
L43000 23500
" />
<path d="M39000 31000
L39000 23500
" />
<path d="M31500 31000
L39000 31000
" />
<path d="M31500 25000
L31500 31000
" />
<path d="M29000 25000
L31500 25000
" />
<path d="M34500 27000
L34500 28000
" />
<path d="M34500 23500
L34500 24000
" />
<path d="M30000 27000
L30000 32500
" />
<path d="M34500 23000
L34500 23500
" />
<path d="M29000 21000
L31500 21000
" />
<path d="M17000 25000
L17000 26000
" />
<path d="M20000 25000
L17000 25000
" />
<path d="M15500 22500
L14500 22500
" />
<path d="M20000 22500
L18500 22500
" />
<path d="M24500 28500
L24500 31000
" />
<path d="M17000 29000
L17000 30000
" />
<path d="M43000 21500
L43000 23500
" />
<path d="M38000 17000
L34500 17000
" />
<path d="M34500 19000
L34500 17000
" />
<path d="M59000 32500
L59000 30000
" />
<path d="M29000 27000
L30000 27000
" />
<path d="M34500 17000
L30500 17000
" />
<path d="M41000 17000
L43000 17000
" />
<path d="M48000 21500
L48000 23000
" />
<path d="M48000 18500
L48000 17000
" />
<path d="M43000 18500
L43000 17000
" />
<path d="M43000 27500
L43000 28000
" />
<path d="M43000 17000
L48000 17000
" />
</g>
<g style="fill:#840000; fill-opacity:0.0; 
stroke:#840000; stroke-width:60; stroke-opacity:1; 
stroke-linecap:round; stroke-linejoin:round;">
<text x="14050" y="17390"
textLength="2620" font-size="1050" lengthAdjust="spacingAndGlyphs"
text-anchor="end" opacity="0">Vbat</text>
<path d="M11530 16560
L11800 17350
L12060 16560
" />
<path d="M12320 17350
L12320 16560
" />
<path d="M12320 16860
L12400 16830
L12550 16830
L12620 16860
L12660 16900
L12700 16980
L12700 17200
L12660 17280
L12620 17310
L12550 17350
L12400 17350
L12320 17310
" />
<path d="M13380 17350
L13380 16940
L13340 16860
L13260 16830
L13110 16830
L13040 16860
" />
<path d="M13380 17310
L13300 17350
L13110 17350
L13040 17310
L13000 17240
L13000 17160
L13040 17090
L13110 17050
L13300 17050
L13380 17010
" />
<path d="M13640 16830
L13940 16830
" />
<path d="M13750 16560
L13750 17240
L13790 17310
L13860 17350
L13940 17350
" />
</g>
<g style="fill:#840000; fill-opacity:0.0; 
stroke:#840000; stroke-width:100; stroke-opacity:1; 
stroke-linecap:round; stroke-linejoin:round;">
<path style="fill:#840000; fill-opacity:0.0; 
stroke:#840000; stroke-width:100; stroke-opacity:1; 
stroke-linecap:round; stroke-linejoin:round;fill:none"
d="M 14500,17000
14110,16360
11320,16360
11320,17000
11320,17640
14110,17640
Z" /> 
</g>
<g style="fill:#840000; fill-opacity:0.0; 
stroke:#840000; stroke-width:60; stroke-opacity:1; 
stroke-linecap:round; stroke-linejoin:round;">
<text x="14050" y="22890"
textLength="2660" font-size="1050" lengthAdjust="spacingAndGlyphs"
text-anchor="end" opacity="0">PWM</text>
<path d="M11610 22850
L11610 22060
L11910 22060
L11980 22100
L12020 22140
L12060 22210
L12060 22330
L12020 22400
L11980 22440
L11910 22480
L11610 22480
" />
<path d="M12320 22060
L12510 22850
L12660 22290
L12810 22850
L13000 22060
" />
<path d="M13300 22850
L13300 22060
L13560 22630
L13830 22060
L13830 22850
" />
</g>
<g style="fill:#840000; fill-opacity:0.0; 
stroke:#840000; stroke-width:100; stroke-opacity:1; 
stroke-linecap:round; stroke-linejoin:round;">
<path style="fill:#840000; fill-opacity:0.0; 
stroke:#840000; stroke-width:100; stroke-opacity:1; 
stroke-linecap:round; stroke-linejoin:round;fill:none"
d="M 14500,22500
14110,21860
11280,21860
11280,22500
11280,23140
14110,23140
Z" /> 
</g>
<g style="fill:#840000; fill-opacity:0.0; 
stroke:#840000; stroke-width:60; stroke-opacity:1; 
stroke-linecap:round; stroke-linejoin:round;">
</g>
<g style="fill:#0000C2; fill-opacity:0.0; 
stroke:#0000C2; stroke-width:60; stroke-opacity:1; 
stroke-linecap:round; stroke-linejoin:round;">
<text x="55500" y="15400"
textLength="7360" font-size="1570" lengthAdjust="spacingAndGlyphs"
text-anchor="start" opacity="0">UV LEDs</text>
<path d="M55810 14160
L55810 15110
L55860 15230
L55920 15280
L56030 15340
L56260 15340
L56370 15280
L56420 15230
L56480 15110
L56480 14160
" />
<path d="M56870 14160
L57270 15340
L57660 14160
" />
<path d="M59510 15340
L58950 15340
L58950 14160
" />
<path d="M59910 14720
L60300 14720
" />
<path d="M60470 15340
L59910 15340
L59910 14160
L60470 14160
" />
<path d="M60980 15340
L60980 14160
L61260 14160
L61430 14220
L61540 14330
L61590 14440
L61650 14660
L61650 14830
L61590 15060
L61540 15170
L61430 15280
L61260 15340
L60980 15340
" />
<path d="M62100 15280
L62210 15340
L62440 15340
L62550 15280
L62610 15170
L62610 15110
L62550 15000
L62440 14950
L62270 14950
L62160 14890
L62100 14780
L62100 14720
L62160 14610
L62270 14550
L62440 14550
L62550 14610
" />
</g>
<g style="fill:#0000C2; fill-opacity:0.0; 
stroke:#0000C2; stroke-width:0; stroke-opacity:1; 
stroke-linecap:round; stroke-linejoin:round;">
</g>
<g style="fill:#008400; fill-opacity:0.0; 
stroke:#008400; stroke-width:0; stroke-opacity:1; 
stroke-linecap:round; stroke-linejoin:round;">
</g>
<g style="fill:#008400; fill-opacity:1.0; 
stroke:#008400; stroke-width:100; stroke-opacity:1; 
stroke-linecap:round; stroke-linejoin:round;">
<circle cx="43000" cy="17000" r="200" /> 
</g>
<g style="fill:#008400; fill-opacity:1.0; 
stroke:#008400; stroke-width:0; stroke-opacity:1; 
stroke-linecap:round; stroke-linejoin:round;">
</g>
<g style="fill:#008400; fill-opacity:1.0; 
stroke:#008400; stroke-width:100; stroke-opacity:1; 
stroke-linecap:round; stroke-linejoin:round;">
<circle cx="24500" cy="17000" r="200" /> 
</g>
<g style="fill:#008400; fill-opacity:1.0; 
stroke:#008400; stroke-width:0; stroke-opacity:1; 
stroke-linecap:round; stroke-linejoin:round;">
</g>
<g style="fill:#008400; fill-opacity:1.0; 
stroke:#008400; stroke-width:100; stroke-opacity:1; 
stroke-linecap:round; stroke-linejoin:round;">
<circle cx="34500" cy="23500" r="200" /> 
</g>
<g style="fill:#008400; fill-opacity:1.0; 
stroke:#008400; stroke-width:0; stroke-opacity:1; 
stroke-linecap:round; stroke-linejoin:round;">
</g>
<g style="fill:#008400; fill-opacity:1.0; 
stroke:#008400; stroke-width:100; stroke-opacity:1; 
stroke-linecap:round; stroke-linejoin:round;">
<circle cx="23000" cy="17000" r="200" /> 
</g>
<g style="fill:#008400; fill-opacity:1.0; 
stroke:#008400; stroke-width:0; stroke-opacity:1; 
stroke-linecap:round; stroke-linejoin:round;">
</g>
<g style="fill:#008400; fill-opacity:1.0; 
stroke:#008400; stroke-width:100; stroke-opacity:1; 
stroke-linecap:round; stroke-linejoin:round;">
<circle cx="34500" cy="17000" r="200" /> 
</g>
<g style="fill:#008400; fill-opacity:1.0; 
stroke:#008400; stroke-width:0; stroke-opacity:1; 
stroke-linecap:round; stroke-linejoin:round;">
</g>
<g style="fill:#008400; fill-opacity:1.0; 
stroke:#008400; stroke-width:100; stroke-opacity:1; 
stroke-linecap:round; stroke-linejoin:round;">
<circle cx="48000" cy="17000" r="200" /> 
</g>
<g style="fill:#008400; fill-opacity:1.0; 
stroke:#008400; stroke-width:0; stroke-opacity:1; 
stroke-linecap:round; stroke-linejoin:round;">
</g>
<g style="fill:#008400; fill-opacity:1.0; 
stroke:#008400; stroke-width:100; stroke-opacity:1; 
stroke-linecap:round; stroke-linejoin:round;">
<circle cx="60500" cy="30000" r="200" /> 
</g>
<g style="fill:#008400; fill-opacity:1.0; 
stroke:#008400; stroke-width:0; stroke-opacity:1; 
stroke-linecap:round; stroke-linejoin:round;">
</g>
<g style="fill:#008400; fill-opacity:1.0; 
stroke:#008400; stroke-width:100; stroke-opacity:1; 
stroke-linecap:round; stroke-linejoin:round;">
<circle cx="43000" cy="23500" r="200" /> 
</g> 
</svg>
